<svg width="570" height="92" viewBox="0 0 570 92" fill="none" xmlns="http://www.w3.org/2000/svg">
<path d="M2.75 38V36.05H7.2V4.95H2.8V3H28.65V14.75H26.45L26.4 11.65C26.3 6.75 24.3 5.1 20.65 5.1H15.65C13.1 5.1 12 6.15 12 8.55V19.1H24.8V21.7H12V36.05H19.2V38H2.75ZM44.2504 38.65C38.5504 38.65 35.2004 35.25 35.2004 30.95V13.85H30.8004V11.9H36.6504C38.6004 11.9 39.6004 12.95 39.6004 14.75V30.6C39.6004 34.2 41.8004 36.3 45.1504 36.3H45.8504C49.5004 36.3 51.7004 34.2 51.7004 30.6V13.85H47.3004V11.9H53.1504C55.1004 11.9 56.1504 12.95 56.1004 14.75V36.05H60.5004V38H54.7004C53.1004 38 52.1004 37.3 51.8004 36C50.6004 37.6 48.2504 38.65 44.8504 38.65H44.2504ZM75.1211 38.8C70.2711 38.8 67.6711 36.1 67.6711 30.95V14.35H64.8211H62.1711V11.9H64.6211C67.9711 11.9 69.7711 9.85 70.0211 6.15L70.0711 5.35H72.0711V11.9H81.9211V14.35H75.0211H72.0711V30.6C72.0711 34.6 73.2711 36.3 75.8711 36.3C78.6711 36.3 79.8211 34.2 79.8211 30.05V26.45H81.9711V30.3C81.9711 37.1 78.8211 38.8 75.1211 38.8ZM98.7426 38.65C93.0426 38.65 89.6926 35.25 89.6926 30.95V13.85H85.2926V11.9H91.1426C93.0926 11.9 94.0926 12.95 94.0926 14.75V30.6C94.0926 34.2 96.2926 36.3 99.6426 36.3H100.343C103.993 36.3 106.193 34.2 106.193 30.6V13.85H101.793V11.9H107.643C109.593 11.9 110.643 12.95 110.593 14.75V36.05H114.993V38H109.193C107.593 38 106.593 37.3 106.293 36C105.093 37.6 102.743 38.65 99.3426 38.65H98.7426ZM118.3 38V36.05H122.7V13.85H118.8V11.9H124.15C125.7 11.9 126.65 12.55 127 13.75C128.2 12.35 130.5 11.1 133.05 11.1H133.5C138.15 11.1 141.4 14.5 141.4 19.25C141.4 22.25 140 23.4 138.35 23.4C136.75 23.4 135.7 22.3 135.7 21C135.7 19.5 136.6 19.1 136.6 17.4C136.6 14.9 135 13.6 132.8 13.6H132.45C129.15 13.6 127.1 15.75 127.1 19.1V36.05H133.75V38H118.3ZM157.504 38.8C150.104 38.8 144.304 33 144.304 25.1C144.304 17.4 150.154 11.1 156.604 11.1C162.854 11.1 167.304 16.75 167.304 23.45V24.95H149.704V28.45C149.704 33.8 153.204 36.6 157.704 36.6C162.054 36.6 165.254 34.1 165.254 28.3V27.95H167.354V28.8C167.354 34.5 164.004 38.8 157.504 38.8ZM149.704 22.75H162.454V19.4C162.454 16.05 160.204 13.25 156.454 13.25C152.654 13.25 149.704 16.15 149.704 21.6V22.75ZM197.848 4.4C198.348 2.75 198.998 2.2 200.348 2.2C201.498 2.2 202.348 2.7 202.798 4.25L212.798 36.05H215.748V38H203.698V36.05H207.348L204.298 26H193.848L190.948 36.05H195.998V38H186.048V36.05H188.498L197.848 4.4ZM194.548 23.4H203.498L198.848 8.35L194.548 23.4ZM217.959 38V36.05H222.359V13.85H218.459V11.9H223.809C225.359 11.9 226.309 12.55 226.659 13.75C227.859 12.35 230.159 11.1 232.709 11.1H233.159C237.809 11.1 241.059 14.5 241.059 19.25C241.059 22.25 239.659 23.4 238.009 23.4C236.409 23.4 235.359 22.3 235.359 21C235.359 19.5 236.259 19.1 236.259 17.4C236.259 14.9 234.659 13.6 232.459 13.6H232.109C228.809 13.6 226.759 15.75 226.759 19.1V36.05H233.409V38H217.959ZM255.492 38.8C250.642 38.8 248.042 36.1 248.042 30.95V14.35H245.192H242.542V11.9H244.992C248.342 11.9 250.142 9.85 250.392 6.15L250.442 5.35H252.442V11.9H262.292V14.35H255.392H252.442V30.6C252.442 34.6 253.642 36.3 256.242 36.3C259.042 36.3 260.192 34.2 260.192 30.05V26.45H262.342V30.3C262.342 37.1 259.192 38.8 255.492 38.8ZM282.145 38V36.05H286.545V4.95H282.145V3H308.295V14.75H306.095V11.25C306.095 7.25 303.995 5.1 300.395 5.1H294.895C292.345 5.1 291.245 6.3 291.245 9.15V18.65H304.145V21.25H291.245V30.3C291.245 33.65 293.345 35.9 296.945 35.9H300.795C304.145 35.9 306.345 33.75 306.345 30.15V25.1H308.545V38H282.145ZM326.872 38.8C320.272 38.8 314.322 33.1 314.322 25.2C314.322 17.3 320.122 11.1 326.922 11.1C330.722 11.1 333.372 11.9 335.972 13V21.8H333.822V21.3C333.822 15.9 331.272 13.2 326.872 13.2C322.872 13.2 319.722 15.8 319.722 21.4V28.4C319.722 33.95 323.022 36.65 327.172 36.65C331.122 36.65 334.272 33.8 334.272 28.15V27.95H336.322V28.65C336.322 35.5 331.572 38.8 326.872 38.8ZM354.559 38.8C348.309 38.8 342.009 32.3 342.009 25.2C342.009 17.5 348.259 11.1 354.609 11.1C360.959 11.1 367.209 17.6 367.209 24.7C367.209 32.35 360.959 38.8 354.559 38.8ZM354.759 36.6C358.559 36.6 361.759 34 361.759 28.4V21.5C361.759 15.9 358.559 13.3 354.459 13.3C350.659 13.3 347.459 15.9 347.459 21.5V28.4C347.459 34 350.659 36.6 354.759 36.6ZM382.707 38.8C380.157 38.8 376.307 37.85 373.307 36.7V27.95H375.407L375.457 29.8C375.557 34 378.557 36.55 382.857 36.55C386.657 36.55 388.707 34.55 388.707 31.5C388.707 29.45 387.757 28.2 385.507 27.75L379.457 26.55C375.757 25.8 373.807 23.2 373.807 19.4C373.807 15.65 376.057 11.1 382.757 11.1C385.457 11.1 387.857 11.6 391.507 12.65V21.8H389.407V20.4C389.407 15.05 386.807 13.35 382.557 13.35C379.007 13.35 377.107 15.3 377.107 18.05C377.107 19.7 377.957 20.95 380.057 21.4L386.307 22.7C389.607 23.4 392.007 25.15 392.007 29.7C392.007 35 389.207 38.8 382.707 38.8ZM409.425 38.25C408.375 38.25 407.725 37.8 407.325 36.8L398.375 13.8H396.425V11.85H407.525V13.8H403.475L410.875 33.35L418.325 13.8H412.925V11.85H423.925V13.8H420.875L411.825 37V39.5C411.825 45.5 408.375 47.5 404.325 47.5C399.525 47.5 396.425 45 396.425 39.1V36H398.625V38.8C398.625 43.1 400.525 45.4 404.325 45.4C407.775 45.4 409.625 43.4 409.625 39.6V38.25H409.425ZM435.734 38.8C433.184 38.8 429.334 37.85 426.334 36.7V27.95H428.434L428.484 29.8C428.584 34 431.584 36.55 435.884 36.55C439.684 36.55 441.734 34.55 441.734 31.5C441.734 29.45 440.784 28.2 438.534 27.75L432.484 26.55C428.784 25.8 426.834 23.2 426.834 19.4C426.834 15.65 429.084 11.1 435.784 11.1C438.484 11.1 440.884 11.6 444.534 12.65V21.8H442.434V20.4C442.434 15.05 439.834 13.35 435.584 13.35C432.034 13.35 430.134 15.3 430.134 18.05C430.134 19.7 430.984 20.95 433.084 21.4L439.334 22.7C442.634 23.4 445.034 25.15 445.034 29.7C445.034 35 442.234 38.8 435.734 38.8ZM461.303 38.8C456.453 38.8 453.853 36.1 453.853 30.95V14.35H451.003H448.353V11.9H450.803C454.153 11.9 455.953 9.85 456.203 6.15L456.253 5.35H458.253V11.9H468.103V14.35H461.203H458.253V30.6C458.253 34.6 459.453 36.3 462.053 36.3C464.853 36.3 466.003 34.2 466.003 30.05V26.45H468.153V30.3C468.153 37.1 465.003 38.8 461.303 38.8ZM485.58 38.8C478.18 38.8 472.38 33 472.38 25.1C472.38 17.4 478.23 11.1 484.68 11.1C490.93 11.1 495.38 16.75 495.38 23.45V24.95H477.78V28.45C477.78 33.8 481.28 36.6 485.78 36.6C490.13 36.6 493.33 34.1 493.33 28.3V27.95H495.43V28.8C495.43 34.5 492.08 38.8 485.58 38.8ZM477.78 22.75H490.53V19.4C490.53 16.05 488.28 13.25 484.53 13.25C480.73 13.25 477.78 16.15 477.78 21.6V22.75ZM499.502 38V36.05H503.902V13.85H500.052V11.9H505.402C506.852 11.95 507.702 12.5 508.102 13.5C509.552 12.05 511.852 11.1 514.352 11.1H514.752C517.952 11.1 520.802 12.55 522.402 14.95C523.702 12.7 526.452 11.1 529.752 11.1H530.252C535.302 11.1 539.102 14.3 539.102 19.35V36.05H543.502V38H530.252V36.05H534.702V18.95C534.702 15.45 532.702 13.5 529.152 13.5C525.702 13.5 523.702 15.55 523.702 18.9V36.05H528.102V38H514.902V36.05H519.302V18.8C519.302 15.4 517.252 13.5 513.802 13.5C510.352 13.5 508.302 15.5 508.302 18.7V36.05H512.702V38H499.502ZM557.072 38.8C554.522 38.8 550.672 37.85 547.672 36.7V27.95H549.772L549.822 29.8C549.922 34 552.922 36.55 557.222 36.55C561.022 36.55 563.072 34.55 563.072 31.5C563.072 29.45 562.122 28.2 559.872 27.75L553.822 26.55C550.122 25.8 548.172 23.2 548.172 19.4C548.172 15.65 550.422 11.1 557.122 11.1C559.822 11.1 562.222 11.6 565.872 12.65V21.8H563.772V20.4C563.772 15.05 561.172 13.35 556.922 13.35C553.372 13.35 551.472 15.3 551.472 18.05C551.472 19.7 552.322 20.95 554.422 21.4L560.672 22.7C563.972 23.4 566.372 25.15 566.372 29.7C566.372 35 563.572 38.8 557.072 38.8Z" fill="black"/>
<path d="M3.745 62.16C1.57 62.16 0.62 60.44 0.62 57.915C0.62 55.38 1.57 53.675 3.745 53.675C5.25 53.675 6.16 54.46 6.495 56.05L5.415 56.29C5.175 55.12 4.645 54.565 3.745 54.565C2.425 54.565 1.77 55.765 1.77 57.915C1.77 60.055 2.425 61.27 3.745 61.27C4.675 61.27 5.21 60.695 5.425 59.505L6.465 59.725C6.18 61.34 5.26 62.16 3.745 62.16ZM12.3653 55.79H13.3903V62.005H12.4053V60.75C11.9703 61.73 11.2253 62.16 10.2203 62.16C8.93031 62.16 8.20531 61.455 8.20531 59.965V55.79H9.23031V59.955C9.23031 60.785 9.52031 61.26 10.3703 61.26C11.1853 61.26 11.9503 60.855 12.3653 59.625V55.79ZM15.2956 62V61.16H17.4906V54.205H15.2956V53.365H18.5156V61.16H20.6856V62H15.2956ZM27.5759 59C27.6409 59.34 27.6709 59.64 27.6709 59.925C27.6709 61.3 26.9859 62.16 25.5409 62.16C24.0409 62.16 23.4109 61.25 23.4109 59.775V56.625H22.1009V55.785H23.4109V53.88L24.4359 53.725V55.785H27.5559V56.625H24.4359V59.77C24.4359 60.84 24.7609 61.355 25.5409 61.355C26.3309 61.355 26.7059 60.865 26.7059 59.87C26.7059 59.585 26.6759 59.25 26.6359 58.915L27.5759 59ZM33.9513 55.79H34.9763V62.005H33.9913V60.75C33.5563 61.73 32.8113 62.16 31.8062 62.16C30.5162 62.16 29.7913 61.455 29.7913 59.965V55.79H30.8163V59.955C30.8163 60.785 31.1063 61.26 31.9563 61.26C32.7713 61.26 33.5363 60.855 33.9513 59.625V55.79ZM40.2966 55.625C41.5266 55.625 42.2216 56.325 42.2216 57.84C42.2216 58.145 42.1866 58.475 42.1166 58.84L41.0766 58.93C41.1216 58.565 41.1566 58.21 41.1566 57.85C41.1566 57.06 40.9316 56.525 40.0766 56.525C39.2866 56.525 38.6116 57.06 38.2866 58.42V62H37.2616V55.785H38.2266L38.2366 57.065C38.5966 56.165 39.2466 55.625 40.2966 55.625ZM49.7569 61.215L49.7919 61.97C49.5719 62.045 49.3719 62.08 49.1169 62.08C48.5069 62.08 48.1769 61.84 48.0669 61.32C47.6319 61.885 46.9469 62.15 46.0419 62.15C44.7719 62.155 43.9719 61.435 43.9719 60.3C43.9719 59.195 44.7919 58.5 46.3419 58.5C46.9919 58.5 47.5219 58.605 48.0219 58.855V57.905C48.0219 56.845 47.5269 56.45 46.5869 56.45C45.7419 56.45 45.3019 56.785 45.1969 57.59L44.1869 57.415C44.3369 56.32 45.1119 55.625 46.6119 55.625C48.2319 55.625 49.0169 56.385 49.0169 57.9V60.55C49.0169 61.115 49.1819 61.31 49.7569 61.215ZM46.3219 61.315C47.0419 61.32 47.5519 61.095 48.0219 60.585V59.62C47.5619 59.385 47.0769 59.275 46.4869 59.285C45.4919 59.295 45.0519 59.61 45.0519 60.295C45.0519 60.97 45.5069 61.305 46.3219 61.315ZM51.2722 62V61.16H53.4672V54.205H51.2722V53.365H54.4922V61.16H56.6622V62H51.2722ZM1.01 76V75.155H3.09V68.68H1.01V67.835H6.19V68.68H4.115V75.155H6.19V76H1.01ZM11.3703 69.625C12.6603 69.625 13.3853 70.325 13.3853 71.82V76H12.3603V71.83C12.3603 70.995 12.0603 70.525 11.1953 70.525C10.3603 70.525 9.60531 71.005 9.22531 72.44V76H8.20031V69.785H9.18531V71.115C9.61031 70.08 10.3403 69.625 11.3703 69.625ZM17.9906 69.205V69.785H20.4306V70.62H17.9906V75.16H20.4306V76H15.3206V75.16H16.9656V70.62H15.3206V69.785H16.9656V69.205C16.9656 67.95 17.7856 67.205 19.2356 67.205C19.7856 67.205 20.2456 67.295 20.6756 67.495L20.3856 68.315C20.0306 68.155 19.7056 68.075 19.2706 68.075C18.3356 68.075 17.9906 68.47 17.9906 69.205ZM25.9059 69.625C27.1359 69.625 27.8309 70.325 27.8309 71.84C27.8309 72.145 27.7959 72.475 27.7259 72.84L26.6859 72.93C26.7309 72.565 26.7659 72.21 26.7659 71.85C26.7659 71.06 26.5409 70.525 25.6859 70.525C24.8959 70.525 24.2209 71.06 23.8959 72.42V76H22.8709V69.785H23.8359L23.8459 71.065C24.2059 70.165 24.8559 69.625 25.9059 69.625ZM35.3663 75.215L35.4013 75.97C35.1813 76.045 34.9812 76.08 34.7263 76.08C34.1163 76.08 33.7863 75.84 33.6762 75.32C33.2413 75.885 32.5562 76.15 31.6513 76.15C30.3813 76.155 29.5813 75.435 29.5813 74.3C29.5813 73.195 30.4013 72.5 31.9513 72.5C32.6012 72.5 33.1313 72.605 33.6313 72.855V71.905C33.6313 70.845 33.1363 70.45 32.1962 70.45C31.3513 70.45 30.9113 70.785 30.8063 71.59L29.7963 71.415C29.9463 70.32 30.7213 69.625 32.2212 69.625C33.8413 69.625 34.6263 70.385 34.6263 71.9V74.55C34.6263 75.115 34.7912 75.31 35.3663 75.215ZM31.9313 75.315C32.6513 75.32 33.1613 75.095 33.6313 74.585V73.62C33.1713 73.385 32.6863 73.275 32.0963 73.285C31.1013 73.295 30.6612 73.61 30.6612 74.295C30.6612 74.97 31.1163 75.305 31.9313 75.315ZM42.2866 72.475C42.2866 72.685 42.2716 72.9 42.2366 73.125H37.9716C38.0416 74.48 38.6416 75.3 39.8766 75.3C40.6466 75.3 41.1666 75.005 41.5716 74.39L42.2166 74.925C41.6716 75.765 40.8616 76.16 39.8066 76.16C37.9266 76.16 36.9166 74.84 36.9166 72.875C36.9166 70.9 37.9616 69.625 39.7566 69.625C41.3816 69.625 42.2866 70.705 42.2866 72.475ZM39.7516 70.445C38.5866 70.445 38.1216 71.245 37.9966 72.33H41.2766C41.2766 71.205 40.8416 70.445 39.7516 70.445ZM46.8319 76.16C45.4769 76.16 44.4119 75.655 44.1769 74.52L45.0819 74.25C45.2669 74.98 45.8169 75.345 46.8419 75.345C47.8269 75.345 48.4019 74.96 48.4019 74.385C48.4019 73.86 48.0419 73.61 47.0719 73.405L46.4169 73.265C45.0969 72.985 44.3619 72.525 44.3619 71.41C44.3619 70.38 45.2769 69.625 46.8619 69.625C48.2669 69.625 49.1069 70.14 49.3469 71.21L48.4419 71.48C48.2519 70.755 47.7519 70.44 46.8269 70.44C45.8669 70.44 45.3369 70.82 45.3369 71.39C45.3369 71.84 45.5969 72.145 46.5919 72.355L47.2569 72.495C48.6519 72.795 49.3669 73.2 49.3669 74.355C49.3669 75.41 48.3869 76.16 46.8319 76.16ZM56.3572 73C56.4222 73.34 56.4522 73.64 56.4522 73.925C56.4522 75.3 55.7672 76.16 54.3222 76.16C52.8222 76.16 52.1922 75.25 52.1922 73.775V70.625H50.8822V69.785H52.1922V67.88L53.2172 67.725V69.785H56.3372V70.625H53.2172V73.77C53.2172 74.84 53.5422 75.355 54.3222 75.355C55.1122 75.355 55.4872 74.865 55.4872 73.87C55.4872 73.585 55.4572 73.25 55.4172 72.915L56.3572 73ZM61.8825 69.625C63.1125 69.625 63.8075 70.325 63.8075 71.84C63.8075 72.145 63.7725 72.475 63.7025 72.84L62.6625 72.93C62.7075 72.565 62.7425 72.21 62.7425 71.85C62.7425 71.06 62.5175 70.525 61.6625 70.525C60.8725 70.525 60.1975 71.06 59.8725 72.42V76H58.8475V69.785H59.8125L59.8225 71.065C60.1825 70.165 60.8325 69.625 61.8825 69.625ZM69.9278 69.79H70.9528V76.005H69.9678V74.75C69.5328 75.73 68.7878 76.16 67.7828 76.16C66.4928 76.16 65.7678 75.455 65.7678 73.965V69.79H66.7928V73.955C66.7928 74.785 67.0828 75.26 67.9328 75.26C68.7478 75.26 69.5128 74.855 69.9278 73.625V69.79ZM75.7431 76.16C73.8181 76.16 72.8481 74.81 72.8481 72.87C72.8481 70.955 73.8031 69.625 75.7781 69.625C77.2381 69.625 78.0681 70.37 78.3131 71.78L77.2531 71.905C77.0731 70.975 76.6281 70.475 75.7481 70.475C74.6081 70.475 73.9431 71.245 73.9431 72.885C73.9431 74.555 74.6481 75.305 75.7531 75.305C76.6081 75.305 77.0731 74.835 77.2781 73.935L78.3031 74.09C78.0731 75.46 77.1181 76.16 75.7431 76.16ZM85.1384 73C85.2034 73.34 85.2334 73.64 85.2334 73.925C85.2334 75.3 84.5484 76.16 83.1034 76.16C81.6034 76.16 80.9734 75.25 80.9734 73.775V70.625H79.6634V69.785H80.9734V67.88L81.9984 67.725V69.785H85.1184V70.625H81.9984V73.77C81.9984 74.84 82.3234 75.355 83.1034 75.355C83.8934 75.355 84.2684 74.865 84.2684 73.87C84.2684 73.585 84.2384 73.25 84.1984 72.915L85.1384 73ZM91.5138 69.79H92.5388V76.005H91.5538V74.75C91.1188 75.73 90.3738 76.16 89.3687 76.16C88.0787 76.16 87.3538 75.455 87.3538 73.965V69.79H88.3788V73.955C88.3788 74.785 88.6688 75.26 89.5188 75.26C90.3338 75.26 91.0988 74.855 91.5138 73.625V69.79ZM97.8591 69.625C99.0891 69.625 99.7841 70.325 99.7841 71.84C99.7841 72.145 99.7491 72.475 99.6791 72.84L98.6391 72.93C98.6841 72.565 98.7191 72.21 98.7191 71.85C98.7191 71.06 98.4941 70.525 97.6391 70.525C96.8491 70.525 96.1741 71.06 95.8491 72.42V76H94.8241V69.785H95.7891L95.7991 71.065C96.1591 70.165 96.8091 69.625 97.8591 69.625ZM107.044 72.475C107.044 72.685 107.029 72.9 106.994 73.125H102.729C102.799 74.48 103.399 75.3 104.634 75.3C105.404 75.3 105.924 75.005 106.329 74.39L106.974 74.925C106.429 75.765 105.619 76.16 104.564 76.16C102.684 76.16 101.674 74.84 101.674 72.875C101.674 70.9 102.719 69.625 104.514 69.625C106.139 69.625 107.044 70.705 107.044 72.475ZM104.509 70.445C103.344 70.445 102.879 71.245 102.754 72.33H106.034C106.034 71.205 105.599 70.445 104.509 70.445ZM6.525 90H5.31L3.805 86.655H2.145V90H1.08V81.835H3.885C5.695 81.835 6.36 82.695 6.36 84.165C6.36 85.35 5.905 86.195 4.855 86.515L6.525 90ZM2.145 82.715V85.8H3.805C4.84 85.8 5.275 85.25 5.275 84.175C5.275 83.23 4.885 82.715 3.87 82.715H2.145ZM13.5053 86.475C13.5053 86.685 13.4903 86.9 13.4553 87.125H9.19031C9.26031 88.48 9.86031 89.3 11.0953 89.3C11.8653 89.3 12.3853 89.005 12.7903 88.39L13.4353 88.925C12.8903 89.765 12.0803 90.16 11.0253 90.16C9.14531 90.16 8.13531 88.84 8.13531 86.875C8.13531 84.9 9.18031 83.625 10.9753 83.625C12.6003 83.625 13.5053 84.705 13.5053 86.475ZM10.9703 84.445C9.80531 84.445 9.34031 85.245 9.21531 86.33H12.4953C12.4953 85.205 12.0603 84.445 10.9703 84.445ZM18.0506 90.16C16.6956 90.16 15.6306 89.655 15.3956 88.52L16.3006 88.25C16.4856 88.98 17.0356 89.345 18.0606 89.345C19.0456 89.345 19.6206 88.96 19.6206 88.385C19.6206 87.86 19.2606 87.61 18.2906 87.405L17.6356 87.265C16.3156 86.985 15.5806 86.525 15.5806 85.41C15.5806 84.38 16.4956 83.625 18.0806 83.625C19.4856 83.625 20.3256 84.14 20.5656 85.21L19.6606 85.48C19.4706 84.755 18.9706 84.44 18.0456 84.44C17.0856 84.44 16.5556 84.82 16.5556 85.39C16.5556 85.84 16.8156 86.145 17.8106 86.355L18.4756 86.495C19.8706 86.795 20.5856 87.2 20.5856 88.355C20.5856 89.41 19.6056 90.16 18.0506 90.16ZM27.8959 86.475C27.8959 86.685 27.8809 86.9 27.8459 87.125H23.5809C23.6509 88.48 24.2509 89.3 25.4859 89.3C26.2559 89.3 26.7759 89.005 27.1809 88.39L27.8259 88.925C27.2809 89.765 26.4709 90.16 25.4159 90.16C23.5359 90.16 22.5259 88.84 22.5259 86.875C22.5259 84.9 23.5709 83.625 25.3659 83.625C26.9909 83.625 27.8959 84.705 27.8959 86.475ZM25.3609 84.445C24.1959 84.445 23.7309 85.245 23.6059 86.33H26.8859C26.8859 85.205 26.4509 84.445 25.3609 84.445ZM35.3663 89.215L35.4013 89.97C35.1813 90.045 34.9812 90.08 34.7263 90.08C34.1163 90.08 33.7863 89.84 33.6762 89.32C33.2413 89.885 32.5562 90.15 31.6513 90.15C30.3813 90.155 29.5813 89.435 29.5813 88.3C29.5813 87.195 30.4013 86.5 31.9513 86.5C32.6012 86.5 33.1313 86.605 33.6313 86.855V85.905C33.6313 84.845 33.1363 84.45 32.1962 84.45C31.3513 84.45 30.9113 84.785 30.8063 85.59L29.7963 85.415C29.9463 84.32 30.7213 83.625 32.2212 83.625C33.8413 83.625 34.6263 84.385 34.6263 85.9V88.55C34.6263 89.115 34.7912 89.31 35.3663 89.215ZM31.9313 89.315C32.6513 89.32 33.1613 89.095 33.6313 88.585V87.62C33.1713 87.385 32.6863 87.275 32.0963 87.285C31.1013 87.295 30.6612 87.61 30.6612 88.295C30.6612 88.97 31.1163 89.305 31.9313 89.315ZM40.2966 83.625C41.5266 83.625 42.2216 84.325 42.2216 85.84C42.2216 86.145 42.1866 86.475 42.1166 86.84L41.0766 86.93C41.1216 86.565 41.1566 86.21 41.1566 85.85C41.1566 85.06 40.9316 84.525 40.0766 84.525C39.2866 84.525 38.6116 85.06 38.2866 86.42V90H37.2616V83.785H38.2266L38.2366 85.065C38.5966 84.165 39.2466 83.625 40.2966 83.625ZM46.9619 90.16C45.0369 90.16 44.0669 88.81 44.0669 86.87C44.0669 84.955 45.0219 83.625 46.9969 83.625C48.4569 83.625 49.2869 84.37 49.5319 85.78L48.4719 85.905C48.2919 84.975 47.8469 84.475 46.9669 84.475C45.8269 84.475 45.1619 85.245 45.1619 86.885C45.1619 88.555 45.8669 89.305 46.9719 89.305C47.8269 89.305 48.2919 88.835 48.4969 87.935L49.5219 88.09C49.2919 89.46 48.3369 90.16 46.9619 90.16ZM54.5422 83.625C55.8322 83.625 56.5572 84.325 56.5572 85.82V90H55.5322V85.83C55.5322 84.995 55.2322 84.525 54.3672 84.525C53.5322 84.525 52.7772 85.005 52.3972 86.44V90H51.3722V81.365H52.3972V85.025C52.8272 84.055 53.5472 83.625 54.5422 83.625Z" fill="black" fill-opacity="0.5"/>
</svg>
