<svg width="570" height="38" viewBox="0 0 570 38" fill="none" xmlns="http://www.w3.org/2000/svg">
<path d="M2.75 38V36.05H7.2V4.95H2.8V3H28.65V14.75H26.45L26.4 11.65C26.3 6.75 24.3 5.1 20.65 5.1H15.65C13.1 5.1 12 6.15 12 8.55V19.1H24.8V21.7H12V36.05H19.2V38H2.75ZM44.2504 38.65C38.5504 38.65 35.2004 35.25 35.2004 30.95V13.85H30.8004V11.9H36.6504C38.6004 11.9 39.6004 12.95 39.6004 14.75V30.6C39.6004 34.2 41.8004 36.3 45.1504 36.3H45.8504C49.5004 36.3 51.7004 34.2 51.7004 30.6V13.85H47.3004V11.9H53.1504C55.1004 11.9 56.1504 12.95 56.1004 14.75V36.05H60.5004V38H54.7004C53.1004 38 52.1004 37.3 51.8004 36C50.6004 37.6 48.2504 38.65 44.8504 38.65H44.2504ZM75.1211 38.8C70.2711 38.8 67.6711 36.1 67.6711 30.95V14.35H64.8211H62.1711V11.9H64.6211C67.9711 11.9 69.7711 9.85 70.0211 6.15L70.0711 5.35H72.0711V11.9H81.9211V14.35H75.0211H72.0711V30.6C72.0711 34.6 73.2711 36.3 75.8711 36.3C78.6711 36.3 79.8211 34.2 79.8211 30.05V26.45H81.9711V30.3C81.9711 37.1 78.8211 38.8 75.1211 38.8ZM98.7426 38.65C93.0426 38.65 89.6926 35.25 89.6926 30.95V13.85H85.2926V11.9H91.1426C93.0926 11.9 94.0926 12.95 94.0926 14.75V30.6C94.0926 34.2 96.2926 36.3 99.6426 36.3H100.343C103.993 36.3 106.193 34.2 106.193 30.6V13.85H101.793V11.9H107.643C109.593 11.9 110.643 12.95 110.593 14.75V36.05H114.993V38H109.193C107.593 38 106.593 37.3 106.293 36C105.093 37.6 102.743 38.65 99.3426 38.65H98.7426ZM118.3 38V36.05H122.7V13.85H118.8V11.9H124.15C125.7 11.9 126.65 12.55 127 13.75C128.2 12.35 130.5 11.1 133.05 11.1H133.5C138.15 11.1 141.4 14.5 141.4 19.25C141.4 22.25 140 23.4 138.35 23.4C136.75 23.4 135.7 22.3 135.7 21C135.7 19.5 136.6 19.1 136.6 17.4C136.6 14.9 135 13.6 132.8 13.6H132.45C129.15 13.6 127.1 15.75 127.1 19.1V36.05H133.75V38H118.3ZM157.504 38.8C150.104 38.8 144.304 33 144.304 25.1C144.304 17.4 150.154 11.1 156.604 11.1C162.854 11.1 167.304 16.75 167.304 23.45V24.95H149.704V28.45C149.704 33.8 153.204 36.6 157.704 36.6C162.054 36.6 165.254 34.1 165.254 28.3V27.95H167.354V28.8C167.354 34.5 164.004 38.8 157.504 38.8ZM149.704 22.75H162.454V19.4C162.454 16.05 160.204 13.25 156.454 13.25C152.654 13.25 149.704 16.15 149.704 21.6V22.75ZM197.848 4.4C198.348 2.75 198.998 2.2 200.348 2.2C201.498 2.2 202.348 2.7 202.798 4.25L212.798 36.05H215.748V38H203.698V36.05H207.348L204.298 26H193.848L190.948 36.05H195.998V38H186.048V36.05H188.498L197.848 4.4ZM194.548 23.4H203.498L198.848 8.35L194.548 23.4ZM217.959 38V36.05H222.359V13.85H218.459V11.9H223.809C225.359 11.9 226.309 12.55 226.659 13.75C227.859 12.35 230.159 11.1 232.709 11.1H233.159C237.809 11.1 241.059 14.5 241.059 19.25C241.059 22.25 239.659 23.4 238.009 23.4C236.409 23.4 235.359 22.3 235.359 21C235.359 19.5 236.259 19.1 236.259 17.4C236.259 14.9 234.659 13.6 232.459 13.6H232.109C228.809 13.6 226.759 15.75 226.759 19.1V36.05H233.409V38H217.959ZM255.492 38.8C250.642 38.8 248.042 36.1 248.042 30.95V14.35H245.192H242.542V11.9H244.992C248.342 11.9 250.142 9.85 250.392 6.15L250.442 5.35H252.442V11.9H262.292V14.35H255.392H252.442V30.6C252.442 34.6 253.642 36.3 256.242 36.3C259.042 36.3 260.192 34.2 260.192 30.05V26.45H262.342V30.3C262.342 37.1 259.192 38.8 255.492 38.8ZM282.145 38V36.05H286.545V4.95H282.145V3H308.295V14.75H306.095V11.25C306.095 7.25 303.995 5.1 300.395 5.1H294.895C292.345 5.1 291.245 6.3 291.245 9.15V18.65H304.145V21.25H291.245V30.3C291.245 33.65 293.345 35.9 296.945 35.9H300.795C304.145 35.9 306.345 33.75 306.345 30.15V25.1H308.545V38H282.145ZM326.872 38.8C320.272 38.8 314.322 33.1 314.322 25.2C314.322 17.3 320.122 11.1 326.922 11.1C330.722 11.1 333.372 11.9 335.972 13V21.8H333.822V21.3C333.822 15.9 331.272 13.2 326.872 13.2C322.872 13.2 319.722 15.8 319.722 21.4V28.4C319.722 33.95 323.022 36.65 327.172 36.65C331.122 36.65 334.272 33.8 334.272 28.15V27.95H336.322V28.65C336.322 35.5 331.572 38.8 326.872 38.8ZM354.559 38.8C348.309 38.8 342.009 32.3 342.009 25.2C342.009 17.5 348.259 11.1 354.609 11.1C360.959 11.1 367.209 17.6 367.209 24.7C367.209 32.35 360.959 38.8 354.559 38.8ZM354.759 36.6C358.559 36.6 361.759 34 361.759 28.4V21.5C361.759 15.9 358.559 13.3 354.459 13.3C350.659 13.3 347.459 15.9 347.459 21.5V28.4C347.459 34 350.659 36.6 354.759 36.6ZM382.707 38.8C380.157 38.8 376.307 37.85 373.307 36.7V27.95H375.407L375.457 29.8C375.557 34 378.557 36.55 382.857 36.55C386.657 36.55 388.707 34.55 388.707 31.5C388.707 29.45 387.757 28.2 385.507 27.75L379.457 26.55C375.757 25.8 373.807 23.2 373.807 19.4C373.807 15.65 376.057 11.1 382.757 11.1C385.457 11.1 387.857 11.6 391.507 12.65V21.8H389.407V20.4C389.407 15.05 386.807 13.35 382.557 13.35C379.007 13.35 377.107 15.3 377.107 18.05C377.107 19.7 377.957 20.95 380.057 21.4L386.307 22.7C389.607 23.4 392.007 25.15 392.007 29.7C392.007 35 389.207 38.8 382.707 38.8ZM409.425 38.25C408.375 38.25 407.725 37.8 407.325 36.8L398.375 13.8H396.425V11.85H407.525V13.8H403.475L410.875 33.35L418.325 13.8H412.925V11.85H423.925V13.8H420.875L411.825 37V39.5C411.825 45.5 408.375 47.5 404.325 47.5C399.525 47.5 396.425 45 396.425 39.1V36H398.625V38.8C398.625 43.1 400.525 45.4 404.325 45.4C407.775 45.4 409.625 43.4 409.625 39.6V38.25H409.425ZM435.734 38.8C433.184 38.8 429.334 37.85 426.334 36.7V27.95H428.434L428.484 29.8C428.584 34 431.584 36.55 435.884 36.55C439.684 36.55 441.734 34.55 441.734 31.5C441.734 29.45 440.784 28.2 438.534 27.75L432.484 26.55C428.784 25.8 426.834 23.2 426.834 19.4C426.834 15.65 429.084 11.1 435.784 11.1C438.484 11.1 440.884 11.6 444.534 12.65V21.8H442.434V20.4C442.434 15.05 439.834 13.35 435.584 13.35C432.034 13.35 430.134 15.3 430.134 18.05C430.134 19.7 430.984 20.95 433.084 21.4L439.334 22.7C442.634 23.4 445.034 25.15 445.034 29.7C445.034 35 442.234 38.8 435.734 38.8ZM461.303 38.8C456.453 38.8 453.853 36.1 453.853 30.95V14.35H451.003H448.353V11.9H450.803C454.153 11.9 455.953 9.85 456.203 6.15L456.253 5.35H458.253V11.9H468.103V14.35H461.203H458.253V30.6C458.253 34.6 459.453 36.3 462.053 36.3C464.853 36.3 466.003 34.2 466.003 30.05V26.45H468.153V30.3C468.153 37.1 465.003 38.8 461.303 38.8ZM485.58 38.8C478.18 38.8 472.38 33 472.38 25.1C472.38 17.4 478.23 11.1 484.68 11.1C490.93 11.1 495.38 16.75 495.38 23.45V24.95H477.78V28.45C477.78 33.8 481.28 36.6 485.78 36.6C490.13 36.6 493.33 34.1 493.33 28.3V27.95H495.43V28.8C495.43 34.5 492.08 38.8 485.58 38.8ZM477.78 22.75H490.53V19.4C490.53 16.05 488.28 13.25 484.53 13.25C480.73 13.25 477.78 16.15 477.78 21.6V22.75ZM499.502 38V36.05H503.902V13.85H500.052V11.9H505.402C506.852 11.95 507.702 12.5 508.102 13.5C509.552 12.05 511.852 11.1 514.352 11.1H514.752C517.952 11.1 520.802 12.55 522.402 14.95C523.702 12.7 526.452 11.1 529.752 11.1H530.252C535.302 11.1 539.102 14.3 539.102 19.35V36.05H543.502V38H530.252V36.05H534.702V18.95C534.702 15.45 532.702 13.5 529.152 13.5C525.702 13.5 523.702 15.55 523.702 18.9V36.05H528.102V38H514.902V36.05H519.302V18.8C519.302 15.4 517.252 13.5 513.802 13.5C510.352 13.5 508.302 15.5 508.302 18.7V36.05H512.702V38H499.502ZM557.072 38.8C554.522 38.8 550.672 37.85 547.672 36.7V27.95H549.772L549.822 29.8C549.922 34 552.922 36.55 557.222 36.55C561.022 36.55 563.072 34.55 563.072 31.5C563.072 29.45 562.122 28.2 559.872 27.75L553.822 26.55C550.122 25.8 548.172 23.2 548.172 19.4C548.172 15.65 550.422 11.1 557.122 11.1C559.822 11.1 562.222 11.6 565.872 12.65V21.8H563.772V20.4C563.772 15.05 561.172 13.35 556.922 13.35C553.372 13.35 551.472 15.3 551.472 18.05C551.472 19.7 552.322 20.95 554.422 21.4L560.672 22.7C563.972 23.4 566.372 25.15 566.372 29.7C566.372 35 563.572 38.8 557.072 38.8Z" fill="black"/>
</svg>
