<svg width="17" height="17" viewBox="0 0 17 17" fill="none" xmlns="http://www.w3.org/2000/svg">
<path d="M4.80629 13.6993C4.97539 13.8684 5.30016 13.9495 5.44141 13.9689C5.28559 14.0073 4.97653 14.0815 4.80403 14.254C4.63154 14.4265 4.51259 14.7803 4.49753 14.9127C4.45687 14.7693 4.38698 14.4703 4.21112 14.2945C4.03525 14.1186 3.69718 13.9801 3.54976 13.965C3.7026 13.9474 4.00641 13.8904 4.22346 13.6734C4.44051 13.4563 4.48334 13.1375 4.49357 13.0212C4.51672 13.1662 4.63719 13.5302 4.80629 13.6993Z" fill="#0000FF" stroke="#0000FF" stroke-width="0.0164718"/>
<path d="M6.62181 13.7659C6.7485 13.8926 6.99183 13.9534 7.09766 13.9679C6.98091 13.9967 6.74936 14.0522 6.62012 14.1815C6.49088 14.3107 6.40176 14.5758 6.39048 14.6751C6.36001 14.5676 6.30765 14.3436 6.17588 14.2119C6.04412 14.0801 5.79083 13.9763 5.68037 13.965C5.79488 13.9518 6.02251 13.9091 6.18513 13.7465C6.34775 13.5839 6.37984 13.345 6.38751 13.2578C6.40485 13.3665 6.49511 13.6392 6.62181 13.7659Z" fill="#0000FF" stroke="#0000FF" stroke-width="0.0123412"/>
<path d="M10.4089 13.7659C10.5356 13.8926 10.7789 13.9534 10.8848 13.9679C10.768 13.9967 10.5365 14.0522 10.4072 14.1815C10.278 14.3107 10.1889 14.5758 10.1776 14.6751C10.1471 14.5676 10.0948 14.3436 9.96299 14.2119C9.83123 14.0801 9.57793 13.9763 9.46748 13.965C9.58199 13.9518 9.80962 13.9091 9.97224 13.7465C10.1349 13.5839 10.167 13.345 10.1746 13.2578C10.192 13.3665 10.2822 13.6392 10.4089 13.7659Z" fill="#0000FF" stroke="#0000FF" stroke-width="0.0123412"/>
<path d="M12.4585 13.6317C12.67 13.8432 13.0763 13.9446 13.2529 13.9689C13.058 14.0169 12.6715 14.1097 12.4557 14.3254C12.24 14.5412 12.0912 14.9837 12.0724 15.1494C12.0215 14.97 11.9341 14.5961 11.7141 14.3761C11.4942 14.1562 11.0713 13.9829 10.8869 13.964C11.0781 13.942 11.4581 13.8708 11.7296 13.5993C12.001 13.3278 12.0546 12.9291 12.0674 12.7835C12.0964 12.9649 12.247 13.4202 12.4585 13.6317Z" fill="#0000FF" stroke="#0000FF" stroke-width="0.0206024"/>
<path d="M2.91273 11.8048C3.08183 11.9739 3.4066 12.0549 3.54785 12.0743C3.39204 12.1127 3.08298 12.1869 2.91048 12.3594C2.73798 12.5319 2.61904 12.8857 2.60398 13.0182C2.56332 12.8747 2.49342 12.5758 2.31756 12.4C2.1417 12.2241 1.80363 12.0855 1.6562 12.0704C1.80904 12.0529 2.11286 11.9959 2.32991 11.7789C2.54696 11.5618 2.58979 11.243 2.60002 11.1266C2.62317 11.2716 2.74364 11.6357 2.91273 11.8048Z" fill="#0000FF" stroke="#0000FF" stroke-width="0.0164718"/>
<path d="M4.80629 11.8048C4.97539 11.9739 5.30016 12.0549 5.44141 12.0743C5.28559 12.1127 4.97653 12.1869 4.80403 12.3594C4.63154 12.5319 4.51259 12.8857 4.49753 13.0182C4.45687 12.8747 4.38698 12.5758 4.21112 12.4C4.03525 12.2241 3.69718 12.0855 3.54976 12.0704C3.7026 12.0529 4.00641 11.9959 4.22346 11.7789C4.44051 11.5618 4.48334 11.243 4.49357 11.1266C4.51672 11.2716 4.63719 11.6357 4.80629 11.8048Z" fill="#0000FF" stroke="#0000FF" stroke-width="0.0164718"/>
<path d="M12.4585 11.7372C12.67 11.9487 13.0763 12.0501 13.2529 12.0743C13.058 12.1224 12.6715 12.2152 12.4557 12.4309C12.24 12.6467 12.0912 13.0892 12.0724 13.2549C12.0215 13.0755 11.9341 12.7016 11.7141 12.4816C11.4942 12.2616 11.0713 12.0883 10.8869 12.0695C11.0781 12.0475 11.4581 11.9762 11.7296 11.7048C12.001 11.4333 12.0546 11.0345 12.0674 10.889C12.0964 11.0703 12.247 11.5257 12.4585 11.7372Z" fill="#0000FF" stroke="#0000FF" stroke-width="0.0206024"/>
<path d="M14.3521 11.7372C14.5636 11.9487 14.9698 12.0501 15.1465 12.0743C14.9516 12.1224 14.565 12.2152 14.3493 12.4309C14.1335 12.6467 13.9848 13.0892 13.9659 13.2549C13.9151 13.0755 13.8276 12.7016 13.6077 12.4816C13.3877 12.2616 12.9649 12.0883 12.7805 12.0695C12.9716 12.0475 13.3516 11.9762 13.6231 11.7048C13.8946 11.4333 13.9482 11.0345 13.961 10.889C13.9899 11.0703 14.1406 11.5257 14.3521 11.7372Z" fill="#0000FF" stroke="#0000FF" stroke-width="0.0206024"/>
<path d="M2.8347 9.97784C2.96139 10.1045 3.20472 10.1653 3.31055 10.1798C3.1938 10.2086 2.96225 10.2642 2.83301 10.3934C2.70377 10.5226 2.61465 10.7877 2.60337 10.887C2.5729 10.7795 2.52054 10.5555 2.38877 10.4238C2.25701 10.292 2.00372 10.1882 1.89326 10.1769C2.00777 10.1637 2.2354 10.121 2.39802 9.95842C2.56064 9.7958 2.59273 9.55695 2.6004 9.46975C2.61774 9.57839 2.708 9.85115 2.8347 9.97784Z" fill="#0000FF" stroke="#0000FF" stroke-width="0.0123412"/>
<path d="M14.196 9.97882C14.3227 10.1055 14.566 10.1663 14.6719 10.1808C14.5551 10.2095 14.3236 10.2651 14.1943 10.3944C14.0651 10.5236 13.976 10.7887 13.9647 10.888C13.9342 10.7805 13.8819 10.5565 13.7501 10.4247C13.6183 10.293 13.365 10.1892 13.2546 10.1779C13.3691 10.1647 13.5967 10.122 13.7594 9.9594C13.922 9.79678 13.9541 9.55793 13.9617 9.47073C13.9791 9.57937 14.0693 9.85213 14.196 9.97882Z" fill="#0000FF" stroke="#0000FF" stroke-width="0.0123412"/>
<path d="M2.8347 6.19171C2.96139 6.31841 3.20472 6.37914 3.31055 6.39368C3.1938 6.42244 2.96225 6.47803 2.83301 6.60727C2.70377 6.73651 2.61465 7.00159 2.60337 7.10086C2.5729 6.99336 2.52054 6.7694 2.38877 6.63764C2.25701 6.50587 2.00372 6.40207 1.89326 6.39075C2.00777 6.3776 2.2354 6.33491 2.39802 6.17229C2.56064 6.00967 2.59273 5.77082 2.6004 5.68362C2.61774 5.79226 2.708 6.06502 2.8347 6.19171Z" fill="#0000FF" stroke="#0000FF" stroke-width="0.0123412"/>
<path d="M14.196 6.19171C14.3227 6.31841 14.566 6.37914 14.6719 6.39368C14.5551 6.42244 14.3236 6.47803 14.1943 6.60727C14.0651 6.73651 13.976 7.00159 13.9647 7.10086C13.9342 6.99336 13.8819 6.7694 13.7501 6.63764C13.6183 6.50587 13.365 6.40207 13.2546 6.39075C13.3691 6.3776 13.5967 6.33491 13.7594 6.17229C13.922 6.00967 13.9541 5.77082 13.9617 5.68362C13.9791 5.79226 14.0693 6.06502 14.196 6.19171Z" fill="#0000FF" stroke="#0000FF" stroke-width="0.0123412"/>
<path d="M2.91273 4.23154C3.08183 4.40064 3.4066 4.4817 3.54785 4.5011C3.39204 4.53948 3.08298 4.61369 2.91048 4.78618C2.73798 4.95868 2.61904 5.31248 2.60398 5.44497C2.56332 5.3015 2.49342 5.00257 2.31756 4.82671C2.1417 4.65085 1.80363 4.5123 1.6562 4.4972C1.80904 4.47964 2.11286 4.42266 2.32991 4.20561C2.54696 3.98856 2.58979 3.66977 2.60002 3.55339C2.62317 3.69839 2.74364 4.06244 2.91273 4.23154Z" fill="#0000FF" stroke="#0000FF" stroke-width="0.0164718"/>
<path d="M4.88433 4.16394C5.09583 4.37544 5.50204 4.47684 5.67871 4.5011C5.48382 4.54911 5.09726 4.64192 4.88151 4.85767C4.66575 5.07342 4.51698 5.51595 4.49814 5.68167C4.44729 5.50222 4.35987 5.12833 4.1399 4.90836C3.91994 4.6884 3.49709 4.51511 3.3127 4.49622C3.50387 4.47425 3.88387 4.40299 4.15535 4.13151C4.42682 3.86003 4.4804 3.4613 4.49319 3.31573C4.52215 3.4971 4.67282 3.95244 4.88433 4.16394Z" fill="#0000FF" stroke="#0000FF" stroke-width="0.0206024"/>
<path d="M12.3805 4.23154C12.5496 4.40064 12.8744 4.4817 13.0156 4.5011C12.8598 4.53948 12.5507 4.61369 12.3783 4.78618C12.2058 4.95868 12.0868 5.31248 12.0718 5.44497C12.0311 5.3015 11.9612 5.00257 11.7853 4.82671C11.6095 4.65085 11.2714 4.5123 11.124 4.4972C11.2768 4.47964 11.5806 4.42266 11.7977 4.20561C12.0147 3.98856 12.0576 3.66977 12.0678 3.55339C12.0909 3.69839 12.2114 4.06244 12.3805 4.23154Z" fill="#0000FF" stroke="#0000FF" stroke-width="0.0164718"/>
<path d="M14.196 4.29816C14.3227 4.42485 14.566 4.48559 14.6719 4.50012C14.5551 4.52888 14.3236 4.58448 14.1943 4.71372C14.0651 4.84295 13.976 5.10804 13.9647 5.2073C13.9342 5.09981 13.8819 4.87584 13.7501 4.74408C13.6183 4.61232 13.365 4.50851 13.2546 4.4972C13.3691 4.48404 13.5967 4.44135 13.7594 4.27873C13.922 4.11611 13.9541 3.87726 13.9617 3.79006C13.9791 3.89871 14.0693 4.17146 14.196 4.29816Z" fill="#0000FF" stroke="#0000FF" stroke-width="0.0123412"/>
<path d="M4.80629 2.33798C4.97539 2.50708 5.30016 2.58815 5.44141 2.60754C5.28559 2.64593 4.97653 2.72013 4.80403 2.89263C4.63154 3.06512 4.51259 3.41893 4.49753 3.55142C4.45687 3.40795 4.38698 3.10902 4.21112 2.93316C4.03525 2.75729 3.69718 2.61874 3.54976 2.60364C3.7026 2.58608 4.00641 2.5291 4.22346 2.31205C4.44051 2.09501 4.48334 1.77621 4.49357 1.65983C4.51672 1.80484 4.63719 2.16888 4.80629 2.33798Z" fill="#0000FF" stroke="#0000FF" stroke-width="0.0164718"/>
<path d="M6.62181 2.4046C6.7485 2.5313 6.99183 2.59204 7.09766 2.60657C6.98091 2.63533 6.74936 2.69092 6.62012 2.82016C6.49088 2.9494 6.40176 3.21448 6.39048 3.31375C6.36001 3.20626 6.30765 2.98229 6.17588 2.85053C6.04412 2.71876 5.79083 2.61496 5.68037 2.60364C5.79488 2.59049 6.02251 2.5478 6.18513 2.38518C6.34775 2.22256 6.37984 1.98371 6.38751 1.89651C6.40485 2.00515 6.49511 2.27791 6.62181 2.4046Z" fill="#0000FF" stroke="#0000FF" stroke-width="0.0123412"/>
<path d="M10.4089 2.4046C10.5356 2.5313 10.7789 2.59204 10.8848 2.60657C10.768 2.63533 10.5365 2.69092 10.4072 2.82016C10.278 2.9494 10.1889 3.21448 10.1776 3.31375C10.1471 3.20626 10.0948 2.98229 9.96299 2.85053C9.83123 2.71876 9.57793 2.61496 9.46748 2.60364C9.58199 2.59049 9.80962 2.5478 9.97224 2.38518C10.1349 2.22256 10.167 1.98371 10.1746 1.89651C10.192 2.00515 10.2822 2.27791 10.4089 2.4046Z" fill="#0000FF" stroke="#0000FF" stroke-width="0.0123412"/>
<path d="M12.3025 2.4046C12.4292 2.5313 12.6725 2.59204 12.7783 2.60657C12.6616 2.63533 12.43 2.69092 12.3008 2.82016C12.1715 2.9494 12.0824 3.21448 12.0711 3.31375C12.0407 3.20626 11.9883 2.98229 11.8565 2.85053C11.7248 2.71876 11.4715 2.61496 11.361 2.60364C11.4755 2.59049 11.7032 2.5478 11.8658 2.38518C12.0284 2.22256 12.0605 1.98371 12.0682 1.89651C12.0855 2.00515 12.1758 2.27791 12.3025 2.4046Z" fill="#0000FF" stroke="#0000FF" stroke-width="0.0123412"/>
<path d="M8.5934 9.91122C8.7625 10.0803 9.08727 10.1614 9.22852 10.1808C9.0727 10.2192 8.76364 10.2934 8.59114 10.4659C8.41865 10.6384 8.2997 10.9922 8.28464 11.1247C8.24398 10.9812 8.17409 10.6823 7.99823 10.5064C7.82236 10.3305 7.48429 10.192 7.33687 10.1769C7.48971 10.1593 7.79352 10.1023 8.01057 9.8853C8.22762 9.66825 8.27045 9.34946 8.28068 9.23307C8.30383 9.37808 8.4243 9.74213 8.5934 9.91122Z" fill="#0000FF" stroke="#0000FF" stroke-width="0.0164718"/>
<path d="M6.62181 8.08429C6.7485 8.21098 6.99183 8.27172 7.09766 8.28625C6.98091 8.31501 6.74936 8.37061 6.62012 8.49985C6.49088 8.62909 6.40176 8.89417 6.39048 8.99344C6.36001 8.88594 6.30765 8.66198 6.17588 8.53021C6.04412 8.39845 5.79083 8.29465 5.68037 8.28333C5.79488 8.27017 6.02251 8.22748 6.18513 8.06486C6.34775 7.90224 6.37984 7.6634 6.38751 7.5762C6.40485 7.68484 6.49511 7.9576 6.62181 8.08429Z" fill="#0000FF" stroke="#0000FF" stroke-width="0.0123412"/>
<path d="M8.67144 7.95007C8.88294 8.16158 9.28915 8.26297 9.46582 8.28723C9.27093 8.33524 8.88437 8.42805 8.66862 8.6438C8.45286 8.85956 8.30409 9.30208 8.28525 9.4678C8.2344 9.28835 8.14698 8.91446 7.92701 8.6945C7.70705 8.47453 7.2842 8.30124 7.09981 8.28235C7.29098 8.26039 7.67098 8.18912 7.94246 7.91764C8.21393 7.64617 8.26751 7.24743 8.2803 7.10186C8.30926 7.28323 8.45993 7.73857 8.67144 7.95007Z" fill="#0000FF" stroke="#0000FF" stroke-width="0.0206024"/>
<path d="M10.487 8.01767C10.6561 8.18677 10.9808 8.26784 11.1221 8.28723C10.9663 8.32562 10.6572 8.39982 10.4847 8.57231C10.3122 8.74481 10.1933 9.09861 10.1782 9.23111C10.1375 9.08763 10.0676 8.78871 9.89178 8.61284C9.71592 8.43698 9.37784 8.29843 9.23042 8.28333C9.38326 8.26577 9.68708 8.20879 9.90413 7.99174C10.1212 7.77469 10.164 7.4559 10.1742 7.33952C10.1974 7.48452 10.3179 7.84857 10.487 8.01767Z" fill="#0000FF" stroke="#0000FF" stroke-width="0.0164718"/>
<path d="M8.5934 6.12509C8.7625 6.29419 9.08727 6.37526 9.22852 6.39465C9.0727 6.43304 8.76364 6.50724 8.59114 6.67974C8.41865 6.85223 8.2997 7.20603 8.28464 7.33853C8.24398 7.19506 8.17409 6.89613 7.99823 6.72026C7.82236 6.5444 7.48429 6.40585 7.33687 6.39075C7.48971 6.37319 7.79352 6.31621 8.01057 6.09916C8.22762 5.88212 8.27045 5.56332 8.28068 5.44694C8.30383 5.59195 8.4243 5.95599 8.5934 6.12509Z" fill="#0000FF" stroke="#0000FF" stroke-width="0.0164718"/>
</svg>
