<svg width="20" height="20" viewBox="0 0 20 20" fill="none" xmlns="http://www.w3.org/2000/svg">
<path d="M14.9106 15.3173C15.189 15.5957 15.3224 16.1303 15.3544 16.3628C15.4176 16.1063 15.5397 15.5975 15.8237 15.3136C16.1076 15.0296 16.69 14.8338 16.9081 14.809C16.672 14.7421 16.1799 14.627 15.8904 14.3375C15.6009 14.048 15.3728 13.4915 15.3479 13.2488C15.319 13.5004 15.2252 14.0006 14.8679 14.3579C14.5107 14.7152 13.9859 14.7857 13.7943 14.8025C14.033 14.8406 14.6323 15.0389 14.9106 15.3173Z" fill="#0000FF" stroke="#0000FF" stroke-width="0.0271153"/>
<path d="M3.16974 16.8975C3.003 16.7308 2.92306 16.4105 2.90393 16.2712C2.86608 16.4249 2.79291 16.7296 2.62282 16.8997C2.45272 17.0698 2.10384 17.1871 1.9732 17.202C2.11467 17.2421 2.40944 17.311 2.58285 17.4844C2.75627 17.6578 2.89289 17.9912 2.90778 18.1366C2.92509 17.9858 2.98128 17.6863 3.19531 17.4722C3.40933 17.2582 3.72369 17.216 3.83845 17.2059C3.69546 17.1831 3.33649 17.0643 3.16974 16.8975Z" fill="#0000FF" stroke="#0000FF" stroke-width="0.0162426"/>
<path d="M15.0812 15.1122C15.2479 15.279 15.3279 15.5992 15.347 15.7385C15.3848 15.5849 15.458 15.2801 15.6281 15.11C15.7982 14.9399 16.1471 14.8226 16.2777 14.8078C16.1362 14.7677 15.8415 14.6988 15.6681 14.5254C15.4946 14.3519 15.358 14.0186 15.3431 13.8732C15.3258 14.0239 15.2696 14.3235 15.0556 14.5375C14.8416 14.7516 14.5272 14.7938 14.4125 14.8039C14.5555 14.8267 14.9144 14.9455 15.0812 15.1122Z" fill="#0000FF" stroke="#0000FF" stroke-width="0.0162426"/>
<path d="M15.0873 12.614C15.254 12.7807 15.334 13.101 15.3531 13.2402C15.3909 13.0866 15.4641 12.7818 15.6342 12.6117C15.8043 12.4416 16.1532 12.3244 16.2838 12.3095C16.1423 12.2694 15.8476 12.2005 15.6742 12.0271C15.5008 11.8537 15.3641 11.5203 15.3492 11.3749C15.3319 11.5256 15.2757 11.8252 15.0617 12.0392C14.8477 12.2533 14.5333 12.2955 14.4186 12.3056C14.5616 12.3284 14.9205 12.4472 15.0873 12.614Z" fill="#0000FF" stroke="#0000FF" stroke-width="0.0162426"/>
<path d="M15.1765 10.0266C15.3433 10.1933 15.4232 10.5136 15.4423 10.6528C15.4802 10.4992 15.5533 10.1944 15.7234 10.0243C15.8935 9.85424 16.2424 9.73695 16.3731 9.7221C16.2316 9.682 15.9368 9.61308 15.7634 9.43967C15.59 9.26625 15.4534 8.93289 15.4385 8.78752C15.4212 8.93823 15.365 9.23781 15.1509 9.45184C14.9369 9.66587 14.6226 9.7081 14.5078 9.71819C14.6508 9.74102 15.0098 9.85981 15.1765 10.0266Z" fill="#0000FF" stroke="#0000FF" stroke-width="0.0162426"/>
<path d="M4.82678 10.0266C4.99353 10.1933 5.07346 10.5136 5.09259 10.6528C5.13044 10.4992 5.20361 10.1944 5.3737 10.0243C5.5438 9.85424 5.89268 9.73695 6.02333 9.7221C5.88185 9.682 5.58708 9.61308 5.41367 9.43967C5.24025 9.26625 5.10363 8.93289 5.08874 8.78752C5.07143 8.93823 5.01524 9.23781 4.80121 9.45184C4.58719 9.66587 4.27283 9.7081 4.15807 9.71819C4.30106 9.74102 4.66004 9.85981 4.82678 10.0266Z" fill="#0000FF" stroke="#0000FF" stroke-width="0.0162426"/>
<path d="M10.5195 12.0113C10.3528 11.8445 10.2728 11.5243 10.2537 11.385C10.2159 11.5387 10.1427 11.8434 9.97261 12.0135C9.80251 12.1836 9.45364 12.3009 9.32299 12.3157C9.46446 12.3558 9.75923 12.4248 9.93264 12.5982C10.1061 12.7716 10.2427 13.105 10.2576 13.2503C10.2749 13.0996 10.3311 12.8 10.5451 12.586C10.7591 12.372 11.0735 12.3297 11.1882 12.3197C11.0453 12.2968 10.6863 12.178 10.5195 12.0113Z" fill="#0000FF" stroke="#0000FF" stroke-width="0.0162426"/>
<path d="M10.5195 6.92559C10.3528 6.75885 10.2728 6.4386 10.2537 6.29932C10.2159 6.45296 10.1427 6.75772 9.97261 6.92782C9.80251 7.09791 9.45364 7.2152 9.32299 7.23005C9.46446 7.27014 9.75923 7.33907 9.93264 7.51248C10.1061 7.6859 10.2427 8.01926 10.2576 8.16463C10.2749 8.01392 10.3311 7.71433 10.5451 7.50031C10.7591 7.28628 11.0735 7.24404 11.1882 7.23396C11.0453 7.21113 10.6863 7.09234 10.5195 6.92559Z" fill="#0000FF" stroke="#0000FF" stroke-width="0.0162426"/>
<path d="M10.5195 4.51055C10.3528 4.34381 10.2728 4.02356 10.2537 3.88428C10.2159 4.03792 10.1427 4.34268 9.97261 4.51278C9.80251 4.68287 9.45364 4.80016 9.32299 4.81501C9.46446 4.85511 9.75923 4.92403 9.93264 5.09744C10.1061 5.27086 10.2427 5.60422 10.2576 5.74959C10.2749 5.59888 10.3311 5.29929 10.5451 5.08527C10.7591 4.87124 11.0735 4.829 11.1882 4.81892C11.0453 4.79609 10.6863 4.6773 10.5195 4.51055Z" fill="#0000FF" stroke="#0000FF" stroke-width="0.0162426"/>
<path d="M10.5195 2.01226C10.3528 1.84552 10.2728 1.52527 10.2537 1.38599C10.2159 1.53963 10.1427 1.84439 9.97261 2.01449C9.80251 2.18458 9.45364 2.30187 9.32299 2.31672C9.46446 2.35681 9.75923 2.42574 9.93264 2.59915C10.1061 2.77257 10.2427 3.10593 10.2576 3.2513C10.2749 3.10059 10.3311 2.801 10.5451 2.58698C10.7591 2.37295 11.0735 2.33071 11.1882 2.32063C11.0453 2.2978 10.6863 2.17901 10.5195 2.01226Z" fill="#0000FF" stroke="#0000FF" stroke-width="0.0162426"/>
<path d="M12.6783 7.52827C12.845 7.69501 12.925 8.01526 12.9441 8.15454C12.9819 8.00089 13.0551 7.69614 13.2252 7.52604C13.3953 7.35595 13.7442 7.23866 13.8748 7.22381C13.7334 7.18371 13.4386 7.11479 13.2652 6.94138C13.0918 6.76796 12.9551 6.43459 12.9402 6.28922C12.9229 6.43994 12.8667 6.73952 12.6527 6.95355C12.4387 7.16758 12.1243 7.20981 12.0096 7.2199C12.1526 7.24273 12.5115 7.36152 12.6783 7.52827Z" fill="#0000FF" stroke="#0000FF" stroke-width="0.0162426"/>
<path d="M12.5016 10.2316C12.78 10.51 12.9134 11.0446 12.9454 11.2771C13.0086 11.0206 13.1307 10.5118 13.4147 10.2279C13.6986 9.94393 14.281 9.74813 14.4991 9.72333C14.263 9.6564 13.7709 9.54134 13.4814 9.25185C13.1919 8.96235 12.9638 8.40583 12.939 8.16314C12.91 8.41474 12.8162 8.91487 12.459 9.27217C12.1017 9.62946 11.5769 9.69997 11.3853 9.71681C11.624 9.75492 12.2233 9.95323 12.5016 10.2316Z" fill="#0000FF" stroke="#0000FF" stroke-width="0.0271153"/>
<path d="M9.825 10.2316C10.1034 10.51 10.2368 11.0446 10.2687 11.2771C10.3319 11.0206 10.4541 10.5118 10.738 10.2279C11.022 9.94393 11.6044 9.74813 11.8225 9.72333C11.5863 9.6564 11.0942 9.54134 10.8047 9.25185C10.5152 8.96235 10.2872 8.40583 10.2623 8.16314C10.2334 8.41474 10.1396 8.91487 9.78231 9.27217C9.42502 9.62946 8.90024 9.69997 8.70865 9.71681C8.94735 9.75492 9.54663 9.95323 9.825 10.2316Z" fill="#0000FF" stroke="#0000FF" stroke-width="0.0271153"/>
<path d="M4.73936 15.3173C5.01773 15.5957 5.15118 16.1303 5.18311 16.3628C5.24629 16.1063 5.36844 15.5975 5.6524 15.3136C5.93635 15.0296 6.51877 14.8338 6.73687 14.809C6.5007 14.7421 6.00861 14.627 5.71911 14.3375C5.42962 14.048 5.20154 13.4915 5.17668 13.2488C5.14778 13.5004 5.05398 14.0006 4.69668 14.3579C4.33939 14.7152 3.8146 14.7857 3.62302 14.8025C3.86172 14.8406 4.461 15.0389 4.73936 15.3173Z" fill="#0000FF" stroke="#0000FF" stroke-width="0.0271153"/>
<path d="M17.4028 17.7262C17.6811 18.0046 17.8146 18.5392 17.8465 18.7717C17.9097 18.5152 18.0318 18.0065 18.3158 17.7225C18.5997 17.4386 19.1822 17.2428 19.4003 17.218C19.1641 17.151 18.672 17.036 18.3825 16.7465C18.093 16.457 17.8649 15.9005 17.8401 15.6578C17.8112 15.9094 17.7174 16.4095 17.3601 16.7668C17.0028 17.1241 16.478 17.1946 16.2864 17.2114C16.5251 17.2496 17.1244 17.4479 17.4028 17.7262Z" fill="#0000FF" stroke="#0000FF" stroke-width="0.0271153"/>
<path d="M2.50273 17.7262C2.78109 18.0046 2.91454 18.5392 2.94647 18.7717C3.00966 18.5152 3.13181 18.0065 3.41576 17.7225C3.69972 17.4386 4.28214 17.2428 4.50024 17.218C4.26406 17.151 3.77198 17.036 3.48248 16.7465C3.19298 16.457 2.96491 15.9005 2.94005 15.6578C2.91114 15.9094 2.81734 16.4095 2.46005 16.7668C2.10275 17.1241 1.57797 17.1946 1.38638 17.2114C1.62509 17.2496 2.22437 17.4479 2.50273 17.7262Z" fill="#0000FF" stroke="#0000FF" stroke-width="0.0271153"/>
<path d="M7.32501 7.52827C7.49176 7.69501 7.57169 8.01526 7.59082 8.15454C7.62867 8.00089 7.70184 7.69614 7.87193 7.52604C8.04203 7.35595 8.39091 7.23866 8.52156 7.22381C8.38008 7.18371 8.08531 7.11479 7.9119 6.94138C7.73848 6.76796 7.60186 6.43459 7.58697 6.28922C7.56966 6.43994 7.51347 6.73952 7.29944 6.95355C7.08542 7.16758 6.77106 7.20981 6.6563 7.2199C6.79929 7.24273 7.15827 7.36152 7.32501 7.52827Z" fill="#0000FF" stroke="#0000FF" stroke-width="0.0162426"/>
<path d="M7.14836 10.2316C7.42672 10.51 7.56017 11.0446 7.5921 11.2771C7.65529 11.0206 7.77744 10.5118 8.06139 10.2279C8.34535 9.94393 8.92777 9.74813 9.14587 9.72333C8.90969 9.6564 8.41761 9.54134 8.12811 9.25185C7.83861 8.96235 7.61054 8.40583 7.58568 8.16314C7.55677 8.41474 7.46297 8.91487 7.10568 9.27217C6.74838 9.62946 6.2236 9.69997 6.03201 9.71681C6.27072 9.75492 6.87 9.95323 7.14836 10.2316Z" fill="#0000FF" stroke="#0000FF" stroke-width="0.0271153"/>
<path d="M4.91601 12.6018C5.08276 12.7685 5.1627 13.0887 5.18182 13.228C5.21968 13.0744 5.29284 12.7696 5.46294 12.5995C5.63303 12.4294 5.98191 12.3121 6.11256 12.2973C5.97109 12.2572 5.67632 12.1883 5.5029 12.0149C5.32949 11.8414 5.19287 11.5081 5.17798 11.3627C5.16066 11.5134 5.10447 11.813 4.89045 12.027C4.67642 12.2411 4.36207 12.2833 4.2473 12.2934C4.39029 12.3162 4.74927 12.435 4.91601 12.6018Z" fill="#0000FF" stroke="#0000FF" stroke-width="0.0162426"/>
<path d="M18.1226 16.8975C17.9559 16.7308 17.8759 16.4105 17.8568 16.2712C17.819 16.4249 17.7458 16.7296 17.5757 16.8997C17.4056 17.0698 17.0567 17.1871 16.9261 17.202C17.0676 17.2421 17.3623 17.311 17.5357 17.4844C17.7091 17.6578 17.8458 17.9912 17.8607 18.1366C17.878 17.9858 17.9342 17.6863 18.1482 17.4722C18.3622 17.2582 18.6766 17.216 18.7913 17.2059C18.6483 17.1831 18.2894 17.0643 18.1226 16.8975Z" fill="#0000FF" stroke="#0000FF" stroke-width="0.0162426"/>
</svg>
