<svg width="16" height="16" viewBox="0 0 16 16" fill="none" xmlns="http://www.w3.org/2000/svg">
<g clip-path="url(#clip0_3018_73322)">
<path d="M3.70808 1.38313C3.86101 1.2302 4.15473 1.15689 4.28247 1.13934C4.14155 1.10463 3.86204 1.03752 3.70604 0.881517C3.55003 0.725512 3.44246 0.405535 3.42884 0.28571C3.39207 0.415464 3.32885 0.685814 3.1698 0.844863C3.01076 1.00391 2.705 1.12922 2.57168 1.14287C2.7099 1.15875 2.98467 1.21029 3.18097 1.40658C3.37727 1.60288 3.416 1.89119 3.42525 1.99645C3.44619 1.86531 3.55514 1.53607 3.70808 1.38313Z" fill="#0000FF" stroke="#0000FF" stroke-width="0.014897"/>
<path d="M5.99396 1.38313C6.1469 1.2302 6.44062 1.15689 6.56836 1.13934C6.42744 1.10463 6.14793 1.03752 5.99192 0.881517C5.83592 0.725512 5.72835 0.405535 5.71473 0.28571C5.67795 0.415464 5.61474 0.685814 5.45569 0.844863C5.29664 1.00391 4.99089 1.12922 4.85757 1.14287C4.99579 1.15875 5.27056 1.21029 5.46686 1.40658C5.66316 1.60288 5.70189 1.89119 5.71114 1.99645C5.73208 1.86531 5.84103 1.53607 5.99396 1.38313Z" fill="#0000FF" stroke="#0000FF" stroke-width="0.014897"/>
<path d="M8.2801 1.38313C8.43303 1.2302 8.72675 1.15689 8.85449 1.13934C8.71357 1.10463 8.43406 1.03752 8.27806 0.881517C8.12205 0.725512 8.01448 0.405535 8.00086 0.28571C7.96409 0.415464 7.90088 0.685814 7.74183 0.844863C7.58278 1.00391 7.27703 1.12922 7.1437 1.14287C7.28193 1.15875 7.55669 1.21029 7.75299 1.40658C7.94929 1.60288 7.98803 1.89119 7.99728 1.99645C8.01822 1.86531 8.12717 1.53607 8.2801 1.38313Z" fill="#0000FF" stroke="#0000FF" stroke-width="0.014897"/>
<path d="M10.5643 1.38313C10.7172 1.2302 11.0109 1.15689 11.1387 1.13934C10.9978 1.10463 10.7182 1.03752 10.5622 0.881517C10.4062 0.725512 10.2987 0.405535 10.285 0.28571C10.2483 0.415464 10.1851 0.685814 10.026 0.844863C9.86696 1.00391 9.56121 1.12922 9.42788 1.14287C9.56611 1.15875 9.84087 1.21029 10.0372 1.40658C10.2335 1.60288 10.2722 1.89119 10.2815 1.99645C10.3024 1.86531 10.4113 1.53607 10.5643 1.38313Z" fill="#0000FF" stroke="#0000FF" stroke-width="0.014897"/>
<path d="M12.8502 1.38313C13.0031 1.2302 13.2968 1.15689 13.4246 1.13934C13.2836 1.10463 13.0041 1.03752 12.8481 0.881517C12.6921 0.725512 12.5845 0.405535 12.5709 0.28571C12.5342 0.415464 12.4709 0.685814 12.3119 0.844863C12.1528 1.00391 11.8471 1.12922 11.7138 1.14287C11.852 1.15875 12.1268 1.21029 12.3231 1.40658C12.5194 1.60288 12.5581 1.89119 12.5673 1.99645C12.5883 1.86531 12.6972 1.53607 12.8502 1.38313Z" fill="#0000FF" stroke="#0000FF" stroke-width="0.014897"/>
<path d="M1.42219 3.66884C1.57512 3.51591 1.86884 3.44259 1.99658 3.42505C1.85566 3.39033 1.57615 3.32323 1.42015 3.16722C1.26414 3.01122 1.15657 2.69124 1.14295 2.57142C1.10618 2.70117 1.04297 2.97152 0.883916 3.13057C0.724867 3.28962 0.419116 3.41492 0.285788 3.42858C0.424016 3.44446 0.698785 3.49599 0.895081 3.69229C1.09138 3.88858 1.13012 4.1769 1.13937 4.28215C1.16031 4.15101 1.26925 3.82177 1.42219 3.66884Z" fill="#0000FF" stroke="#0000FF" stroke-width="0.014897"/>
<path d="M3.70808 3.66884C3.86101 3.51591 4.15473 3.44259 4.28247 3.42505C4.14155 3.39033 3.86204 3.32323 3.70604 3.16722C3.55003 3.01122 3.44246 2.69124 3.42884 2.57142C3.39207 2.70117 3.32885 2.97152 3.1698 3.13057C3.01076 3.28962 2.705 3.41492 2.57168 3.42858C2.7099 3.44446 2.98467 3.49599 3.18097 3.69229C3.37727 3.88858 3.416 4.1769 3.42525 4.28215C3.44619 4.15101 3.55514 3.82177 3.70808 3.66884Z" fill="#0000FF" stroke="#0000FF" stroke-width="0.014897"/>
<path d="M12.944 3.74982C13.1482 3.54571 13.5402 3.44785 13.7107 3.42444C13.5226 3.3781 13.1495 3.28854 12.9413 3.08032C12.7331 2.8721 12.5895 2.44503 12.5714 2.2851C12.5223 2.45828 12.4379 2.81911 12.2256 3.0314C12.0133 3.24368 11.6053 3.41092 11.4273 3.42915C11.6118 3.45035 11.9785 3.51913 12.2405 3.78112C12.5025 4.04312 12.5542 4.42793 12.5666 4.56842C12.5945 4.39338 12.7399 3.95394 12.944 3.74982Z" fill="#0000FF" stroke="#0000FF" stroke-width="0.019883"/>
<path d="M15.2302 3.74982C15.4343 3.54571 15.8263 3.44785 15.9968 3.42444C15.8087 3.3781 15.4357 3.28854 15.2275 3.08032C15.0192 2.8721 14.8757 2.44503 14.8575 2.2851C14.8084 2.45828 14.724 2.81911 14.5118 3.0314C14.2995 3.24368 13.8914 3.41092 13.7134 3.42915C13.8979 3.45035 14.2647 3.51913 14.5267 3.78112C14.7887 4.04312 14.8404 4.42793 14.8527 4.56842C14.8806 4.39338 15.0261 3.95394 15.2302 3.74982Z" fill="#0000FF" stroke="#0000FF" stroke-width="0.019883"/>
<path d="M1.42219 5.95448C1.57512 5.80155 1.86884 5.72824 1.99658 5.71069C1.85566 5.67598 1.57615 5.60887 1.42015 5.45287C1.26414 5.29686 1.15657 4.97689 1.14295 4.85706C1.10618 4.98681 1.04297 5.25716 0.883916 5.41621C0.724867 5.57526 0.419116 5.70057 0.285788 5.71422C0.424016 5.7301 0.698785 5.78164 0.895081 5.97793C1.09138 6.17423 1.13012 6.46254 1.13937 6.5678C1.16031 6.43666 1.26925 6.10742 1.42219 5.95448Z" fill="#0000FF" stroke="#0000FF" stroke-width="0.014897"/>
<path d="M15.2302 6.03547C15.4343 5.83135 15.8263 5.7335 15.9968 5.71008C15.8087 5.66375 15.4357 5.57418 15.2275 5.36596C15.0192 5.15774 14.8757 4.73067 14.8575 4.57074C14.8084 4.74392 14.724 5.10476 14.5118 5.31704C14.2995 5.52932 13.8914 5.69656 13.7134 5.71479C13.8979 5.73599 14.2647 5.80477 14.5267 6.06677C14.7887 6.32876 14.8404 6.71357 14.8527 6.85406C14.8806 6.67903 15.0261 6.23959 15.2302 6.03547Z" fill="#0000FF" stroke="#0000FF" stroke-width="0.019883"/>
<path d="M1.42219 8.24019C1.57512 8.08726 1.86884 8.01394 1.99658 7.9964C1.85566 7.96168 1.57615 7.89458 1.42015 7.73857C1.26414 7.58257 1.15657 7.26259 1.14295 7.14277C1.10618 7.27252 1.04297 7.54287 0.883916 7.70192C0.724867 7.86097 0.419116 7.98627 0.285788 7.99993C0.424016 8.01581 0.698785 8.06734 0.895081 8.26364C1.09138 8.45994 1.13012 8.74825 1.13937 8.8535C1.16031 8.72236 1.26925 8.39312 1.42219 8.24019Z" fill="#0000FF" stroke="#0000FF" stroke-width="0.014897"/>
<path d="M3.70808 8.24019C3.86101 8.08726 4.15473 8.01394 4.28247 7.9964C4.14155 7.96168 3.86204 7.89458 3.70604 7.73857C3.55003 7.58257 3.44246 7.26259 3.42884 7.14277C3.39207 7.27252 3.32885 7.54287 3.1698 7.70192C3.01076 7.86097 2.705 7.98627 2.57168 7.99993C2.7099 8.01581 2.98467 8.06734 3.18097 8.26364C3.37727 8.45994 3.416 8.74825 3.42525 8.8535C3.44619 8.72236 3.55514 8.39312 3.70808 8.24019Z" fill="#0000FF" stroke="#0000FF" stroke-width="0.014897"/>
<path d="M13.0382 8.40216C13.2935 8.14686 13.7838 8.02446 13.9971 7.99518C13.7618 7.93722 13.2952 7.8252 13.0348 7.56476C12.7743 7.30433 12.5948 6.77016 12.572 6.57013C12.5106 6.78674 12.4051 7.23806 12.1396 7.50357C11.8741 7.76909 11.3637 7.97827 11.1411 8.00107C11.3718 8.02758 11.8305 8.11361 12.1582 8.44131C12.4859 8.769 12.5506 9.25031 12.566 9.42603C12.601 9.2071 12.7829 8.65746 13.0382 8.40216Z" fill="#0000FF" stroke="#0000FF" stroke-width="0.0248691"/>
<path d="M15.1363 8.24019C15.2892 8.08726 15.5829 8.01394 15.7107 7.9964C15.5698 7.96168 15.2903 7.89458 15.1343 7.73857C14.9783 7.58257 14.8707 7.26259 14.8571 7.14277C14.8203 7.27252 14.7571 7.54287 14.598 7.70192C14.439 7.86097 14.1332 7.98627 13.9999 7.99993C14.1381 8.01581 14.4129 8.06734 14.6092 8.26364C14.8055 8.45994 14.8442 8.74825 14.8535 8.8535C14.8744 8.72236 14.9834 8.39312 15.1363 8.24019Z" fill="#0000FF" stroke="#0000FF" stroke-width="0.014897"/>
<path d="M3.70808 10.5258C3.86101 10.3729 4.15473 10.2996 4.28247 10.282C4.14155 10.2473 3.86204 10.1802 3.70604 10.0242C3.55003 9.86821 3.44246 9.54824 3.42884 9.42841C3.39207 9.55816 3.32885 9.82851 3.1698 9.98756C3.01076 10.1466 2.705 10.2719 2.57168 10.2856C2.7099 10.3015 2.98467 10.353 3.18097 10.5493C3.37727 10.7456 3.416 11.0339 3.42525 11.1391C3.44619 11.008 3.55514 10.6788 3.70808 10.5258Z" fill="#0000FF" stroke="#0000FF" stroke-width="0.014897"/>
<path d="M6.08785 10.6068C6.29197 10.4027 6.68399 10.3048 6.85449 10.2814C6.66641 10.2351 6.29334 10.1455 6.08513 9.93731C5.87691 9.72909 5.73333 9.30202 5.71515 9.14209C5.66607 9.31527 5.5817 9.67611 5.36942 9.88839C5.15714 10.1007 4.74905 10.2679 4.5711 10.2861C4.75559 10.3073 5.12232 10.3761 5.38432 10.6381C5.64632 10.9001 5.69802 11.2849 5.71037 11.4254C5.73832 11.2504 5.88373 10.8109 6.08785 10.6068Z" fill="#0000FF" stroke="#0000FF" stroke-width="0.019883"/>
<path d="M8.46811 10.6878C8.72341 10.4325 9.21375 10.3101 9.427 10.2808C9.19175 10.2229 8.72514 10.1108 8.4647 9.85041C8.20427 9.58997 8.02469 9.05581 8.00195 8.85577C7.94056 9.07238 7.83504 9.5237 7.56952 9.78922C7.304 10.0547 6.79358 10.2639 6.57101 10.2867C6.80176 10.3132 7.26046 10.3993 7.58816 10.727C7.91586 11.0546 7.98053 11.536 7.99597 11.7117C8.03092 11.4927 8.2128 10.9431 8.46811 10.6878Z" fill="#0000FF" stroke="#0000FF" stroke-width="0.0248691"/>
<path d="M10.7523 10.6878C11.0076 10.4325 11.4979 10.3101 11.7112 10.2808C11.4759 10.2229 11.0093 10.1108 10.7489 9.85041C10.4884 9.58997 10.3089 9.05581 10.2861 8.85577C10.2247 9.07238 10.1192 9.5237 9.8537 9.78922C9.58818 10.0547 9.07776 10.2639 8.85519 10.2867C9.08594 10.3132 9.54464 10.3993 9.87234 10.727C10.2 11.0546 10.2647 11.536 10.2801 11.7117C10.3151 11.4927 10.497 10.9431 10.7523 10.6878Z" fill="#0000FF" stroke="#0000FF" stroke-width="0.0248691"/>
<path d="M13.0382 10.6878C13.2935 10.4325 13.7838 10.3101 13.9971 10.2808C13.7618 10.2229 13.2952 10.1108 13.0348 9.85041C12.7743 9.58997 12.5948 9.05581 12.572 8.85577C12.5106 9.07238 12.4051 9.5237 12.1396 9.78922C11.8741 10.0547 11.3637 10.2639 11.1411 10.2867C11.3718 10.3132 11.8305 10.3993 12.1582 10.727C12.4859 11.0546 12.5506 11.536 12.566 11.7117C12.601 11.4927 12.7829 10.9431 13.0382 10.6878Z" fill="#0000FF" stroke="#0000FF" stroke-width="0.0248691"/>
<path d="M1.42219 15.0972C1.57512 14.9443 1.86884 14.8709 1.99658 14.8534C1.85566 14.8187 1.57615 14.7516 1.42015 14.5956C1.26414 14.4396 1.15657 14.1196 1.14295 13.9998C1.10618 14.1295 1.04297 14.3999 0.883916 14.5589C0.724867 14.718 0.419116 14.8433 0.285788 14.8569C0.424016 14.8728 0.698785 14.9243 0.895081 15.1206C1.09138 15.3169 1.13012 15.6052 1.13937 15.7105C1.16031 15.5794 1.26925 15.2501 1.42219 15.0972Z" fill="#0000FF" stroke="#0000FF" stroke-width="0.014897"/>
<path d="M3.70808 15.0972C3.86101 14.9443 4.15473 14.8709 4.28247 14.8534C4.14155 14.8187 3.86204 14.7516 3.70604 14.5956C3.55003 14.4396 3.44246 14.1196 3.42884 13.9998C3.39207 14.1295 3.32885 14.3999 3.1698 14.5589C3.01076 14.718 2.705 14.8433 2.57168 14.8569C2.7099 14.8728 2.98467 14.9243 3.18097 15.1206C3.37727 15.3169 3.416 15.6052 3.42525 15.7105C3.44619 15.5794 3.55514 15.2501 3.70808 15.0972Z" fill="#0000FF" stroke="#0000FF" stroke-width="0.014897"/>
<path d="M6.08785 15.1782C6.29197 14.9741 6.68399 14.8762 6.85449 14.8528C6.66641 14.8064 6.29334 14.7169 6.08513 14.5087C5.87691 14.3004 5.73333 13.8734 5.71515 13.7134C5.66607 13.8866 5.5817 14.2475 5.36942 14.4597C5.15714 14.672 4.74905 14.8393 4.5711 14.8575C4.75559 14.8787 5.12232 14.9475 5.38432 15.2095C5.64632 15.4715 5.69802 15.8563 5.71037 15.9968C5.73832 15.8217 5.88373 15.3823 6.08785 15.1782Z" fill="#0000FF" stroke="#0000FF" stroke-width="0.019883"/>
<path d="M8.46811 15.2592C8.72341 15.0039 9.21375 14.8815 9.427 14.8522C9.19175 14.7942 8.72514 14.6822 8.4647 14.4218C8.20427 14.1613 8.02469 13.6272 8.00195 13.4271C7.94056 13.6437 7.83504 14.0951 7.56952 14.3606C7.304 14.6261 6.79358 14.8353 6.57101 14.8581C6.80176 14.8846 7.26046 14.9706 7.58816 15.2983C7.91586 15.626 7.98053 16.1073 7.99597 16.283C8.03092 16.0641 8.2128 15.5145 8.46811 15.2592Z" fill="#0000FF" stroke="#0000FF" stroke-width="0.0248691"/>
<path d="M10.6582 15.1782C10.8623 14.9741 11.2543 14.8762 11.4248 14.8528C11.2367 14.8064 10.8637 14.7169 10.6554 14.5087C10.4472 14.3004 10.3036 13.8734 10.2855 13.7134C10.2364 13.8866 10.152 14.2475 9.93973 14.4597C9.72745 14.672 9.31936 14.8393 9.14141 14.8575C9.3259 14.8787 9.69264 14.9475 9.95463 15.2095C10.2166 15.4715 10.2683 15.8563 10.2807 15.9968C10.3086 15.8217 10.454 15.3823 10.6582 15.1782Z" fill="#0000FF" stroke="#0000FF" stroke-width="0.019883"/>
<path d="M12.8502 15.0972C13.0031 14.9443 13.2968 14.8709 13.4246 14.8534C13.2836 14.8187 13.0041 14.7516 12.8481 14.5956C12.6921 14.4396 12.5845 14.1196 12.5709 13.9998C12.5342 14.1295 12.4709 14.3999 12.3119 14.5589C12.1528 14.718 11.8471 14.8433 11.7138 14.8569C11.852 14.8728 12.1268 14.9243 12.3231 15.1206C12.5194 15.3169 12.5581 15.6052 12.5673 15.7105C12.5883 15.5794 12.6972 15.2501 12.8502 15.0972Z" fill="#0000FF" stroke="#0000FF" stroke-width="0.014897"/>
<path d="M15.1363 15.0972C15.2892 14.9443 15.5829 14.8709 15.7107 14.8534C15.5698 14.8187 15.2903 14.7516 15.1343 14.5956C14.9783 14.4396 14.8707 14.1196 14.8571 13.9998C14.8203 14.1295 14.7571 14.3999 14.598 14.5589C14.439 14.718 14.1332 14.8433 13.9999 14.8569C14.1381 14.8728 14.4129 14.9243 14.6092 15.1206C14.8055 15.3169 14.8442 15.6052 14.8535 15.7105C14.8744 15.5794 14.9834 15.2501 15.1363 15.0972Z" fill="#0000FF" stroke="#0000FF" stroke-width="0.014897"/>
</g>
<defs>
<clipPath id="clip0_3018_73322">
<rect width="15.9998" height="15.9998" fill="white"/>
</clipPath>
</defs>
</svg>
