<svg width="20" height="20" viewBox="0 0 20 20" fill="none" xmlns="http://www.w3.org/2000/svg">
<path d="M7.33523 7.12214C7.33523 6.35619 6.78101 5.43706 6.50391 5.07324C6.94555 5.33919 7.81713 5.8711 8.60169 5.8711C9.38625 5.8711 10.4613 5.33919 10.7969 5.07324C10.5631 5.49025 10.0422 6.32556 10.0422 7.12214C10.0422 7.91872 10.496 8.99816 10.7969 9.36624C10.4094 9.05986 9.58889 8.50083 8.60169 8.50083C7.6145 8.50083 6.79212 9.12581 6.50418 9.36624C6.78129 8.98539 7.33523 7.88808 7.33523 7.12214Z" fill="#5E1937"/>
<path d="M5.61843 11.8448C5.61843 11.0789 5.06422 10.1597 4.78711 9.7959C5.22875 10.0619 6.10034 10.5938 6.88489 10.5938C7.66945 10.5938 8.74454 10.0619 9.0801 9.7959C8.84629 10.2129 8.32544 11.0482 8.32544 11.8448C8.32544 12.6414 8.77918 13.7208 9.0801 14.0889C8.69259 13.7825 7.87209 13.2235 6.88489 13.2235C5.8977 13.2235 5.07532 13.8485 4.78739 14.0889C5.06449 13.708 5.61843 12.6107 5.61843 11.8448Z" fill="#5E1937"/>
<path d="M10.5144 13.9903C10.5144 13.2244 9.98786 12.3052 9.72461 11.9414C10.1442 12.2074 10.9722 12.7393 11.7175 12.7393C12.4628 12.7393 13.4842 12.2074 13.803 11.9414C13.5808 12.3584 13.086 13.1937 13.086 13.9903C13.086 14.7869 13.5171 15.8663 13.803 16.2344C13.4348 15.928 12.6553 15.369 11.7175 15.369C10.7797 15.369 9.99841 15.994 9.72487 16.2344C9.98813 15.8536 10.5144 14.7562 10.5144 13.9903Z" fill="#5E1937"/>
<path d="M12.2727 8.83991C12.2727 8.07397 11.7185 7.15484 11.4414 6.79102C11.883 7.05697 12.7546 7.58887 13.5392 7.58887C14.3238 7.58887 15.3988 7.05697 15.7344 6.79102C15.5006 7.20803 14.9797 8.04333 14.9797 8.83991C14.9797 9.63649 15.4335 10.7159 15.7344 11.084C15.3469 10.7776 14.5264 10.2186 13.5392 10.2186C12.552 10.2186 11.7296 10.8436 11.4417 11.084C11.7188 10.7032 12.2727 9.60585 12.2727 8.83991Z" fill="#5E1937"/>
</svg>
