<svg width="20" height="20" viewBox="0 0 20 20" fill="none" xmlns="http://www.w3.org/2000/svg">
<path d="M9.79199 3C11.2885 3.00007 12.6343 3.6454 13.5664 4.67285C12.5072 4.07346 11.2025 3.71875 9.79102 3.71875C8.38045 3.71878 7.07642 4.07222 6.01758 4.6709C6.94964 3.64415 8.29604 3 9.79199 3Z" fill="#66666B"/>
<path d="M16.7675 12.4992C16.3778 13.9535 15.396 15.0909 14.1515 15.723C15.0234 14.851 15.7186 13.6668 16.0896 12.2822C16.4448 10.9567 16.4503 9.64198 16.1703 8.48723C16.8895 9.64241 17.1474 11.0811 16.7675 12.4992Z" fill="#66666B"/>
<path d="M2.6915 12.498C2.31418 11.0898 2.5665 9.66215 3.2742 8.5111C3.00036 9.65971 3.00762 10.9646 3.36012 12.2804C3.7302 13.6615 4.42266 14.8436 5.29143 15.7149C4.05411 15.0813 3.07965 13.9464 2.6915 12.498Z" fill="#66666B"/>
<path d="M8.4923 11.2078C7.77569 10.4912 6.39937 10.1476 5.80078 10.0654C6.4611 9.90276 7.77085 9.58831 8.50186 8.85731C9.23287 8.12631 9.73694 6.62697 9.80077 6.0655C9.97307 6.6735 10.2693 7.94029 11.0146 8.68556C11.7598 9.43083 13.1925 10.018 13.8173 10.082C13.1696 10.1564 11.882 10.3978 10.9622 11.3177C10.0424 12.2375 9.8609 13.5884 9.81756 14.0816C9.71944 13.4671 9.20892 11.9244 8.4923 11.2078Z" fill="#66666B"/>
</svg>
