<svg width="20" height="20" viewBox="0 0 20 20" fill="none" xmlns="http://www.w3.org/2000/svg">
<path d="M9.79199 3.00024C11.2885 3.00031 12.6343 3.64564 13.5664 4.6731C12.5072 4.0737 11.2025 3.71899 9.79102 3.71899C8.38045 3.71903 7.07642 4.07247 6.01758 4.67114C6.94964 3.6444 8.29604 3.00024 9.79199 3.00024Z" fill="#0CDC2A"/>
<path d="M16.7665 12.4994C16.3768 13.9537 15.395 15.091 14.1506 15.7232C15.0225 14.8512 15.7176 13.667 16.0886 12.2824C16.4438 10.9569 16.4493 9.64216 16.1693 8.48741C16.8885 9.64259 17.1464 11.0813 16.7665 12.4994Z" fill="#0CDC2A"/>
<path d="M2.6915 12.4987C2.31418 11.0906 2.5665 9.66295 3.2742 8.5119C3.00036 9.6605 3.00762 10.9654 3.36012 12.2812C3.7302 13.6623 4.42266 14.8444 5.29143 15.7157C4.05411 15.0821 3.07965 13.9472 2.6915 12.4987Z" fill="#0CDC2A"/>
<path d="M8.49133 11.2078C7.77471 10.4912 6.39839 10.1476 5.7998 10.0654C6.46013 9.90276 7.76987 9.58831 8.50088 8.85731C9.2319 8.12631 9.73596 6.62697 9.79979 6.0655C9.9721 6.6735 10.2683 7.94029 11.0136 8.68556C11.7589 9.43083 13.1916 10.018 13.8163 10.082C13.1686 10.1564 11.8811 10.3978 10.9613 11.3177C10.0414 12.2375 9.85992 13.5884 9.81658 14.0816C9.71846 13.4671 9.20794 11.9244 8.49133 11.2078Z" fill="#0CDC2A"/>
</svg>
