<svg width="14" height="14" viewBox="0 0 14 14" fill="none" xmlns="http://www.w3.org/2000/svg">
<path d="M2.80198 2.89429C2.41249 3.28378 2.22577 4.03184 2.18109 4.35718C2.09268 3.99828 1.92177 3.28641 1.52445 2.88909C1.12713 2.49178 0.312204 2.21781 0.00702911 2.18312C0.337492 2.08946 1.02603 1.92847 1.4311 1.5234C1.83617 1.11833 2.1553 0.339634 2.19008 6.84729e-05C2.23053 0.352112 2.36177 1.0519 2.86171 1.55184C3.36164 2.05177 4.09593 2.15043 4.364 2.17399C4.03 2.22732 3.19148 2.5048 2.80198 2.89429Z" fill="#303030"/>
<path d="M7.11644 2.89429C6.72695 3.28378 6.54022 4.03184 6.49554 4.35718C6.40713 3.99828 6.23622 3.28641 5.8389 2.88909C5.44159 2.49178 4.62666 2.21781 4.32148 2.18312C4.65194 2.08946 5.34048 1.92847 5.74555 1.5234C6.15062 1.11833 6.46975 0.339634 6.50453 6.84729e-05C6.54498 0.352112 6.67622 1.0519 7.17616 1.55184C7.67609 2.05177 8.41038 2.15043 8.67845 2.17399C8.34445 2.22732 7.50593 2.5048 7.11644 2.89429Z" fill="#303030"/>
<path d="M7.11644 7.20264C6.72695 7.59213 6.54022 8.34019 6.49554 8.66553C6.40713 8.30663 6.23622 7.59476 5.8389 7.19744C5.44159 6.80013 4.62666 6.52616 4.32148 6.49147C4.65194 6.39781 5.34048 6.23682 5.74555 5.83175C6.15062 5.42668 6.46975 4.64798 6.50453 4.30842C6.54498 4.66046 6.67622 5.36025 7.17616 5.86019C7.67609 6.36012 8.41038 6.45878 8.67845 6.48234C8.34445 6.53567 7.50593 6.81315 7.11644 7.20264Z" fill="#303030"/>
<path d="M2.79497 7.20264C2.40547 7.59213 2.21875 8.34019 2.17407 8.66553C2.08566 8.30663 1.91475 7.59476 1.51743 7.19744C1.12011 6.80013 0.305185 6.52616 1.00674e-05 6.49147C0.330473 6.39781 1.01901 6.23682 1.42408 5.83175C1.82915 5.42668 2.14828 4.64798 2.18306 4.30842C2.22351 4.66046 2.35475 5.36025 2.85469 5.86019C3.35462 6.36012 4.08891 6.45878 4.35698 6.48234C4.02298 6.53567 3.18446 6.81315 2.79497 7.20264Z" fill="#303030"/>
<path d="M2.79497 11.7402C2.40547 12.1297 2.21875 12.8778 2.17407 13.2031C2.08566 12.8442 1.91475 12.1324 1.51743 11.735C1.12011 11.3377 0.305185 11.0638 1.00674e-05 11.0291C0.330473 10.9354 1.01901 10.7744 1.42408 10.3693C1.82915 9.96428 2.14828 9.18558 2.18306 8.84602C2.22351 9.19806 2.35475 9.89785 2.85469 10.3978C3.35462 10.8977 4.08891 10.9964 4.35698 11.0199C4.02298 11.0733 3.18446 11.3507 2.79497 11.7402Z" fill="#303030"/>
<path d="M11.4379 2.89429C11.0484 3.28378 10.8617 4.03184 10.817 4.35718C10.7286 3.99828 10.5577 3.28641 10.1604 2.88909C9.76306 2.49178 8.94813 2.21781 8.64295 2.18312C8.97342 2.08946 9.66195 1.92847 10.067 1.5234C10.4721 1.11833 10.7912 0.339634 10.826 6.84729e-05C10.8665 0.352112 10.9977 1.0519 11.4976 1.55184C11.9976 2.05177 12.7319 2.15043 12.9999 2.17399C12.6659 2.22732 11.8274 2.5048 11.4379 2.89429Z" fill="#303030"/>
</svg>
