<svg width="8" height="8" viewBox="0 0 8 8" fill="none" xmlns="http://www.w3.org/2000/svg">
<path d="M5.79053 0.0756836C5.79432 0.0903444 5.92294 0.566098 6.23877 0.921387C6.59194 1.22805 7.05559 1.35268 7.07178 1.35693L7.06494 1.39307C7.06494 1.39307 6.60954 1.30221 6.00342 1.56104C5.73331 1.67684 5.14835 2.18178 4.57959 2.70361L3.71045 3.57178C4.40295 4.24104 5.58843 5.35463 6.0083 5.53467C6.6021 5.78829 7.05072 5.70706 7.06885 5.70361L7.07568 5.73975C7.04863 5.74682 6.57335 5.87511 6.22217 6.19092C5.88245 6.54898 5.74764 7.05947 5.74365 7.07471L5.7085 7.06592C5.71193 7.04765 5.79221 6.60008 5.53857 6.00635C5.35958 5.58875 4.25651 4.41335 3.58643 3.71924L3.57471 3.70752L3.50439 3.77881C2.83062 4.47893 1.78584 5.59883 1.61182 6.00439C1.36087 6.59229 1.43713 7.03703 1.44189 7.06299L1.40869 7.0708C1.4029 7.04873 1.26807 6.55354 0.937012 6.19873C0.583716 5.87595 0.0993847 5.744 0.0756836 5.73779L0.0834961 5.70264C0.109102 5.70737 0.554464 5.78521 1.14307 5.53369C1.56278 5.35365 2.74629 4.24087 3.43896 3.57178L2.56787 2.70068C2.00022 2.1805 1.41647 1.67854 1.14697 1.56299C0.551288 1.30862 0.102647 1.38921 0.0874023 1.39209L0.0795898 1.35889C0.0851612 1.35744 0.557929 1.23138 0.915527 0.919434C1.22847 0.565553 1.35528 0.0933554 1.35986 0.0756836L1.39502 0.0834961C1.39189 0.10007 1.31065 0.548971 1.56494 1.14404C1.682 1.41734 2.19749 2.01326 2.72607 2.58838L3.57471 3.43701L4.43213 2.58057C4.9583 2.00783 5.46998 1.41508 5.58643 1.14307C5.84232 0.543718 5.75824 0.0924103 5.75635 0.0825195L5.79053 0.0756836Z" fill="#414141"/>
<path d="M5.79053 0.0756836L5.85234 0.0596737L5.8372 0.00123163L5.778 0.0130713L5.79053 0.0756836ZM6.23877 0.921387L6.19065 0.964165L6.19691 0.9696L6.23877 0.921387ZM7.07178 1.35693L7.13452 1.3688L7.14559 1.3103L7.08799 1.29518L7.07178 1.35693ZM7.06494 1.39307L7.05245 1.45568L7.11569 1.4683L7.12768 1.40494L7.06494 1.39307ZM6.00342 1.56104L5.97834 1.50231L5.97826 1.50235L6.00342 1.56104ZM4.57959 2.70361L4.53638 2.65652L4.53446 2.65844L4.57959 2.70361ZM3.71045 3.57178L3.66532 3.5266L3.61935 3.57253L3.66608 3.61769L3.71045 3.57178ZM6.0083 5.53467L5.98314 5.59335L5.98322 5.59339L6.0083 5.53467ZM7.06885 5.70361L7.13159 5.69174L7.11971 5.62895L7.05692 5.64088L7.06885 5.70361ZM7.07568 5.73975L7.09184 5.80152L7.1495 5.78644L7.13842 5.72788L7.07568 5.73975ZM6.22217 6.19092L6.17934 6.14329L6.17585 6.14697L6.22217 6.19092ZM5.74365 7.07471L5.72817 7.13665L5.78943 7.15197L5.80542 7.09087L5.74365 7.07471ZM5.7085 7.06592L5.64574 7.05413L5.63463 7.11327L5.69301 7.12786L5.7085 7.06592ZM5.53857 6.00635L5.59729 5.98126L5.59726 5.98119L5.53857 6.00635ZM3.58643 3.71924L3.63237 3.67488L3.63158 3.67409L3.58643 3.71924ZM3.57471 3.70752L3.61986 3.66237L3.57439 3.61691L3.52925 3.66268L3.57471 3.70752ZM3.50439 3.77881L3.45893 3.73397L3.45839 3.73453L3.50439 3.77881ZM1.61182 6.00439L1.55314 5.97922L1.55309 5.97933L1.61182 6.00439ZM1.44189 7.06299L1.45652 7.12514L1.51567 7.11123L1.5047 7.05146L1.44189 7.06299ZM1.40869 7.0708L1.34693 7.08702L1.36274 7.14721L1.42332 7.13296L1.40869 7.0708ZM0.937012 6.19873L0.983847 6.15503L0.98008 6.15159L0.937012 6.19873ZM0.0756836 5.73779L0.0133518 5.72394L1.06096e-05 5.78398L0.0595031 5.79956L0.0756836 5.73779ZM0.0834961 5.70264L0.0950945 5.63985L0.0345258 5.62866L0.0211643 5.68879L0.0834961 5.70264ZM1.14307 5.53369L1.16816 5.59241L1.16824 5.59237L1.14307 5.53369ZM3.43896 3.57178L3.48333 3.6177L3.53005 3.57257L3.48412 3.52663L3.43896 3.57178ZM2.56787 2.70068L2.61306 2.65549L2.61101 2.65361L2.56787 2.70068ZM1.14697 1.56299L1.17213 1.5043L1.17205 1.50427L1.14697 1.56299ZM0.0874023 1.39209L0.0252474 1.40671L0.0392359 1.46617L0.0992501 1.45483L0.0874023 1.39209ZM0.0795898 1.35889L0.0635816 1.29707L0.00313306 1.31273L0.0174349 1.37351L0.0795898 1.35889ZM0.915527 0.919434L0.957855 0.967957L0.963359 0.961733L0.915527 0.919434ZM1.35986 0.0756836L1.37371 0.0133518L1.31355 -1.90288e-05L1.29806 0.0596402L1.35986 0.0756836ZM1.39502 0.0834961L1.45776 0.0953337L1.46923 0.0345768L1.40887 0.0211643L1.39502 0.0834961ZM1.56494 1.14404L1.50623 1.16913L1.50625 1.16918L1.56494 1.14404ZM2.72607 2.58838L2.67902 2.63163L2.68092 2.63353L2.72607 2.58838ZM3.57471 3.43701L3.52956 3.48216L3.57468 3.52729L3.61983 3.48219L3.57471 3.43701ZM4.43213 2.58057L4.4773 2.62578L4.47915 2.62376L4.43213 2.58057ZM5.58643 1.14307L5.64513 1.16819L5.64515 1.16814L5.58643 1.14307ZM5.75635 0.0825195L5.74382 0.0199072L5.6817 0.0323316L5.69364 0.0945492L5.75635 0.0825195ZM5.79053 0.0756836L5.72871 0.0916935C5.73305 0.108425 5.86468 0.596663 6.19105 0.963809L6.23877 0.921387L6.28649 0.878964C5.98121 0.535534 5.8556 0.072264 5.85234 0.0596737L5.79053 0.0756836ZM6.23877 0.921387L6.19691 0.9696C6.56176 1.2864 7.0376 1.41398 7.05556 1.41869L7.07178 1.35693L7.08799 1.29518C7.07358 1.29139 6.62212 1.16969 6.28063 0.873173L6.23877 0.921387ZM7.07178 1.35693L7.00904 1.34506L7.0022 1.3812L7.06494 1.39307L7.12768 1.40494L7.13452 1.3688L7.07178 1.35693ZM7.06494 1.39307C7.07743 1.33045 7.07741 1.33044 7.07738 1.33044C7.07737 1.33044 7.07734 1.33043 7.07732 1.33042C7.07727 1.33042 7.07722 1.3304 7.07715 1.33039C7.07703 1.33037 7.07688 1.33034 7.07671 1.33031C7.07635 1.33024 7.07589 1.33015 7.07531 1.33004C7.07416 1.32983 7.07258 1.32954 7.07056 1.32919C7.06652 1.32849 7.06076 1.32755 7.05336 1.32648C7.03855 1.32433 7.01716 1.32164 6.98977 1.3193C6.935 1.3146 6.85622 1.31124 6.75823 1.31622C6.56223 1.32618 6.28929 1.36953 5.97834 1.50231L6.00342 1.56104L6.02849 1.61976C6.32366 1.49371 6.58149 1.45307 6.76472 1.44376C6.85635 1.4391 6.92929 1.44228 6.97886 1.44653C7.00364 1.44866 7.02255 1.45105 7.03502 1.45286C7.04125 1.45376 7.04587 1.45452 7.0488 1.45503C7.05027 1.45528 7.05131 1.45547 7.05192 1.45559C7.05223 1.45564 7.05242 1.45568 7.05251 1.4557C7.05256 1.45571 7.05257 1.45571 7.05256 1.45571C7.05256 1.45571 7.05254 1.4557 7.05253 1.4557C7.05252 1.4557 7.0525 1.45569 7.05249 1.45569C7.05247 1.45569 7.05245 1.45568 7.06494 1.39307ZM6.00342 1.56104L5.97826 1.50235C5.83357 1.56438 5.61309 1.72558 5.36301 1.93069C5.11056 2.13774 4.82112 2.39536 4.53642 2.65656L4.57959 2.70361L4.62276 2.75066C4.90682 2.49004 5.19424 2.23427 5.44399 2.02943C5.6961 1.82267 5.90315 1.67349 6.02858 1.61972L6.00342 1.56104ZM4.57959 2.70361L4.53446 2.65844L3.66532 3.5266L3.71045 3.57178L3.75557 3.61695L4.62471 2.74879L4.57959 2.70361ZM3.71045 3.57178L3.66608 3.61769C4.01256 3.95255 4.48286 4.39904 4.91934 4.78454C5.13754 4.97726 5.34788 5.15525 5.53042 5.29661C5.71135 5.43673 5.86988 5.54479 5.98314 5.59335L6.0083 5.53467L6.03346 5.47598C5.93678 5.43453 5.78968 5.33587 5.60861 5.19564C5.42914 5.05666 5.2211 4.88067 5.00388 4.68882C4.56953 4.30521 4.10084 3.86027 3.75482 3.52586L3.71045 3.57178ZM6.0083 5.53467L5.98322 5.59339C6.59242 5.8536 7.0549 5.77126 7.08077 5.76634L7.06885 5.70361L7.05692 5.64088C7.04655 5.64286 6.61177 5.72299 6.03338 5.47595L6.0083 5.53467ZM7.06885 5.70361L7.00611 5.71548L7.01294 5.75162L7.07568 5.73975L7.13842 5.72788L7.13159 5.69174L7.06885 5.70361ZM7.07568 5.73975L7.05953 5.67797C7.03083 5.68548 6.54271 5.8168 6.17947 6.14344L6.22217 6.19092L6.26486 6.2384C6.604 5.93343 7.06643 5.80817 7.09184 5.80152L7.07568 5.73975ZM6.22217 6.19092L6.17585 6.14697C5.82412 6.51769 5.68615 7.04223 5.68188 7.05854L5.74365 7.07471L5.80542 7.09087C5.80913 7.07671 5.94079 6.58026 6.26849 6.23487L6.22217 6.19092ZM5.74365 7.07471L5.75914 7.01276L5.72398 7.00397L5.7085 7.06592L5.69301 7.12786L5.72817 7.13665L5.74365 7.07471ZM5.7085 7.06592L5.77125 7.07771C5.77614 7.05171 5.85749 6.59034 5.59729 5.98126L5.53857 6.00635L5.47986 6.03143C5.72694 6.60981 5.64772 7.04359 5.64574 7.05413L5.7085 7.06592ZM5.53857 6.00635L5.59726 5.98119C5.54897 5.86853 5.44179 5.71107 5.30277 5.53136C5.16253 5.35006 4.98593 5.14114 4.79454 4.92424C4.41169 4.49035 3.96763 4.02217 3.63236 3.67489L3.58643 3.71924L3.54049 3.76359C3.87531 4.11041 4.31783 4.57699 4.69878 5.00873C4.8893 5.22465 5.0639 5.43126 5.20176 5.60949C5.34086 5.78931 5.43868 5.93537 5.47989 6.0315L5.53857 6.00635ZM3.58643 3.71924L3.63158 3.67409L3.61986 3.66237L3.57471 3.70752L3.52956 3.75267L3.54128 3.76439L3.58643 3.71924ZM3.57471 3.70752L3.52925 3.66268L3.45893 3.73397L3.50439 3.77881L3.54986 3.82365L3.62017 3.75236L3.57471 3.70752ZM3.50439 3.77881L3.45839 3.73453C3.12127 4.08483 2.69084 4.54065 2.32271 4.95993C2.13869 5.16953 1.96971 5.37058 1.83557 5.54509C1.7026 5.71809 1.60012 5.86972 1.55314 5.97922L1.61182 6.00439L1.6705 6.02957C1.71052 5.93629 1.8039 5.79584 1.93682 5.62292C2.06858 5.4515 2.23554 5.25277 2.41868 5.04419C2.78489 4.62709 3.21374 4.17291 3.5504 3.82309L3.50439 3.77881ZM1.61182 6.00439L1.55309 5.97933C1.29566 6.58241 1.37291 7.04082 1.37909 7.07452L1.44189 7.06299L1.5047 7.05146C1.50135 7.03323 1.42608 6.60216 1.67054 6.02946L1.61182 6.00439ZM1.44189 7.06299L1.42727 7.00083L1.39407 7.00865L1.40869 7.0708L1.42332 7.13296L1.45652 7.12514L1.44189 7.06299ZM1.40869 7.0708L1.47045 7.05458C1.46422 7.03086 1.32624 6.52229 0.983698 6.15517L0.937012 6.19873L0.890325 6.24229C1.20989 6.58479 1.34157 7.0666 1.34693 7.08702L1.40869 7.0708ZM0.937012 6.19873L0.98008 6.15159C0.614665 5.81774 0.117338 5.6827 0.0918641 5.67602L0.0756836 5.73779L0.0595031 5.79956C0.0814311 5.80531 0.552766 5.93416 0.893943 6.24587L0.937012 6.19873ZM0.0756836 5.73779L0.138015 5.75164L0.145828 5.71649L0.0834961 5.70264L0.0211643 5.68879L0.0133518 5.72394L0.0756836 5.73779ZM0.0834961 5.70264L0.0718977 5.76543C0.105122 5.77156 0.564235 5.85047 1.16816 5.59241L1.14307 5.53369L1.11798 5.47498C0.544693 5.71995 0.113082 5.64317 0.0950945 5.63985L0.0834961 5.70264ZM1.14307 5.53369L1.16824 5.59237C1.28146 5.54381 1.43984 5.43579 1.62057 5.29575C1.8029 5.15446 2.01298 4.97658 2.23094 4.78397C2.66693 4.39869 3.13678 3.95245 3.48333 3.6177L3.43896 3.57178L3.3946 3.52585C3.04848 3.86019 2.58023 4.30488 2.14637 4.68828C1.9294 4.88001 1.72162 5.05589 1.54235 5.1948C1.36148 5.33495 1.21453 5.43355 1.11789 5.47501L1.14307 5.53369ZM3.43896 3.57178L3.48412 3.52663L2.61302 2.65553L2.56787 2.70068L2.52272 2.74583L3.39381 3.61693L3.43896 3.57178ZM2.56787 2.70068L2.61101 2.65361C2.32684 2.3932 2.03798 2.13674 1.78604 1.93067C1.53644 1.72652 1.31646 1.56618 1.17213 1.5043L1.14697 1.56299L1.12181 1.62167C1.24699 1.67534 1.45363 1.82376 1.70519 2.02952C1.95441 2.23337 2.24125 2.48798 2.52473 2.74776L2.56787 2.70068ZM1.14697 1.56299L1.17205 1.50427C0.561064 1.24336 0.0986386 1.32499 0.0755546 1.32935L0.0874023 1.39209L0.0992501 1.45483C0.106654 1.45344 0.541512 1.37387 1.1219 1.62171L1.14697 1.56299ZM0.0874023 1.39209L0.149557 1.37747L0.141745 1.34426L0.0795898 1.35889L0.0174349 1.37351L0.0252474 1.40671L0.0874023 1.39209ZM0.0795898 1.35889L0.0955981 1.4207C0.103141 1.41875 0.588164 1.28973 0.957501 0.967551L0.915527 0.919434L0.873553 0.871316C0.701531 1.02138 0.500431 1.12775 0.34022 1.19698C0.260383 1.23148 0.191338 1.25649 0.142078 1.2729C0.0927286 1.28935 0.0635304 1.29709 0.0635816 1.29707L0.0795898 1.35889ZM0.915527 0.919434L0.963359 0.961733C1.28681 0.595976 1.41659 0.111275 1.42167 0.091727L1.35986 0.0756836L1.29806 0.0596402C1.29396 0.0754352 1.17014 0.535129 0.867695 0.877135L0.915527 0.919434ZM1.35986 0.0756836L1.34601 0.138015L1.38117 0.145828L1.39502 0.0834961L1.40887 0.0211643L1.37371 0.0133518L1.35986 0.0756836ZM1.39502 0.0834961L1.33227 0.0716585C1.32769 0.0959398 1.24536 0.55867 1.50623 1.16913L1.56494 1.14404L1.62366 1.11895C1.37595 0.539272 1.45609 0.104201 1.45776 0.0953337L1.39502 0.0834961ZM1.56494 1.14404L1.50625 1.16918C1.56893 1.31552 1.73314 1.53959 1.94186 1.79357C2.15254 2.04994 2.41448 2.34371 2.67906 2.63159L2.72607 2.58838L2.77309 2.54517C2.50909 2.25793 2.24899 1.96617 2.04052 1.71249C1.83008 1.4564 1.67801 1.24586 1.62364 1.1189L1.56494 1.14404ZM2.72607 2.58838L2.68092 2.63353L3.52956 3.48216L3.57471 3.43701L3.61986 3.39186L2.77122 2.54323L2.72607 2.58838ZM3.57471 3.43701L3.61983 3.48219L4.47725 2.62574L4.43213 2.58057L4.387 2.53539L3.52958 3.39184L3.57471 3.43701ZM4.43213 2.58057L4.47915 2.62376C4.74254 2.33706 5.00293 2.04468 5.21229 1.78955C5.41968 1.5368 5.58277 1.31387 5.64513 1.16819L5.58643 1.14307L5.52773 1.11794C5.47364 1.24427 5.32266 1.45372 5.11356 1.70854C4.90642 1.96097 4.64788 2.25133 4.38511 2.53737L4.43213 2.58057ZM5.58643 1.14307L5.64515 1.16814C5.90765 0.55332 5.82244 0.0881141 5.81906 0.0704899L5.75635 0.0825195L5.69364 0.0945492C5.69364 0.0945483 5.69364 0.0945785 5.69366 0.0946398C5.69367 0.0947005 5.69368 0.0947889 5.69371 0.094905C5.69375 0.0951372 5.69381 0.0954766 5.69389 0.0959221C5.69405 0.096813 5.69428 0.0981235 5.69456 0.0998446C5.69513 0.103287 5.69591 0.108367 5.69683 0.115014C5.69865 0.128308 5.70095 0.147859 5.70292 0.173098C5.70687 0.223585 5.7095 0.296769 5.70431 0.388126C5.69393 0.570805 5.65234 0.826058 5.5277 1.11799L5.58643 1.14307ZM5.75635 0.0825195L5.76887 0.145132L5.80305 0.138296L5.79053 0.0756836L5.778 0.0130713L5.74382 0.0199072L5.75635 0.0825195Z" fill="#414141"/>
</svg>
