<svg width="8" height="8" viewBox="0 0 8 8" fill="none" xmlns="http://www.w3.org/2000/svg">
  <g transform="translate(0.4 0.4)">
    <path
      d="M5.79053 0.0756836C5.79432 0.0903444 5.92294 0.566098 6.23877 0.921387C6.59194 1.22805 7.05559 1.35268 7.07178 1.35693L7.06494 1.39307C7.06494 1.39307 6.60954 1.30221 6.00342 1.56104C5.73331 1.67684 5.14835 2.18178 4.57959 2.70361L3.71045 3.57178C4.40295 4.24104 5.58843 5.35463 6.0083 5.53467C6.6021 5.78829 7.05072 5.70706 7.06885 5.70361L7.07568 5.73975C7.04863 5.74682 6.57335 5.87511 6.22217 6.19092C5.88245 6.54898 5.74764 7.05947 5.74365 7.07471L5.7085 7.06592C5.71193 7.04765 5.79221 6.60008 5.53857 6.00635C5.35958 5.58875 4.25651 4.41335 3.58643 3.71924L3.57471 3.70752L3.50439 3.77881C2.83062 4.47893 1.78584 5.59883 1.61182 6.00439C1.36087 6.59229 1.43713 7.03703 1.44189 7.06299L1.40869 7.0708C1.4029 7.04873 1.26807 6.55354 0.937012 6.19873C0.583716 5.87595 0.0993847 5.744 0.0756836 5.73779L0.0834961 5.70264C0.109102 5.70737 0.554464 5.78521 1.14307 5.53369C1.56278 5.35365 2.74629 4.24087 3.43896 3.57178L2.56787 2.70068C2.00022 2.1805 1.41647 1.67854 1.14697 1.56299C0.551288 1.30862 0.102647 1.38921 0.0874023 1.39209L0.0795898 1.35889C0.0851612 1.35744 0.557929 1.23138 0.915527 0.919434C1.22847 0.565553 1.35528 0.0933554 1.35986 0.0756836L1.39502 0.0834961C1.39189 0.10007 1.31065 0.548971 1.56494 1.14404C1.682 1.41734 2.19749 2.01326 2.72607 2.58838L3.57471 3.43701L4.43213 2.58057C4.9583 2.00783 5.46998 1.41508 5.58643 1.14307C5.84232 0.543718 5.75824 0.0924103 5.75635 0.0825195L5.79053 0.0756836Z"
      fill="#414141"
    />
  </g>
</svg>
