<svg width="20" height="20" viewBox="0 0 20 20" fill="none" xmlns="http://www.w3.org/2000/svg">
<path fill-rule="evenodd" clip-rule="evenodd" d="M6.67036 13.3697C5.5539 12.2532 5.82691 10.0377 7.16157 7.70658C6.61407 9.32068 6.68518 10.7311 7.50435 11.5503C9.12871 13.1747 13.0788 11.8585 16.3276 8.6099C17.3428 7.5947 18.1697 6.51056 18.7768 5.45072C18.2384 7.03654 17.1041 8.81872 15.4946 10.4283C12.2457 13.6771 8.2948 14.9941 6.67036 13.3697Z" fill="#B22FB6"/>
<path fill-rule="evenodd" clip-rule="evenodd" d="M12.8416 5.69477C13.9578 6.81113 13.6846 9.02617 12.3504 11.3569C12.8975 9.74324 12.8265 8.33322 12.0076 7.5141C10.3832 5.88968 6.43226 7.2057 3.18339 10.4545C2.16824 11.4697 1.34226 12.5539 0.735152 13.6137C1.27362 12.0279 2.40788 10.2457 4.01738 8.63617C7.26623 5.38738 11.2172 4.07035 12.8416 5.69477Z" fill="#B22FB6"/>
</svg>
