<svg width="17" height="17" viewBox="0 0 17 17" fill="none" xmlns="http://www.w3.org/2000/svg">
<path d="M10.2187 14.3933C10.0824 14.5297 9.82045 14.5951 9.70654 14.6107C9.8322 14.6417 10.0814 14.7015 10.2206 14.8406C10.3597 14.9797 10.4556 15.2651 10.4677 15.3719C10.5005 15.2562 10.5569 15.0151 10.6987 14.8733C10.8405 14.7315 11.1132 14.6197 11.2321 14.6076C11.1088 14.5934 10.8638 14.5475 10.6888 14.3724C10.5137 14.1974 10.4792 13.9403 10.4709 13.8464C10.4523 13.9634 10.3551 14.257 10.2187 14.3933Z" fill="#0000FF" stroke="#0000FF" stroke-width="0.0132837"/>
<path d="M6.70558 2.59178C6.84195 2.45541 7.10387 2.39003 7.21777 2.37439C7.09212 2.34343 6.84288 2.2836 6.70377 2.14449C6.56466 2.00538 6.46874 1.72005 6.45659 1.6132C6.4238 1.72891 6.36743 1.96998 6.22561 2.1118C6.08378 2.25363 5.81115 2.36536 5.69226 2.37754C5.81551 2.3917 6.06053 2.43765 6.23556 2.61269C6.4106 2.78773 6.44514 3.04482 6.45339 3.13867C6.47207 3.02173 6.56922 2.72815 6.70558 2.59178Z" fill="#0000FF" stroke="#0000FF" stroke-width="0.0132837"/>
<path d="M8.18016 14.3933C8.04379 14.5297 7.78188 14.5951 7.66797 14.6107C7.79363 14.6417 8.04287 14.7015 8.18198 14.8406C8.32109 14.9797 8.41701 15.2651 8.42916 15.3719C8.46194 15.2562 8.51831 15.0151 8.66014 14.8733C8.80196 14.7315 9.0746 14.6197 9.19349 14.6076C9.07023 14.5934 8.82522 14.5475 8.65018 14.3724C8.47514 14.1974 8.4406 13.9403 8.43235 13.8464C8.41368 13.9634 8.31653 14.257 8.18016 14.3933Z" fill="#0000FF" stroke="#0000FF" stroke-width="0.0132837"/>
<path d="M8.74367 2.59178C8.88004 2.45541 9.14195 2.39003 9.25586 2.37439C9.1302 2.34343 8.88096 2.2836 8.74185 2.14449C8.60274 2.00538 8.50682 1.72005 8.49467 1.6132C8.46188 1.72891 8.40552 1.96998 8.26369 2.1118C8.12187 2.25363 7.84923 2.36536 7.73034 2.37754C7.8536 2.3917 8.09861 2.43765 8.27365 2.61269C8.44869 2.78773 8.48323 3.04482 8.49148 3.13867C8.51015 3.02173 8.6073 2.72815 8.74367 2.59178Z" fill="#0000FF" stroke="#0000FF" stroke-width="0.0132837"/>
<path d="M9.96385 10.3162C9.82748 10.4526 9.56557 10.5179 9.45166 10.5336C9.57732 10.5645 9.82656 10.6244 9.96567 10.7635C10.1048 10.9026 10.2007 11.1879 10.2128 11.2948C10.2456 11.1791 10.302 10.938 10.4438 10.7962C10.5857 10.6543 10.8583 10.5426 10.9772 10.5304C10.8539 10.5163 10.6089 10.4703 10.4339 10.2953C10.2588 10.1202 10.2243 9.86315 10.216 9.76929C10.1974 9.88623 10.1002 10.1798 9.96385 10.3162Z" fill="#0000FF" stroke="#0000FF" stroke-width="0.0132837"/>
<path d="M6.96047 6.66795C7.09684 6.53158 7.35875 6.4662 7.47266 6.45056C7.347 6.41961 7.09776 6.35977 6.95865 6.22066C6.81954 6.08155 6.72362 5.79622 6.71147 5.68938C6.67868 5.80508 6.62232 6.04615 6.48049 6.18797C6.33867 6.3298 6.06603 6.44153 5.94714 6.45371C6.0704 6.46787 6.31541 6.51382 6.49045 6.68886C6.66549 6.8639 6.70003 7.12099 6.70828 7.21484C6.72695 7.09791 6.8241 6.80432 6.96047 6.66795Z" fill="#0000FF" stroke="#0000FF" stroke-width="0.0132837"/>
<path d="M12.2568 12.3543C12.1204 12.4906 11.8585 12.556 11.7446 12.5717C11.8703 12.6026 12.1195 12.6625 12.2586 12.8016C12.3977 12.9407 12.4937 13.226 12.5058 13.3328C12.5386 13.2171 12.595 12.9761 12.7368 12.8342C12.8786 12.6924 13.1513 12.5807 13.2701 12.5685C13.1469 12.5543 12.9019 12.5084 12.7268 12.3334C12.5518 12.1583 12.5173 11.9012 12.509 11.8074C12.4903 11.9243 12.3932 12.2179 12.2568 12.3543Z" fill="#0000FF" stroke="#0000FF" stroke-width="0.0132837"/>
<path d="M4.6675 4.62986C4.80387 4.49349 5.06578 4.42812 5.17969 4.41248C5.05403 4.38152 4.80479 4.32168 4.66568 4.18257C4.52657 4.04346 4.43065 3.75814 4.4185 3.65129C4.38571 3.76699 4.32935 4.00806 4.18752 4.14989C4.0457 4.29171 3.77306 4.40344 3.65417 4.41562C3.77743 4.42978 4.02244 4.47574 4.19748 4.65077C4.37252 4.82581 4.40706 5.0829 4.41531 5.17676C4.43398 5.05982 4.53113 4.76623 4.6675 4.62986Z" fill="#0000FF" stroke="#0000FF" stroke-width="0.0132837"/>
<path d="M10.2187 12.3543C10.0824 12.4906 9.82045 12.556 9.70654 12.5717C9.8322 12.6026 10.0814 12.6625 10.2206 12.8016C10.3597 12.9407 10.4556 13.226 10.4677 13.3328C10.5005 13.2171 10.5569 12.9761 10.6987 12.8342C10.8405 12.6924 11.1132 12.5807 11.2321 12.5685C11.1088 12.5543 10.8638 12.5084 10.6888 12.3334C10.5137 12.1583 10.4792 11.9012 10.4709 11.8074C10.4523 11.9243 10.3551 12.2179 10.2187 12.3543Z" fill="#0000FF" stroke="#0000FF" stroke-width="0.0132837"/>
<path d="M6.70558 4.62986C6.84195 4.49349 7.10387 4.42812 7.21777 4.41248C7.09212 4.38152 6.84288 4.32168 6.70377 4.18257C6.56466 4.04346 6.46874 3.75814 6.45659 3.65129C6.4238 3.76699 6.36743 4.00806 6.22561 4.14989C6.08378 4.29171 5.81115 4.40344 5.69226 4.41562C5.81551 4.42978 6.06053 4.47574 6.23556 4.65077C6.4106 4.82581 6.44514 5.0829 6.45339 5.17676C6.47207 5.05982 6.56922 4.76623 6.70558 4.62986Z" fill="#0000FF" stroke="#0000FF" stroke-width="0.0132837"/>
<path d="M14.2949 10.3162C14.1585 10.4526 13.8966 10.5179 13.7827 10.5336C13.9084 10.5645 14.1576 10.6244 14.2967 10.7635C14.4358 10.9026 14.5318 11.1879 14.5439 11.2948C14.5767 11.1791 14.6331 10.938 14.7749 10.7962C14.9167 10.6543 15.1893 10.5426 15.3082 10.5304C15.185 10.5163 14.94 10.4703 14.7649 10.2953C14.5899 10.1202 14.5553 9.86315 14.5471 9.76929C14.5284 9.88623 14.4313 10.1798 14.2949 10.3162Z" fill="#0000FF" stroke="#0000FF" stroke-width="0.0132837"/>
<path d="M2.62941 6.66795C2.76578 6.53158 3.02769 6.4662 3.1416 6.45056C3.01595 6.41961 2.7667 6.35977 2.62759 6.22066C2.48849 6.08155 2.39256 5.79622 2.38042 5.68938C2.34763 5.80508 2.29126 6.04615 2.14944 6.18797C2.00761 6.3298 1.73497 6.44153 1.61608 6.45371C1.73934 6.46787 1.98435 6.51382 2.15939 6.68886C2.33443 6.8639 2.36897 7.12099 2.37722 7.21484C2.39589 7.09791 2.49304 6.80432 2.62941 6.66795Z" fill="#0000FF" stroke="#0000FF" stroke-width="0.0132837"/>
<path d="M12.0889 10.1716C11.8613 10.3993 11.424 10.5084 11.2339 10.5345C11.4437 10.5862 11.8597 10.6861 12.092 10.9183C12.3242 11.1506 12.4843 11.6269 12.5046 11.8053C12.5593 11.6121 12.6534 11.2097 12.8902 10.9729C13.127 10.7362 13.5821 10.5496 13.7806 10.5293C13.5748 10.5057 13.1658 10.4289 12.8736 10.1367C12.5814 9.84452 12.5237 9.41534 12.5099 9.25866C12.4788 9.45387 12.3166 9.94398 12.0889 10.1716Z" fill="#0000FF" stroke="#0000FF" stroke-width="0.0221758"/>
<path d="M4.83538 6.81249C5.06304 6.58484 5.50027 6.4757 5.69043 6.44959C5.48066 6.39791 5.06458 6.29801 4.83235 6.06578C4.60012 5.83355 4.43999 5.35724 4.41971 5.17886C4.36497 5.37202 4.27087 5.77446 4.03411 6.01122C3.79735 6.24798 3.34221 6.43451 3.14373 6.45484C3.3495 6.47848 3.75852 6.55519 4.05073 6.8474C4.34294 7.13961 4.4006 7.56879 4.41437 7.72548C4.44555 7.53026 4.60773 7.04015 4.83538 6.81249Z" fill="#0000FF" stroke="#0000FF" stroke-width="0.0221758"/>
<path d="M14.127 8.13355C13.8994 8.36121 13.4621 8.47035 13.272 8.49646C13.4817 8.54814 13.8978 8.64803 14.1301 8.88026C14.3623 9.11249 14.5224 9.58881 14.5427 9.76718C14.5974 9.57403 14.6915 9.17159 14.9283 8.93483C15.1651 8.69806 15.6202 8.51154 15.8187 8.49121C15.6129 8.46757 15.2039 8.39086 14.9117 8.09865C14.6195 7.80644 14.5618 7.37726 14.548 7.22057C14.5169 7.41579 14.3547 7.9059 14.127 8.13355Z" fill="#0000FF" stroke="#0000FF" stroke-width="0.0221758"/>
<path d="M2.7973 8.85058C3.02495 8.62292 3.46218 8.51378 3.65234 8.48767C3.44257 8.43599 3.02649 8.3361 2.79426 8.10387C2.56203 7.87164 2.4019 7.39532 2.38162 7.21695C2.32688 7.4101 2.23279 7.81255 1.99603 8.04931C1.75926 8.28607 1.30412 8.47259 1.10565 8.49292C1.31141 8.51657 1.72044 8.59328 2.01265 8.88549C2.30485 9.17769 2.36252 9.60688 2.37629 9.76356C2.40746 9.56834 2.56964 9.07823 2.7973 8.85058Z" fill="#0000FF" stroke="#0000FF" stroke-width="0.0221758"/>
<path d="M12.0889 8.13355C11.8613 8.36121 11.424 8.47035 11.2339 8.49646C11.4437 8.54814 11.8597 8.64803 12.092 8.88026C12.3242 9.11249 12.4843 9.58881 12.5046 9.76718C12.5593 9.57403 12.6534 9.17159 12.8902 8.93483C13.127 8.69806 13.5821 8.51154 13.7806 8.49121C13.5748 8.46757 13.1658 8.39086 12.8736 8.09865C12.5814 7.80644 12.5237 7.37726 12.5099 7.22057C12.4788 7.41579 12.3166 7.9059 12.0889 8.13355Z" fill="#0000FF" stroke="#0000FF" stroke-width="0.0221758"/>
<path d="M4.83538 8.85058C5.06304 8.62292 5.50027 8.51378 5.69043 8.48767C5.48066 8.43599 5.06458 8.3361 4.83235 8.10387C4.60012 7.87164 4.43999 7.39532 4.41971 7.21695C4.36497 7.4101 4.27087 7.81255 4.03411 8.04931C3.79735 8.28607 3.34221 8.47259 3.14373 8.49292C3.3495 8.51657 3.75852 8.59328 4.05073 8.88549C4.34294 9.17769 4.4006 9.60688 4.41437 9.76356C4.44555 9.56834 4.60773 9.07823 4.83538 8.85058Z" fill="#0000FF" stroke="#0000FF" stroke-width="0.0221758"/>
<path d="M14.2949 6.24001C14.1585 6.37638 13.8966 6.44176 13.7827 6.4574C13.9084 6.48835 14.1576 6.54819 14.2967 6.6873C14.4358 6.82641 14.5318 7.11174 14.5439 7.21858C14.5767 7.10288 14.6331 6.86181 14.7749 6.71999C14.9167 6.57816 15.1893 6.46643 15.3082 6.45425C15.185 6.44009 14.94 6.39414 14.7649 6.2191C14.5899 6.04406 14.5553 5.78697 14.5471 5.69312C14.5284 5.81006 14.4313 6.10364 14.2949 6.24001Z" fill="#0000FF" stroke="#0000FF" stroke-width="0.0132837"/>
<path d="M2.62941 10.7441C2.76578 10.6078 3.02769 10.5424 3.1416 10.5267C3.01595 10.4958 2.7667 10.4359 2.62759 10.2968C2.48849 10.1577 2.39256 9.8724 2.38042 9.76555C2.34763 9.88125 2.29126 10.1223 2.14944 10.2641C2.00761 10.406 1.73497 10.5177 1.61608 10.5299C1.73934 10.544 1.98435 10.59 2.15939 10.765C2.33443 10.9401 2.36897 11.1972 2.37722 11.291C2.39589 11.1741 2.49304 10.8805 2.62941 10.7441Z" fill="#0000FF" stroke="#0000FF" stroke-width="0.0132837"/>
<path d="M12.0889 6.09547C11.8613 6.32312 11.424 6.43226 11.2339 6.45837C11.4437 6.51005 11.8597 6.60995 12.092 6.84218C12.3242 7.07441 12.4843 7.55073 12.5046 7.7291C12.5593 7.53594 12.6534 7.1335 12.8902 6.89674C13.127 6.65998 13.5821 6.47345 13.7806 6.45312C13.5748 6.42948 13.1658 6.35277 12.8736 6.06056C12.5814 5.76835 12.5237 5.33917 12.5099 5.18248C12.4788 5.3777 12.3166 5.86781 12.0889 6.09547Z" fill="#0000FF" stroke="#0000FF" stroke-width="0.0221758"/>
<path d="M4.83538 10.8887C5.06304 10.661 5.50027 10.5519 5.69043 10.5258C5.48066 10.4741 5.06458 10.3742 4.83235 10.142C4.60012 9.90973 4.43999 9.43341 4.41971 9.25504C4.36497 9.44819 4.27087 9.85063 4.03411 10.0874C3.79735 10.3242 3.34221 10.5107 3.14373 10.531C3.3495 10.5547 3.75852 10.6314 4.05073 10.9236C4.34294 11.2158 4.4006 11.645 4.41437 11.8016C4.44555 11.6064 4.60773 11.1163 4.83538 10.8887Z" fill="#0000FF" stroke="#0000FF" stroke-width="0.0221758"/>
<path d="M12.2568 4.20192C12.1204 4.33829 11.8585 4.40367 11.7446 4.41931C11.8703 4.45027 12.1195 4.51011 12.2586 4.64922C12.3977 4.78833 12.4937 5.07365 12.5058 5.1805C12.5386 5.0648 12.595 4.82373 12.7368 4.6819C12.8786 4.54008 13.1513 4.42834 13.2701 4.41617C13.1469 4.402 12.9019 4.35605 12.7268 4.18101C12.5518 4.00598 12.5173 3.74889 12.509 3.65503C12.4903 3.77197 12.3932 4.06555 12.2568 4.20192Z" fill="#0000FF" stroke="#0000FF" stroke-width="0.0132837"/>
<path d="M4.6675 12.7822C4.80387 12.6458 5.06578 12.5805 5.17969 12.5648C5.05403 12.5339 4.80479 12.474 4.66568 12.3349C4.52657 12.1958 4.43065 11.9105 4.4185 11.8036C4.38571 11.9193 4.32935 12.1604 4.18752 12.3022C4.0457 12.4441 3.77306 12.5558 3.65417 12.568C3.77743 12.5821 4.02244 12.6281 4.19748 12.8031C4.37252 12.9782 4.40706 13.2352 4.41531 13.3291C4.43398 13.2122 4.53113 12.9186 4.6675 12.7822Z" fill="#0000FF" stroke="#0000FF" stroke-width="0.0132837"/>
<path d="M10.2187 4.20192C10.0824 4.33829 9.82045 4.40367 9.70654 4.41931C9.8322 4.45027 10.0814 4.51011 10.2206 4.64922C10.3597 4.78833 10.4556 5.07365 10.4677 5.1805C10.5005 5.0648 10.5569 4.82373 10.6987 4.6819C10.8405 4.54008 11.1132 4.42834 11.2321 4.41617C11.1088 4.402 10.8638 4.35605 10.6888 4.18101C10.5137 4.00598 10.4792 3.74889 10.4709 3.65503C10.4523 3.77197 10.3551 4.06555 10.2187 4.20192Z" fill="#0000FF" stroke="#0000FF" stroke-width="0.0132837"/>
<path d="M6.70558 12.7822C6.84195 12.6458 7.10387 12.5805 7.21777 12.5648C7.09212 12.5339 6.84288 12.474 6.70377 12.3349C6.56466 12.1958 6.46874 11.9105 6.45659 11.8036C6.4238 11.9193 6.36743 12.1604 6.22561 12.3022C6.08378 12.4441 5.81115 12.5558 5.69226 12.568C5.81551 12.5821 6.06053 12.6281 6.23556 12.8031C6.4106 12.9782 6.44514 13.2352 6.45339 13.3291C6.47207 13.2122 6.56922 12.9186 6.70558 12.7822Z" fill="#0000FF" stroke="#0000FF" stroke-width="0.0132837"/>
<path d="M10.2187 2.16384C10.0824 2.30021 9.82045 2.36558 9.70654 2.38123C9.8322 2.41218 10.0814 2.47202 10.2206 2.61113C10.3597 2.75024 10.4556 3.03556 10.4677 3.14241C10.5005 3.02671 10.5569 2.78564 10.6987 2.64382C10.8405 2.50199 11.1132 2.39026 11.2321 2.37808C11.1088 2.36392 10.8638 2.31797 10.6888 2.14293C10.5137 1.96789 10.4792 1.7108 10.4709 1.61694C10.4523 1.73388 10.3551 2.02747 10.2187 2.16384Z" fill="#0000FF" stroke="#0000FF" stroke-width="0.0132837"/>
<path d="M6.70558 14.8203C6.84195 14.6839 7.10387 14.6185 7.21777 14.6029C7.09212 14.5719 6.84288 14.5121 6.70377 14.373C6.56466 14.2339 6.46874 13.9486 6.45659 13.8417C6.4238 13.9574 6.36743 14.1985 6.22561 14.3403C6.08378 14.4821 5.81115 14.5939 5.69226 14.6061C5.81551 14.6202 6.06053 14.6662 6.23556 14.8412C6.4106 15.0162 6.44514 15.2733 6.45339 15.3672C6.47207 15.2502 6.56922 14.9567 6.70558 14.8203Z" fill="#0000FF" stroke="#0000FF" stroke-width="0.0132837"/>
</svg>
