<svg width="19" height="13" viewBox="0 0 19 13" fill="none" xmlns="http://www.w3.org/2000/svg">
<g clip-path="url(#clip0_2606_38311)">
<path d="M16.8806 1.64233C17.0572 1.81894 17.1419 2.15814 17.1621 2.30566C17.2022 2.14293 17.2797 1.82013 17.4599 1.63997C17.64 1.45981 18.0095 1.33558 18.1479 1.31985C17.9981 1.27738 17.6859 1.20438 17.5022 1.02071C17.3185 0.837028 17.1738 0.483932 17.158 0.329958C17.1397 0.48959 17.0802 0.806906 16.8535 1.0336C16.6268 1.26029 16.2938 1.30503 16.1723 1.31571C16.3237 1.33989 16.704 1.46571 16.8806 1.64233Z" fill="#0000FF" stroke="#0000FF" stroke-width="0.0172038"/>
<path d="M14.2409 1.64233C14.4175 1.81894 14.5022 2.15814 14.5225 2.30566C14.5626 2.14293 14.6401 1.82013 14.8202 1.63997C15.0004 1.45981 15.3699 1.33558 15.5083 1.31985C15.3584 1.27738 15.0462 1.20438 14.8625 1.02071C14.6789 0.837028 14.5342 0.483932 14.5184 0.329958C14.5 0.48959 14.4405 0.806906 14.2138 1.0336C13.9871 1.26029 13.6542 1.30503 13.5326 1.31571C13.6841 1.33989 14.0643 1.46571 14.2409 1.64233Z" fill="#0000FF" stroke="#0000FF" stroke-width="0.0172038"/>
<path d="M14.1467 4.39052C14.3824 4.62625 14.4954 5.07898 14.5225 5.27588C14.576 5.05867 14.6794 4.62784 14.9199 4.38738C15.1603 4.14692 15.6535 3.98111 15.8382 3.96011C15.6382 3.90343 15.2215 3.806 14.9764 3.56085C14.7312 3.31569 14.5381 2.84442 14.517 2.63891C14.4925 2.85197 14.4131 3.27549 14.1105 3.57806C13.808 3.88062 13.3636 3.94033 13.2013 3.95459C13.4035 3.98687 13.911 4.1548 14.1467 4.39052Z" fill="#0000FF" stroke="#0000FF" stroke-width="0.0229619"/>
<path d="M11.507 1.75087C11.7428 1.9866 11.8558 2.43933 11.8828 2.63623C11.9363 2.41902 12.0398 1.98819 12.2802 1.74773C12.5207 1.50727 13.0139 1.34146 13.1986 1.32046C12.9986 1.26379 12.5819 1.16635 12.3367 0.921198C12.0916 0.676043 11.8984 0.204767 11.8774 -0.00074189C11.8529 0.212319 11.7735 0.63584 11.4709 0.938407C11.1683 1.24097 10.7239 1.30068 10.5617 1.31494C10.7638 1.34722 11.2713 1.51515 11.507 1.75087Z" fill="#0000FF" stroke="#0000FF" stroke-width="0.0229619"/>
<path d="M11.4138 4.49919C11.7086 4.79403 11.85 5.36029 11.8838 5.60657C11.9507 5.33489 12.0801 4.79602 12.3809 4.49526C12.6816 4.1945 13.2985 3.98711 13.5295 3.96085C13.2794 3.88996 12.7581 3.76809 12.4515 3.46146C12.1449 3.15483 11.9033 2.56537 11.877 2.30833C11.8464 2.57482 11.747 3.10454 11.3686 3.48299C10.9901 3.86143 10.4343 3.93611 10.2314 3.95394C10.4842 3.99431 11.1189 4.20435 11.4138 4.49919Z" fill="#0000FF" stroke="#0000FF" stroke-width="0.02872"/>
<path d="M11.6013 6.92162C11.7779 7.09824 11.8626 7.43744 11.8828 7.58496C11.9229 7.42222 12.0004 7.09943 12.1806 6.91927C12.3607 6.73911 12.7302 6.61488 12.8686 6.59915C12.7188 6.55668 12.4066 6.48368 12.2229 6.3C12.0392 6.11632 11.8945 5.76323 11.8787 5.60925C11.8604 5.76889 11.8009 6.0862 11.5742 6.3129C11.3475 6.53959 11.0145 6.58433 10.893 6.59501C11.0444 6.61919 11.4247 6.74501 11.6013 6.92162Z" fill="#0000FF" stroke="#0000FF" stroke-width="0.0172038"/>
<path d="M8.77414 1.85954C9.06898 2.15438 9.21032 2.72064 9.24414 2.96692C9.31107 2.69524 9.44044 2.15637 9.7412 1.85561C10.042 1.55485 10.6588 1.34746 10.8899 1.3212C10.6397 1.25031 10.1185 1.12844 9.81187 0.821812C9.50524 0.515181 9.26367 -0.0742761 9.23734 -0.33132C9.20672 -0.0648303 9.10737 0.464896 8.72893 0.843337C8.35049 1.22178 7.79465 1.29646 7.59173 1.31429C7.84456 1.35466 8.4793 1.56471 8.77414 1.85954Z" fill="#0000FF" stroke="#0000FF" stroke-width="0.02872"/>
<path d="M8.77414 4.49919C9.06898 4.79403 9.21032 5.36029 9.24414 5.60657C9.31107 5.33489 9.44044 4.79602 9.7412 4.49526C10.042 4.1945 10.6588 3.98711 10.8899 3.96085C10.6397 3.88996 10.1185 3.76809 9.81187 3.46146C9.50524 3.15483 9.26367 2.56537 9.23734 2.30833C9.20672 2.57482 9.10737 3.10454 8.72893 3.48299C8.35049 3.86143 7.79465 3.93611 7.59173 3.95394C7.84456 3.99431 8.4793 4.20435 8.77414 4.49919Z" fill="#0000FF" stroke="#0000FF" stroke-width="0.02872"/>
<path d="M8.86739 7.03017C9.10312 7.2659 9.21613 7.71863 9.24316 7.91553C9.29667 7.69832 9.40011 7.26749 9.64057 7.02703C9.88103 6.78657 10.3742 6.62076 10.5589 6.59976C10.3589 6.54308 9.94222 6.44565 9.69707 6.20049C9.45191 5.95534 9.25878 5.48406 9.23773 5.27855C9.21325 5.49162 9.13382 5.91514 8.83125 6.2177C8.52868 6.52027 8.08428 6.57998 7.92204 6.59424C8.12418 6.62651 8.63167 6.79445 8.86739 7.03017Z" fill="#0000FF" stroke="#0000FF" stroke-width="0.0229619"/>
<path d="M8.77414 9.77849C9.06898 10.0733 9.21032 10.6396 9.24414 10.8859C9.31107 10.6142 9.44044 10.0753 9.7412 9.77456C10.042 9.4738 10.6588 9.26641 10.8899 9.24015C10.6397 9.16925 10.1185 9.04739 9.81187 8.74076C9.50524 8.43413 9.26367 7.84467 9.23734 7.58763C9.20672 7.85412 9.10737 8.38384 8.72893 8.76228C8.35049 9.14072 7.79465 9.21541 7.59173 9.23324C7.84456 9.27361 8.4793 9.48365 8.77414 9.77849Z" fill="#0000FF" stroke="#0000FF" stroke-width="0.02872"/>
<path d="M8.96162 11.8708C9.13824 12.0475 9.22291 12.3867 9.24316 12.5342C9.28326 12.3714 9.36075 12.0486 9.54091 11.8685C9.72108 11.6883 10.0906 11.5641 10.229 11.5484C10.0791 11.5059 9.76692 11.4329 9.58324 11.2492C9.39957 11.0655 9.25486 10.7124 9.23909 10.5585C9.22075 10.7181 9.16124 11.0354 8.93454 11.2621C8.70785 11.4888 8.37489 11.5335 8.25334 11.5442C8.40479 11.5684 8.78501 11.6942 8.96162 11.8708Z" fill="#0000FF" stroke="#0000FF" stroke-width="0.0172038"/>
<path d="M6.22774 1.75087C6.46347 1.9866 6.57648 2.43933 6.60352 2.63623C6.65703 2.41902 6.76046 1.98819 7.00092 1.74773C7.24138 1.50727 7.73459 1.34146 7.91928 1.32046C7.71928 1.26379 7.30257 1.16635 7.05742 0.921198C6.81227 0.676043 6.61913 0.204767 6.59808 -0.00074189C6.5736 0.212319 6.49417 0.63584 6.1916 0.938407C5.88903 1.24097 5.44464 1.30068 5.2824 1.31494C5.48453 1.34722 5.99202 1.51515 6.22774 1.75087Z" fill="#0000FF" stroke="#0000FF" stroke-width="0.0229619"/>
<path d="M6.13449 4.49919C6.42933 4.79403 6.57067 5.36029 6.60449 5.60657C6.67142 5.33489 6.8008 4.79602 7.10156 4.49526C7.40232 4.1945 8.0192 3.98711 8.25021 3.96085C8.00006 3.88996 7.47885 3.76809 7.17222 3.46146C6.86559 3.15483 6.62402 2.56537 6.59769 2.30833C6.56707 2.57482 6.46772 3.10454 6.08928 3.48299C5.71084 3.86143 5.155 3.93611 4.95208 3.95394C5.20491 3.99431 5.83965 4.20435 6.13449 4.49919Z" fill="#0000FF" stroke="#0000FF" stroke-width="0.02872"/>
<path d="M6.32198 6.92162C6.49859 7.09824 6.58326 7.43744 6.60352 7.58496C6.64361 7.42222 6.7211 7.09943 6.90127 6.91927C7.08143 6.73911 7.45095 6.61488 7.58933 6.59915C7.43949 6.55668 7.12727 6.48368 6.9436 6.3C6.75992 6.11632 6.61521 5.76323 6.59944 5.60925C6.5811 5.76889 6.52159 6.0862 6.2949 6.3129C6.0682 6.53959 5.73524 6.58433 5.61369 6.59501C5.76514 6.61919 6.14536 6.74501 6.32198 6.92162Z" fill="#0000FF" stroke="#0000FF" stroke-width="0.0172038"/>
<path d="M3.68233 1.64233C3.85894 1.81894 3.94361 2.15814 3.96387 2.30566C4.00396 2.14293 4.08146 1.82013 4.26162 1.63997C4.44178 1.45981 4.8113 1.33558 4.94968 1.31985C4.79984 1.27738 4.48762 1.20438 4.30395 1.02071C4.12027 0.837028 3.97556 0.483932 3.95979 0.329958C3.94145 0.48959 3.88194 0.806906 3.65525 1.0336C3.42855 1.26029 3.0956 1.30503 2.97404 1.31571C3.12549 1.33989 3.50571 1.46571 3.68233 1.64233Z" fill="#0000FF" stroke="#0000FF" stroke-width="0.0172038"/>
<path d="M3.5881 4.39052C3.82382 4.62625 3.93683 5.07898 3.96387 5.27588C4.01738 5.05867 4.12081 4.62784 4.36127 4.38738C4.60174 4.14692 5.09494 3.98111 5.27963 3.96011C5.07964 3.90343 4.66293 3.806 4.41777 3.56085C4.17262 3.31569 3.97948 2.84442 3.95843 2.63891C3.93395 2.85197 3.85452 3.27549 3.55195 3.57806C3.24938 3.88062 2.80499 3.94033 2.64275 3.95459C2.84489 3.98687 3.35237 4.1548 3.5881 4.39052Z" fill="#0000FF" stroke="#0000FF" stroke-width="0.0229619"/>
<path d="M1.04268 1.64233C1.21929 1.81894 1.30396 2.15814 1.32422 2.30566C1.36431 2.14293 1.44181 1.82013 1.62197 1.63997C1.80213 1.45981 2.17166 1.33558 2.31004 1.31985C2.16019 1.27738 1.84798 1.20438 1.6643 1.02071C1.48062 0.837028 1.33592 0.483932 1.32014 0.329958C1.3018 0.48959 1.24229 0.806906 1.0156 1.0336C0.788905 1.26029 0.455948 1.30503 0.334392 1.31571C0.485841 1.33989 0.866065 1.46571 1.04268 1.64233Z" fill="#0000FF" stroke="#0000FF" stroke-width="0.0172038"/>
</g>
<defs>
<clipPath id="clip0_2606_38311">
<rect width="12.8681" height="18.4773" fill="white" transform="translate(18.4775) rotate(90)"/>
</clipPath>
</defs>
</svg>
