<svg width="16" height="16" viewBox="0 0 16 16" fill="none" xmlns="http://www.w3.org/2000/svg">
<g clip-path="url(#clip0_2781_60532)">
<path d="M3.74228 1.44145C3.94324 1.24049 4.32921 1.14414 4.49707 1.12109C4.31189 1.07548 3.9446 0.987292 3.7396 0.782292C3.5346 0.577292 3.39324 0.15682 3.37534 -0.000638029C3.32702 0.169868 3.24395 0.525125 3.03495 0.734127C2.82595 0.943128 2.42417 1.10778 2.24897 1.12573C2.43061 1.1466 2.79168 1.21432 3.04962 1.47226C3.30757 1.73021 3.35848 2.10907 3.37063 2.24739C3.39815 2.07506 3.54131 1.64241 3.74228 1.44145Z" fill="#0000FF" stroke="#0000FF" stroke-width="0.0195757"/>
<path d="M5.9003 1.36185C6.05087 1.21128 6.34005 1.1391 6.46582 1.12183C6.32708 1.08765 6.05189 1.02158 5.8983 0.867985C5.7447 0.714392 5.63879 0.399361 5.62538 0.281388C5.58918 0.409137 5.52694 0.675307 5.37035 0.831898C5.21376 0.988488 4.91274 1.11185 4.78147 1.1253C4.91756 1.14094 5.18808 1.19167 5.38135 1.38493C5.57461 1.5782 5.61275 1.86205 5.62185 1.96568C5.64247 1.83657 5.74974 1.51242 5.9003 1.36185Z" fill="#0000FF" stroke="#0000FF" stroke-width="0.0146668"/>
<path d="M8.15128 1.36185C8.30185 1.21128 8.59103 1.1391 8.7168 1.12183C8.57806 1.08765 8.30287 1.02158 8.14927 0.867985C7.99568 0.714392 7.88977 0.399361 7.87636 0.281388C7.84016 0.409137 7.77792 0.675307 7.62133 0.831898C7.46474 0.988488 7.16371 1.11185 7.03245 1.1253C7.16854 1.14094 7.43906 1.19167 7.63232 1.38493C7.82559 1.5782 7.86372 1.86205 7.87283 1.96568C7.89345 1.83657 8.00071 1.51242 8.15128 1.36185Z" fill="#0000FF" stroke="#0000FF" stroke-width="0.0146668"/>
<path d="M10.4013 1.36185C10.5518 1.21128 10.841 1.1391 10.9668 1.12183C10.8281 1.08765 10.5529 1.02158 10.3993 0.867985C10.2457 0.714392 10.1398 0.399361 10.1264 0.281388C10.0902 0.409137 10.0279 0.675307 9.87133 0.831898C9.71474 0.988488 9.41371 1.11185 9.28245 1.1253C9.41854 1.14094 9.68906 1.19167 9.88232 1.38493C10.0756 1.5782 10.1137 1.86205 10.1228 1.96568C10.1434 1.83657 10.2507 1.51242 10.4013 1.36185Z" fill="#0000FF" stroke="#0000FF" stroke-width="0.0146668"/>
<path d="M1.4003 3.61209C1.55087 3.46152 1.84005 3.38934 1.96582 3.37207C1.82708 3.33789 1.55189 3.27182 1.3983 3.11823C1.2447 2.96464 1.13879 2.64961 1.12538 2.53163C1.08918 2.65938 1.02694 2.92555 0.870354 3.08214C0.713763 3.23873 0.412738 3.3621 0.281471 3.37554C0.417562 3.39118 0.688083 3.44192 0.881346 3.63518C1.07461 3.82844 1.11275 4.1123 1.12185 4.21593C1.14247 4.08681 1.24974 3.76266 1.4003 3.61209Z" fill="#0000FF" stroke="#0000FF" stroke-width="0.0146668"/>
<path d="M3.83523 3.77154C4.08658 3.52018 4.56934 3.39968 4.7793 3.37085C4.54768 3.31379 4.08828 3.2035 3.83187 2.94709C3.57547 2.69068 3.39866 2.16477 3.37627 1.96782C3.31583 2.18109 3.21194 2.62543 2.95053 2.88684C2.68912 3.14826 2.18659 3.3542 1.96745 3.37665C2.19464 3.40275 2.64625 3.48745 2.96888 3.81008C3.29151 4.13271 3.35518 4.60658 3.37038 4.77958C3.4048 4.56404 3.58387 4.0229 3.83523 3.77154Z" fill="#0000FF" stroke="#0000FF" stroke-width="0.0244847"/>
<path d="M10.4013 3.61209C10.5518 3.46152 10.841 3.38934 10.9668 3.37207C10.8281 3.33789 10.5529 3.27182 10.3993 3.11823C10.2457 2.96464 10.1398 2.64961 10.1264 2.53163C10.0902 2.65938 10.0279 2.92555 9.87133 3.08214C9.71474 3.23873 9.41371 3.3621 9.28245 3.37554C9.41854 3.39118 9.68906 3.44192 9.88232 3.63518C10.0756 3.82844 10.1137 4.1123 10.1228 4.21593C10.1434 4.08681 10.2507 3.76266 10.4013 3.61209Z" fill="#0000FF" stroke="#0000FF" stroke-width="0.0146668"/>
<path d="M12.6523 3.61209C12.8028 3.46152 13.092 3.38934 13.2178 3.37207C13.079 3.33789 12.8038 3.27182 12.6502 3.11823C12.4967 2.96464 12.3907 2.64961 12.3773 2.53163C12.3411 2.65938 12.2789 2.92555 12.1223 3.08214C11.9657 3.23873 11.6647 3.3621 11.5334 3.37554C11.6695 3.39118 11.94 3.44192 12.1333 3.63518C12.3266 3.82844 12.3647 4.1123 12.3738 4.21593C12.3944 4.08681 12.5017 3.76266 12.6523 3.61209Z" fill="#0000FF" stroke="#0000FF" stroke-width="0.0146668"/>
<path d="M1.49228 5.94218C1.69324 5.74122 2.07921 5.64488 2.24707 5.62183C2.06189 5.57621 1.6946 5.48802 1.4896 5.28302C1.2846 5.07802 1.14324 4.65755 1.12534 4.50009C1.07702 4.6706 0.993953 5.02586 0.784952 5.23486C0.575951 5.44386 0.174173 5.60852 -0.00102915 5.62646C0.180612 5.64733 0.541677 5.71505 0.799624 5.973C1.05757 6.23094 1.10848 6.60981 1.12063 6.74812C1.14815 6.57579 1.29131 6.14315 1.49228 5.94218Z" fill="#0000FF" stroke="#0000FF" stroke-width="0.0195757"/>
<path d="M12.6523 5.86258C12.8028 5.71201 13.092 5.63983 13.2178 5.62256C13.079 5.58838 12.8038 5.52231 12.6502 5.36872C12.4967 5.21512 12.3907 4.90009 12.3773 4.78212C12.3411 4.90987 12.2789 5.17604 12.1223 5.33263C11.9657 5.48922 11.6647 5.61259 11.5334 5.62603C11.6695 5.64167 11.94 5.6924 12.1333 5.88567C12.3266 6.07893 12.3647 6.36279 12.3738 6.46642C12.3944 6.3373 12.5017 6.01315 12.6523 5.86258Z" fill="#0000FF" stroke="#0000FF" stroke-width="0.0146668"/>
<path d="M1.4003 8.11282C1.55087 7.96226 1.84005 7.89007 1.96582 7.8728C1.82708 7.83862 1.55189 7.77255 1.3983 7.61896C1.2447 7.46537 1.13879 7.15034 1.12538 7.03236C1.08918 7.16011 1.02694 7.42628 0.870354 7.58287C0.713763 7.73946 0.412738 7.86283 0.281471 7.87628C0.417562 7.89191 0.688083 7.94265 0.881346 8.13591C1.07461 8.32917 1.11275 8.61303 1.12185 8.71666C1.14247 8.58754 1.24974 8.26339 1.4003 8.11282Z" fill="#0000FF" stroke="#0000FF" stroke-width="0.0146668"/>
<path d="M12.7442 8.19243C12.9452 7.99146 13.3312 7.89512 13.499 7.87207C13.3138 7.82645 12.9465 7.73827 12.7415 7.53327C12.5365 7.32827 12.3952 6.9078 12.3773 6.75034C12.329 6.92084 12.2459 7.2761 12.0369 7.4851C11.8279 7.6941 11.4261 7.85876 11.2509 7.87671C11.4326 7.89758 11.7936 7.96529 12.0516 8.22324C12.3095 8.48119 12.3604 8.86005 12.3726 8.99837C12.4001 8.82604 12.5433 8.39339 12.7442 8.19243Z" fill="#0000FF" stroke="#0000FF" stroke-width="0.0195757"/>
<path d="M1.4003 10.3633C1.55087 10.2127 1.84005 10.1406 1.96582 10.1233C1.82708 10.0891 1.55189 10.023 1.3983 9.86945C1.2447 9.71586 1.13879 9.40083 1.12538 9.28285C1.08918 9.4106 1.02694 9.67677 0.870354 9.83336C0.713763 9.98995 0.412738 10.1133 0.281471 10.1268C0.417562 10.1424 0.688083 10.1931 0.881346 10.3864C1.07461 10.5797 1.11275 10.8635 1.12185 10.9671C1.14247 10.838 1.24974 10.5139 1.4003 10.3633Z" fill="#0000FF" stroke="#0000FF" stroke-width="0.0146668"/>
<path d="M3.6503 10.3633C3.80087 10.2127 4.09005 10.1406 4.21582 10.1233C4.07708 10.0891 3.80189 10.023 3.6483 9.86945C3.4947 9.71586 3.38879 9.40083 3.37538 9.28285C3.33918 9.4106 3.27694 9.67677 3.12035 9.83336C2.96376 9.98995 2.66274 10.1133 2.53147 10.1268C2.66756 10.1424 2.93808 10.1931 3.13135 10.3864C3.32461 10.5797 3.36275 10.8635 3.37185 10.9671C3.39247 10.838 3.49974 10.5139 3.6503 10.3633Z" fill="#0000FF" stroke="#0000FF" stroke-width="0.0146668"/>
<path d="M10.5862 10.5228C10.8376 10.2714 11.3203 10.1509 11.5303 10.1221C11.2987 10.065 10.8393 9.95472 10.5828 9.69831C10.3264 9.4419 10.1496 8.91599 10.1272 8.71904C10.0668 8.93231 9.96292 9.37665 9.7015 9.63806C9.44009 9.89948 8.93756 10.1054 8.71842 10.1279C8.94561 10.154 9.39722 10.2387 9.71985 10.5613C10.0425 10.8839 10.1062 11.3578 10.1214 11.5308C10.1558 11.3153 10.3348 10.7741 10.5862 10.5228Z" fill="#0000FF" stroke="#0000FF" stroke-width="0.0244847"/>
<path d="M12.8372 10.5228C13.0885 10.2714 13.5713 10.1509 13.7812 10.1221C13.5496 10.065 13.0902 9.95472 12.8338 9.69831C12.5774 9.4419 12.4006 8.91599 12.3782 8.71904C12.3178 8.93231 12.2139 9.37665 11.9525 9.63806C11.6911 9.89948 11.1885 10.1054 10.9694 10.1279C11.1966 10.154 11.6482 10.2387 11.9708 10.5613C12.2935 10.8839 12.3571 11.3578 12.3723 11.5308C12.4068 11.3153 12.5858 10.7741 12.8372 10.5228Z" fill="#0000FF" stroke="#0000FF" stroke-width="0.0244847"/>
<path d="M3.6503 12.6136C3.80087 12.463 4.09005 12.3908 4.21582 12.3735C4.07708 12.3394 3.80189 12.2733 3.6483 12.1197C3.4947 11.9661 3.38879 11.6511 3.37538 11.5331C3.33918 11.6608 3.27694 11.927 3.12035 12.0836C2.96376 12.2402 2.66274 12.3636 2.53147 12.377C2.66756 12.3926 2.93808 12.4434 3.13135 12.6366C3.32461 12.8299 3.36275 13.1138 3.37185 13.2174C3.39247 13.0883 3.49974 12.7641 3.6503 12.6136Z" fill="#0000FF" stroke="#0000FF" stroke-width="0.0146668"/>
<path d="M5.9003 12.6136C6.05087 12.463 6.34005 12.3908 6.46582 12.3735C6.32708 12.3394 6.05189 12.2733 5.8983 12.1197C5.7447 11.9661 5.63879 11.6511 5.62538 11.5331C5.58918 11.6608 5.52694 11.927 5.37035 12.0836C5.21376 12.2402 4.91274 12.3636 4.78147 12.377C4.91756 12.3926 5.18808 12.4434 5.38135 12.6366C5.57461 12.8299 5.61275 13.1138 5.62185 13.2174C5.64247 13.0883 5.74974 12.7641 5.9003 12.6136Z" fill="#0000FF" stroke="#0000FF" stroke-width="0.0146668"/>
<path d="M8.24325 12.6932C8.44422 12.4922 8.83018 12.3959 8.99805 12.3728C8.81287 12.3272 8.44557 12.239 8.24057 12.034C8.03557 11.829 7.89422 11.4085 7.87632 11.2511C7.82799 11.4216 7.74493 11.7768 7.53593 11.9858C7.32693 12.1948 6.92515 12.3595 6.74995 12.3774C6.93159 12.3983 7.29265 12.466 7.5506 12.724C7.80855 12.9819 7.85945 13.3608 7.87161 13.4991C7.89912 13.3268 8.04229 12.8941 8.24325 12.6932Z" fill="#0000FF" stroke="#0000FF" stroke-width="0.0195757"/>
<path d="M10.5862 12.773C10.8376 12.5216 11.3203 12.4011 11.5303 12.3723C11.2987 12.3153 10.8393 12.205 10.5828 11.9486C10.3264 11.6921 10.1496 11.1662 10.1272 10.9693C10.0668 11.1826 9.96292 11.6269 9.7015 11.8883C9.44009 12.1497 8.93756 12.3557 8.71842 12.3781C8.94561 12.4042 9.39722 12.4889 9.71985 12.8115C10.0425 13.1342 10.1062 13.608 10.1214 13.781C10.1558 13.5655 10.3348 13.0244 10.5862 12.773Z" fill="#0000FF" stroke="#0000FF" stroke-width="0.0244847"/>
<path d="M12.7442 12.6932C12.9452 12.4922 13.3312 12.3959 13.499 12.3728C13.3138 12.3272 12.9465 12.239 12.7415 12.034C12.5365 11.829 12.3952 11.4085 12.3773 11.2511C12.329 11.4216 12.2459 11.7768 12.0369 11.9858C11.8279 12.1948 11.4261 12.3595 11.2509 12.3774C11.4326 12.3983 11.7936 12.466 12.0516 12.724C12.3095 12.9819 12.3604 13.3608 12.3726 13.4991C12.4001 13.3268 12.5433 12.8941 12.7442 12.6932Z" fill="#0000FF" stroke="#0000FF" stroke-width="0.0195757"/>
<path d="M14.9023 12.6136C15.0528 12.463 15.342 12.3908 15.4678 12.3735C15.329 12.3394 15.0538 12.2733 14.9002 12.1197C14.7467 11.9661 14.6407 11.6511 14.6273 11.5331C14.5911 11.6608 14.5289 11.927 14.3723 12.0836C14.2157 12.2402 13.9147 12.3636 13.7834 12.377C13.9195 12.3926 14.19 12.4434 14.3833 12.6366C14.5766 12.8299 14.6147 13.1138 14.6238 13.2174C14.6444 13.0883 14.7517 12.7641 14.9023 12.6136Z" fill="#0000FF" stroke="#0000FF" stroke-width="0.0146668"/>
<path d="M12.6523 14.864C12.8028 14.7135 13.092 14.6413 13.2178 14.624C13.079 14.5898 12.8038 14.5238 12.6502 14.3702C12.4967 14.2166 12.3907 13.9016 12.3773 13.7836C12.3411 13.9113 12.2789 14.1775 12.1223 14.3341C11.9657 14.4907 11.6647 14.6141 11.5334 14.6275C11.6695 14.6431 11.94 14.6939 12.1333 14.8871C12.3266 15.0804 12.3647 15.3643 12.3738 15.4679C12.3944 15.3388 12.5017 15.0146 12.6523 14.864Z" fill="#0000FF" stroke="#0000FF" stroke-width="0.0146668"/>
<path d="M14.9023 14.864C15.0528 14.7135 15.342 14.6413 15.4678 14.624C15.329 14.5898 15.0538 14.5238 14.9002 14.3702C14.7467 14.2166 14.6407 13.9016 14.6273 13.7836C14.5911 13.9113 14.5289 14.1775 14.3723 14.3341C14.2157 14.4907 13.9147 14.6141 13.7834 14.6275C13.9195 14.6431 14.19 14.6939 14.3833 14.8871C14.5766 15.0804 14.6147 15.3643 14.6238 15.4679C14.6444 15.3388 14.7517 15.0146 14.9023 14.864Z" fill="#0000FF" stroke="#0000FF" stroke-width="0.0146668"/>
</g>
<defs>
<clipPath id="clip0_2781_60532">
<rect width="15.7524" height="15.7524" fill="white"/>
</clipPath>
</defs>
</svg>
