<svg width="18" height="18" viewBox="0 0 18 18" fill="none" xmlns="http://www.w3.org/2000/svg">
<g clip-path="url(#clip0_2621_39605)">
<path d="M9.31424 1.55649C9.4863 1.38444 9.81674 1.30196 9.96045 1.28223C9.80191 1.24317 9.48746 1.16767 9.31195 0.992167C9.13644 0.81666 9.01542 0.45668 9.0001 0.321875C8.95873 0.46785 8.88761 0.771998 8.70868 0.950931C8.52975 1.12986 8.18577 1.27083 8.03578 1.2862C8.19129 1.30406 8.5004 1.36204 8.72124 1.58288C8.94208 1.80371 8.98566 2.12807 8.99607 2.24649C9.01962 2.09895 9.14219 1.72855 9.31424 1.55649Z" fill="#0000FF" stroke="#0000FF" stroke-width="0.0167594"/>
<path d="M9.31424 4.12778C9.4863 3.95573 9.81674 3.87325 9.96045 3.85352C9.80191 3.81446 9.48746 3.73896 9.31195 3.56346C9.13644 3.38795 9.01542 3.02797 9.0001 2.89316C8.95873 3.03914 8.88761 3.34329 8.70868 3.52222C8.52975 3.70115 8.18577 3.84212 8.03578 3.85748C8.19129 3.87535 8.5004 3.93333 8.72124 4.15416C8.94208 4.375 8.98566 4.69936 8.99607 4.81777C9.01962 4.67024 9.14219 4.29983 9.31424 4.12778Z" fill="#0000FF" stroke="#0000FF" stroke-width="0.0167594"/>
<path d="M6.84894 6.78989C7.07857 6.56026 7.51961 6.45017 7.71143 6.42383C7.49983 6.3717 7.08012 6.27094 6.84588 6.03669C6.61163 5.80244 6.4501 5.32197 6.42965 5.14205C6.37443 5.33688 6.27951 5.74283 6.04069 5.98165C5.80187 6.22047 5.34277 6.40862 5.14257 6.42913C5.35012 6.45297 5.76271 6.53035 6.05746 6.8251C6.35221 7.11985 6.41038 7.55277 6.42426 7.71082C6.45571 7.51391 6.6193 7.01953 6.84894 6.78989Z" fill="#0000FF" stroke="#0000FF" stroke-width="0.0223688"/>
<path d="M9.52572 6.88071C9.81294 6.59349 10.3646 6.4558 10.6045 6.42285C10.3398 6.35765 9.81488 6.23162 9.52189 5.93863C9.2289 5.64564 9.02687 5.04469 9.00128 4.81964C8.93222 5.06333 8.8135 5.57108 8.51479 5.86979C8.21608 6.1685 7.64185 6.40383 7.39145 6.42948C7.65105 6.45931 8.1671 6.55609 8.53576 6.92475C8.90443 7.29342 8.97718 7.8349 8.99455 8.03258C9.03388 7.78628 9.2385 7.16794 9.52572 6.88071Z" fill="#0000FF" stroke="#0000FF" stroke-width="0.0279781"/>
<path d="M11.9915 6.78989C12.2212 6.56026 12.6622 6.45017 12.854 6.42383C12.6424 6.3717 12.2227 6.27094 11.9885 6.03669C11.7542 5.80244 11.5927 5.32197 11.5722 5.14205C11.517 5.33688 11.4221 5.74283 11.1833 5.98165C10.9444 6.22047 10.4853 6.40862 10.2851 6.42913C10.4927 6.45297 10.9053 6.53035 11.2 6.8251C11.4948 7.11985 11.553 7.55277 11.5668 7.71082C11.5983 7.51391 11.7619 7.01953 11.9915 6.78989Z" fill="#0000FF" stroke="#0000FF" stroke-width="0.0223688"/>
<path d="M1.59989 9.27036C1.77194 9.09831 2.10238 9.01583 2.24609 8.99609C2.08756 8.95704 1.7731 8.88154 1.59759 8.70603C1.42209 8.53053 1.30107 8.17055 1.28574 8.03574C1.24437 8.18172 1.17326 8.48587 0.994326 8.6648C0.815393 8.84373 0.471418 8.9847 0.321421 9.00006C0.47693 9.01793 0.786049 9.07591 1.00689 9.29674C1.22772 9.51758 1.2713 9.84194 1.28171 9.96035C1.30527 9.81282 1.42784 9.44241 1.59989 9.27036Z" fill="#0000FF" stroke="#0000FF" stroke-width="0.0167594"/>
<path d="M4.27716 9.36118C4.5068 9.13155 4.94783 9.02146 5.13965 8.99512C4.92805 8.94299 4.50835 8.84222 4.2741 8.60798C4.03985 8.37373 3.87832 7.89326 3.85787 7.71334C3.80265 7.90817 3.70774 8.31412 3.46892 8.55294C3.23009 8.79176 2.77099 8.97991 2.57079 9.00041C2.77835 9.02426 3.19093 9.10164 3.48568 9.39639C3.78043 9.69114 3.8386 10.1241 3.85249 10.2821C3.88393 10.0852 4.04752 9.59082 4.27716 9.36118Z" fill="#0000FF" stroke="#0000FF" stroke-width="0.0223688"/>
<path d="M6.95443 9.452C7.24165 9.16478 7.79329 9.02709 8.0332 8.99414C7.76854 8.92894 7.24359 8.80291 6.9506 8.50992C6.65761 8.21692 6.45558 7.61598 6.42999 7.39093C6.36093 7.63462 6.24221 8.14237 5.9435 8.44108C5.64479 8.73979 5.07056 8.97512 4.82016 9.00077C5.07976 9.0306 5.59581 9.12738 5.96447 9.49604C6.33314 9.86471 6.40589 10.4062 6.42326 10.6039C6.46259 10.3576 6.66721 9.73922 6.95443 9.452Z" fill="#0000FF" stroke="#0000FF" stroke-width="0.0279781"/>
<path d="M9.52572 9.452C9.81294 9.16478 10.3646 9.02709 10.6045 8.99414C10.3398 8.92894 9.81488 8.80291 9.52189 8.50992C9.2289 8.21692 9.02687 7.61598 9.00128 7.39093C8.93222 7.63462 8.8135 8.14237 8.51479 8.44108C8.21608 8.73979 7.64185 8.97512 7.39145 9.00077C7.65105 9.0306 8.1671 9.12738 8.53576 9.49604C8.90443 9.86471 8.97718 10.4062 8.99455 10.6039C9.03388 10.3576 9.2385 9.73922 9.52572 9.452Z" fill="#0000FF" stroke="#0000FF" stroke-width="0.0279781"/>
<path d="M12.097 9.452C12.3842 9.16478 12.9359 9.02709 13.1758 8.99414C12.9111 8.92894 12.3862 8.80291 12.0932 8.50992C11.8002 8.21692 11.5982 7.61598 11.5726 7.39093C11.5035 7.63462 11.3848 8.14237 11.0861 8.44108C10.7874 8.73979 10.2131 8.97512 9.96274 9.00077C10.2223 9.0306 10.7384 9.12738 11.1071 9.49604C11.4757 9.86471 11.5485 10.4062 11.5658 10.6039C11.6052 10.3576 11.8098 9.73922 12.097 9.452Z" fill="#0000FF" stroke="#0000FF" stroke-width="0.0279781"/>
<path d="M14.5628 9.36118C14.7924 9.13155 15.2335 9.02146 15.4253 8.99512C15.2137 8.94299 14.794 8.84222 14.5597 8.60798C14.3255 8.37373 14.164 7.89326 14.1435 7.71334C14.0883 7.90817 13.9934 8.31412 13.7546 8.55294C13.5157 8.79176 13.0566 8.97991 12.8564 9.00041C13.064 9.02426 13.4766 9.10164 13.7713 9.39639C14.0661 9.69114 14.1242 10.1241 14.1381 10.2821C14.1696 10.0852 14.3332 9.59082 14.5628 9.36118Z" fill="#0000FF" stroke="#0000FF" stroke-width="0.0223688"/>
<path d="M17.0286 9.27036C17.2007 9.09831 17.5311 9.01583 17.6748 8.99609C17.5163 8.95704 17.2018 8.88154 17.0263 8.70603C16.8508 8.53053 16.7298 8.17055 16.7145 8.03574C16.6731 8.18172 16.602 8.48587 16.423 8.6648C16.2441 8.84373 15.9001 8.9847 15.7501 9.00006C15.9056 9.01793 16.2148 9.07591 16.4356 9.29674C16.6564 9.51758 16.7 9.84194 16.7104 9.96035C16.734 9.81282 16.8565 9.44241 17.0286 9.27036Z" fill="#0000FF" stroke="#0000FF" stroke-width="0.0167594"/>
<path d="M6.84894 11.9334C7.07857 11.7038 7.51961 11.5937 7.71143 11.5674C7.49983 11.5153 7.08012 11.4145 6.84588 11.1802C6.61163 10.946 6.4501 10.4655 6.42965 10.2856C6.37443 10.4804 6.27951 10.8864 6.04069 11.1252C5.80187 11.364 5.34277 11.5522 5.14257 11.5727C5.35012 11.5965 5.76271 11.6739 6.05746 11.9687C6.35221 12.2634 6.41038 12.6963 6.42426 12.8544C6.45571 12.6575 6.6193 12.1631 6.84894 11.9334Z" fill="#0000FF" stroke="#0000FF" stroke-width="0.0223688"/>
<path d="M9.52572 12.0243C9.81294 11.737 10.3646 11.5994 10.6045 11.5664C10.3398 11.5012 9.81488 11.3752 9.52189 11.0822C9.2289 10.7892 9.02687 10.1882 9.00128 9.9632C8.93222 10.2069 8.8135 10.7146 8.51479 11.0133C8.21608 11.3121 7.64185 11.5474 7.39145 11.573C7.65105 11.6029 8.1671 11.6996 8.53576 12.0683C8.90443 12.437 8.97718 12.9785 8.99455 13.1761C9.03388 12.9298 9.2385 12.3115 9.52572 12.0243Z" fill="#0000FF" stroke="#0000FF" stroke-width="0.0279781"/>
<path d="M11.9915 11.9334C12.2212 11.7038 12.6622 11.5937 12.854 11.5674C12.6424 11.5153 12.2227 11.4145 11.9885 11.1802C11.7542 10.946 11.5927 10.4655 11.5722 10.2856C11.517 10.4804 11.4221 10.8864 11.1833 11.1252C10.9444 11.364 10.4853 11.5522 10.2851 11.5727C10.4927 11.5965 10.9053 11.6739 11.2 11.9687C11.4948 12.2634 11.553 12.6963 11.5668 12.8544C11.5983 12.6575 11.7619 12.1631 11.9915 11.9334Z" fill="#0000FF" stroke="#0000FF" stroke-width="0.0223688"/>
<path d="M9.31424 14.4139C9.4863 14.2419 9.81674 14.1594 9.96045 14.1396C9.80191 14.1006 9.48746 14.0251 9.31195 13.8496C9.13644 13.6741 9.01542 13.3141 9.0001 13.1793C8.95873 13.3253 8.88761 13.6294 8.70868 13.8084C8.52975 13.9873 8.18577 14.1283 8.03578 14.1436C8.19129 14.1615 8.5004 14.2195 8.72124 14.4403C8.94208 14.6611 8.98566 14.9855 8.99607 15.1039C9.01962 14.9564 9.14219 14.586 9.31424 14.4139Z" fill="#0000FF" stroke="#0000FF" stroke-width="0.0167594"/>
<path d="M9.31424 16.9852C9.4863 16.8132 9.81674 16.7307 9.96045 16.7109C9.80191 16.6719 9.48746 16.5964 9.31195 16.4209C9.13644 16.2454 9.01542 15.8854 9.0001 15.7506C8.95873 15.8966 8.88761 16.2007 8.70868 16.3796C8.52975 16.5586 8.18577 16.6995 8.03578 16.7149C8.19129 16.7328 8.5004 16.7907 8.72124 17.0116C8.94208 17.2324 8.98566 17.5568 8.99607 17.6752C9.01962 17.5277 9.14219 17.1573 9.31424 16.9852Z" fill="#0000FF" stroke="#0000FF" stroke-width="0.0167594"/>
</g>
<defs>
<clipPath id="clip0_2621_39605">
<rect width="18" height="18" fill="white"/>
</clipPath>
</defs>
</svg>
