<svg width="14" height="14" viewBox="0 0 14 14" fill="none" xmlns="http://www.w3.org/2000/svg">
<path d="M0.339057 9.41149C0.36571 9.41821 1.88654 9.79778 3.47408 9.29548C5.06166 8.79305 6.23965 7.91677 6.26039 7.90129L6.3322 7.97311C6.32146 7.98749 5.44183 9.16745 4.93801 10.7594C4.43629 12.345 4.81434 13.864 4.822 13.8944L4.71359 13.9186C4.70765 13.8955 4.27231 12.2157 3.14953 11.084C2.01575 9.95917 0.332008 9.5243 0.314889 9.51991L0.339057 9.41149Z" fill="#303030"/>
<path d="M8.95136 8.98766C9.56941 8.36975 10.3918 7.94724 11.1636 7.64737C11.5138 7.51131 11.8597 7.39921 12.1758 7.3042C11.8249 7.19808 11.4357 7.0614 11.0427 6.89628C10.1942 6.53977 9.28816 6.04242 8.68302 5.43728C8.07503 4.82927 7.65126 3.99408 7.34919 3.19842C7.21564 2.8466 7.10552 2.49721 7.01178 2.17323C6.93029 2.48403 6.83221 2.82076 6.70818 3.16029C6.41329 3.96754 5.98361 4.82429 5.38587 5.42217C4.79068 6.01737 3.87123 6.51196 3.00025 6.87398C2.65687 7.01669 2.31514 7.13978 1.99664 7.24305C2.9763 7.46744 4.239 7.93146 5.21393 8.90637C6.24975 9.94219 6.75401 11.2565 7.00531 12.3078C7.11704 11.9915 7.25386 11.6544 7.41179 11.3172C7.805 10.4776 8.34045 9.59858 8.95136 8.98766ZM9.31971 9.35601C8.76838 9.90734 8.26387 10.7271 7.88373 11.5388C7.50239 12.3531 7.26176 13.1241 7.2161 13.569L6.69883 13.5726C6.58429 12.5757 6.2149 10.644 4.84558 9.27472C3.48131 7.91049 1.45852 7.63158 0.696635 7.56463L0.67793 7.04808C1.13173 6.97562 1.95336 6.74499 2.80096 6.39268C3.65189 6.03898 4.49519 5.57617 5.01753 5.05383C5.53699 4.53421 5.93393 3.75951 6.21825 2.98115C6.50113 2.20674 6.66299 1.45508 6.72473 1.0056L7.23552 0.978261C7.36276 1.49475 7.54585 2.24856 7.83625 3.01353C8.12778 3.78142 8.51948 4.53703 9.05136 5.06893C9.58623 5.6038 10.4197 6.06928 11.2442 6.41571C12.068 6.76185 12.8458 6.97396 13.25 7.02003L13.2917 7.52938C12.8085 7.66631 12.0954 7.84453 11.3528 8.13298C10.6096 8.42172 9.86381 8.81204 9.31971 9.35601Z" fill="#303030"/>
</svg>
