<svg width="14" height="14" viewBox="0 0 14 14" fill="none" xmlns="http://www.w3.org/2000/svg">
<path d="M7.18567 8.9523C7.69848 8.43949 8.38471 8.08665 9.03423 7.83432C9.42391 7.68296 9.80607 7.56621 10.1349 7.47248C9.78261 7.37852 9.36078 7.24147 8.93272 7.06161C8.2178 6.76123 7.46151 6.34446 6.95917 5.84213C6.45523 5.33818 6.10095 4.64252 5.84672 3.97286C5.69624 3.57644 5.58115 3.18378 5.48834 2.83969C5.4119 3.17105 5.30751 3.55325 5.16586 3.94109C4.91767 4.62054 4.55817 5.3346 4.06307 5.8297C3.56952 6.32325 2.80263 6.73767 2.06812 7.04297C1.67657 7.20571 1.2879 7.33725 0.947385 7.43726C1.79519 7.59782 3.00852 7.97371 3.91806 8.88324C4.87016 9.83534 5.28423 11.0723 5.47176 11.9893C5.57605 11.6557 5.72057 11.2808 5.89713 10.9037C6.22816 10.1969 6.67691 9.46106 7.18567 8.9523ZM7.39283 9.15946C6.9177 9.63458 6.48733 10.337 6.16368 11.028C5.83933 11.7206 5.63181 12.3823 5.59192 12.7709L5.29982 12.773C5.20241 11.9253 4.88854 10.268 3.7109 9.0904C2.53619 7.9157 0.799787 7.67853 0.15258 7.62164L0.142222 7.33092C0.533607 7.26841 1.23431 7.07138 1.95556 6.77159C2.67878 6.47098 3.40339 6.07507 3.85591 5.62254C4.3069 5.17155 4.6474 4.50344 4.88964 3.84027C5.13101 3.17943 5.269 2.53796 5.32192 2.15261L5.61056 2.13742C5.71816 2.5742 5.87322 3.21622 6.12087 3.86858C6.36917 4.52267 6.70522 5.17385 7.16633 5.63497C7.62901 6.09765 8.34468 6.49624 9.04597 6.79092C9.74722 7.08556 10.4138 7.26747 10.7654 7.30744L10.7889 7.59471C10.3825 7.70988 9.77346 7.86195 9.14057 8.10777C8.50719 8.35383 7.86396 8.68834 7.39283 9.15946Z" fill="#303030"/>
<path d="M6.9594 5.72606C7.9055 4.77996 8.35907 2.96288 8.46759 2.17261C8.68236 3.04439 9.09751 4.77357 10.0626 5.73868C11.0277 6.70378 13.0072 7.36927 13.7485 7.45354C12.9458 7.68103 11.2733 8.07208 10.2894 9.05603C9.30543 10.04 8.53025 11.9315 8.44576 12.7563C8.34751 11.9012 8.02871 10.2013 6.81434 8.98695C5.59996 7.77258 3.81634 7.53293 3.16517 7.47571C3.97647 7.34616 6.0133 6.67216 6.9594 5.72606Z" fill="#303030" stroke="#303030" stroke-width="0.293376"/>
</svg>
