<svg width="20" height="20" viewBox="0 0 20 20" fill="none" xmlns="http://www.w3.org/2000/svg">
<path fill-rule="evenodd" clip-rule="evenodd" d="M5.24394 15.4902C4.42601 14.6721 4.62638 13.0488 5.6043 11.3408C5.20306 12.5236 5.25496 13.5569 5.85527 14.1572C7.04556 15.3474 9.93965 14.3824 12.3201 12.0019C13.0647 11.2573 13.6711 10.4628 14.116 9.68552C13.7218 10.8481 12.8899 12.1548 11.7098 13.3349C9.32926 15.7154 6.4342 16.6805 5.24394 15.4902Z" fill="#0000FF"/>
<path fill-rule="evenodd" clip-rule="evenodd" d="M5.59174 11.3125C5.9866 10.1511 6.81751 8.84648 7.99604 7.66795C10.3765 5.28751 13.2706 4.32249 14.4609 5.51268C15.2785 6.33033 15.0792 7.95207 14.1025 9.65916C14.5027 8.47753 14.4504 7.44455 13.8505 6.84471C12.6602 5.65478 9.76508 6.61962 7.38471 8.99998C6.64157 9.74315 6.03645 10.5366 5.59174 11.3125Z" fill="#0000FF"/>
</svg>
