<svg width="21" height="22" viewBox="0 0 21 22" fill="none" xmlns="http://www.w3.org/2000/svg">
<g clip-path="url(#clip0_2922_40570)">
<path d="M19.1849 9.86646C19.3856 10.0672 19.4819 10.4527 19.5049 10.6204C19.5504 10.4354 19.6385 10.0685 19.8433 9.86378C20.048 9.65902 20.468 9.51783 20.6253 9.49995C20.455 9.45169 20.1001 9.36872 19.8914 9.15997C19.6826 8.95121 19.5182 8.54991 19.5003 8.37491C19.4794 8.55634 19.4118 8.91698 19.1541 9.17462C18.8965 9.43226 18.5181 9.48311 18.3799 9.49525C18.552 9.52273 18.9842 9.66573 19.1849 9.86646Z" fill="#0000FF" stroke="#0000FF" stroke-width="0.0195526"/>
<path d="M19.1849 12.8665C19.3856 13.0672 19.4819 13.4527 19.5049 13.6204C19.5504 13.4354 19.6385 13.0685 19.8433 12.8638C20.048 12.659 20.468 12.5178 20.6253 12.5C20.455 12.4517 20.1001 12.3687 19.8914 12.16C19.6826 11.9512 19.5182 11.5499 19.5003 11.3749C19.4794 11.5563 19.4118 11.917 19.1541 12.1746C18.8965 12.4323 18.5181 12.4831 18.3799 12.4952C18.552 12.5227 18.9842 12.6657 19.1849 12.8665Z" fill="#0000FF" stroke="#0000FF" stroke-width="0.0195526"/>
<path d="M16.0788 9.9901C16.3467 10.258 16.4751 10.7726 16.5059 10.9963C16.5667 10.7495 16.6842 10.2598 16.9575 9.98653C17.2308 9.71324 17.7914 9.52479 18.0013 9.50093C17.774 9.43651 17.3004 9.32578 17.0217 9.04715C16.7431 8.76852 16.5236 8.2329 16.4997 7.99934C16.4719 8.24149 16.3816 8.72283 16.0377 9.06671C15.6938 9.41059 15.1888 9.47845 15.0044 9.49465C15.2341 9.53133 15.8109 9.72219 16.0788 9.9901Z" fill="#0000FF" stroke="#0000FF" stroke-width="0.0260969"/>
<path d="M16.0788 12.9901C16.3467 13.258 16.4751 13.7726 16.5059 13.9963C16.5667 13.7495 16.6842 13.2598 16.9575 12.9865C17.2308 12.7132 17.7914 12.5248 18.0013 12.5009C17.774 12.4365 17.3004 12.3258 17.0217 12.0472C16.7431 11.7685 16.5236 11.2329 16.4997 10.9993C16.4719 11.2415 16.3816 11.7228 16.0377 12.0667C15.6938 12.4106 15.1888 12.4784 15.0044 12.4947C15.2341 12.5313 15.8109 12.7222 16.0788 12.9901Z" fill="#0000FF" stroke="#0000FF" stroke-width="0.0260969"/>
<path d="M12.9717 10.1135C13.3068 10.4486 13.4674 11.0922 13.5059 11.3721C13.5819 11.0633 13.729 10.4509 14.0708 10.109C14.4126 9.76721 15.1137 9.53151 15.3763 9.50166C15.092 9.42109 14.4996 9.28259 14.1511 8.93409C13.8026 8.58559 13.5281 7.91566 13.4981 7.62352C13.4633 7.92639 13.3504 8.52844 12.9203 8.95855C12.4902 9.38866 11.8585 9.47354 11.6278 9.49381C11.9152 9.53969 12.6366 9.77841 12.9717 10.1135Z" fill="#0000FF" stroke="#0000FF" stroke-width="0.0326411"/>
<path d="M12.9717 13.1135C13.3068 13.4486 13.4674 14.0922 13.5059 14.3721C13.5819 14.0633 13.729 13.4509 14.0708 13.109C14.4126 12.7672 15.1137 12.5315 15.3763 12.5017C15.092 12.4211 14.4996 12.2826 14.1511 11.9341C13.8026 11.5856 13.5281 10.9157 13.4981 10.6235C13.4633 10.9264 13.3504 11.5284 12.9203 11.9586C12.4902 12.3887 11.8585 12.4735 11.6278 12.4938C11.9152 12.5397 12.6366 12.7784 12.9717 13.1135Z" fill="#0000FF" stroke="#0000FF" stroke-width="0.0326411"/>
<path d="M10.0788 9.9901C10.3467 10.258 10.4751 10.7726 10.5059 10.9963C10.5667 10.7495 10.6842 10.2598 10.9575 9.98653C11.2308 9.71324 11.7914 9.52479 12.0013 9.50093C11.774 9.43651 11.3004 9.32578 11.0217 9.04715C10.7431 8.76852 10.5236 8.2329 10.4997 7.99934C10.4719 8.24149 10.3816 8.72283 10.0377 9.06671C9.69383 9.41059 9.18876 9.47845 9.00437 9.49465C9.2341 9.53133 9.81087 9.72219 10.0788 9.9901Z" fill="#0000FF" stroke="#0000FF" stroke-width="0.0260969"/>
<path d="M10.0788 12.9901C10.3467 13.258 10.4751 13.7726 10.5059 13.9963C10.5667 13.7495 10.6842 13.2598 10.9575 12.9865C11.2308 12.7132 11.7914 12.5248 12.0013 12.5009C11.774 12.4365 11.3004 12.3258 11.0217 12.0472C10.7431 11.7685 10.5236 11.2329 10.4997 10.9993C10.4719 11.2415 10.3816 11.7228 10.0377 12.0667C9.69383 12.4106 9.18876 12.4784 9.00437 12.4947C9.2341 12.5313 9.81087 12.7222 10.0788 12.9901Z" fill="#0000FF" stroke="#0000FF" stroke-width="0.0260969"/>
<path d="M7.07878 9.9901C7.34669 10.258 7.47513 10.7726 7.50586 10.9963C7.56667 10.7495 7.68423 10.2598 7.95753 9.98653C8.23082 9.71324 8.79136 9.52479 9.00127 9.50093C8.77396 9.43651 8.30036 9.32578 8.02174 9.04715C7.74311 8.76852 7.5236 8.2329 7.49968 7.99934C7.47186 8.24149 7.38158 8.72283 7.0377 9.06671C6.69383 9.41059 6.18876 9.47845 6.00437 9.49465C6.2341 9.53133 6.81087 9.72219 7.07878 9.9901Z" fill="#0000FF" stroke="#0000FF" stroke-width="0.0260969"/>
<path d="M7.1849 12.8665C7.38563 13.0672 7.48186 13.4527 7.50488 13.6204C7.55045 13.4354 7.63853 13.0685 7.84329 12.8638C8.04804 12.659 8.46802 12.5178 8.62529 12.5C8.45499 12.4517 8.10015 12.3687 7.89139 12.16C7.68264 11.9512 7.51818 11.5499 7.50025 11.3749C7.47941 11.5563 7.41177 11.917 7.15413 12.1746C6.89648 12.4323 6.51807 12.4831 6.37991 12.4952C6.55204 12.5227 6.98418 12.6657 7.1849 12.8665Z" fill="#0000FF" stroke="#0000FF" stroke-width="0.0195526"/>
<path d="M4.07878 9.9901C4.34669 10.258 4.47513 10.7726 4.50586 10.9963C4.56667 10.7495 4.68423 10.2598 4.95753 9.98653C5.23082 9.71324 5.79136 9.52479 6.00127 9.50093C5.77396 9.43651 5.30036 9.32578 5.02174 9.04715C4.74311 8.76852 4.5236 8.2329 4.49968 7.99934C4.47186 8.24149 4.38158 8.72283 4.0377 9.06671C3.69383 9.41059 3.18876 9.47845 3.00437 9.49465C3.2341 9.53133 3.81087 9.72219 4.07878 9.9901Z" fill="#0000FF" stroke="#0000FF" stroke-width="0.0260969"/>
<path d="M4.1849 12.8665C4.38563 13.0672 4.48186 13.4527 4.50488 13.6204C4.55045 13.4354 4.63853 13.0685 4.84329 12.8638C5.04804 12.659 5.46802 12.5178 5.62529 12.5C5.45499 12.4517 5.10015 12.3687 4.89139 12.16C4.68264 11.9512 4.51818 11.5499 4.50025 11.3749C4.47941 11.5563 4.41177 11.917 4.15413 12.1746C3.89648 12.4323 3.51807 12.4831 3.37991 12.4952C3.55204 12.5227 3.98418 12.6657 4.1849 12.8665Z" fill="#0000FF" stroke="#0000FF" stroke-width="0.0195526"/>
<path d="M1.1849 9.86646C1.38563 10.0672 1.48186 10.4527 1.50488 10.6204C1.55045 10.4354 1.63853 10.0685 1.84329 9.86378C2.04804 9.65902 2.46802 9.51783 2.62529 9.49995C2.45499 9.45169 2.10015 9.36872 1.89139 9.15997C1.68264 8.95121 1.51818 8.54991 1.50025 8.37491C1.47941 8.55634 1.41177 8.91698 1.15413 9.17462C0.896482 9.43226 0.518066 9.48311 0.379915 9.49525C0.552041 9.52273 0.984177 9.66573 1.1849 9.86646Z" fill="#0000FF" stroke="#0000FF" stroke-width="0.0195526"/>
<path d="M1.1849 12.8665C1.38563 13.0672 1.48186 13.4527 1.50488 13.6204C1.55045 13.4354 1.63853 13.0685 1.84329 12.8638C2.04804 12.659 2.46802 12.5178 2.62529 12.5C2.45499 12.4517 2.10015 12.3687 1.89139 12.16C1.68264 11.9512 1.51818 11.5499 1.50025 11.3749C1.47941 11.5563 1.41177 11.917 1.15413 12.1746C0.896482 12.4323 0.518066 12.4831 0.379915 12.4952C0.552041 12.5227 0.984177 12.6657 1.1849 12.8665Z" fill="#0000FF" stroke="#0000FF" stroke-width="0.0195526"/>
<path d="M19.1849 4.86646C19.3856 5.06718 19.4819 5.4527 19.5049 5.62036C19.5504 5.4354 19.6385 5.06854 19.8433 4.86378C20.048 4.65902 20.468 4.51783 20.6253 4.49995C20.455 4.45169 20.1001 4.36872 19.8914 4.15997C19.6826 3.95121 19.5182 3.54991 19.5003 3.37491C19.4794 3.55634 19.4118 3.91698 19.1541 4.17462C18.8965 4.43226 18.5181 4.48311 18.3799 4.49525C18.552 4.52273 18.9842 4.66573 19.1849 4.86646Z" fill="#0000FF" stroke="#0000FF" stroke-width="0.0195526"/>
<path d="M16.1849 4.86646C16.3856 5.06718 16.4819 5.4527 16.5049 5.62036C16.5504 5.4354 16.6385 5.06854 16.8433 4.86378C17.048 4.65902 17.468 4.51783 17.6253 4.49995C17.455 4.45169 17.1001 4.36872 16.8914 4.15997C16.6826 3.95121 16.5182 3.54991 16.5003 3.37491C16.4794 3.55634 16.4118 3.91698 16.1541 4.17462C15.8965 4.43226 15.5181 4.48311 15.3799 4.49525C15.552 4.52273 15.9842 4.66573 16.1849 4.86646Z" fill="#0000FF" stroke="#0000FF" stroke-width="0.0195526"/>
<path d="M13.1849 4.86646C13.3856 5.06718 13.4819 5.4527 13.5049 5.62036C13.5504 5.4354 13.6385 5.06854 13.8433 4.86378C14.048 4.65902 14.468 4.51783 14.6253 4.49995C14.455 4.45169 14.1001 4.36872 13.8914 4.15997C13.6826 3.95121 13.5182 3.54991 13.5003 3.37491C13.4794 3.55634 13.4118 3.91698 13.1541 4.17462C12.8965 4.43226 12.5181 4.48311 12.3799 4.49525C12.552 4.52273 12.9842 4.66573 13.1849 4.86646Z" fill="#0000FF" stroke="#0000FF" stroke-width="0.0195526"/>
<path d="M10.1849 4.86646C10.3856 5.06718 10.4819 5.4527 10.5049 5.62036C10.5504 5.4354 10.6385 5.06854 10.8433 4.86378C11.048 4.65902 11.468 4.51783 11.6253 4.49995C11.455 4.45169 11.1001 4.36872 10.8914 4.15997C10.6826 3.95121 10.5182 3.54991 10.5003 3.37491C10.4794 3.55634 10.4118 3.91698 10.1541 4.17462C9.89648 4.43226 9.51807 4.48311 9.37991 4.49525C9.55204 4.52273 9.98418 4.66573 10.1849 4.86646Z" fill="#0000FF" stroke="#0000FF" stroke-width="0.0195526"/>
<path d="M7.07878 4.9901C7.34669 5.25801 7.47513 5.77256 7.50586 5.99634C7.56667 5.74948 7.68423 5.25982 7.95753 4.98653C8.23082 4.71324 8.79136 4.52479 9.00127 4.50093C8.77396 4.43651 8.30036 4.32578 8.02174 4.04715C7.74311 3.76852 7.5236 3.2329 7.49968 2.99934C7.47186 3.24149 7.38158 3.72283 7.0377 4.06671C6.69383 4.41059 6.18876 4.47845 6.00437 4.49465C6.2341 4.53133 6.81087 4.72219 7.07878 4.9901Z" fill="#0000FF" stroke="#0000FF" stroke-width="0.0260969"/>
<path d="M3.97169 5.1135C4.30678 5.4486 4.46742 6.09217 4.50586 6.37207C4.58193 6.0633 4.72896 5.45086 5.07079 5.10904C5.41261 4.76721 6.11372 4.53151 6.37627 4.50166C6.09196 4.42109 5.4996 4.28259 5.1511 3.93409C4.80261 3.58559 4.52805 2.91566 4.49813 2.62352C4.46333 2.92639 4.35042 3.52844 3.92031 3.95855C3.4902 4.38866 2.85847 4.47354 2.62784 4.49381C2.91519 4.53969 3.6366 4.77841 3.97169 5.1135Z" fill="#0000FF" stroke="#0000FF" stroke-width="0.0326411"/>
<path d="M1.1849 4.86646C1.38563 5.06718 1.48186 5.4527 1.50488 5.62036C1.55045 5.4354 1.63853 5.06854 1.84329 4.86378C2.04804 4.65902 2.46802 4.51783 2.62529 4.49995C2.45499 4.45169 2.10015 4.36872 1.89139 4.15997C1.68264 3.95121 1.51818 3.54991 1.50025 3.37491C1.47941 3.55634 1.41177 3.91698 1.15413 4.17462C0.896482 4.43226 0.518066 4.48311 0.379915 4.49525C0.552041 4.52273 0.984177 4.66573 1.1849 4.86646Z" fill="#0000FF" stroke="#0000FF" stroke-width="0.0195526"/>
<path d="M19.1849 17.8665C19.3856 18.0672 19.4819 18.4527 19.5049 18.6204C19.5504 18.4354 19.6385 18.0685 19.8433 17.8638C20.048 17.659 20.468 17.5178 20.6253 17.5C20.455 17.4517 20.1001 17.3687 19.8914 17.16C19.6826 16.9512 19.5182 16.5499 19.5003 16.3749C19.4794 16.5563 19.4118 16.917 19.1541 17.1746C18.8965 17.4323 18.5181 17.4831 18.3799 17.4952C18.552 17.5227 18.9842 17.6657 19.1849 17.8665Z" fill="#0000FF" stroke="#0000FF" stroke-width="0.0195526"/>
<path d="M16.0788 17.9901C16.3467 18.258 16.4751 18.7726 16.5059 18.9963C16.5667 18.7495 16.6842 18.2598 16.9575 17.9865C17.2308 17.7132 17.7914 17.5248 18.0013 17.5009C17.774 17.4365 17.3004 17.3258 17.0217 17.0472C16.7431 16.7685 16.5236 16.2329 16.4997 15.9993C16.4719 16.2415 16.3816 16.7228 16.0377 17.0667C15.6938 17.4106 15.1888 17.4784 15.0044 17.4947C15.2341 17.5313 15.8109 17.7222 16.0788 17.9901Z" fill="#0000FF" stroke="#0000FF" stroke-width="0.0260969"/>
<path d="M12.9717 18.1135C13.3068 18.4486 13.4674 19.0922 13.5059 19.3721C13.5819 19.0633 13.729 18.4509 14.0708 18.109C14.4126 17.7672 15.1137 17.5315 15.3763 17.5017C15.092 17.4211 14.4996 17.2826 14.1511 16.9341C13.8026 16.5856 13.5281 15.9157 13.4981 15.6235C13.4633 15.9264 13.3504 16.5284 12.9203 16.9586C12.4902 17.3887 11.8585 17.4735 11.6278 17.4938C11.9152 17.5397 12.6366 17.7784 12.9717 18.1135Z" fill="#0000FF" stroke="#0000FF" stroke-width="0.0326411"/>
<path d="M10.0788 17.9901C10.3467 18.258 10.4751 18.7726 10.5059 18.9963C10.5667 18.7495 10.6842 18.2598 10.9575 17.9865C11.2308 17.7132 11.7914 17.5248 12.0013 17.5009C11.774 17.4365 11.3004 17.3258 11.0217 17.0472C10.7431 16.7685 10.5236 16.2329 10.4997 15.9993C10.4719 16.2415 10.3816 16.7228 10.0377 17.0667C9.69383 17.4106 9.18876 17.4784 9.00437 17.4947C9.2341 17.5313 9.81087 17.7222 10.0788 17.9901Z" fill="#0000FF" stroke="#0000FF" stroke-width="0.0260969"/>
<path d="M7.1849 17.8665C7.38563 18.0672 7.48186 18.4527 7.50488 18.6204C7.55045 18.4354 7.63853 18.0685 7.84329 17.8638C8.04804 17.659 8.46802 17.5178 8.62529 17.5C8.45499 17.4517 8.10015 17.3687 7.89139 17.16C7.68264 16.9512 7.51818 16.5499 7.50025 16.3749C7.47941 16.5563 7.41177 16.917 7.15413 17.1746C6.89648 17.4323 6.51807 17.4831 6.37991 17.4952C6.55204 17.5227 6.98418 17.6657 7.1849 17.8665Z" fill="#0000FF" stroke="#0000FF" stroke-width="0.0195526"/>
<path d="M4.1849 17.8665C4.38563 18.0672 4.48186 18.4527 4.50488 18.6204C4.55045 18.4354 4.63853 18.0685 4.84329 17.8638C5.04804 17.659 5.46802 17.5178 5.62529 17.5C5.45499 17.4517 5.10015 17.3687 4.89139 17.16C4.68264 16.9512 4.51818 16.5499 4.50025 16.3749C4.47941 16.5563 4.41177 16.917 4.15413 17.1746C3.89648 17.4323 3.51807 17.4831 3.37991 17.4952C3.55204 17.5227 3.98418 17.6657 4.1849 17.8665Z" fill="#0000FF" stroke="#0000FF" stroke-width="0.0195526"/>
<path d="M1.1849 17.8665C1.38563 18.0672 1.48186 18.4527 1.50488 18.6204C1.55045 18.4354 1.63853 18.0685 1.84329 17.8638C2.04804 17.659 2.46802 17.5178 2.62529 17.5C2.45499 17.4517 2.10015 17.3687 1.89139 17.16C1.68264 16.9512 1.51818 16.5499 1.50025 16.3749C1.47941 16.5563 1.41177 16.917 1.15413 17.1746C0.896482 17.4323 0.518066 17.4831 0.379915 17.4952C0.552041 17.5227 0.984177 17.6657 1.1849 17.8665Z" fill="#0000FF" stroke="#0000FF" stroke-width="0.0195526"/>
</g>
<defs>
<clipPath id="clip0_2922_40570">
<rect width="22" height="21" fill="white" transform="translate(21) rotate(90)"/>
</clipPath>
</defs>
</svg>
