<svg width="11" height="11" viewBox="0 0 11 11" fill="none" xmlns="http://www.w3.org/2000/svg">
<path d="M0.509569 10.487C-0.308367 9.66893 -0.107994 8.04559 0.869921 6.33762C0.468681 7.52042 0.520586 8.55372 1.1209 9.15403C2.31119 10.3442 5.20527 9.37922 7.58574 6.99876C8.33029 6.25418 8.9367 5.45963 9.38164 4.68235C8.98745 5.84493 8.15556 7.1516 6.97539 8.33176C4.59488 10.7123 1.69982 11.6773 0.509569 10.487Z" fill="black"/>
<path d="M0.857368 6.30955C1.25223 5.14819 2.08313 3.84355 3.26166 2.66502C5.64214 0.28458 8.53624 -0.680439 9.72651 0.509749C10.5442 1.3274 10.3448 2.94914 9.36811 4.65623C9.76832 3.4746 9.71599 2.44162 9.11616 1.84178C7.92578 0.651847 5.0307 1.61669 2.65034 3.99705C1.90719 4.74022 1.30208 5.53367 0.857368 6.30955Z" fill="black"/>
</svg>
