<svg width="20" height="20" viewBox="0 0 20 20" fill="none" xmlns="http://www.w3.org/2000/svg">
<path fill-rule="evenodd" clip-rule="evenodd" d="M10.3788 6.61558C12.8644 4.44077 15.3659 3.42683 16.286 4.32945C17.2466 5.27225 16.1481 7.97666 13.8211 10.6127C14.9369 12.421 15.306 13.9965 14.619 14.6712C13.9064 15.3701 12.2464 14.9179 10.3788 13.6693C8.51139 14.9176 6.85203 15.3701 6.13951 14.6712C5.45255 13.9966 5.82079 12.4209 6.93638 10.6127C4.60973 7.97684 3.51205 5.27223 4.47251 4.32945C5.39253 3.4269 7.89332 4.44111 10.3788 6.61558ZM7.06236 10.7572C6.28654 12.0888 6.03459 13.1893 6.50962 13.6556C6.99304 14.1297 8.11687 13.8373 9.46373 13.0043C8.8569 12.5299 8.23919 11.9837 7.63853 11.3714C7.43912 11.1682 7.24735 10.9626 7.06236 10.7572ZM13.6952 10.7572C13.5103 10.9624 13.3192 11.1683 13.12 11.3714C12.5191 11.9839 11.9008 12.5298 11.2938 13.0043C12.6409 13.8376 13.7654 14.1298 14.2489 13.6556C14.724 13.1892 14.4712 12.089 13.6952 10.7572ZM10.3788 6.81285C10.0752 7.08416 9.77095 7.37479 9.46959 7.68199C8.76015 8.40519 8.1464 9.14406 7.65025 9.84703C7.86676 10.0919 8.09306 10.3389 8.33189 10.5824C9.0129 11.2765 9.71072 11.882 10.3788 12.3802C11.047 11.8819 11.7454 11.2768 12.4266 10.5824C12.6653 10.3391 12.8909 10.0918 13.1073 9.84703C12.6112 9.1442 11.9982 8.40503 11.2889 7.68199C10.9874 7.37461 10.6825 7.0843 10.3788 6.81285ZM10.2674 6.71617C8.14048 4.84628 6.07574 3.91731 5.37193 4.60777C4.64989 5.31714 5.60612 7.49363 7.53501 9.71714C8.03469 9.02713 8.62923 8.31965 9.30552 7.63023C9.62271 7.30691 9.94542 7.00253 10.2674 6.71617ZM15.3866 4.60777C14.6827 3.91725 12.6172 4.84596 10.4901 6.71617C10.8123 7.00267 11.1356 7.30672 11.453 7.63023C12.1291 8.3195 12.7229 9.02728 13.2225 9.71714C15.1517 7.49343 16.1087 5.31716 15.3866 4.60777Z" fill="#B22FB6"/>
</svg>
