<svg width="18" height="18" viewBox="0 0 18 18" fill="none" xmlns="http://www.w3.org/2000/svg">
<path d="M14.4861 3.95905C14.7294 3.95905 15.0214 4.13438 15.137 4.22205C15.0525 4.08233 14.8835 3.80659 14.8835 3.55838C14.8835 3.31018 15.0525 2.97006 15.137 2.8639C15.0045 2.93787 14.7391 3.10265 14.4861 3.10265C14.233 3.10265 13.8901 2.9591 13.7732 2.8639C13.8705 2.9865 14.0481 3.24607 14.0481 3.55838C14.0481 3.8707 13.8496 4.13087 13.7732 4.22196C13.8942 4.13429 14.2428 3.95905 14.4861 3.95905Z" fill="#0000FF" stroke="#0000FF" stroke-width="0.0167594"/>
<path d="M12.6677 5.77741C12.911 5.77741 13.203 5.95274 13.3186 6.04041C13.2341 5.90069 13.0651 5.62495 13.0651 5.37674C13.0651 5.12854 13.2341 4.78842 13.3186 4.68226C13.1861 4.75623 12.9208 4.92101 12.6677 4.92101C12.4147 4.92101 12.0718 4.77746 11.9548 4.68226C12.0522 4.80486 12.2298 5.06443 12.2298 5.37674C12.2298 5.68906 12.0312 5.94923 11.9548 6.04032C12.0758 5.95265 12.4244 5.77741 12.6677 5.77741Z" fill="#0000FF" stroke="#0000FF" stroke-width="0.0167594"/>
<path d="M9.04119 5.91607C9.36595 5.91607 9.75565 6.15008 9.90991 6.26709C9.79715 6.08061 9.57163 5.71258 9.57163 5.3813C9.57163 5.05002 9.79715 4.59607 9.90991 4.45438C9.7331 4.5531 9.37894 4.77303 9.04119 4.77303C8.70345 4.77303 8.24577 4.58144 8.08971 4.45438C8.21961 4.61801 8.45664 4.96446 8.45664 5.3813C8.45664 5.79814 8.19165 6.14539 8.08971 6.26697C8.25118 6.14996 8.71644 5.91607 9.04119 5.91607Z" fill="#0000FF" stroke="#0000FF" stroke-width="0.0223688"/>
<path d="M10.8705 7.87418C11.2767 7.87418 11.7641 8.16688 11.957 8.31323C11.816 8.07999 11.5339 7.61967 11.5339 7.20532C11.5339 6.79097 11.816 6.22317 11.957 6.04595C11.7359 6.16944 11.2929 6.44452 10.8705 6.44452C10.448 6.44452 9.87558 6.20488 9.68038 6.04595C9.84286 6.25061 10.1393 6.68395 10.1393 7.20532C10.1393 7.72669 9.80788 8.16102 9.68038 8.31309C9.88235 8.16674 10.4643 7.87418 10.8705 7.87418Z" fill="#0000FF" stroke="#0000FF" stroke-width="0.0279781"/>
<path d="M12.6774 9.55242C13.0022 9.55242 13.3919 9.78643 13.5461 9.90344C13.4334 9.71696 13.2079 9.34893 13.2079 9.01765C13.2079 8.68638 13.4334 8.23242 13.5461 8.09073C13.3693 8.18946 13.0152 8.40939 12.6774 8.40939C12.3397 8.40939 11.882 8.21779 11.7259 8.09073C11.8558 8.25436 12.0929 8.60081 12.0929 9.01765C12.0929 9.4345 11.8279 9.78175 11.7259 9.90332C11.8874 9.78632 12.3527 9.55242 12.6774 9.55242Z" fill="#0000FF" stroke="#0000FF" stroke-width="0.0223688"/>
<path d="M3.57593 3.95868C3.81925 3.95868 4.11123 4.13401 4.22681 4.22168C4.14232 4.08196 3.97335 3.80622 3.97335 3.55802C3.97335 3.30981 4.14232 2.9697 4.22681 2.86354C4.09433 2.93751 3.82898 3.10228 3.57593 3.10228C3.32288 3.10228 2.97998 2.95874 2.86305 2.86354C2.96038 2.98613 3.13796 3.24571 3.13796 3.55802C3.13796 3.87033 2.93943 4.1305 2.86305 4.22159C2.98403 4.13393 3.33262 3.95868 3.57593 3.95868Z" fill="#0000FF" stroke="#0000FF" stroke-width="0.0167594"/>
<path d="M5.40545 5.9168C5.73021 5.9168 6.11991 6.15081 6.27417 6.26782C6.16141 6.08134 5.93588 5.71331 5.93588 5.38203C5.93588 5.05076 6.16141 4.5968 6.27417 4.45511C6.09736 4.55384 5.7432 4.77377 5.40545 4.77377C5.06771 4.77377 4.61003 4.58217 4.45397 4.45511C4.58387 4.61874 4.82089 4.96519 4.82089 5.38203C4.82089 5.79888 4.5559 6.14613 4.45397 6.2677C4.61544 6.1507 5.0807 5.9168 5.40545 5.9168Z" fill="#0000FF" stroke="#0000FF" stroke-width="0.0223688"/>
<path d="M7.23326 7.87357C7.63945 7.87357 8.12688 8.16627 8.31982 8.31262C8.17879 8.07938 7.89671 7.61906 7.89671 7.20471C7.89671 6.79036 8.17879 6.22256 8.31982 6.04534C8.09867 6.16882 7.6557 6.44391 7.23326 6.44391C6.81082 6.44391 6.23837 6.20427 6.04317 6.04534C6.20565 6.25 6.50211 6.68334 6.50211 7.20471C6.50211 7.72608 6.17067 8.16041 6.04317 8.31247C6.24514 8.16613 6.82707 7.87357 7.23326 7.87357Z" fill="#0000FF" stroke="#0000FF" stroke-width="0.0279781"/>
<path d="M9.05211 9.69242C9.4583 9.69242 9.94573 9.98512 10.1387 10.1315C9.99763 9.89822 9.71555 9.43791 9.71555 9.02356C9.71555 8.6092 9.99763 8.04141 10.1387 7.86419C9.91752 7.98767 9.47455 8.26275 9.05211 8.26275C8.62967 8.26275 8.05722 8.02312 7.86202 7.86419C8.0245 8.06885 8.32096 8.50218 8.32096 9.02356C8.32096 9.54493 7.98952 9.97926 7.86202 10.1313C8.06399 9.98497 8.64591 9.69242 9.05211 9.69242Z" fill="#0000FF" stroke="#0000FF" stroke-width="0.0279781"/>
<path d="M10.8695 11.5099C11.2757 11.5099 11.7631 11.8026 11.9561 11.949C11.815 11.7157 11.5329 11.2554 11.5329 10.8411C11.5329 10.4267 11.815 9.85892 11.9561 9.68169C11.7349 9.80518 11.2919 10.0803 10.8695 10.0803C10.447 10.0803 9.8746 9.84062 9.6794 9.68169C9.84188 9.88636 10.1383 10.3197 10.1383 10.8411C10.1383 11.3624 9.8069 11.7968 9.6794 11.9488C9.88137 11.8025 10.4633 11.5099 10.8695 11.5099Z" fill="#0000FF" stroke="#0000FF" stroke-width="0.0279781"/>
<path d="M12.6782 13.1895C13.0029 13.1895 13.3926 13.4235 13.5469 13.5405C13.4341 13.354 13.2086 12.986 13.2086 12.6547C13.2086 12.3235 13.4341 11.8695 13.5469 11.7278C13.3701 11.8265 13.0159 12.0465 12.6782 12.0465C12.3404 12.0465 11.8827 11.8549 11.7267 11.7278C11.8566 11.8914 12.0936 12.2379 12.0936 12.6547C12.0936 13.0716 11.8286 13.4188 11.7267 13.5404C11.8881 13.4234 12.3534 13.1895 12.6782 13.1895Z" fill="#0000FF" stroke="#0000FF" stroke-width="0.0223688"/>
<path d="M14.4851 14.8677C14.7284 14.8677 15.0204 15.0431 15.136 15.1307C15.0515 14.991 14.8825 14.7153 14.8825 14.4671C14.8825 14.2189 15.0515 13.8788 15.136 13.7726C15.0035 13.8466 14.7382 14.0113 14.4851 14.0113C14.2321 14.0113 13.8892 13.8678 13.7722 13.7726C13.8696 13.8952 14.0471 14.1548 14.0471 14.4671C14.0471 14.7794 13.8486 15.0396 13.7722 15.1306C13.8932 15.043 14.2418 14.8677 14.4851 14.8677Z" fill="#0000FF" stroke="#0000FF" stroke-width="0.0167594"/>
<path d="M5.40447 9.55254C5.72923 9.55254 6.11893 9.78656 6.27319 9.90356C6.16043 9.71708 5.93491 9.34906 5.93491 9.01778C5.93491 8.6865 6.16043 8.23254 6.27319 8.09085C6.09638 8.18958 5.74222 8.40951 5.40447 8.40951C5.06673 8.40951 4.60905 8.21792 4.45299 8.09085C4.58289 8.25448 4.81992 8.60094 4.81992 9.01778C4.81992 9.43462 4.55493 9.78187 4.45299 9.90345C4.61447 9.78644 5.07972 9.55254 5.40447 9.55254Z" fill="#0000FF" stroke="#0000FF" stroke-width="0.0223688"/>
<path d="M7.23375 11.5108C7.63994 11.5108 8.12737 11.8035 8.32031 11.9498C8.17927 11.7166 7.8972 11.2563 7.8972 10.8419C7.8972 10.4276 8.17927 9.85977 8.32031 9.68255C8.09916 9.80603 7.65619 10.0811 7.23375 10.0811C6.81131 10.0811 6.23886 9.84148 6.04366 9.68255C6.20614 9.88721 6.5026 10.3205 6.5026 10.8419C6.5026 11.3633 6.17116 11.7976 6.04366 11.9497C6.24563 11.8033 6.82756 11.5108 7.23375 11.5108Z" fill="#0000FF" stroke="#0000FF" stroke-width="0.0279781"/>
<path d="M9.04095 13.1889C9.3657 13.1889 9.75541 13.4229 9.90967 13.5399C9.79691 13.3534 9.57138 12.9854 9.57138 12.6541C9.57138 12.3229 9.79691 11.8689 9.90967 11.7272C9.73286 11.8259 9.37869 12.0459 9.04095 12.0459C8.7032 12.0459 8.24553 11.8543 8.08947 11.7272C8.21937 11.8908 8.45639 12.2373 8.45639 12.6541C8.45639 13.071 8.1914 13.4182 8.08947 13.5398C8.25094 13.4228 8.71619 13.1889 9.04095 13.1889Z" fill="#0000FF" stroke="#0000FF" stroke-width="0.0223688"/>
<path d="M5.39478 13.0505C5.6381 13.0505 5.93008 13.2258 6.04565 13.3135C5.96117 13.1738 5.7922 12.898 5.7922 12.6498C5.7922 12.4016 5.96117 12.0615 6.04565 11.9553C5.91318 12.0293 5.64783 12.1941 5.39478 12.1941C5.14173 12.1941 4.79883 12.0505 4.6819 11.9553C4.77923 12.0779 4.95681 12.3375 4.95681 12.6498C4.95681 12.9621 4.75827 13.2223 4.6819 13.3134C4.80288 13.2257 5.15147 13.0505 5.39478 13.0505Z" fill="#0000FF" stroke="#0000FF" stroke-width="0.0167594"/>
<path d="M3.57642 14.8687C3.81974 14.8687 4.11172 15.044 4.22729 15.1317C4.14281 14.992 3.97384 14.7163 3.97384 14.4681C3.97384 14.2198 4.14281 13.8797 4.22729 13.7736C4.09482 13.8475 3.82947 14.0123 3.57642 14.0123C3.32337 14.0123 2.98047 13.8688 2.86354 13.7736C2.96087 13.8962 3.13845 14.1557 3.13845 14.4681C3.13845 14.7804 2.93991 15.0405 2.86354 15.1316C2.98452 15.044 3.33311 14.8687 3.57642 14.8687Z" fill="#0000FF" stroke="#0000FF" stroke-width="0.0167594"/>
</svg>
