<svg width="19" height="19" viewBox="0 0 19 19" fill="none" xmlns="http://www.w3.org/2000/svg">
<path d="M15.1823 4.14914C15.4373 4.14914 15.7434 4.33291 15.8645 4.4248C15.7759 4.27836 15.5988 3.98933 15.5988 3.72917C15.5988 3.46901 15.7759 3.1125 15.8645 3.00123C15.7256 3.07876 15.4475 3.25148 15.1823 3.25148C14.917 3.25148 14.5576 3.10102 14.435 3.00123C14.5371 3.12973 14.7232 3.40181 14.7232 3.72917C14.7232 4.05653 14.5151 4.32923 14.435 4.42471C14.5619 4.33282 14.9272 4.14914 15.1823 4.14914Z" fill="#0000FF" stroke="#0000FF" stroke-width="0.0175668"/>
<path d="M11.3715 4.14914C11.6265 4.14914 11.9326 4.33291 12.0537 4.4248C11.9652 4.27836 11.788 3.98933 11.788 3.72917C11.788 3.46901 11.9652 3.1125 12.0537 3.00123C11.9149 3.07876 11.6367 3.25148 11.3715 3.25148C11.1062 3.25148 10.7468 3.10102 10.6243 3.00123C10.7263 3.12973 10.9124 3.40181 10.9124 3.72917C10.9124 4.05653 10.7043 4.32923 10.6243 4.42471C10.7511 4.33282 11.1164 4.14914 11.3715 4.14914Z" fill="#0000FF" stroke="#0000FF" stroke-width="0.0175668"/>
<path d="M13.2877 6.20103C13.6281 6.20103 14.0366 6.44632 14.1982 6.56897C14.08 6.3735 13.8437 5.98775 13.8437 5.64051C13.8437 5.29327 14.08 4.81744 14.1982 4.66893C14.0129 4.77241 13.6417 5.00294 13.2877 5.00294C12.9337 5.00294 12.4539 4.80211 12.2903 4.66893C12.4265 4.84044 12.675 5.20358 12.675 5.64051C12.675 6.07743 12.3972 6.44141 12.2903 6.56885C12.4596 6.4462 12.9473 6.20103 13.2877 6.20103Z" fill="#0000FF" stroke="#0000FF" stroke-width="0.0234464"/>
<path d="M15.2041 8.25281C15.6299 8.25281 16.1408 8.55961 16.343 8.71301C16.1952 8.46853 15.8995 7.98604 15.8995 7.55172C15.8995 7.11741 16.1952 6.52226 16.343 6.3365C16.1112 6.46593 15.6469 6.75427 15.2041 6.75427C14.7613 6.75427 14.1613 6.50309 13.9567 6.3365C14.127 6.55102 14.4377 7.00523 14.4377 7.55172C14.4377 8.09821 14.0903 8.55347 13.9567 8.71286C14.1684 8.55946 14.7783 8.25281 15.2041 8.25281Z" fill="#0000FF" stroke="#0000FF" stroke-width="0.029326"/>
<path d="M7.56045 4.14914C7.81549 4.14914 8.12153 4.33291 8.24268 4.4248C8.15412 4.27836 7.97701 3.98933 7.97701 3.72917C7.97701 3.46901 8.15412 3.1125 8.24268 3.00123C8.10382 3.07876 7.82569 3.25148 7.56045 3.25148C7.29521 3.25148 6.93578 3.10102 6.81322 3.00123C6.91523 3.12973 7.10138 3.40181 7.10138 3.72917C7.10138 4.05653 6.89327 4.32923 6.81322 4.42471C6.94003 4.33282 7.30541 4.14914 7.56045 4.14914Z" fill="#0000FF" stroke="#0000FF" stroke-width="0.0175668"/>
<path d="M9.47688 6.20103C9.81728 6.20103 10.2258 6.44632 10.3875 6.56897C10.2693 6.3735 10.0329 5.98775 10.0329 5.64051C10.0329 5.29327 10.2693 4.81744 10.3875 4.66893C10.2021 4.77241 9.8309 5.00294 9.47688 5.00294C9.12286 5.00294 8.64314 4.80211 8.47956 4.66893C8.61572 4.84044 8.86416 5.20358 8.86416 5.64051C8.86416 6.07743 8.5864 6.44141 8.47956 6.56885C8.64881 6.4462 9.13648 6.20103 9.47688 6.20103Z" fill="#0000FF" stroke="#0000FF" stroke-width="0.0234464"/>
<path d="M11.3933 8.25281C11.8191 8.25281 12.33 8.55961 12.5322 8.71301C12.3844 8.46853 12.0887 7.98604 12.0887 7.55172C12.0887 7.11741 12.3844 6.52226 12.5322 6.3365C12.3004 6.46593 11.8361 6.75427 11.3933 6.75427C10.9505 6.75427 10.3505 6.50309 10.1459 6.3365C10.3162 6.55102 10.6269 7.00523 10.6269 7.55172C10.6269 8.09821 10.2795 8.55347 10.1459 8.71286C10.3576 8.55946 10.9676 8.25281 11.3933 8.25281Z" fill="#0000FF" stroke="#0000FF" stroke-width="0.029326"/>
<path d="M13.2986 10.1587C13.7243 10.1587 14.2353 10.4655 14.4375 10.6189C14.2897 10.3744 13.994 9.89192 13.994 9.45761C13.994 9.02329 14.2897 8.42814 14.4375 8.24239C14.2057 8.37182 13.7414 8.66015 13.2986 8.66015C12.8558 8.66015 12.2558 8.40897 12.0512 8.24239C12.2215 8.45691 12.5322 8.91112 12.5322 9.45761C12.5322 10.0041 12.1848 10.4593 12.0512 10.6187C12.2629 10.4653 12.8728 10.1587 13.2986 10.1587Z" fill="#0000FF" stroke="#0000FF" stroke-width="0.029326"/>
<path d="M15.2041 12.0646C15.6299 12.0646 16.1408 12.3714 16.343 12.5248C16.1952 12.2803 15.8995 11.7978 15.8995 11.3635C15.8995 10.9292 16.1952 10.334 16.343 10.1483C16.1112 10.2777 15.6469 10.566 15.2041 10.566C14.7613 10.566 14.1613 10.3149 13.9567 10.1483C14.127 10.3628 14.4377 10.817 14.4377 11.3635C14.4377 11.91 14.0903 12.3652 13.9567 12.5246C14.1684 12.3712 14.7783 12.0646 15.2041 12.0646Z" fill="#0000FF" stroke="#0000FF" stroke-width="0.029326"/>
<path d="M3.74966 4.14914C4.00469 4.14914 4.31074 4.33291 4.43188 4.4248C4.34333 4.27836 4.16622 3.98933 4.16622 3.72917C4.16622 3.46901 4.34333 3.1125 4.43188 3.00123C4.29303 3.07876 4.0149 3.25148 3.74966 3.25148C3.48441 3.25148 3.12499 3.10102 3.00243 3.00123C3.10444 3.12973 3.29058 3.40181 3.29058 3.72917C3.29058 4.05653 3.08248 4.32923 3.00243 4.42471C3.12924 4.33282 3.49462 4.14914 3.74966 4.14914Z" fill="#0000FF" stroke="#0000FF" stroke-width="0.0175668"/>
<path d="M5.65517 6.05502C5.91021 6.05502 6.21626 6.2388 6.3374 6.33069C6.24885 6.18424 6.07174 5.89522 6.07174 5.63505C6.07174 5.37489 6.24885 5.01839 6.3374 4.90711C6.19855 4.98465 5.92041 5.15736 5.65517 5.15736C5.38993 5.15736 5.03051 5.0069 4.90794 4.90711C5.00996 5.03562 5.1961 5.3077 5.1961 5.63505C5.1961 5.96241 4.988 6.23512 4.90794 6.3306C5.03476 6.23871 5.40013 6.05502 5.65517 6.05502Z" fill="#0000FF" stroke="#0000FF" stroke-width="0.0175668"/>
<path d="M7.56045 7.9609C7.81549 7.9609 8.12153 8.14468 8.24268 8.23657C8.15412 8.09012 7.97701 7.8011 7.97701 7.54094C7.97701 7.28078 8.15412 6.92427 8.24268 6.813C8.10382 6.89053 7.82569 7.06325 7.56045 7.06325C7.29521 7.06325 6.93578 6.91278 6.81322 6.813C6.91523 6.9415 7.10138 7.21358 7.10138 7.54094C7.10138 7.8683 6.89327 8.141 6.81322 8.23648C6.94003 8.14459 7.30541 7.9609 7.56045 7.9609Z" fill="#0000FF" stroke="#0000FF" stroke-width="0.0175668"/>
<path d="M9.47688 10.0128C9.81728 10.0128 10.2258 10.2581 10.3875 10.3807C10.2693 10.1853 10.0329 9.79951 10.0329 9.45228C10.0329 9.10504 10.2693 8.62921 10.3875 8.48069C10.2021 8.58418 9.8309 8.8147 9.47688 8.8147C9.12286 8.8147 8.64314 8.61388 8.47956 8.48069C8.61572 8.65221 8.86416 9.01535 8.86416 9.45228C8.86416 9.8892 8.5864 10.2532 8.47956 10.3806C8.64881 10.258 9.13648 10.0128 9.47688 10.0128Z" fill="#0000FF" stroke="#0000FF" stroke-width="0.0234464"/>
<path d="M11.3933 12.0646C11.8191 12.0646 12.33 12.3714 12.5322 12.5248C12.3844 12.2803 12.0887 11.7978 12.0887 11.3635C12.0887 10.9292 12.3844 10.334 12.5322 10.1483C12.3004 10.2777 11.8361 10.566 11.3933 10.566C10.9505 10.566 10.3505 10.3149 10.1459 10.1483C10.3162 10.3628 10.6269 10.817 10.6269 11.3635C10.6269 11.91 10.2795 12.3652 10.1459 12.5246C10.3576 12.3712 10.9676 12.0646 11.3933 12.0646Z" fill="#0000FF" stroke="#0000FF" stroke-width="0.029326"/>
<path d="M13.2877 13.8246C13.6281 13.8246 14.0366 14.0699 14.1982 14.1925C14.08 13.997 13.8437 13.6113 13.8437 13.264C13.8437 12.9168 14.08 12.441 14.1982 12.2925C14.0129 12.3959 13.6417 12.6265 13.2877 12.6265C12.9337 12.6265 12.4539 12.4256 12.2903 12.2925C12.4265 12.464 12.675 12.8271 12.675 13.264C12.675 13.701 12.3972 14.0649 12.2903 14.1924C12.4596 14.0697 12.9473 13.8246 13.2877 13.8246Z" fill="#0000FF" stroke="#0000FF" stroke-width="0.0234464"/>
<path d="M15.1823 15.5844C15.4373 15.5844 15.7434 15.7682 15.8645 15.8601C15.7759 15.7137 15.5988 15.4246 15.5988 15.1645C15.5988 14.9043 15.7759 14.5478 15.8645 14.4365C15.7256 14.5141 15.4475 14.6868 15.1823 14.6868C14.917 14.6868 14.5576 14.5363 14.435 14.4365C14.5371 14.565 14.7232 14.8371 14.7232 15.1645C14.7232 15.4918 14.5151 15.7645 14.435 15.86C14.5619 15.7681 14.9272 15.5844 15.1823 15.5844Z" fill="#0000FF" stroke="#0000FF" stroke-width="0.0175668"/>
<path d="M3.74966 7.9609C4.00469 7.9609 4.31074 8.14468 4.43188 8.23657C4.34333 8.09012 4.16622 7.8011 4.16622 7.54094C4.16622 7.28078 4.34333 6.92427 4.43188 6.813C4.29303 6.89053 4.0149 7.06325 3.74966 7.06325C3.48441 7.06325 3.12499 6.91278 3.00243 6.813C3.10444 6.9415 3.29058 7.21358 3.29058 7.54094C3.29058 7.8683 3.08248 8.141 3.00243 8.23648C3.12924 8.14459 3.49462 7.9609 3.74966 7.9609Z" fill="#0000FF" stroke="#0000FF" stroke-width="0.0175668"/>
<path d="M5.65517 9.86679C5.91021 9.86679 6.21626 10.0506 6.3374 10.1425C6.24885 9.99601 6.07174 9.70698 6.07174 9.44682C6.07174 9.18666 6.24885 8.83015 6.3374 8.71888C6.19855 8.79641 5.92041 8.96913 5.65517 8.96913C5.38993 8.96913 5.03051 8.81867 4.90794 8.71888C5.00996 8.84738 5.1961 9.11946 5.1961 9.44682C5.1961 9.77418 4.988 10.0469 4.90794 10.1424C5.03476 10.0505 5.40013 9.86679 5.65517 9.86679Z" fill="#0000FF" stroke="#0000FF" stroke-width="0.0175668"/>
<path d="M7.56045 11.7727C7.81549 11.7727 8.12153 11.9565 8.24268 12.0483C8.15412 11.9019 7.97701 11.6129 7.97701 11.3527C7.97701 11.0925 8.15412 10.736 8.24268 10.6248C8.10382 10.7023 7.82569 10.875 7.56045 10.875C7.29521 10.875 6.93578 10.7246 6.81322 10.6248C6.91523 10.7533 7.10138 11.0253 7.10138 11.3527C7.10138 11.6801 6.89327 11.9528 6.81322 12.0482C6.94003 11.9564 7.30541 11.7727 7.56045 11.7727Z" fill="#0000FF" stroke="#0000FF" stroke-width="0.0175668"/>
<path d="M9.47688 13.8246C9.81728 13.8246 10.2258 14.0699 10.3875 14.1925C10.2693 13.997 10.0329 13.6113 10.0329 13.264C10.0329 12.9168 10.2693 12.441 10.3875 12.2925C10.2021 12.3959 9.8309 12.6265 9.47688 12.6265C9.12286 12.6265 8.64314 12.4256 8.47956 12.2925C8.61572 12.464 8.86416 12.8271 8.86416 13.264C8.86416 13.701 8.5864 14.0649 8.47956 14.1924C8.64881 14.0697 9.13648 13.8246 9.47688 13.8246Z" fill="#0000FF" stroke="#0000FF" stroke-width="0.0234464"/>
<path d="M11.3715 15.5844C11.6265 15.5844 11.9326 15.7682 12.0537 15.8601C11.9652 15.7137 11.788 15.4246 11.788 15.1645C11.788 14.9043 11.9652 14.5478 12.0537 14.4365C11.9149 14.5141 11.6367 14.6868 11.3715 14.6868C11.1062 14.6868 10.7468 14.5363 10.6243 14.4365C10.7263 14.565 10.9124 14.8371 10.9124 15.1645C10.9124 15.4918 10.7043 15.7645 10.6243 15.86C10.7511 15.7681 11.1164 15.5844 11.3715 15.5844Z" fill="#0000FF" stroke="#0000FF" stroke-width="0.0175668"/>
<path d="M3.74966 11.7727C4.00469 11.7727 4.31074 11.9565 4.43188 12.0483C4.34333 11.9019 4.16622 11.6129 4.16622 11.3527C4.16622 11.0925 4.34333 10.736 4.43188 10.6248C4.29303 10.7023 4.0149 10.875 3.74966 10.875C3.48441 10.875 3.12499 10.7246 3.00243 10.6248C3.10444 10.7533 3.29058 11.0253 3.29058 11.3527C3.29058 11.6801 3.08248 11.9528 3.00243 12.0482C3.12924 11.9564 3.49462 11.7727 3.74966 11.7727Z" fill="#0000FF" stroke="#0000FF" stroke-width="0.0175668"/>
<path d="M5.65517 13.6786C5.91021 13.6786 6.21626 13.8623 6.3374 13.9542C6.24885 13.8078 6.07174 13.5188 6.07174 13.2586C6.07174 12.9984 6.24885 12.6419 6.3374 12.5306C6.19855 12.6082 5.92041 12.7809 5.65517 12.7809C5.38993 12.7809 5.03051 12.6304 4.90794 12.5306C5.00996 12.6592 5.1961 12.9312 5.1961 13.2586C5.1961 13.5859 4.988 13.8587 4.90794 13.9541C5.03476 13.8622 5.40013 13.6786 5.65517 13.6786Z" fill="#0000FF" stroke="#0000FF" stroke-width="0.0175668"/>
<path d="M7.56045 15.5844C7.81549 15.5844 8.12153 15.7682 8.24268 15.8601C8.15412 15.7137 7.97701 15.4246 7.97701 15.1645C7.97701 14.9043 8.15412 14.5478 8.24268 14.4365C8.10382 14.5141 7.82569 14.6868 7.56045 14.6868C7.29521 14.6868 6.93578 14.5363 6.81322 14.4365C6.91523 14.565 7.10138 14.8371 7.10138 15.1645C7.10138 15.4918 6.89327 15.7645 6.81322 15.86C6.94003 15.7681 7.30541 15.5844 7.56045 15.5844Z" fill="#0000FF" stroke="#0000FF" stroke-width="0.0175668"/>
<path d="M3.74966 15.5844C4.00469 15.5844 4.31074 15.7682 4.43188 15.8601C4.34333 15.7137 4.16622 15.4246 4.16622 15.1645C4.16622 14.9043 4.34333 14.5478 4.43188 14.4365C4.29303 14.5141 4.0149 14.6868 3.74966 14.6868C3.48441 14.6868 3.12499 14.5363 3.00243 14.4365C3.10444 14.565 3.29058 14.8371 3.29058 15.1645C3.29058 15.4918 3.08248 15.7645 3.00243 15.86C3.12924 15.7681 3.49462 15.5844 3.74966 15.5844Z" fill="#0000FF" stroke="#0000FF" stroke-width="0.0175668"/>
</svg>
