<svg width="20" height="20" viewBox="0 0 20 20" fill="none" xmlns="http://www.w3.org/2000/svg">
<path d="M5.8017 16.5362C6.00582 16.7403 6.39786 16.8382 6.56836 16.8616C6.38027 16.9079 6.0072 16.9975 5.79898 17.2057C5.59076 17.4139 5.44718 17.841 5.429 18.0009C5.37992 17.8277 5.29555 17.4669 5.08326 17.2546C4.87098 17.0423 4.46289 16.8751 4.28493 16.8569C4.46943 16.8357 4.83617 16.7669 5.09817 16.5049C5.36017 16.2429 5.41187 15.8581 5.42422 15.7176C5.45217 15.8926 5.59758 16.3321 5.8017 16.5362Z" fill="#0000FF" stroke="#0000FF" stroke-width="0.0198833"/>
<path d="M14.9046 2.84746C15.1087 3.05158 15.5008 3.14944 15.6713 3.17285C15.4832 3.21919 15.1101 3.30876 14.9019 3.51698C14.6937 3.7252 14.5501 4.15228 14.5319 4.31221C14.4828 4.13903 14.3985 3.77819 14.1862 3.5659C13.9739 3.35361 13.5658 3.18637 13.3878 3.16814C13.5723 3.14694 13.9391 3.07816 14.2011 2.81616C14.4631 2.55416 14.5148 2.16935 14.5271 2.02886C14.5551 2.2039 14.7005 2.64334 14.9046 2.84746Z" fill="#0000FF" stroke="#0000FF" stroke-width="0.0198833"/>
<path d="M17.1947 5.13774C17.3988 5.34186 17.7909 5.43972 17.9614 5.46313C17.7733 5.50947 17.4002 5.59904 17.192 5.80726C16.9838 6.01548 16.8402 6.44256 16.822 6.60249C16.7729 6.42931 16.6886 6.06847 16.4763 5.85618C16.264 5.6439 15.8559 5.47665 15.6779 5.45843C15.8624 5.43723 16.2292 5.36845 16.4912 5.10645C16.7532 4.84445 16.8049 4.45963 16.8172 4.31914C16.8452 4.49418 16.9906 4.93362 17.1947 5.13774Z" fill="#0000FF" stroke="#0000FF" stroke-width="0.0198833"/>
<path d="M14.6403 13.7696C14.8444 13.9737 15.2365 14.0716 15.407 14.095C15.2189 14.1413 14.8458 14.2309 14.6376 14.4391C14.4294 14.6473 14.2858 15.0744 14.2676 15.2343C14.2185 15.0611 14.1342 14.7003 13.9219 14.488C13.7096 14.2757 13.3015 14.1085 13.1236 14.0903C13.3081 14.0691 13.6748 14.0003 13.9368 13.7383C14.1988 13.4763 14.2505 13.0915 14.2628 12.951C14.2908 13.126 14.4362 13.5655 14.6403 13.7696Z" fill="#0000FF" stroke="#0000FF" stroke-width="0.0198833"/>
<path d="M5.8321 5.13774C6.03622 5.34186 6.42825 5.43972 6.59875 5.46313C6.41067 5.50947 6.0376 5.59904 5.82938 5.80726C5.62116 6.01548 5.47758 6.44256 5.4594 6.60249C5.41032 6.42931 5.32595 6.06847 5.11366 5.85618C4.90137 5.6439 4.49328 5.47665 4.31533 5.45843C4.49982 5.43723 4.86656 5.36845 5.12856 5.10645C5.39056 4.84445 5.44227 4.45963 5.45461 4.31914C5.48256 4.49418 5.62798 4.93362 5.8321 5.13774Z" fill="#0000FF" stroke="#0000FF" stroke-width="0.0198833"/>
<path d="M7.99335 16.617C8.14628 16.77 8.44 16.8433 8.56775 16.8608C8.42683 16.8956 8.14731 16.9627 7.99131 17.1187C7.8353 17.2747 7.72773 17.5947 7.7141 17.7145C7.67733 17.5847 7.61412 17.3144 7.45507 17.1553C7.29602 16.9963 6.99026 16.871 6.85693 16.8573C6.99516 16.8414 7.26993 16.7899 7.46623 16.5936C7.66253 16.3973 7.70127 16.109 7.71052 16.0037C7.73146 16.1349 7.84041 16.4641 7.99335 16.617Z" fill="#0000FF" stroke="#0000FF" stroke-width="0.0148972"/>
<path d="M12.5649 16.617C12.7179 16.77 13.0116 16.8433 13.1393 16.8608C12.9984 16.8956 12.7189 16.9627 12.5629 17.1187C12.4069 17.2747 12.2993 17.5947 12.2857 17.7145C12.2489 17.5847 12.1857 17.3144 12.0267 17.1553C11.8676 16.9963 11.5619 16.871 11.4285 16.8573C11.5668 16.8414 11.8415 16.7899 12.0378 16.5936C12.2341 16.3973 12.2729 16.109 12.2821 16.0037C12.3031 16.1349 12.412 16.4641 12.5649 16.617Z" fill="#0000FF" stroke="#0000FF" stroke-width="0.0148972"/>
<path d="M3.5163 14.2503C3.72042 14.4544 4.11246 14.5523 4.28296 14.5757C4.09487 14.622 3.7218 14.7116 3.51358 14.9198C3.30536 15.128 3.16178 15.5551 3.1436 15.715C3.09452 15.5419 3.01015 15.181 2.79786 14.9687C2.58558 14.7564 2.17749 14.5892 1.99953 14.571C2.18403 14.5498 2.55077 14.481 2.81277 14.219C3.07477 13.957 3.12647 13.5722 3.13882 13.4317C3.16677 13.6067 3.31218 14.0462 3.5163 14.2503Z" fill="#0000FF" stroke="#0000FF" stroke-width="0.0198833"/>
<path d="M3.42224 12.0455C3.57517 12.1984 3.8689 12.2718 3.99664 12.2893C3.85572 12.324 3.57621 12.3911 3.4202 12.5471C3.26419 12.7031 3.15662 13.0231 3.143 13.143C3.10623 13.0132 3.04301 12.7428 2.88396 12.5838C2.72491 12.4247 2.41916 12.2994 2.28582 12.2858C2.42405 12.2699 2.69883 12.2184 2.89513 12.0221C3.09143 11.8258 3.13016 11.5374 3.13941 11.4322C3.16036 11.5633 3.26931 11.8926 3.42224 12.0455Z" fill="#0000FF" stroke="#0000FF" stroke-width="0.0148972"/>
<path d="M17.1364 12.0455C17.2893 12.1984 17.583 12.2718 17.7108 12.2893C17.5698 12.324 17.2903 12.3911 17.1343 12.5471C16.9783 12.7031 16.8707 13.0231 16.8571 13.143C16.8203 13.0132 16.7571 12.7428 16.5981 12.5838C16.439 12.4247 16.1333 12.2994 15.9999 12.2858C16.1382 12.2699 16.4129 12.2184 16.6092 12.0221C16.8055 11.8258 16.8443 11.5374 16.8535 11.4322C16.8745 11.5633 16.9834 11.8926 17.1364 12.0455Z" fill="#0000FF" stroke="#0000FF" stroke-width="0.0148972"/>
<path d="M14.5463 13.8504C14.6992 14.0034 14.9929 14.0767 15.1207 14.0942C14.9797 14.129 14.7002 14.1961 14.5442 14.3521C14.3882 14.5081 14.2806 14.8281 14.267 14.9479C14.2302 14.8181 14.167 14.5478 14.008 14.3887C13.8489 14.2297 13.5432 14.1044 13.4098 14.0907C13.5481 14.0748 13.8229 14.0233 14.0192 13.827C14.2154 13.6307 14.2542 13.3424 14.2634 13.2371C14.2844 13.3683 14.3933 13.6975 14.5463 13.8504Z" fill="#0000FF" stroke="#0000FF" stroke-width="0.0148972"/>
<path d="M12.2562 13.8504C12.4091 14.0034 12.7028 14.0767 12.8306 14.0942C12.6896 14.129 12.4101 14.1961 12.2541 14.3521C12.0981 14.5081 11.9905 14.8281 11.9769 14.9479C11.9401 14.8181 11.8769 14.5478 11.7179 14.3887C11.5588 14.2297 11.2531 14.1044 11.1197 14.0907C11.258 14.0748 11.5328 14.0233 11.7291 13.827C11.9253 13.6307 11.9641 13.3424 11.9733 13.2371C11.9943 13.3683 12.1032 13.6975 12.2562 13.8504Z" fill="#0000FF" stroke="#0000FF" stroke-width="0.0148972"/>
<path d="M14.5463 11.5602C14.6992 11.7131 14.9929 11.7864 15.1207 11.804C14.9797 11.8387 14.7002 11.9058 14.5442 12.0618C14.3882 12.2178 14.2806 12.5378 14.267 12.6576C14.2302 12.5278 14.167 12.2575 14.008 12.0984C13.8489 11.9394 13.5432 11.8141 13.4098 11.8004C13.5481 11.7845 13.8229 11.733 14.0192 11.5367C14.2154 11.3404 14.2542 11.0521 14.2634 10.9468C14.2844 11.078 14.3933 11.4072 14.5463 11.5602Z" fill="#0000FF" stroke="#0000FF" stroke-width="0.0148972"/>
<path d="M3.42224 7.47398C3.57517 7.62691 3.8689 7.70023 3.99664 7.71777C3.85572 7.75249 3.57621 7.8196 3.4202 7.9756C3.26419 8.13161 3.15662 8.45159 3.143 8.57142C3.10623 8.44166 3.04301 8.17131 2.88396 8.01226C2.72491 7.85321 2.41916 7.7279 2.28582 7.71425C2.42405 7.69836 2.69883 7.64683 2.89513 7.45053C3.09143 7.25423 3.13016 6.96591 3.13941 6.86066C3.16036 6.9918 3.26931 7.32105 3.42224 7.47398Z" fill="#0000FF" stroke="#0000FF" stroke-width="0.0148972"/>
<path d="M5.73804 7.47398C5.89097 7.62691 6.18469 7.70023 6.31244 7.71777C6.17152 7.75249 5.892 7.8196 5.736 7.9756C5.57999 8.13161 5.47242 8.45159 5.45879 8.57142C5.42202 8.44166 5.35881 8.17131 5.19976 8.01226C5.04071 7.85321 4.73495 7.7279 4.60162 7.71425C4.73985 7.69836 5.01462 7.64683 5.21092 7.45053C5.40722 7.25423 5.44596 6.96591 5.45521 6.86066C5.47615 6.9918 5.5851 7.32105 5.73804 7.47398Z" fill="#0000FF" stroke="#0000FF" stroke-width="0.0148972"/>
<path d="M17.1364 7.47398C17.2893 7.62691 17.583 7.70023 17.7108 7.71777C17.5698 7.75249 17.2903 7.8196 17.1343 7.9756C16.9783 8.13161 16.8707 8.45159 16.8571 8.57142C16.8203 8.44166 16.7571 8.17131 16.5981 8.01226C16.439 7.85321 16.1333 7.7279 15.9999 7.71425C16.1382 7.69836 16.4129 7.64683 16.6092 7.45053C16.8055 7.25423 16.8443 6.96591 16.8535 6.86066C16.8745 6.9918 16.9834 7.32105 17.1364 7.47398Z" fill="#0000FF" stroke="#0000FF" stroke-width="0.0148972"/>
<path d="M17.1364 5.18834C17.2893 5.34127 17.583 5.41459 17.7108 5.43213C17.5698 5.46685 17.2903 5.53395 17.1343 5.68996C16.9783 5.84597 16.8707 6.16595 16.8571 6.28577C16.8203 6.15602 16.7571 5.88566 16.5981 5.72661C16.439 5.56756 16.1333 5.44226 15.9999 5.4286C16.1382 5.41272 16.4129 5.36119 16.6092 5.16489C16.8055 4.96859 16.8443 4.68027 16.8535 4.57501C16.8745 4.70616 16.9834 5.0354 17.1364 5.18834Z" fill="#0000FF" stroke="#0000FF" stroke-width="0.0148972"/>
<path d="M7.99335 2.90269C8.14628 3.05562 8.44 3.12894 8.56775 3.14648C8.42683 3.1812 8.14731 3.24831 7.99131 3.40431C7.8353 3.56032 7.72773 3.8803 7.7141 4.00013C7.67733 3.87037 7.61412 3.60002 7.45507 3.44097C7.29602 3.28192 6.99026 3.15661 6.85693 3.14296C6.99516 3.12707 7.26993 3.07554 7.46623 2.87924C7.66253 2.68294 7.70127 2.39462 7.71052 2.28937C7.73146 2.42051 7.84041 2.74976 7.99335 2.90269Z" fill="#0000FF" stroke="#0000FF" stroke-width="0.0148972"/>
<path d="M7.99335 5.21861C8.14628 5.37154 8.44 5.44486 8.56775 5.4624C8.42683 5.49712 8.14731 5.56423 7.99131 5.72023C7.8353 5.87624 7.72773 6.19622 7.7141 6.31605C7.67733 6.18629 7.61412 5.91594 7.45507 5.75689C7.29602 5.59784 6.99026 5.47253 6.85693 5.45887C6.99516 5.44299 7.26993 5.39146 7.46623 5.19516C7.66253 4.99886 7.70127 4.71054 7.71052 4.60528C7.73146 4.73643 7.84041 5.06567 7.99335 5.21861Z" fill="#0000FF" stroke="#0000FF" stroke-width="0.0148972"/>
<path d="M5.73804 5.21861C5.89097 5.37154 6.18469 5.44486 6.31244 5.4624C6.17152 5.49712 5.892 5.56423 5.736 5.72023C5.57999 5.87624 5.47242 6.19622 5.45879 6.31605C5.42202 6.18629 5.35881 5.91594 5.19976 5.75689C5.04071 5.59784 4.73495 5.47253 4.60162 5.45887C4.73985 5.44299 5.01462 5.39146 5.21092 5.19516C5.40722 4.99886 5.44596 4.71054 5.45521 4.60528C5.47615 4.73643 5.5851 5.06567 5.73804 5.21861Z" fill="#0000FF" stroke="#0000FF" stroke-width="0.0148972"/>
<path d="M12.5649 2.90269C12.7179 3.05562 13.0116 3.12894 13.1393 3.14648C12.9984 3.1812 12.7189 3.24831 12.5629 3.40431C12.4069 3.56032 12.2993 3.8803 12.2857 4.00013C12.2489 3.87037 12.1857 3.60002 12.0267 3.44097C11.8676 3.28192 11.5619 3.15661 11.4285 3.14296C11.5668 3.12707 11.8415 3.07554 12.0378 2.87924C12.2341 2.68294 12.2729 2.39462 12.2821 2.28937C12.3031 2.42051 12.412 2.74976 12.5649 2.90269Z" fill="#0000FF" stroke="#0000FF" stroke-width="0.0148972"/>
<path d="M14.8506 2.90269C15.0036 3.05562 15.2973 3.12894 15.425 3.14648C15.2841 3.1812 15.0046 3.24831 14.8486 3.40431C14.6926 3.56032 14.585 3.8803 14.5714 4.00013C14.5346 3.87037 14.4714 3.60002 14.3124 3.44097C14.1533 3.28192 13.8476 3.15661 13.7142 3.14296C13.8525 3.12707 14.1272 3.07554 14.3235 2.87924C14.5198 2.68294 14.5586 2.39462 14.5678 2.28937C14.5888 2.42051 14.6977 2.74976 14.8506 2.90269Z" fill="#0000FF" stroke="#0000FF" stroke-width="0.0148972"/>
<path d="M10.3734 11.9646C10.5775 12.1688 10.9695 12.2666 11.14 12.29C10.9519 12.3364 10.5789 12.4259 10.3706 12.6342C10.1624 12.8424 10.0188 13.2695 10.0007 13.4294C9.95158 13.2562 9.86721 12.8954 9.65492 12.6831C9.44263 12.4708 9.03454 12.3036 8.85659 12.2853C9.04108 12.2641 9.40782 12.1954 9.66982 11.9334C9.93182 11.6713 9.98353 11.2865 9.99587 11.146C10.0238 11.3211 10.1692 11.7605 10.3734 11.9646Z" fill="#0000FF" stroke="#0000FF" stroke-width="0.0198833"/>
<path d="M7.99335 9.75987C8.14628 9.9128 8.44 9.98612 8.56775 10.0037C8.42683 10.0384 8.14731 10.1055 7.99131 10.2615C7.8353 10.4175 7.72773 10.7375 7.7141 10.8573C7.67733 10.7276 7.61412 10.4572 7.45507 10.2981C7.29602 10.1391 6.99026 10.0138 6.85693 10.0001C6.99516 9.98425 7.26993 9.93272 7.46623 9.73642C7.66253 9.54012 7.70127 9.2518 7.71052 9.14654C7.73146 9.27769 7.84041 9.60693 7.99335 9.75987Z" fill="#0000FF" stroke="#0000FF" stroke-width="0.0148972"/>
<path d="M10.4674 9.59789C10.7227 9.8532 11.2131 9.9756 11.4263 10.0049C11.1911 10.0628 10.7245 10.1749 10.464 10.4353C10.2036 10.6957 10.024 11.2299 10.0013 11.43C9.93987 11.2133 9.83434 10.762 9.56882 10.4965C9.3033 10.231 8.79288 10.0218 8.5703 9.99899C8.80106 9.97248 9.25976 9.88645 9.58746 9.55875C9.91516 9.23105 9.97983 8.74973 9.99528 8.57401C10.0302 8.79294 10.2121 9.34259 10.4674 9.59789Z" fill="#0000FF" stroke="#0000FF" stroke-width="0.0248694"/>
<path d="M12.659 9.679C12.8631 9.88312 13.2552 9.98098 13.4257 10.0044C13.2376 10.0507 12.8645 10.1403 12.6563 10.3485C12.4481 10.5567 12.3045 10.9838 12.2863 11.1438C12.2372 10.9706 12.1529 10.6097 11.9406 10.3974C11.7283 10.1852 11.3202 10.0179 11.1422 9.99969C11.3267 9.97849 11.6935 9.90971 11.9555 9.64771C12.2175 9.3857 12.2692 9.00089 12.2815 8.8604C12.3095 9.03544 12.4549 9.47488 12.659 9.679Z" fill="#0000FF" stroke="#0000FF" stroke-width="0.0198833"/>
<path d="M10.3734 7.39311C10.5775 7.59724 10.9695 7.69509 11.14 7.71851C10.9519 7.76484 10.5789 7.85441 10.3706 8.06263C10.1624 8.27085 10.0188 8.69793 10.0007 8.85786C9.95158 8.68468 9.86721 8.32384 9.65492 8.11155C9.44263 7.89927 9.03454 7.73202 8.85659 7.7138C9.04108 7.6926 9.40782 7.62382 9.66982 7.36182C9.93182 7.09982 9.98353 6.715 9.99587 6.57451C10.0238 6.74955 10.1692 7.18899 10.3734 7.39311Z" fill="#0000FF" stroke="#0000FF" stroke-width="0.0198833"/>
</svg>
