<svg width="20" height="20" viewBox="0 0 20 20" fill="none" xmlns="http://www.w3.org/2000/svg">
<path d="M12.0329 16.9476C11.8723 17.1082 11.5639 17.1852 11.4297 17.2036C11.5777 17.2401 11.8712 17.3105 12.035 17.4743C12.1988 17.6381 12.3118 17.9741 12.3261 18.0999C12.3647 17.9637 12.4311 17.6798 12.5981 17.5128C12.7651 17.3458 13.0861 17.2142 13.2261 17.1999C13.0809 17.1832 12.7924 17.1291 12.5863 16.923C12.3802 16.7169 12.3395 16.4142 12.3298 16.3037C12.3078 16.4413 12.1934 16.7871 12.0329 16.9476Z" fill="#0000FF" stroke="#0000FF" stroke-width="0.0156419"/>
<path d="M7.89603 3.05212C8.05661 2.89154 8.36502 2.81456 8.49915 2.79614C8.35118 2.75969 8.05769 2.68923 7.89389 2.52542C7.73008 2.36162 7.61713 2.02564 7.60283 1.89983C7.56422 2.03607 7.49785 2.31994 7.33084 2.48694C7.16384 2.65394 6.8428 2.78551 6.70281 2.79985C6.84795 2.81652 7.13645 2.87063 7.34257 3.07675C7.54868 3.28286 7.58935 3.58559 7.59907 3.69611C7.62105 3.55841 7.73545 3.2127 7.89603 3.05212Z" fill="#0000FF" stroke="#0000FF" stroke-width="0.0156419"/>
<path d="M9.63272 16.9476C9.47214 17.1082 9.16373 17.1852 9.0296 17.2036C9.17757 17.2401 9.47106 17.3105 9.63486 17.4743C9.79867 17.6381 9.91162 17.9741 9.92592 18.0999C9.96453 17.9637 10.0309 17.6798 10.1979 17.5128C10.3649 17.3458 10.6859 17.2142 10.8259 17.1999C10.6808 17.1832 10.3923 17.1291 10.1862 16.923C9.98007 16.7169 9.9394 16.4142 9.92968 16.3037C9.9077 16.4413 9.7933 16.7871 9.63272 16.9476Z" fill="#0000FF" stroke="#0000FF" stroke-width="0.0156419"/>
<path d="M10.2959 3.05212C10.4565 2.89154 10.7649 2.81456 10.899 2.79614C10.7511 2.75969 10.4576 2.68923 10.2938 2.52542C10.13 2.36162 10.017 2.02564 10.0027 1.89983C9.96412 2.03607 9.89775 2.31994 9.73075 2.48694C9.56374 2.65394 9.2427 2.78551 9.10271 2.79985C9.24785 2.81652 9.53636 2.87063 9.74247 3.07675C9.94858 3.28286 9.98926 3.58559 9.99897 3.69611C10.021 3.55841 10.1354 3.2127 10.2959 3.05212Z" fill="#0000FF" stroke="#0000FF" stroke-width="0.0156419"/>
<path d="M14.4328 14.5477C14.2723 14.7083 13.9638 14.7853 13.8297 14.8037C13.9777 14.8402 14.2712 14.9106 14.435 15.0744C14.5988 15.2382 14.7117 15.5742 14.726 15.7C14.7646 15.5638 14.831 15.2799 14.998 15.1129C15.165 14.9459 15.4861 14.8143 15.6261 14.8C15.4809 14.7833 15.1924 14.7292 14.9863 14.5231C14.7802 14.317 14.7395 14.0143 14.7298 13.9037C14.7078 14.0414 14.5934 14.3872 14.4328 14.5477Z" fill="#0000FF" stroke="#0000FF" stroke-width="0.0156419"/>
<path d="M5.49613 5.45203C5.65671 5.29145 5.96511 5.21446 6.09924 5.19605C5.95128 5.15959 5.65779 5.08913 5.49399 4.92533C5.33018 4.76152 5.21723 4.42554 5.20293 4.29973C5.16432 4.43597 5.09794 4.71984 4.93094 4.88684C4.76394 5.05384 4.4429 5.18541 4.3029 5.19975C4.44804 5.21643 4.73655 5.27054 4.94266 5.47665C5.14878 5.68276 5.18945 5.98549 5.19916 6.09601C5.22115 5.95831 5.33555 5.61261 5.49613 5.45203Z" fill="#0000FF" stroke="#0000FF" stroke-width="0.0156419"/>
<path d="M12.0329 14.5477C11.8723 14.7083 11.5639 14.7853 11.4298 14.8037C11.5778 14.8402 11.8713 14.9106 12.0351 15.0744C12.1989 15.2382 12.3118 15.5742 12.3261 15.7C12.3647 15.5638 12.4311 15.2799 12.5981 15.1129C12.7651 14.9459 13.0862 14.8143 13.2262 14.8C13.081 14.7833 12.7925 14.7292 12.5864 14.5231C12.3803 14.317 12.3396 14.0143 12.3299 13.9037C12.3079 14.0414 12.1935 14.3872 12.0329 14.5477Z" fill="#0000FF" stroke="#0000FF" stroke-width="0.0156419"/>
<path d="M9.67087 12.1176C9.51029 12.2781 9.20188 12.3551 9.06775 12.3735C9.21571 12.41 9.5092 12.4804 9.67301 12.6443C9.83681 12.8081 9.94976 13.144 9.96407 13.2699C10.0027 13.1336 10.0691 12.8497 10.2361 12.6827C10.4031 12.5157 10.7241 12.3842 10.8641 12.3698C10.7189 12.3532 10.4304 12.299 10.2243 12.0929C10.0182 11.8868 9.97754 11.5841 9.96783 11.4736C9.94584 11.6113 9.83145 11.957 9.67087 12.1176Z" fill="#0000FF" stroke="#0000FF" stroke-width="0.0156419"/>
<path d="M9.67087 7.30603C9.51029 7.46661 9.20188 7.54359 9.06775 7.56201C9.21571 7.59846 9.5092 7.66893 9.67301 7.83273C9.83681 7.99654 9.94976 8.33251 9.96407 8.45833C10.0027 8.32209 10.0691 8.03822 10.2361 7.87122C10.4031 7.70422 10.7241 7.57265 10.8641 7.55831C10.7189 7.54163 10.4304 7.48752 10.2243 7.28141C10.0182 7.0753 9.97754 6.77257 9.96783 6.66205C9.94584 6.79975 9.83145 7.14545 9.67087 7.30603Z" fill="#0000FF" stroke="#0000FF" stroke-width="0.0156419"/>
<path d="M7.89603 5.45203C8.05661 5.29145 8.36502 5.21446 8.49915 5.19605C8.35118 5.15959 8.05769 5.08913 7.89389 4.92533C7.73008 4.76152 7.61713 4.42554 7.60283 4.29973C7.56422 4.43597 7.49785 4.71984 7.33084 4.88684C7.16384 5.05384 6.8428 5.18541 6.70281 5.19975C6.84795 5.21643 7.13645 5.27054 7.34257 5.47665C7.54868 5.68276 7.58935 5.98549 7.59907 6.09601C7.62105 5.95831 7.73545 5.61261 7.89603 5.45203Z" fill="#0000FF" stroke="#0000FF" stroke-width="0.0156419"/>
<path d="M16.8327 12.1476C16.6721 12.3082 16.3637 12.3851 16.2296 12.4036C16.3775 12.44 16.671 12.5105 16.8348 12.6743C16.9986 12.8381 17.1116 13.1741 17.1259 13.2999C17.1645 13.1636 17.2309 12.8798 17.3979 12.7128C17.5649 12.5458 17.8859 12.4142 18.0259 12.3999C17.8808 12.3832 17.5922 12.3291 17.3861 12.123C17.18 11.9169 17.1393 11.6141 17.1296 11.5036C17.1076 11.6413 16.9933 11.987 16.8327 12.1476Z" fill="#0000FF" stroke="#0000FF" stroke-width="0.0156419"/>
<path d="M16.8327 9.71179C16.6721 9.87237 16.3637 9.94936 16.2296 9.96777C16.3775 10.0042 16.671 10.0747 16.8348 10.2385C16.9986 10.4023 17.1116 10.7383 17.1259 10.8641C17.1645 10.7278 17.2309 10.444 17.3979 10.277C17.5649 10.11 17.8859 9.97841 18.0259 9.96407C17.8808 9.94739 17.5922 9.89328 17.3861 9.68717C17.18 9.48106 17.1393 9.17833 17.1296 9.06781C17.1076 9.20551 16.9933 9.55121 16.8327 9.71179Z" fill="#0000FF" stroke="#0000FF" stroke-width="0.0156419"/>
<path d="M14.3966 9.71179C14.2361 9.87237 13.9277 9.94936 13.7935 9.96777C13.9415 10.0042 14.235 10.0747 14.3988 10.2385C14.5626 10.4023 14.6755 10.7383 14.6898 10.8641C14.7284 10.7278 14.7948 10.444 14.9618 10.277C15.1288 10.11 15.4499 9.97841 15.5899 9.96407C15.4447 9.94739 15.1562 9.89328 14.9501 9.68717C14.744 9.48106 14.7033 9.17833 14.6936 9.06781C14.6716 9.20551 14.5572 9.55121 14.3966 9.71179Z" fill="#0000FF" stroke="#0000FF" stroke-width="0.0156419"/>
<path d="M4.94516 9.71179C4.78458 9.87237 4.47617 9.94936 4.34204 9.96777C4.49001 10.0042 4.7835 10.0747 4.9473 10.2385C5.11111 10.4023 5.22406 10.7383 5.23836 10.8641C5.27697 10.7278 5.34334 10.444 5.51034 10.277C5.67735 10.11 5.99839 9.97841 6.13838 9.96407C5.99324 9.94739 5.70473 9.89328 5.49862 9.68717C5.29251 9.48106 5.25183 9.17833 5.24212 9.06781C5.22013 9.20551 5.10574 9.55121 4.94516 9.71179Z" fill="#0000FF" stroke="#0000FF" stroke-width="0.0156419"/>
<path d="M2.53934 9.71179C2.37876 9.87237 2.07035 9.94936 1.93622 9.96777C2.08418 10.0042 2.37767 10.0747 2.54148 10.2385C2.70528 10.4023 2.81823 10.7383 2.83254 10.8641C2.87115 10.7278 2.93752 10.444 3.10452 10.277C3.27152 10.11 3.59256 9.97841 3.73256 9.96407C3.58742 9.94739 3.29891 9.89328 3.0928 9.68717C2.88669 9.48106 2.84601 9.17833 2.8363 9.06781C2.81431 9.20551 2.69992 9.55121 2.53934 9.71179Z" fill="#0000FF" stroke="#0000FF" stroke-width="0.0156419"/>
<path d="M14.3107 12.1476C14.1501 12.3082 13.8417 12.3851 13.7076 12.4036C13.8555 12.44 14.149 12.5105 14.3128 12.6743C14.4766 12.8381 14.5896 13.1741 14.6039 13.2999C14.6425 13.1636 14.7089 12.8798 14.8759 12.7128C15.0429 12.5458 15.3639 12.4142 15.5039 12.3999C15.3588 12.3832 15.0703 12.3291 14.8642 12.123C14.658 11.9169 14.6174 11.6141 14.6077 11.5036C14.5857 11.6413 14.4713 11.987 14.3107 12.1476Z" fill="#0000FF" stroke="#0000FF" stroke-width="0.0156419"/>
<path d="M3.09622 7.85217C3.2568 7.69159 3.56521 7.61461 3.69934 7.59619C3.55138 7.55974 3.25789 7.48928 3.09408 7.32547C2.93028 7.16167 2.81733 6.82569 2.80302 6.69987C2.76441 6.83612 2.69804 7.11998 2.53104 7.28699C2.36404 7.45399 2.043 7.58556 1.903 7.5999C2.04814 7.61657 2.33665 7.67068 2.54276 7.87679C2.74887 8.08291 2.78955 8.38564 2.79926 8.49616C2.82125 8.35846 2.93565 8.01275 3.09622 7.85217Z" fill="#0000FF" stroke="#0000FF" stroke-width="0.0156419"/>
<path d="M14.2353 11.9772C13.9672 12.2453 13.4524 12.3738 13.2285 12.4045C13.4755 12.4654 13.9654 12.583 14.2389 12.8565C14.5123 13.1299 14.7009 13.6908 14.7248 13.9009C14.7892 13.6734 14.9 13.1995 15.1788 12.9207C15.4576 12.6419 15.9936 12.4223 16.2273 12.3984C15.985 12.3705 15.5033 12.2802 15.1592 11.9361C14.8152 11.592 14.7473 11.0866 14.731 10.9021C14.6943 11.132 14.5034 11.7091 14.2353 11.9772Z" fill="#0000FF" stroke="#0000FF" stroke-width="0.0261126"/>
<path d="M5.69366 8.0223C5.96173 7.75423 6.47658 7.62572 6.7005 7.59497C6.45349 7.53412 5.96354 7.41649 5.69008 7.14303C5.41663 6.86958 5.22807 6.3087 5.20419 6.09866C5.13974 6.3261 5.02893 6.79999 4.75014 7.07878C4.47135 7.35758 3.9354 7.57722 3.7017 7.60116C3.94399 7.62899 4.42563 7.71932 4.76971 8.06341C5.11379 8.40749 5.1817 8.91287 5.19791 9.09737C5.23462 8.86749 5.42559 8.29037 5.69366 8.0223Z" fill="#0000FF" stroke="#0000FF" stroke-width="0.0261126"/>
<path d="M10.4548 10.4225C10.7229 10.1544 11.2378 10.0259 11.4617 9.99512C11.2147 9.93427 10.7247 9.81664 10.4513 9.54318C10.1778 9.26972 9.98924 8.70885 9.96536 8.49881C9.9009 8.72625 9.7901 9.20014 9.51131 9.47893C9.23252 9.75772 8.69657 9.97736 8.46287 10.0013C8.70516 10.0291 9.1868 10.1195 9.53088 10.4636C9.87496 10.8076 9.94287 11.313 9.95908 11.4975C9.99578 11.2676 10.1868 10.6905 10.4548 10.4225Z" fill="#0000FF" stroke="#0000FF" stroke-width="0.0261126"/>
<path d="M16.8327 7.34754C16.6721 7.50811 16.3637 7.5851 16.2296 7.60352C16.3775 7.63997 16.671 7.71043 16.8348 7.87424C16.9986 8.03804 17.1116 8.37402 17.1259 8.49983C17.1645 8.36359 17.2309 8.07972 17.3979 7.91272C17.5649 7.74572 17.8859 7.61415 18.0259 7.59981C17.8808 7.58314 17.5922 7.52903 17.3861 7.32291C17.18 7.1168 17.1393 6.81407 17.1296 6.70355C17.1076 6.84125 16.9933 7.18696 16.8327 7.34754Z" fill="#0000FF" stroke="#0000FF" stroke-width="0.0156419"/>
<path d="M3.09622 12.652C3.2568 12.4914 3.56521 12.4144 3.69934 12.396C3.55138 12.3595 3.25789 12.2891 3.09408 12.1253C2.93028 11.9615 2.81733 11.6255 2.80302 11.4997C2.76441 11.6359 2.69804 11.9198 2.53104 12.0868C2.36404 12.2538 2.043 12.3854 1.903 12.3997C2.04814 12.4164 2.33665 12.4705 2.54276 12.6766C2.74887 12.8827 2.78955 13.1854 2.79926 13.296C2.82125 13.1583 2.93565 12.8126 3.09622 12.652Z" fill="#0000FF" stroke="#0000FF" stroke-width="0.0156419"/>
<path d="M14.2353 7.1774C13.9672 7.44547 13.4524 7.57399 13.2285 7.60474C13.4755 7.66559 13.9654 7.78322 14.2389 8.05667C14.5123 8.33013 14.7009 8.89101 14.7248 9.10105C14.7892 8.87361 14.9 8.39972 15.1788 8.12092C15.4576 7.84213 15.9936 7.62249 16.2273 7.59855C15.985 7.57071 15.5033 7.48038 15.1592 7.1363C14.8152 6.79222 14.7473 6.28684 14.731 6.10234C14.6943 6.33222 14.5034 6.90933 14.2353 7.1774Z" fill="#0000FF" stroke="#0000FF" stroke-width="0.0261126"/>
<path d="M5.69366 12.8221C5.96173 12.554 6.47658 12.4255 6.7005 12.3948C6.45349 12.3339 5.96354 12.2163 5.69008 11.9428C5.41663 11.6694 5.22807 11.1085 5.20419 10.8985C5.13974 11.1259 5.02893 11.5998 4.75014 11.8786C4.47135 12.1574 3.9354 12.377 3.7017 12.401C3.94399 12.4288 4.42563 12.5191 4.76971 12.8632C5.11379 13.2073 5.1817 13.7127 5.19791 13.8972C5.23462 13.6673 5.42559 13.0902 5.69366 12.8221Z" fill="#0000FF" stroke="#0000FF" stroke-width="0.0261126"/>
<path d="M14.4328 4.94763C14.2723 5.10821 13.9638 5.1852 13.8297 5.20361C13.9777 5.24007 14.2712 5.31053 14.435 5.47433C14.5988 5.63814 14.7117 5.97412 14.726 6.09993C14.7646 5.96369 14.831 5.67982 14.998 5.51282C15.165 5.34582 15.4861 5.21425 15.6261 5.19991C15.4809 5.18323 15.1924 5.12912 14.9863 4.92301C14.7802 4.7169 14.7395 4.41417 14.7298 4.30365C14.7078 4.44135 14.5934 4.78705 14.4328 4.94763Z" fill="#0000FF" stroke="#0000FF" stroke-width="0.0156419"/>
<path d="M5.49613 15.0519C5.65671 14.8913 5.96511 14.8143 6.09924 14.7959C5.95128 14.7594 5.65779 14.689 5.49399 14.5252C5.33018 14.3614 5.21723 14.0254 5.20293 13.8996C5.16432 14.0358 5.09794 14.3197 4.93094 14.4867C4.76394 14.6537 4.4429 14.7853 4.3029 14.7996C4.44804 14.8163 4.73655 14.8704 4.94266 15.0765C5.14878 15.2826 5.18945 15.5853 5.19916 15.6959C5.22115 15.5582 5.33555 15.2125 5.49613 15.0519Z" fill="#0000FF" stroke="#0000FF" stroke-width="0.0156419"/>
<path d="M12.0329 4.94763C11.8723 5.10821 11.5639 5.1852 11.4297 5.20361C11.5777 5.24007 11.8712 5.31053 12.035 5.47433C12.1988 5.63814 12.3118 5.97412 12.3261 6.09993C12.3647 5.96369 12.4311 5.67982 12.5981 5.51282C12.7651 5.34582 13.0861 5.21425 13.2261 5.19991C13.0809 5.18323 12.7924 5.12912 12.5863 4.92301C12.3802 4.7169 12.3395 4.41417 12.3298 4.30365C12.3078 4.44135 12.1934 4.78705 12.0329 4.94763Z" fill="#0000FF" stroke="#0000FF" stroke-width="0.0156419"/>
<path d="M7.89603 15.0519C8.05661 14.8913 8.36502 14.8143 8.49915 14.7959C8.35118 14.7594 8.05769 14.689 7.89389 14.5252C7.73008 14.3614 7.61713 14.0254 7.60283 13.8996C7.56422 14.0358 7.49785 14.3197 7.33084 14.4867C7.16384 14.6537 6.8428 14.7853 6.70281 14.7996C6.84795 14.8163 7.13645 14.8704 7.34257 15.0765C7.54868 15.2826 7.58935 15.5853 7.59907 15.6959C7.62105 15.5582 7.73545 15.2125 7.89603 15.0519Z" fill="#0000FF" stroke="#0000FF" stroke-width="0.0156419"/>
<path d="M12.0329 2.54749C11.8723 2.70807 11.5639 2.78505 11.4297 2.80347C11.5777 2.83992 11.8712 2.91038 12.035 3.07419C12.1988 3.23799 12.3118 3.57397 12.3261 3.69979C12.3647 3.56354 12.4311 3.27968 12.5981 3.11267C12.7651 2.94567 13.0861 2.8141 13.2261 2.79976C13.0809 2.78309 12.7924 2.72898 12.5863 2.52287C12.3802 2.31675 12.3395 2.01402 12.3298 1.9035C12.3078 2.0412 12.1934 2.38691 12.0329 2.54749Z" fill="#0000FF" stroke="#0000FF" stroke-width="0.0156419"/>
<path d="M7.89603 17.4523C8.05661 17.2917 8.36502 17.2147 8.49915 17.1963C8.35118 17.1598 8.05769 17.0894 7.89389 16.9256C7.73008 16.7618 7.61713 16.4258 7.60283 16.3C7.56422 16.4362 7.49785 16.7201 7.33084 16.8871C7.16384 17.0541 6.8428 17.1857 6.70281 17.2C6.84795 17.2167 7.13645 17.2708 7.34257 17.4769C7.54868 17.683 7.58935 17.9857 7.59907 18.0963C7.62105 17.9586 7.73545 17.6128 7.89603 17.4523Z" fill="#0000FF" stroke="#0000FF" stroke-width="0.0156419"/>
</svg>
