<svg width="9" height="7" viewBox="0 0 9 7" fill="none" xmlns="http://www.w3.org/2000/svg">
<path d="M4.90918 3.07507C4.90918 3.07507 3.26594 3.55641 2.28603 4.16886C1.30613 4.7813 0.00902674 6.13767 0.00902674 6.13767C0.00902674 6.13767 0.777678 4.27125 0.777678 3.07507C0.777678 1.8789 0.009027 0.0124778 0.009027 0.0124778C0.009027 0.0124778 1.15215 1.27261 2.28603 1.98129C3.41992 2.68997 4.90918 3.07507 4.90918 3.07507Z" fill="#303030"/>
<path d="M8.81738 3.06958C8.81738 3.06958 7.17415 3.55092 6.19424 4.16336C5.21433 4.77581 3.91723 6.13218 3.91723 6.13218C3.91723 6.13218 4.68588 4.26576 4.68588 3.06958C4.68588 1.8734 3.91723 0.00698462 3.91723 0.00698462C3.91723 0.00698462 5.06036 1.26712 6.19424 1.9758C7.32812 2.68447 8.81738 3.06958 8.81738 3.06958Z" fill="#303030"/>
</svg>
