<svg width="65" height="67" viewBox="0 0 65 67" fill="none" xmlns="http://www.w3.org/2000/svg">
<path d="M11.1244 21.2403C8.16101 18.277 2.47355 16.8524 0.000244141 16.5105C2.72767 15.841 8.13757 14.5468 11.1549 11.5295C14.1722 8.51219 16.249 2.31965 16.5105 0.000194002C17.2247 2.51277 18.4533 7.74762 21.5352 10.8295C24.6171 13.9114 30.5384 16.3426 33.1197 16.6094C30.444 16.9144 25.1257 17.9071 21.3291 21.7037C17.5324 25.5003 16.7877 31.0811 16.6105 33.1186C16.2028 30.5794 14.0877 24.2037 11.1244 21.2403Z" fill="#353535" stroke="#0000FF" stroke-width="0.00207246"/>
<path d="M11.1244 54.3682C8.16101 51.4049 2.47355 49.9803 0.000244141 49.6384C2.72767 48.9689 8.13757 47.6748 11.1549 44.6574C14.1722 41.6401 16.249 35.4476 16.5105 33.1281C17.2247 35.6407 18.4533 40.8755 21.5352 43.9574C24.6171 47.0393 30.5384 49.4705 33.1197 49.7373C30.444 50.0423 25.1257 51.035 21.3291 54.8316C17.5324 58.6282 16.7877 64.209 16.6105 66.2465C16.2028 63.7074 14.0877 57.3316 11.1244 54.3682Z" fill="#353535" stroke="#0000FF" stroke-width="0.00207246"/>
<path d="M42.9243 21.2403C39.9609 18.277 34.2735 16.8524 31.8002 16.5105C34.5276 15.841 39.9375 14.5468 42.9548 11.5295C45.9721 8.51219 48.0489 2.31965 48.3105 0.000194002C49.0247 2.51277 50.2532 7.74762 53.3351 10.8295C56.417 13.9114 62.3383 16.3426 64.9196 16.6094C62.244 16.9144 56.9256 17.9071 53.129 21.7037C49.3324 25.5003 48.5876 31.0811 48.4104 33.1186C48.0027 30.5794 45.8876 24.2037 42.9243 21.2403Z" fill="#353535" stroke="#0000FF" stroke-width="0.00207246"/>
<path d="M42.9243 54.3682C39.9609 51.4049 34.2735 49.9803 31.8002 49.6384C34.5276 48.9689 39.9375 47.6748 42.9548 44.6574C45.9721 41.6401 48.0489 35.4476 48.3105 33.1281C49.0247 35.6407 50.2532 40.8755 53.3351 43.9574C56.417 47.0393 62.3383 49.4705 64.9196 49.7373C62.244 50.0423 56.9256 51.035 53.129 54.8316C49.3324 58.6282 48.5876 64.209 48.4104 66.2465C48.0027 63.7074 45.8876 57.3316 42.9243 54.3682Z" fill="#353535" stroke="#0000FF" stroke-width="0.00207246"/>
</svg>
