<svg width="18" height="17" viewBox="0 0 18 17" fill="none" xmlns="http://www.w3.org/2000/svg">
<g clip-path="url(#clip0_3150_5919)">
<path d="M11.0456 14.3336C10.7583 14.6209 10.2067 14.7586 9.9668 14.7915C10.2315 14.8567 10.7564 14.9827 11.0494 15.2757C11.3424 15.5687 11.5444 16.1697 11.57 16.3947C11.6391 16.151 11.7578 15.6433 12.0565 15.3446C12.3552 15.0459 12.9294 14.8105 13.1798 14.7849C12.9202 14.755 12.4042 14.6583 12.0355 14.2896C11.6669 13.9209 11.5941 13.3795 11.5767 13.1818C11.5374 13.4281 11.3328 14.0464 11.0456 14.3336Z" fill="#0000FF" stroke="#0000FF" stroke-width="0.0279781"/>
<path d="M8.47428 14.3336C8.18706 14.6209 7.63542 14.7586 7.39551 14.7915C7.66017 14.8567 8.18512 14.9827 8.47811 15.2757C8.7711 15.5687 8.97313 16.1697 8.99872 16.3947C9.06778 16.151 9.1865 15.6433 9.48521 15.3446C9.78392 15.0459 10.3581 14.8105 10.6086 14.7849C10.3489 14.755 9.8329 14.6583 9.46424 14.2896C9.09557 13.9209 9.02282 13.3795 9.00545 13.1818C8.96612 13.4281 8.7615 14.0464 8.47428 14.3336Z" fill="#0000FF" stroke="#0000FF" stroke-width="0.0279781"/>
<path d="M5.90201 14.3336C5.61479 14.6209 5.06316 14.7586 4.82324 14.7915C5.0879 14.8567 5.61285 14.9827 5.90584 15.2757C6.19884 15.5687 6.40087 16.1697 6.42645 16.3947C6.49551 16.151 6.61423 15.6433 6.91294 15.3446C7.21165 15.0459 7.78588 14.8105 8.03629 14.7849C7.77668 14.755 7.26064 14.6583 6.89197 14.2896C6.52331 13.9209 6.45055 13.3795 6.43318 13.1818C6.39385 13.4281 6.18924 14.0464 5.90201 14.3336Z" fill="#0000FF" stroke="#0000FF" stroke-width="0.0279781"/>
<path d="M13.8288 11.9445C13.6568 12.1165 13.3263 12.199 13.1826 12.2188C13.3412 12.2578 13.6556 12.3333 13.8311 12.5088C14.0066 12.6843 14.1276 13.0443 14.143 13.1791C14.1843 13.0331 14.2555 12.729 14.4344 12.55C14.6133 12.3711 14.9573 12.2301 15.1073 12.2148C14.9518 12.1969 14.6427 12.1389 14.4218 11.9181C14.201 11.6973 14.1574 11.3729 14.147 11.2545C14.1234 11.402 14.0009 11.7724 13.8288 11.9445Z" fill="#0000FF" stroke="#0000FF" stroke-width="0.0167594"/>
<path d="M11.1516 11.8532C10.9219 12.0828 10.4809 12.1929 10.2891 12.2192C10.5007 12.2714 10.9204 12.3721 11.1546 12.6064C11.3889 12.8406 11.5504 13.3211 11.5708 13.501C11.6261 13.3062 11.721 12.9002 11.9598 12.6614C12.1986 12.4226 12.6577 12.2344 12.8579 12.2139C12.6504 12.1901 12.2378 12.1127 11.943 11.818C11.6483 11.5232 11.5901 11.0903 11.5762 10.9322C11.5448 11.1292 11.3812 11.6235 11.1516 11.8532Z" fill="#0000FF" stroke="#0000FF" stroke-width="0.0223688"/>
<path d="M8.47428 11.7624C8.18706 12.0496 7.63542 12.1873 7.39551 12.2202C7.66017 12.2854 8.18512 12.4114 8.47811 12.7044C8.7711 12.9974 8.97313 13.5984 8.99872 13.8234C9.06778 13.5797 9.1865 13.072 9.48521 12.7733C9.78392 12.4746 10.3581 12.2392 10.6086 12.2136C10.3489 12.1838 9.8329 12.087 9.46424 11.7183C9.09557 11.3496 9.02282 10.8082 9.00545 10.6105C8.96612 10.8568 8.7615 11.4751 8.47428 11.7624Z" fill="#0000FF" stroke="#0000FF" stroke-width="0.0279781"/>
<path d="M6.008 11.8532C5.77836 12.0828 5.33732 12.1929 5.14551 12.2192C5.3571 12.2714 5.77681 12.3721 6.01106 12.6064C6.24531 12.8406 6.40683 13.3211 6.42729 13.501C6.4825 13.3062 6.57742 12.9002 6.81624 12.6614C7.05506 12.4226 7.51417 12.2344 7.71437 12.2139C7.50681 12.1901 7.09423 12.1127 6.79948 11.818C6.50472 11.5232 6.44656 11.0903 6.43267 10.9322C6.40123 11.1292 6.23763 11.6235 6.008 11.8532Z" fill="#0000FF" stroke="#0000FF" stroke-width="0.0223688"/>
<path d="M3.54269 11.9445C3.37064 12.1165 3.0402 12.199 2.89648 12.2188C3.05502 12.2578 3.36948 12.3333 3.54498 12.5088C3.72049 12.6843 3.84151 13.0443 3.85684 13.1791C3.8982 13.0331 3.96932 12.729 4.14825 12.55C4.32719 12.3711 4.67116 12.2301 4.82116 12.2148C4.66565 12.1969 4.35653 12.1389 4.13569 11.9181C3.91485 11.6973 3.87127 11.3729 3.86087 11.2545C3.83731 11.402 3.71474 11.7724 3.54269 11.9445Z" fill="#0000FF" stroke="#0000FF" stroke-width="0.0167594"/>
<path d="M11.2575 9.3727C11.0855 9.54476 10.755 9.62724 10.6113 9.64697C10.7699 9.68603 11.0843 9.76152 11.2598 9.93703C11.4353 10.1125 11.5564 10.4725 11.5717 10.6073C11.613 10.4613 11.6842 10.1572 11.8631 9.97827C12.042 9.79934 12.386 9.65837 12.536 9.643C12.3805 9.62514 12.0714 9.56716 11.8505 9.34632C11.6297 9.12549 11.5861 8.80113 11.5757 8.68271C11.5522 8.83025 11.4296 9.20065 11.2575 9.3727Z" fill="#0000FF" stroke="#0000FF" stroke-width="0.0167594"/>
<path d="M13.8288 9.3727C13.6568 9.54476 13.3263 9.62724 13.1826 9.64697C13.3412 9.68603 13.6556 9.76152 13.8311 9.93703C14.0066 10.1125 14.1276 10.4725 14.143 10.6073C14.1843 10.4613 14.2555 10.1572 14.4344 9.97827C14.6133 9.79934 14.9573 9.65837 15.1073 9.643C14.9518 9.62514 14.6427 9.56716 14.4218 9.34632C14.201 9.12549 14.1574 8.80113 14.147 8.68271C14.1234 8.83025 14.0009 9.20065 13.8288 9.3727Z" fill="#0000FF" stroke="#0000FF" stroke-width="0.0167594"/>
<path d="M8.58026 9.2814C8.35063 9.51103 7.90959 9.62112 7.71777 9.64746C7.92937 9.69959 8.34907 9.80035 8.58332 10.0346C8.81757 10.2689 8.9791 10.7493 8.99955 10.9292C9.05477 10.7344 9.14968 10.3285 9.38851 10.0896C9.62733 9.85082 10.0864 9.66267 10.2866 9.64216C10.0791 9.61832 9.66649 9.54094 9.37174 9.24619C9.07699 8.95143 9.01882 8.51852 9.00493 8.36047C8.97349 8.55738 8.8099 9.05176 8.58026 9.2814Z" fill="#0000FF" stroke="#0000FF" stroke-width="0.0223688"/>
<path d="M6.11398 9.3727C5.94193 9.54476 5.61149 9.62724 5.46777 9.64697C5.62631 9.68603 5.94076 9.76152 6.11627 9.93703C6.29178 10.1125 6.4128 10.4725 6.42813 10.6073C6.46949 10.4613 6.54061 10.1572 6.71954 9.97827C6.89847 9.79934 7.24245 9.65837 7.39245 9.643C7.23694 9.62514 6.92782 9.56716 6.70698 9.34632C6.48614 9.12549 6.44256 8.80113 6.43216 8.68271C6.4086 8.83025 6.28603 9.20065 6.11398 9.3727Z" fill="#0000FF" stroke="#0000FF" stroke-width="0.0167594"/>
<path d="M3.54269 9.3727C3.37064 9.54476 3.0402 9.62724 2.89648 9.64697C3.05502 9.68603 3.36948 9.76152 3.54498 9.93703C3.72049 10.1125 3.84151 10.4725 3.85684 10.6073C3.8982 10.4613 3.96932 10.1572 4.14825 9.97827C4.32719 9.79934 4.67116 9.65837 4.82116 9.643C4.66565 9.62514 4.35653 9.56716 4.13569 9.34632C3.91485 9.12549 3.87127 8.80113 3.86087 8.68271C3.83731 8.83025 3.71474 9.20065 3.54269 9.3727Z" fill="#0000FF" stroke="#0000FF" stroke-width="0.0167594"/>
<path d="M3.54269 6.80142C3.37064 6.97347 3.0402 7.05595 2.89648 7.07568C3.05502 7.11474 3.36948 7.19024 3.54498 7.36574C3.72049 7.54125 3.84151 7.90123 3.85684 8.03604C3.8982 7.89006 3.96932 7.58591 4.14825 7.40698C4.32719 7.22805 4.67116 7.08708 4.82116 7.07171C4.66565 7.05385 4.35653 6.99587 4.13569 6.77503C3.91485 6.5542 3.87127 6.22984 3.86087 6.11143C3.83731 6.25896 3.71474 6.62936 3.54269 6.80142Z" fill="#0000FF" stroke="#0000FF" stroke-width="0.0167594"/>
<path d="M13.8288 6.80142C13.6568 6.97347 13.3263 7.05595 13.1826 7.07568C13.3412 7.11474 13.6556 7.19024 13.8311 7.36574C14.0066 7.54125 14.1276 7.90123 14.143 8.03604C14.1843 7.89006 14.2555 7.58591 14.4344 7.40698C14.6133 7.22805 14.9573 7.08708 15.1073 7.07171C14.9518 7.05385 14.6427 6.99587 14.4218 6.77503C14.201 6.5542 14.1574 6.22984 14.147 6.11143C14.1234 6.25896 14.0009 6.62936 13.8288 6.80142Z" fill="#0000FF" stroke="#0000FF" stroke-width="0.0167594"/>
<path d="M16.4001 6.80142C16.2281 6.97347 15.8976 7.05595 15.7539 7.07568C15.9124 7.11474 16.2269 7.19024 16.4024 7.36574C16.5779 7.54125 16.6989 7.90123 16.7143 8.03604C16.7556 7.89006 16.8267 7.58591 17.0057 7.40698C17.1846 7.22805 17.5286 7.08708 17.6786 7.07171C17.5231 7.05385 17.214 6.99587 16.9931 6.77503C16.7723 6.5542 16.7287 6.22984 16.7183 6.11143C16.6947 6.25896 16.5722 6.62936 16.4001 6.80142Z" fill="#0000FF" stroke="#0000FF" stroke-width="0.0167594"/>
<path d="M11.2575 6.80142C11.0855 6.97347 10.755 7.05595 10.6113 7.07568C10.7699 7.11474 11.0843 7.19024 11.2598 7.36574C11.4353 7.54125 11.5564 7.90123 11.5717 8.03604C11.613 7.89006 11.6842 7.58591 11.8631 7.40698C12.042 7.22805 12.386 7.08708 12.536 7.07171C12.3805 7.05385 12.0714 6.99587 11.8505 6.77503C11.6297 6.5542 11.5861 6.22984 11.5757 6.11143C11.5522 6.25896 11.4296 6.62936 11.2575 6.80142Z" fill="#0000FF" stroke="#0000FF" stroke-width="0.0167594"/>
<path d="M8.68624 6.80142C8.51419 6.97347 8.18375 7.05595 8.04004 7.07568C8.19857 7.11474 8.51303 7.19024 8.68854 7.36574C8.86405 7.54125 8.98507 7.90123 9.00039 8.03604C9.04176 7.89006 9.11287 7.58591 9.29181 7.40698C9.47074 7.22805 9.81472 7.08708 9.96471 7.07171C9.8092 7.05385 9.50008 6.99587 9.27925 6.77503C9.05841 6.5542 9.01483 6.22984 9.00442 6.11143C8.98086 6.25896 8.85829 6.62936 8.68624 6.80142Z" fill="#0000FF" stroke="#0000FF" stroke-width="0.0167594"/>
<path d="M6.11398 6.80142C5.94193 6.97347 5.61149 7.05595 5.46777 7.07568C5.62631 7.11474 5.94076 7.19024 6.11627 7.36574C6.29178 7.54125 6.4128 7.90123 6.42813 8.03604C6.46949 7.89006 6.54061 7.58591 6.71954 7.40698C6.89847 7.22805 7.24245 7.08708 7.39245 7.07171C7.23694 7.05385 6.92782 6.99587 6.70698 6.77503C6.48614 6.5542 6.44256 6.22984 6.43216 6.11143C6.4086 6.25896 6.28603 6.62936 6.11398 6.80142Z" fill="#0000FF" stroke="#0000FF" stroke-width="0.0167594"/>
<path d="M0.9714 6.80142C0.799349 6.97347 0.468909 7.05595 0.325195 7.07568C0.483731 7.11474 0.798187 7.19024 0.973694 7.36574C1.1492 7.54125 1.27022 7.90123 1.28555 8.03604C1.32692 7.89006 1.39803 7.58591 1.57696 7.40698C1.7559 7.22805 2.09987 7.08708 2.24987 7.07171C2.09436 7.05385 1.78524 6.99587 1.5644 6.77503C1.34357 6.5542 1.29998 6.22984 1.28958 6.11143C1.26602 6.25896 1.14345 6.62936 0.9714 6.80142Z" fill="#0000FF" stroke="#0000FF" stroke-width="0.0167594"/>
<path d="M16.4001 4.23013C16.2281 4.40218 15.8976 4.48466 15.7539 4.50439C15.9124 4.54345 16.2269 4.61895 16.4024 4.79445C16.5779 4.96996 16.6989 5.32994 16.7143 5.46475C16.7556 5.31877 16.8267 5.01462 17.0057 4.83569C17.1846 4.65676 17.5286 4.51579 17.6786 4.50043C17.5231 4.48256 17.214 4.42458 16.9931 4.20375C16.7723 3.98291 16.7287 3.65855 16.7183 3.54014C16.6947 3.68767 16.5722 4.05808 16.4001 4.23013Z" fill="#0000FF" stroke="#0000FF" stroke-width="0.0167594"/>
<path d="M0.9714 4.23013C0.799349 4.40218 0.468909 4.48466 0.325195 4.50439C0.483731 4.54345 0.798187 4.61895 0.973694 4.79445C1.1492 4.96996 1.27022 5.32994 1.28555 5.46475C1.32692 5.31877 1.39803 5.01462 1.57696 4.83569C1.7559 4.65676 2.09987 4.51579 2.24987 4.50043C2.09436 4.48256 1.78524 4.42458 1.5644 4.20375C1.34357 3.98291 1.29998 3.65855 1.28958 3.54014C1.26602 3.68767 1.14345 4.05808 0.9714 4.23013Z" fill="#0000FF" stroke="#0000FF" stroke-width="0.0167594"/>
<path d="M13.8288 1.65835C13.6568 1.8304 13.3263 1.91288 13.1826 1.93262C13.3412 1.97167 13.6556 2.04717 13.8311 2.22268C14.0066 2.39818 14.1276 2.75816 14.143 2.89297C14.1843 2.74699 14.2555 2.44285 14.4344 2.26391C14.6133 2.08498 14.9573 1.94401 15.1073 1.92865C14.9518 1.91078 14.6427 1.85281 14.4218 1.63197C14.201 1.41113 14.1574 1.08677 14.147 0.968359C14.1234 1.1159 14.0009 1.4863 13.8288 1.65835Z" fill="#0000FF" stroke="#0000FF" stroke-width="0.0167594"/>
<path d="M11.1516 1.56704C10.9219 1.79668 10.4809 1.90677 10.2891 1.93311C10.5007 1.98523 10.9204 2.086 11.1546 2.32025C11.3889 2.5545 11.5504 3.03496 11.5708 3.21489C11.6261 3.02005 11.721 2.61411 11.9598 2.37529C12.1986 2.13646 12.6577 1.94831 12.8579 1.92781C12.6504 1.90396 12.2378 1.82658 11.943 1.53183C11.6483 1.23708 11.5901 0.80416 11.5762 0.646111C11.5448 0.843028 11.3812 1.3374 11.1516 1.56704Z" fill="#0000FF" stroke="#0000FF" stroke-width="0.0223688"/>
<path d="M13.7228 14.4245C13.4932 14.6541 13.0522 14.7642 12.8604 14.7905C13.0719 14.8427 13.4917 14.9434 13.7259 15.1777C13.9602 15.4119 14.1217 15.8924 14.1421 16.0723C14.1973 15.8775 14.2923 15.4715 14.5311 15.2327C14.7699 14.9939 15.229 14.8057 15.4292 14.7852C15.2217 14.7614 14.8091 14.684 14.5143 14.3893C14.2196 14.0945 14.1614 13.6616 14.1475 13.5035C14.1161 13.7005 13.9525 14.1948 13.7228 14.4245Z" fill="#0000FF" stroke="#0000FF" stroke-width="0.0223688"/>
<path d="M3.43671 14.4245C3.20707 14.6541 2.76603 14.7642 2.57422 14.7905C2.78582 14.8427 3.20552 14.9434 3.43977 15.1777C3.67402 15.4119 3.83554 15.8924 3.856 16.0723C3.91121 15.8775 4.00613 15.4715 4.24495 15.2327C4.48377 14.9939 4.94288 14.8057 5.14308 14.7852C4.93552 14.7614 4.52294 14.684 4.22819 14.3893C3.93344 14.0945 3.87527 13.6616 3.86138 13.5035C3.82994 13.7005 3.66634 14.1948 3.43671 14.4245Z" fill="#0000FF" stroke="#0000FF" stroke-width="0.0223688"/>
<path d="M8.47428 1.47622C8.18706 1.76344 7.63542 1.90114 7.39551 1.93408C7.66017 1.99928 8.18512 2.12531 8.47811 2.41831C8.7711 2.7113 8.97313 3.31225 8.99872 3.53729C9.06778 3.2936 9.1865 2.78586 9.48521 2.48715C9.78392 2.18844 10.3581 1.9531 10.6086 1.92746C10.3489 1.89763 9.8329 1.80085 9.46424 1.43218C9.09557 1.06351 9.02282 0.522034 9.00545 0.324351C8.96612 0.570649 8.7615 1.189 8.47428 1.47622Z" fill="#0000FF" stroke="#0000FF" stroke-width="0.0279781"/>
<path d="M6.008 1.56704C5.77836 1.79668 5.33732 1.90677 5.14551 1.93311C5.3571 1.98523 5.77681 2.086 6.01106 2.32025C6.24531 2.5545 6.40683 3.03496 6.42729 3.21489C6.4825 3.02005 6.57742 2.61411 6.81624 2.37529C7.05506 2.13646 7.51417 1.94831 7.71437 1.92781C7.50681 1.90396 7.09423 1.82658 6.79948 1.53183C6.50472 1.23708 6.44656 0.80416 6.43267 0.646111C6.40123 0.843028 6.23763 1.3374 6.008 1.56704Z" fill="#0000FF" stroke="#0000FF" stroke-width="0.0223688"/>
<path d="M3.54269 1.65835C3.37064 1.8304 3.0402 1.91288 2.89648 1.93262C3.05502 1.97167 3.36948 2.04717 3.54498 2.22268C3.72049 2.39818 3.84151 2.75816 3.85684 2.89297C3.8982 2.74699 3.96932 2.44285 4.14825 2.26391C4.32719 2.08498 4.67116 1.94401 4.82116 1.92865C4.66565 1.91078 4.35653 1.85281 4.13569 1.63197C3.91485 1.41113 3.87127 1.08677 3.86087 0.968359C3.83731 1.1159 3.71474 1.4863 3.54269 1.65835Z" fill="#0000FF" stroke="#0000FF" stroke-width="0.0167594"/>
</g>
<defs>
<clipPath id="clip0_3150_5919">
<rect width="18" height="16.7143" fill="white" transform="translate(18 16.7144) rotate(-180)"/>
</clipPath>
</defs>
</svg>
