<svg width="20" height="20" viewBox="0 0 20 20" fill="none" xmlns="http://www.w3.org/2000/svg">
<path d="M3.26037 12.8434C3.52844 12.5753 4.04329 12.4468 4.26721 12.416C4.0202 12.3552 3.53025 12.2375 3.25679 11.9641C2.98334 11.6906 2.79478 11.1297 2.7709 10.9197C2.70645 11.1472 2.59564 11.621 2.31685 11.8998C2.03806 12.1786 1.50211 12.3983 1.26841 12.4222C1.5107 12.45 1.99234 12.5404 2.33642 12.8845C2.6805 13.2285 2.74841 13.7339 2.76462 13.9184C2.80133 13.6885 2.9923 13.1114 3.26037 12.8434Z" fill="#0000FF" stroke="#0000FF" stroke-width="0.0261126"/>
<path d="M17.6211 13.0758C17.8892 12.8077 18.404 12.6792 18.6279 12.6484C18.3809 12.5876 17.891 12.47 17.6175 12.1965C17.3441 11.923 17.1555 11.3622 17.1316 11.1521C17.0672 11.3796 16.9564 11.8535 16.6776 12.1323C16.3988 12.411 15.8628 12.6307 15.6291 12.6546C15.8714 12.6825 16.3531 12.7728 16.6971 13.1169C17.0412 13.461 17.1091 13.9663 17.1253 14.1508C17.162 13.921 17.353 13.3438 17.6211 13.0758Z" fill="#0000FF" stroke="#0000FF" stroke-width="0.0261126"/>
<path d="M10.4694 13.0758C10.7374 12.8077 11.2523 12.6792 11.4762 12.6484C11.2292 12.5876 10.7392 12.47 10.4658 12.1965C10.1923 11.923 10.0038 11.3622 9.97989 11.1521C9.91543 11.3796 9.80463 11.8535 9.52583 12.1323C9.24704 12.411 8.7111 12.6307 8.47739 12.6546C8.71969 12.6825 9.20132 12.7728 9.54541 13.1169C9.88949 13.461 9.95739 13.9663 9.9736 14.1508C10.0103 13.921 10.2013 13.3438 10.4694 13.0758Z" fill="#0000FF" stroke="#0000FF" stroke-width="0.0261126"/>
<path d="M3.26037 7.72714C3.52844 7.45907 4.04329 7.33056 4.26721 7.29981C4.0202 7.23896 3.53025 7.12133 3.25679 6.84787C2.98334 6.57442 2.79478 6.01354 2.7709 5.8035C2.70645 6.03094 2.59564 6.50483 2.31685 6.78362C2.03806 7.06242 1.50211 7.28206 1.26841 7.30599C1.5107 7.33383 1.99234 7.42416 2.33642 7.76825C2.6805 8.11233 2.74841 8.61771 2.76462 8.80221C2.80133 8.57233 2.9923 7.99521 3.26037 7.72714Z" fill="#0000FF" stroke="#0000FF" stroke-width="0.0261126"/>
<path d="M12.0329 16.9476C11.8723 17.1082 11.5639 17.1852 11.4297 17.2036C11.5777 17.2401 11.8712 17.3105 12.035 17.4743C12.1988 17.6381 12.3118 17.9741 12.3261 18.0999C12.3647 17.9637 12.431 17.6798 12.5981 17.5128C12.7651 17.3458 13.0861 17.2143 13.2261 17.1999C13.0809 17.1832 12.7924 17.1291 12.5863 16.923C12.3802 16.7169 12.3395 16.4142 12.3298 16.3037C12.3078 16.4414 12.1934 16.7871 12.0329 16.9476Z" fill="#0000FF" stroke="#0000FF" stroke-width="0.0156419"/>
<path d="M7.89621 3.05237C8.05679 2.89179 8.3652 2.81481 8.49933 2.79639C8.35136 2.75994 8.05788 2.68948 7.89407 2.52567C7.73027 2.36187 7.61731 2.02589 7.60301 1.90007C7.5644 2.03632 7.49803 2.32018 7.33103 2.48719C7.16402 2.65419 6.84298 2.78576 6.70299 2.8001C6.84813 2.81677 7.13664 2.87088 7.34275 3.07699C7.54886 3.28311 7.58954 3.58584 7.59925 3.69636C7.62124 3.55866 7.73563 3.21295 7.89621 3.05237Z" fill="#0000FF" stroke="#0000FF" stroke-width="0.0156419"/>
<path d="M10.2959 3.05237C10.4565 2.89179 10.7649 2.81481 10.899 2.79639C10.7511 2.75994 10.4576 2.68948 10.2938 2.52567C10.13 2.36187 10.017 2.02589 10.0027 1.90007C9.96412 2.03632 9.89775 2.32018 9.73074 2.48719C9.56374 2.65419 9.2427 2.78576 9.10271 2.8001C9.24785 2.81677 9.53636 2.87088 9.74247 3.07699C9.94858 3.28311 9.98926 3.58584 9.99897 3.69636C10.021 3.55866 10.1354 3.21295 10.2959 3.05237Z" fill="#0000FF" stroke="#0000FF" stroke-width="0.0156419"/>
<path d="M14.4326 14.5477C14.272 14.7083 13.9636 14.7853 13.8295 14.8037C13.9774 14.8402 14.2709 14.9106 14.4347 15.0744C14.5985 15.2382 14.7115 15.5742 14.7258 15.7C14.7644 15.5638 14.8308 15.2799 14.9978 15.1129C15.1648 14.9459 15.4858 14.8144 15.6258 14.8C15.4807 14.7833 15.1922 14.7292 14.986 14.5231C14.7799 14.317 14.7393 14.0143 14.7295 13.9038C14.7076 14.0415 14.5932 14.3872 14.4326 14.5477Z" fill="#0000FF" stroke="#0000FF" stroke-width="0.0156419"/>
<path d="M5.49643 5.45227C5.65701 5.2917 5.96542 5.21471 6.09955 5.19629C5.95158 5.15984 5.65809 5.08938 5.49429 4.92557C5.33048 4.76177 5.21753 4.42579 5.20323 4.29998C5.16462 4.43622 5.09825 4.72009 4.93125 4.88709C4.76424 5.05409 4.4432 5.18566 4.30321 5.2C4.44835 5.21667 4.73686 5.27078 4.94297 5.4769C5.14908 5.68301 5.18976 5.98574 5.19947 6.09626C5.22146 5.95856 5.33585 5.61285 5.49643 5.45227Z" fill="#0000FF" stroke="#0000FF" stroke-width="0.0156419"/>
<path d="M9.67087 14.5236C9.51029 14.6841 9.20188 14.7611 9.06775 14.7795C9.21571 14.816 9.5092 14.8865 9.67301 15.0503C9.83681 15.2141 9.94976 15.55 9.96407 15.6759C10.0027 15.5396 10.069 15.2558 10.2361 15.0888C10.4031 14.9217 10.7241 14.7902 10.8641 14.7758C10.7189 14.7592 10.4304 14.7051 10.2243 14.4989C10.0182 14.2928 9.97754 13.9901 9.96783 13.8796C9.94584 14.0173 9.83145 14.363 9.67087 14.5236Z" fill="#0000FF" stroke="#0000FF" stroke-width="0.0156419"/>
<path d="M9.67087 4.90027C9.51029 5.06085 9.20188 5.13784 9.06775 5.15625C9.21571 5.19271 9.5092 5.26317 9.67301 5.42697C9.83681 5.59078 9.94976 5.92676 9.96407 6.05257C10.0027 5.91633 10.069 5.63246 10.2361 5.46546C10.4031 5.29846 10.7241 5.16689 10.8641 5.15255C10.7189 5.13587 10.4304 5.08176 10.2243 4.87565C10.0182 4.66954 9.97754 4.36681 9.96783 4.25629C9.94584 4.39399 9.83145 4.7397 9.67087 4.90027Z" fill="#0000FF" stroke="#0000FF" stroke-width="0.0156419"/>
<path d="M10.4694 10.4015C10.7374 10.1334 11.2523 10.0049 11.4762 9.97413C11.2292 9.91327 10.7392 9.79564 10.4658 9.52219C10.1923 9.24873 10.0038 8.68785 9.97989 8.47781C9.91543 8.70526 9.80463 9.17915 9.52583 9.45794C9.24704 9.73673 8.7111 9.95637 8.47739 9.98031C8.71969 10.0081 9.20132 10.0985 9.54541 10.4426C9.88949 10.7866 9.95739 11.292 9.9736 11.4765C10.0103 11.2466 10.2013 10.6695 10.4694 10.4015Z" fill="#0000FF" stroke="#0000FF" stroke-width="0.0261126"/>
<path d="M3.26037 10.4015C3.52844 10.1334 4.04329 10.0049 4.26721 9.97413C4.0202 9.91327 3.53025 9.79564 3.25679 9.52219C2.98334 9.24873 2.79478 8.68785 2.7709 8.47781C2.70645 8.70526 2.59564 9.17915 2.31685 9.45794C2.03806 9.73673 1.50211 9.95637 1.26841 9.98031C1.5107 10.0081 1.99234 10.0985 2.33642 10.4426C2.6805 10.7866 2.74841 11.292 2.76462 11.4765C2.80133 11.2466 2.9923 10.6695 3.26037 10.4015Z" fill="#0000FF" stroke="#0000FF" stroke-width="0.0261126"/>
<path d="M17.6211 10.4015C17.8892 10.1334 18.404 10.0049 18.6279 9.97413C18.3809 9.91327 17.891 9.79564 17.6175 9.52219C17.3441 9.24873 17.1555 8.68785 17.1316 8.47781C17.0672 8.70526 16.9564 9.17915 16.6776 9.45794C16.3988 9.73673 15.8628 9.95637 15.6291 9.98031C15.8714 10.0081 16.3531 10.0985 16.6971 10.4426C17.0412 10.7866 17.1091 11.292 17.1253 11.4765C17.162 11.2466 17.353 10.6695 17.6211 10.4015Z" fill="#0000FF" stroke="#0000FF" stroke-width="0.0261126"/>
<path d="M17.6211 7.72714C17.8892 7.45907 18.404 7.33056 18.6279 7.29981C18.3809 7.23896 17.891 7.12133 17.6175 6.84787C17.3441 6.57442 17.1555 6.01354 17.1316 5.8035C17.0672 6.03094 16.9564 6.50483 16.6776 6.78362C16.3988 7.06242 15.8628 7.28206 15.6291 7.30599C15.8714 7.33383 16.3531 7.42416 16.6971 7.76825C17.0412 8.11233 17.1091 8.61771 17.1253 8.80221C17.162 8.57233 17.353 7.99521 17.6211 7.72714Z" fill="#0000FF" stroke="#0000FF" stroke-width="0.0261126"/>
<path d="M10.4694 7.72714C10.7374 7.45907 11.2523 7.33056 11.4762 7.29981C11.2292 7.23896 10.7392 7.12133 10.4658 6.84787C10.1923 6.57442 10.0038 6.01354 9.97989 5.8035C9.91543 6.03094 9.80463 6.50483 9.52583 6.78362C9.24704 7.06242 8.7111 7.28206 8.47739 7.30599C8.71969 7.33383 9.20132 7.42416 9.54541 7.76825C9.88949 8.11233 9.95739 8.61771 9.9736 8.80221C10.0103 8.57233 10.2013 7.99521 10.4694 7.72714Z" fill="#0000FF" stroke="#0000FF" stroke-width="0.0261126"/>
<path d="M10.4557 17.6041C10.7238 17.336 11.2386 17.2075 11.4625 17.1768C11.2155 17.1159 10.7256 16.9983 10.4521 16.7248C10.1787 16.4514 9.99009 15.8905 9.96621 15.6805C9.90176 15.9079 9.79096 16.3818 9.51216 16.6606C9.23337 16.9394 8.69743 17.159 8.46372 17.1829C8.70601 17.2108 9.18765 17.3011 9.53173 17.6452C9.87582 17.9893 9.94372 18.4947 9.95993 18.6792C9.99664 18.4493 10.1876 17.8722 10.4557 17.6041Z" fill="#0000FF" stroke="#0000FF" stroke-width="0.0261126"/>
<path d="M10.4557 3.16904C10.7238 2.90097 11.2386 2.77245 11.4625 2.7417C11.2155 2.68085 10.7256 2.56322 10.4521 2.28977C10.1787 2.01631 9.99009 1.45543 9.96621 1.24539C9.90176 1.47284 9.79096 1.94672 9.51216 2.22552C9.23337 2.50431 8.69743 2.72395 8.46372 2.74789C8.70601 2.77573 9.18765 2.86606 9.53173 3.21014C9.87582 3.55422 9.94372 4.0596 9.95993 4.2441C9.99664 4.01423 10.1876 3.43711 10.4557 3.16904Z" fill="#0000FF" stroke="#0000FF" stroke-width="0.0261126"/>
<path d="M14.4326 4.94788C14.272 5.10846 13.9636 5.18544 13.8295 5.20386C13.9774 5.24031 14.2709 5.31078 14.4347 5.47458C14.5985 5.63839 14.7115 5.97436 14.7258 6.10018C14.7644 5.96394 14.8308 5.68007 14.9978 5.51307C15.1648 5.34607 15.4858 5.2145 15.6258 5.20016C15.4807 5.18348 15.1922 5.12937 14.986 4.92326C14.7799 4.71715 14.7393 4.41442 14.7295 4.3039C14.7076 4.4416 14.5932 4.7873 14.4326 4.94788Z" fill="#0000FF" stroke="#0000FF" stroke-width="0.0156419"/>
<path d="M5.49643 15.0521C5.65701 14.8915 5.96542 14.8146 6.09955 14.7961C5.95158 14.7597 5.65809 14.6892 5.49429 14.5254C5.33048 14.3616 5.21753 14.0256 5.20323 13.8998C5.16462 14.0361 5.09825 14.3199 4.93125 14.4869C4.76424 14.6539 4.4432 14.7855 4.30321 14.7999C4.44835 14.8165 4.73686 14.8706 4.94297 15.0767C5.14908 15.2829 5.18976 15.5856 5.19947 15.6961C5.22146 15.5584 5.33585 15.2127 5.49643 15.0521Z" fill="#0000FF" stroke="#0000FF" stroke-width="0.0156419"/>
<path d="M12.0329 2.54774C11.8723 2.70831 11.5639 2.7853 11.4297 2.80372C11.5777 2.84017 11.8712 2.91063 12.035 3.07443C12.1988 3.23824 12.3118 3.57422 12.3261 3.70003C12.3647 3.56379 12.431 3.27992 12.5981 3.11292C12.7651 2.94592 13.0861 2.81435 13.2261 2.80001C13.0809 2.78333 12.7924 2.72923 12.5863 2.52311C12.3802 2.317 12.3395 2.01427 12.3298 1.90375C12.3078 2.04145 12.1934 2.38716 12.0329 2.54774Z" fill="#0000FF" stroke="#0000FF" stroke-width="0.0156419"/>
<path d="M7.89621 17.4523C8.05679 17.2917 8.3652 17.2147 8.49933 17.1963C8.35136 17.1598 8.05788 17.0894 7.89407 16.9256C7.73027 16.7618 7.61731 16.4258 7.60301 16.3C7.5644 16.4362 7.49803 16.7201 7.33103 16.8871C7.16402 17.0541 6.84298 17.1857 6.70299 17.2C6.84813 17.2167 7.13664 17.2708 7.34275 17.4769C7.54886 17.683 7.58954 17.9857 7.59925 18.0963C7.62124 17.9586 7.73563 17.6129 7.89621 17.4523Z" fill="#0000FF" stroke="#0000FF" stroke-width="0.0156419"/>
</svg>
