<svg width="25" height="21" viewBox="0 0 25 21" fill="none" xmlns="http://www.w3.org/2000/svg">
<g clip-path="url(#clip0_3018_73358)">
<path d="M8.64094 4.62783C8.83385 4.43492 9.20434 4.34244 9.36548 4.32031C9.18772 4.27652 8.83515 4.19187 8.63836 3.99509C8.44158 3.79831 8.30589 3.39469 8.28871 3.24354C8.24232 3.40721 8.16259 3.74823 7.96196 3.94886C7.76134 4.14948 7.37567 4.30754 7.20749 4.32476C7.38185 4.3448 7.72844 4.4098 7.97605 4.65741C8.22366 4.90502 8.27252 5.26869 8.28419 5.40146C8.3106 5.23604 8.44803 4.82074 8.64094 4.62783Z" fill="#0000FF" stroke="#0000FF" stroke-width="0.0187911"/>
<path d="M17.2904 4.62783C17.4833 4.43492 17.8538 4.34244 18.0149 4.32031C17.8371 4.27652 17.4846 4.19187 17.2878 3.99509C17.091 3.79831 16.9553 3.39469 16.9381 3.24354C16.8917 3.40721 16.812 3.74823 16.6114 3.94886C16.4108 4.14948 16.0251 4.30754 15.8569 4.32476C16.0313 4.3448 16.3779 4.4098 16.6255 4.65741C16.8731 4.90502 16.9219 5.26869 16.9336 5.40146C16.96 5.23604 17.0974 4.82074 17.2904 4.62783Z" fill="#0000FF" stroke="#0000FF" stroke-width="0.0187911"/>
<path d="M5.87671 7.61314C6.13418 7.35567 6.62868 7.23223 6.84375 7.2027C6.6065 7.14425 6.13592 7.03127 5.87327 6.76862C5.61063 6.50598 5.42952 5.96727 5.40658 5.76553C5.34468 5.98398 5.23825 6.43914 4.97048 6.70691C4.70271 6.97469 4.18795 7.18565 3.96348 7.20864C4.1962 7.23538 4.6588 7.32214 4.98928 7.65262C5.31976 7.9831 5.38498 8.4685 5.40055 8.64571C5.43581 8.42492 5.61923 7.87061 5.87671 7.61314Z" fill="#0000FF" stroke="#0000FF" stroke-width="0.0250804"/>
<path d="M8.87834 7.71533C9.20038 7.39329 9.81889 7.2389 10.0879 7.20197C9.79115 7.12886 9.20256 6.98755 8.87405 6.65904C8.54554 6.33053 8.31902 5.65673 8.29033 5.40441C8.2129 5.67764 8.07979 6.24693 7.74487 6.58186C7.40994 6.91678 6.7661 7.18064 6.48534 7.20939C6.77642 7.24284 7.35502 7.35135 7.76838 7.76471C8.18173 8.17807 8.26331 8.78519 8.28279 9.00684C8.32688 8.73068 8.5563 8.03737 8.87834 7.71533Z" fill="#0000FF" stroke="#0000FF" stroke-width="0.0313698"/>
<path d="M11.524 7.51095C11.7169 7.31804 12.0874 7.22556 12.2485 7.20343C12.0708 7.15964 11.7182 7.07499 11.5214 6.87821C11.3246 6.68142 11.1889 6.27781 11.1718 6.12666C11.1254 6.29033 11.0456 6.63135 10.845 6.83197C10.6444 7.0326 10.2587 7.19065 10.0905 7.20788C10.2649 7.22791 10.6115 7.29292 10.8591 7.54053C11.1067 7.78813 11.1556 8.15181 11.1672 8.28458C11.1937 8.11916 11.3311 7.70385 11.524 7.51095Z" fill="#0000FF" stroke="#0000FF" stroke-width="0.0187911"/>
<path d="M17.5278 7.71533C17.8498 7.39329 18.4683 7.2389 18.7373 7.20197C18.4406 7.12886 17.852 6.98755 17.5235 6.65904C17.195 6.33053 16.9684 5.65673 16.9397 5.40441C16.8623 5.67764 16.7292 6.24693 16.3943 6.58186C16.0594 6.91678 15.4155 7.18064 15.1348 7.20939C15.4258 7.24284 16.0044 7.35135 16.4178 7.76471C16.8311 8.17807 16.9127 8.78519 16.9322 9.00684C16.9763 8.73068 17.2057 8.03737 17.5278 7.71533Z" fill="#0000FF" stroke="#0000FF" stroke-width="0.0313698"/>
<path d="M20.1734 7.51095C20.3663 7.31804 20.7368 7.22556 20.8979 7.20343C20.7202 7.15964 20.3676 7.07499 20.1708 6.87821C19.9741 6.68142 19.8384 6.27781 19.8212 6.12666C19.7748 6.29033 19.6951 6.63135 19.4944 6.83197C19.2938 7.0326 18.9081 7.19065 18.74 7.20788C18.9143 7.22791 19.2609 7.29292 19.5085 7.54053C19.7561 7.78813 19.805 8.15181 19.8167 8.28458C19.8431 8.11916 19.9805 7.70385 20.1734 7.51095Z" fill="#0000FF" stroke="#0000FF" stroke-width="0.0187911"/>
<path d="M5.87671 10.4963C6.13418 10.2388 6.62868 10.1154 6.84375 10.0859C6.6065 10.0274 6.13592 9.91445 5.87327 9.6518C5.61063 9.38916 5.42952 8.85045 5.40658 8.64871C5.34468 8.86716 5.23825 9.32232 4.97048 9.59009C4.70271 9.85787 4.18795 10.0688 3.96348 10.0918C4.1962 10.1186 4.6588 10.2053 4.98928 10.5358C5.31976 10.8663 5.38498 11.3517 5.40055 11.5289C5.43581 11.3081 5.61923 10.7538 5.87671 10.4963Z" fill="#0000FF" stroke="#0000FF" stroke-width="0.0250804"/>
<path d="M8.87834 10.5985C9.20038 10.2765 9.81889 10.1221 10.0879 10.0851C9.79115 10.012 9.20256 9.87073 8.87405 9.54222C8.54554 9.21371 8.31902 8.53991 8.29033 8.28758C8.2129 8.56082 8.07979 9.13011 7.74487 9.46503C7.40994 9.79996 6.7661 10.0638 6.48534 10.0926C6.77642 10.126 7.35502 10.2345 7.76838 10.6479C8.18173 11.0612 8.26331 11.6684 8.28279 11.89C8.32688 11.6139 8.5563 10.9206 8.87834 10.5985Z" fill="#0000FF" stroke="#0000FF" stroke-width="0.0313698"/>
<path d="M11.6428 10.4963C11.9003 10.2388 12.3948 10.1154 12.6099 10.0859C12.3726 10.0274 11.902 9.91445 11.6394 9.6518C11.3767 9.38916 11.1956 8.85045 11.1727 8.64871C11.1108 8.86716 11.0044 9.32232 10.7366 9.59009C10.4688 9.85787 9.95406 10.0688 9.72959 10.0918C9.96231 10.1186 10.4249 10.2053 10.7554 10.5358C11.0859 10.8663 11.1511 11.3517 11.1667 11.5289C11.2019 11.3081 11.3853 10.7538 11.6428 10.4963Z" fill="#0000FF" stroke="#0000FF" stroke-width="0.0250804"/>
<path d="M14.6447 10.5985C14.9667 10.2765 15.5852 10.1221 15.8542 10.0851C15.5575 10.012 14.9689 9.87073 14.6404 9.54222C14.3119 9.21371 14.0854 8.53991 14.0567 8.28758C13.9793 8.56082 13.8461 9.13011 13.5112 9.46503C13.1763 9.79996 12.5325 10.0638 12.2517 10.0926C12.5428 10.126 13.1214 10.2345 13.5347 10.6479C13.9481 11.0612 14.0297 11.6684 14.0491 11.89C14.0932 11.6139 14.3227 10.9206 14.6447 10.5985Z" fill="#0000FF" stroke="#0000FF" stroke-width="0.0313698"/>
<path d="M17.5278 10.5985C17.8498 10.2765 18.4683 10.1221 18.7373 10.0851C18.4406 10.012 17.852 9.87073 17.5235 9.54222C17.195 9.21371 16.9684 8.53991 16.9397 8.28758C16.8623 8.56082 16.7292 9.13011 16.3943 9.46503C16.0594 9.79996 15.4155 10.0638 15.1348 10.0926C15.4258 10.126 16.0044 10.2345 16.4178 10.6479C16.8311 11.0612 16.9127 11.6684 16.9322 11.89C16.9763 11.6139 17.2057 10.9206 17.5278 10.5985Z" fill="#0000FF" stroke="#0000FF" stroke-width="0.0313698"/>
<path d="M20.2922 10.4963C20.5497 10.2388 21.0442 10.1154 21.2593 10.0859C21.022 10.0274 20.5514 9.91445 20.2888 9.6518C20.0262 9.38916 19.845 8.85045 19.8221 8.64871C19.7602 8.86716 19.6538 9.32232 19.386 9.59009C19.1182 9.85787 18.6035 10.0688 18.379 10.0918C18.6117 10.1186 19.0743 10.2053 19.4048 10.5358C19.7353 10.8663 19.8005 11.3517 19.8161 11.5289C19.8513 11.3081 20.0348 10.7538 20.2922 10.4963Z" fill="#0000FF" stroke="#0000FF" stroke-width="0.0250804"/>
<path d="M23.0567 10.3941C23.2496 10.2012 23.6201 10.1087 23.7812 10.0866C23.6035 10.0428 23.2509 9.95817 23.0541 9.76139C22.8574 9.5646 22.7217 9.16098 22.7045 9.00984C22.6581 9.17351 22.5784 9.51453 22.3777 9.71515C22.1771 9.91578 21.7914 10.0738 21.6233 10.0911C21.7976 10.1111 22.1442 10.1761 22.3918 10.4237C22.6394 10.6713 22.6883 11.035 22.7 11.1678C22.7264 11.0023 22.8638 10.587 23.0567 10.3941Z" fill="#0000FF" stroke="#0000FF" stroke-width="0.0187911"/>
<path d="M2.87482 10.3941C3.06773 10.2012 3.43823 10.1087 3.59937 10.0866C3.42161 10.0428 3.06904 9.95817 2.87225 9.76139C2.67547 9.5646 2.53978 9.16098 2.52259 9.00984C2.47621 9.17351 2.39647 9.51453 2.19585 9.71515C1.99523 9.91578 1.60955 10.0738 1.44137 10.0911C1.61573 10.1111 1.96233 10.1761 2.20993 10.4237C2.45754 10.6713 2.50641 11.035 2.51807 11.1678C2.54449 11.0023 2.68192 10.587 2.87482 10.3941Z" fill="#0000FF" stroke="#0000FF" stroke-width="0.0187911"/>
<path d="M5.87671 13.3794C6.13418 13.122 6.62868 12.9985 6.84375 12.969C6.6065 12.9105 6.13592 12.7976 5.87327 12.5349C5.61063 12.2723 5.42952 11.7336 5.40658 11.5318C5.34468 11.7503 5.23825 12.2054 4.97048 12.4732C4.70271 12.741 4.18795 12.9519 3.96348 12.9749C4.1962 13.0017 4.6588 13.0884 4.98928 13.4189C5.31976 13.7494 5.38498 14.2348 5.40055 14.412C5.43581 14.1912 5.61923 13.6369 5.87671 13.3794Z" fill="#0000FF" stroke="#0000FF" stroke-width="0.0250804"/>
<path d="M8.87834 13.4816C9.20038 13.1596 9.81889 13.0052 10.0879 12.9683C9.79115 12.8952 9.20256 12.7538 8.87405 12.4253C8.54554 12.0968 8.31902 11.423 8.29033 11.1707C8.2129 11.4439 8.07979 12.0132 7.74487 12.3482C7.40994 12.6831 6.7661 12.9469 6.48534 12.9757C6.77642 13.0091 7.35502 13.1177 7.76838 13.531C8.18173 13.9444 8.26331 14.5515 8.28279 14.7731C8.32688 14.497 8.5563 13.8037 8.87834 13.4816Z" fill="#0000FF" stroke="#0000FF" stroke-width="0.0313698"/>
<path d="M11.524 13.2772C11.7169 13.0843 12.0874 12.9919 12.2485 12.9697C12.0708 12.9259 11.7182 12.8413 11.5214 12.6445C11.3246 12.4477 11.1889 12.0441 11.1718 11.893C11.1254 12.0566 11.0456 12.3976 10.845 12.5983C10.6444 12.7989 10.2587 12.957 10.0905 12.9742C10.2649 12.9942 10.6115 13.0592 10.8591 13.3068C11.1067 13.5544 11.1556 13.9181 11.1672 14.0509C11.1937 13.8855 11.3311 13.4702 11.524 13.2772Z" fill="#0000FF" stroke="#0000FF" stroke-width="0.0187911"/>
<path d="M17.5278 13.4816C17.8498 13.1596 18.4683 13.0052 18.7373 12.9683C18.4406 12.8952 17.852 12.7538 17.5235 12.4253C17.195 12.0968 16.9684 11.423 16.9397 11.1707C16.8623 11.4439 16.7292 12.0132 16.3943 12.3482C16.0594 12.6831 15.4155 12.9469 15.1348 12.9757C15.4258 13.0091 16.0044 13.1177 16.4178 13.531C16.8311 13.9444 16.9127 14.5515 16.9322 14.7731C16.9763 14.497 17.2057 13.8037 17.5278 13.4816Z" fill="#0000FF" stroke="#0000FF" stroke-width="0.0313698"/>
<path d="M20.1734 13.2772C20.3663 13.0843 20.7368 12.9919 20.8979 12.9697C20.7202 12.9259 20.3676 12.8413 20.1708 12.6445C19.9741 12.4477 19.8384 12.0441 19.8212 11.893C19.7748 12.0566 19.6951 12.3976 19.4944 12.5983C19.2938 12.7989 18.9081 12.957 18.74 12.9742C18.9143 12.9942 19.2609 13.0592 19.5085 13.3068C19.7561 13.5544 19.805 13.9181 19.8167 14.0509C19.8431 13.8855 19.9805 13.4702 20.1734 13.2772Z" fill="#0000FF" stroke="#0000FF" stroke-width="0.0187911"/>
<path d="M8.64094 16.1604C8.83385 15.9675 9.20434 15.875 9.36548 15.8529C9.18772 15.8091 8.83515 15.7245 8.63836 15.5277C8.44158 15.3309 8.30589 14.9273 8.28871 14.7761C8.24232 14.9398 8.16259 15.2808 7.96196 15.4814C7.76134 15.6821 7.37567 15.8401 7.20749 15.8574C7.38185 15.8774 7.72844 15.9424 7.97605 16.19C8.22366 16.4376 8.27252 16.8013 8.28419 16.9341C8.3106 16.7686 8.44803 16.3533 8.64094 16.1604Z" fill="#0000FF" stroke="#0000FF" stroke-width="0.0187911"/>
<path d="M17.2904 16.1604C17.4833 15.9675 17.8538 15.875 18.0149 15.8529C17.8371 15.8091 17.4846 15.7245 17.2878 15.5277C17.091 15.3309 16.9553 14.9273 16.9381 14.7761C16.8917 14.9398 16.812 15.2808 16.6114 15.4814C16.4108 15.6821 16.0251 15.8401 15.8569 15.8574C16.0313 15.8774 16.3779 15.9424 16.6255 16.19C16.8731 16.4376 16.9219 16.8013 16.9336 16.9341C16.96 16.7686 17.0974 16.3533 17.2904 16.1604Z" fill="#0000FF" stroke="#0000FF" stroke-width="0.0187911"/>
</g>
<defs>
<clipPath id="clip0_3018_73358">
<rect width="24.8672" height="20.1821" fill="white"/>
</clipPath>
</defs>
</svg>
