<svg width="17" height="14" viewBox="0 0 17 14" fill="none" xmlns="http://www.w3.org/2000/svg">
<path d="M14.9233 6.79204L14.0315 7.6839L13.0122 8.70316L11.9929 7.68389L11.1011 6.79204H14.9233Z" fill="#0000FF" stroke="#0000FF" stroke-width="1.08239" stroke-linecap="round"/>
<path d="M12.2525 7.02468C12.8509 7.02468 13.4492 7.02468 14.0476 7.02468C14.0327 6.37445 13.9302 5.72827 13.7448 5.10909C13.4671 4.18003 13.0015 3.31256 12.3877 2.57363C11.3672 1.33839 9.92973 0.475064 8.38642 0.152313C6.8441 -0.177498 5.20738 0.0345959 3.81945 0.728347C2.42797 1.41604 1.29488 2.57943 0.647979 3.96221C-0.00536498 5.3425 -0.168772 6.93171 0.176665 8.39302C0.515609 9.85634 1.35989 11.1814 2.51819 12.0971C3.67273 13.0183 5.13228 13.5243 6.58378 13.5232C7.45442 13.525 8.32013 13.3491 9.11338 13.013C9.64234 12.7892 10.1392 12.495 10.5868 12.1415C10.1212 12.471 9.613 12.7365 9.08056 12.9294C8.282 13.2194 7.42921 13.3447 6.58991 13.2989C5.18988 13.2263 3.83533 12.6668 2.80613 11.7529C1.77245 10.8433 1.07084 9.58679 0.835731 8.25606C0.594517 6.92592 0.820468 5.53135 1.45045 4.36421C2.07537 3.1938 3.09888 2.25871 4.29436 1.74478C5.48795 1.22525 6.84454 1.12962 8.0766 1.46247C9.31063 1.78986 10.4116 2.54235 11.1558 3.54813C11.604 4.1502 11.9261 4.83947 12.1002 5.56021C12.2166 6.04062 12.2676 6.53458 12.2525 7.02468Z" fill="#0000FF"/>
</svg>
