<svg width="18" height="17" viewBox="0 0 18 17" fill="none" xmlns="http://www.w3.org/2000/svg">
<path d="M8.26587 1.79943C8.51619 1.54911 8.99696 1.4291 9.20605 1.40039C8.9754 1.34357 8.51788 1.23372 8.26253 0.978373C8.00718 0.72302 7.8311 0.199273 7.8088 0.00314028C7.74862 0.215526 7.64515 0.658041 7.38481 0.918377C7.12448 1.17871 6.62402 1.38381 6.40578 1.40616C6.63204 1.43216 7.08178 1.51651 7.40309 1.83781C7.72439 2.15912 7.7878 2.63104 7.80294 2.80332C7.83721 2.58867 8.01555 2.04976 8.26587 1.79943Z" fill="#0000FF" stroke="#0000FF" stroke-width="0.0243839"/>
<path d="M5.88798 1.61062C6.03793 1.46067 6.32592 1.38878 6.45117 1.37158C6.313 1.33754 6.03894 1.27175 5.88598 1.11879C5.73302 0.965825 5.62755 0.652091 5.61419 0.534603C5.57814 0.661826 5.51616 0.926901 5.36021 1.08285C5.20427 1.23879 4.90448 1.36165 4.77376 1.37504C4.90929 1.39061 5.17869 1.44114 5.37116 1.63361C5.56363 1.82607 5.60161 2.10876 5.61068 2.21197C5.63121 2.08338 5.73803 1.76056 5.88798 1.61062Z" fill="#0000FF" stroke="#0000FF" stroke-width="0.0146064"/>
<path d="M3.64091 3.93142C3.79086 3.78147 4.07885 3.70958 4.2041 3.69238C4.06593 3.65834 3.79187 3.59255 3.63891 3.43959C3.48595 3.28663 3.38048 2.97289 3.36712 2.8554C3.33107 2.98263 3.26909 3.2477 3.11314 3.40365C2.9572 3.55959 2.65741 3.68245 2.52669 3.69584C2.66222 3.71141 2.93162 3.76194 3.12409 3.95441C3.31656 4.14688 3.35454 4.42956 3.36361 4.53277C3.38414 4.40418 3.49096 4.08136 3.64091 3.93142Z" fill="#0000FF" stroke="#0000FF" stroke-width="0.0146064"/>
<path d="M0.873736 7.90892C0.723787 8.05886 0.435798 8.13075 0.310547 8.14795C0.448716 8.18199 0.722775 8.24779 0.875735 8.40075C1.0287 8.55371 1.13417 8.86744 1.14753 8.98493C1.18358 8.85771 1.24556 8.59263 1.4015 8.43668C1.55745 8.28074 1.85724 8.15788 1.98796 8.14449C1.85243 8.12892 1.58302 8.07839 1.39056 7.88592C1.19809 7.69346 1.16011 7.41077 1.15104 7.30757C1.13051 7.43615 1.02368 7.75897 0.873736 7.90892Z" fill="#0000FF" stroke="#0000FF" stroke-width="0.0146064"/>
<path d="M1.39482 6.17312C1.54477 6.02317 1.83276 5.95128 1.95801 5.93408C1.81984 5.90004 1.54578 5.83425 1.39282 5.68129C1.23986 5.52832 1.13439 5.21459 1.12103 5.0971C1.08498 5.22433 1.023 5.4894 0.86705 5.64535C0.711104 5.80129 0.411318 5.92415 0.280591 5.93754C0.416122 5.95311 0.68553 6.00364 0.877997 6.19611C1.07046 6.38857 1.10845 6.67126 1.11752 6.77447C1.13805 6.64588 1.24487 6.32306 1.39482 6.17312Z" fill="#0000FF" stroke="#0000FF" stroke-width="0.0146064"/>
<path d="M1.39482 10.655C1.54477 10.5051 1.83276 10.4332 1.95801 10.416C1.81984 10.382 1.54578 10.3162 1.39282 10.1632C1.23986 10.0103 1.13439 9.69652 1.12103 9.57904C1.08498 9.70626 1.023 9.97133 0.86705 10.1273C0.711104 10.2832 0.411318 10.4061 0.280591 10.4195C0.416122 10.435 0.68553 10.4856 0.877997 10.678C1.07046 10.8705 1.10845 11.1532 1.11752 11.2564C1.13805 11.1278 1.24487 10.805 1.39482 10.655Z" fill="#0000FF" stroke="#0000FF" stroke-width="0.0146064"/>
<path d="M3.64091 12.8963C3.79086 12.7463 4.07885 12.6744 4.2041 12.6572C4.06593 12.6232 3.79187 12.5574 3.63891 12.4044C3.48595 12.2515 3.38048 11.9377 3.36712 11.8202C3.33107 11.9475 3.26909 12.2125 3.11314 12.3685C2.9572 12.5244 2.65741 12.6473 2.52669 12.6607C2.66222 12.6763 2.93162 12.7268 3.12409 12.9193C3.31656 13.1117 3.35454 13.3944 3.36361 13.4976C3.38414 13.369 3.49096 13.0462 3.64091 12.8963Z" fill="#0000FF" stroke="#0000FF" stroke-width="0.0146064"/>
<path d="M9.73897 1.1389C9.58902 1.28884 9.30103 1.36073 9.17578 1.37793C9.31395 1.41197 9.58801 1.47777 9.74097 1.63073C9.89393 1.78369 9.9994 2.09742 10.0128 2.21491C10.0488 2.08769 10.1108 1.82261 10.2667 1.66666C10.4227 1.51072 10.7225 1.38786 10.8532 1.37447C10.7177 1.3589 10.4483 1.30837 10.2558 1.1159C10.0633 0.923437 10.0253 0.64075 10.0163 0.537546C9.99574 0.66613 9.88892 0.988948 9.73897 1.1389Z" fill="#0000FF" stroke="#0000FF" stroke-width="0.0146064"/>
<path d="M5.88798 15.1375C6.03793 14.9875 6.32592 14.9156 6.45117 14.8984C6.313 14.8644 6.03894 14.7986 5.88598 14.6456C5.73302 14.4927 5.62755 14.1789 5.61419 14.0615C5.57814 14.1887 5.51616 14.4538 5.36021 14.6097C5.20427 14.7656 4.90448 14.8885 4.77376 14.9019C4.90929 14.9175 5.17869 14.968 5.37116 15.1605C5.56363 15.3529 5.60161 15.6356 5.61068 15.7388C5.63121 15.6102 5.73803 15.2874 5.88798 15.1375Z" fill="#0000FF" stroke="#0000FF" stroke-width="0.0146064"/>
<path d="M11.7497 12.5231C11.4916 12.7812 10.9959 12.905 10.7803 12.9346C11.0181 12.9932 11.4898 13.1064 11.7531 13.3697C12.0164 13.633 12.198 14.173 12.221 14.3752C12.283 14.1563 12.3897 13.7 12.6581 13.4316C12.9265 13.1631 13.4426 12.9517 13.6676 12.9286C13.4343 12.9018 12.9706 12.8148 12.6393 12.4835C12.308 12.1523 12.2426 11.6657 12.227 11.488C12.1917 11.7094 12.0078 12.265 11.7497 12.5231Z" fill="#0000FF" stroke="#0000FF" stroke-width="0.0251418"/>
<path d="M14.0602 10.2126C13.8021 10.4707 13.3064 10.5944 13.0908 10.624C13.3286 10.6826 13.8004 10.7959 14.0637 11.0592C14.327 11.3224 14.5085 11.8625 14.5315 12.0647C14.5936 11.8457 14.7002 11.3894 14.9687 11.121C15.2371 10.8526 15.7531 10.6411 15.9781 10.6181C15.7448 10.5913 15.2811 10.5043 14.9498 10.173C14.6185 9.84171 14.5532 9.35513 14.5375 9.17748C14.5022 9.39881 14.3183 9.95447 14.0602 10.2126Z" fill="#0000FF" stroke="#0000FF" stroke-width="0.0251418"/>
<path d="M11.7497 10.2126C11.4916 10.4707 10.9959 10.5944 10.7803 10.624C11.0181 10.6826 11.4898 10.7959 11.7531 11.0592C12.0164 11.3224 12.198 11.8625 12.221 12.0647C12.283 11.8457 12.3897 11.3894 12.6581 11.121C12.9265 10.8526 13.4426 10.6411 13.6676 10.6181C13.4343 10.5913 12.9706 10.5043 12.6393 10.173C12.308 9.84171 12.2426 9.35513 12.227 9.17748C12.1917 9.39881 12.0078 9.95447 11.7497 10.2126Z" fill="#0000FF" stroke="#0000FF" stroke-width="0.0251418"/>
<path d="M9.44011 10.2126C9.18201 10.4707 8.6863 10.5944 8.4707 10.624C8.70853 10.6826 9.18026 10.7959 9.44355 11.0592C9.70684 11.3224 9.88839 11.8625 9.91138 12.0647C9.97344 11.8457 10.0801 11.3894 10.3486 11.121C10.617 10.8526 11.133 10.6411 11.358 10.6181C11.1247 10.5913 10.661 10.5043 10.3297 10.173C9.99842 9.84171 9.93304 9.35513 9.91743 9.17748C9.88209 9.39881 9.69822 9.95447 9.44011 10.2126Z" fill="#0000FF" stroke="#0000FF" stroke-width="0.0251418"/>
<path d="M16.5621 8.06506C16.4075 8.21967 16.1106 8.29379 15.9814 8.31152C16.1239 8.34662 16.4065 8.41446 16.5642 8.57218C16.7219 8.72989 16.8307 9.05338 16.8444 9.17452C16.8816 9.04334 16.9455 8.77003 17.1063 8.60923C17.2671 8.44844 17.5762 8.32176 17.711 8.30796C17.5713 8.2919 17.2935 8.2398 17.095 8.04135C16.8966 7.8429 16.8574 7.55143 16.8481 7.44502C16.8269 7.5776 16.7167 7.91045 16.5621 8.06506Z" fill="#0000FF" stroke="#0000FF" stroke-width="0.0150604"/>
<path d="M14.1559 7.98306C13.9496 8.18941 13.5532 8.28834 13.3809 8.31201C13.571 8.35885 13.9482 8.4494 14.1587 8.65991C14.3692 8.87041 14.5143 9.30216 14.5327 9.46385C14.5823 9.28877 14.6676 8.92397 14.8822 8.70936C15.0968 8.49475 15.5094 8.32568 15.6893 8.30725C15.5028 8.28582 15.132 8.21629 14.8672 7.95142C14.6023 7.68655 14.55 7.29752 14.5375 7.15549C14.5093 7.33244 14.3623 7.7767 14.1559 7.98306Z" fill="#0000FF" stroke="#0000FF" stroke-width="0.0201011"/>
<path d="M11.7497 7.90154C11.4916 8.15965 10.9959 8.28338 10.7803 8.31299C11.0181 8.37158 11.4898 8.48483 11.7531 8.74812C12.0164 9.01141 12.198 9.55144 12.221 9.75367C12.283 9.53468 12.3897 9.07841 12.6581 8.80998C12.9265 8.54156 13.4426 8.33008 13.6676 8.30703C13.4343 8.28023 12.9706 8.19326 12.6393 7.86197C12.308 7.53068 12.2426 7.04409 12.227 6.86645C12.1917 7.08778 12.0078 7.64344 11.7497 7.90154Z" fill="#0000FF" stroke="#0000FF" stroke-width="0.0251418"/>
<path d="M9.53579 7.98306C9.32944 8.18941 8.93311 8.28834 8.76074 8.31201C8.95089 8.35885 9.32804 8.4494 9.53855 8.65991C9.74905 8.87041 9.8942 9.30216 9.91258 9.46385C9.9622 9.28877 10.0475 8.92397 10.2621 8.70936C10.4767 8.49475 10.8893 8.32568 11.0692 8.30725C10.8827 8.28582 10.5119 8.21629 10.247 7.95142C9.98216 7.68655 9.92989 7.29752 9.91741 7.15549C9.88916 7.33244 9.74215 7.7767 9.53579 7.98306Z" fill="#0000FF" stroke="#0000FF" stroke-width="0.0201011"/>
<path d="M7.31897 8.06506C7.16437 8.21967 6.86743 8.29379 6.73828 8.31152C6.88074 8.34662 7.16332 8.41446 7.32104 8.57218C7.47875 8.72989 7.5875 9.05338 7.60127 9.17452C7.63845 9.04334 7.70235 8.77003 7.86315 8.60923C8.02394 8.44844 8.33304 8.32176 8.46783 8.30796C8.32809 8.2919 8.05031 8.2398 7.85186 8.04135C7.65341 7.8429 7.61425 7.55143 7.6049 7.44502C7.58373 7.5776 7.47358 7.91045 7.31897 8.06506Z" fill="#0000FF" stroke="#0000FF" stroke-width="0.0150604"/>
<path d="M14.2506 5.75451C14.096 5.90912 13.7991 5.98324 13.6699 6.00098C13.8124 6.03607 14.095 6.10392 14.2527 6.26163C14.4104 6.41935 14.5191 6.74283 14.5329 6.86397C14.5701 6.73279 14.634 6.45948 14.7948 6.29869C14.9556 6.13789 15.2647 6.01122 15.3995 5.99741C15.2597 5.98135 14.9819 5.92926 14.7835 5.73081C14.5851 5.53236 14.5459 5.24088 14.5365 5.13447C14.5154 5.26705 14.4052 5.5999 14.2506 5.75451Z" fill="#0000FF" stroke="#0000FF" stroke-width="0.0150604"/>
<path d="M11.8454 5.67251C11.639 5.87887 11.2427 5.9778 11.0703 6.00146C11.2605 6.04831 11.6376 6.13886 11.8481 6.34936C12.0586 6.55986 12.2038 6.99162 12.2221 7.1533C12.2718 6.97822 12.3571 6.61343 12.5717 6.39882C12.7863 6.18421 13.1988 6.01513 13.3787 5.9967C13.1922 5.97527 12.8215 5.90574 12.5566 5.64087C12.2917 5.376 12.2395 4.98697 12.227 4.84494C12.1987 5.0219 12.0517 5.46615 11.8454 5.67251Z" fill="#0000FF" stroke="#0000FF" stroke-width="0.0201011"/>
<path d="M9.6305 5.75451C9.47589 5.90912 9.17895 5.98324 9.0498 6.00098C9.19227 6.03607 9.47485 6.10392 9.63256 6.26163C9.79027 6.41935 9.89903 6.74283 9.9128 6.86397C9.94997 6.73279 10.0139 6.45948 10.1747 6.29869C10.3355 6.13789 10.6446 6.01122 10.7794 5.99741C10.6396 5.98135 10.3618 5.92926 10.1634 5.73081C9.96493 5.53236 9.92577 5.24088 9.91642 5.13447C9.89525 5.26705 9.78511 5.5999 9.6305 5.75451Z" fill="#0000FF" stroke="#0000FF" stroke-width="0.0150604"/>
<path d="M14.2506 3.44348C14.096 3.59809 13.7991 3.67221 13.6699 3.68994C13.8124 3.72504 14.095 3.79288 14.2527 3.9506C14.4104 4.10831 14.5191 4.4318 14.5329 4.55293C14.5701 4.42176 14.634 4.14844 14.7948 3.98765C14.9556 3.82686 15.2647 3.70018 15.3995 3.68637C15.2597 3.67032 14.9819 3.61822 14.7835 3.41977C14.5851 3.22132 14.5459 2.92985 14.5365 2.82344C14.5154 2.95602 14.4052 3.28887 14.2506 3.44348Z" fill="#0000FF" stroke="#0000FF" stroke-width="0.0150604"/>
<path d="M11.9401 3.44348C11.7855 3.59809 11.4885 3.67221 11.3594 3.68994C11.5018 3.72504 11.7844 3.79288 11.9421 3.9506C12.0998 4.10831 12.2086 4.4318 12.2224 4.55293C12.2595 4.42176 12.3234 4.14844 12.4842 3.98765C12.645 3.82686 12.9541 3.70018 13.0889 3.68637C12.9492 3.67032 12.6714 3.61822 12.473 3.41977C12.2745 3.22132 12.2353 2.92985 12.226 2.82344C12.2048 2.95602 12.0947 3.28887 11.9401 3.44348Z" fill="#0000FF" stroke="#0000FF" stroke-width="0.0150604"/>
<path d="M11.9401 1.19738C11.7855 1.35199 11.4885 1.42611 11.3594 1.44385C11.5018 1.47894 11.7844 1.54679 11.9421 1.7045C12.0998 1.86222 12.2086 2.1857 12.2224 2.30684C12.2595 2.17566 12.3234 1.90235 12.4842 1.74156C12.645 1.58076 12.9541 1.45409 13.0889 1.44028C12.9492 1.42422 12.6714 1.37213 12.473 1.17368C12.2745 0.975229 12.2353 0.683755 12.226 0.577344C12.2048 0.709924 12.0947 1.04278 11.9401 1.19738Z" fill="#0000FF" stroke="#0000FF" stroke-width="0.0150604"/>
<path d="M9.6305 3.44348C9.47589 3.59809 9.17895 3.67221 9.0498 3.68994C9.19227 3.72504 9.47485 3.79288 9.63256 3.9506C9.79027 4.10831 9.89903 4.4318 9.9128 4.55293C9.94997 4.42176 10.0139 4.14844 10.1747 3.98765C10.3355 3.82686 10.6446 3.70018 10.7794 3.68637C10.6396 3.67032 10.3618 3.61822 10.1634 3.41977C9.96493 3.22132 9.92577 2.92985 9.91642 2.82344C9.89525 2.95602 9.78511 3.28887 9.6305 3.44348Z" fill="#0000FF" stroke="#0000FF" stroke-width="0.0150604"/>
</svg>
