<svg width="21" height="21" viewBox="0 0 21 21" fill="none" xmlns="http://www.w3.org/2000/svg">
<mask id="path-1-outside-1_3054_87596" maskUnits="userSpaceOnUse" x="2.49707" y="-0.838379" width="10" height="4" fill="black">
<rect fill="white" x="2.49707" y="-0.838379" width="10" height="4"/>
<path d="M7.39258 0.161621C5.73166 0.161621 4.25162 0.932591 3.28809 2.13525C4.41629 1.44235 5.84181 1.02686 7.39258 1.02686C8.9432 1.02689 10.3689 1.44146 11.4971 2.13428C10.5335 0.931929 9.05322 0.161647 7.39258 0.161621Z"/>
</mask>
<path d="M7.39258 0.161621C5.73166 0.161621 4.25162 0.932591 3.28809 2.13525C4.41629 1.44235 5.84181 1.02686 7.39258 1.02686C8.9432 1.02689 10.3689 1.44146 11.4971 2.13428C10.5335 0.931929 9.05322 0.161647 7.39258 0.161621Z" fill="#404040"/>
<path d="M7.39258 0.161621V7.25687e-06H7.39258L7.39258 0.161621ZM3.28809 2.13525L3.37266 2.27297L3.16196 2.0342L3.28809 2.13525ZM7.39258 1.02686V0.865242H7.39258L7.39258 1.02686ZM11.4971 2.13428L11.6232 2.03321L11.4125 2.27199L11.4971 2.13428ZM7.39258 0.161621V0.323235C5.78288 0.323235 4.34846 1.07021 3.41421 2.2363L3.28809 2.13525L3.16196 2.0342C4.15479 0.794976 5.68045 7.25687e-06 7.39258 7.25687e-06V0.161621ZM3.28809 2.13525L3.20351 1.99754C4.35838 1.28826 5.81342 0.865242 7.39258 0.865242V1.02686V1.18847C5.8702 1.18847 4.47421 1.59645 3.37266 2.27297L3.28809 2.13525ZM7.39258 1.02686L7.39258 0.865242C8.97152 0.86528 10.4268 1.28733 11.5816 1.99656L11.4971 2.13428L11.4125 2.27199C10.3111 1.59559 8.91489 1.18851 7.39257 1.18847L7.39258 1.02686ZM11.4971 2.13428L11.371 2.23534C10.4367 1.06959 9.00206 0.32326 7.39258 0.323235L7.39258 0.161621L7.39258 7.25687e-06C9.10439 3.39895e-05 10.6303 0.794269 11.6232 2.03321L11.4971 2.13428Z" fill="#404040" mask="url(#path-1-outside-1_3054_87596)"/>
<mask id="path-3-outside-2_3054_87596" maskUnits="userSpaceOnUse" x="2.28809" y="11.7529" width="10" height="4" fill="black">
<rect fill="white" x="2.28809" y="11.7529" width="10" height="4"/>
<path d="M7.39258 14.7529C9.05315 14.7529 10.5335 13.9825 11.4971 12.7803C10.369 13.4729 8.94299 13.8867 7.39258 13.8867C5.84204 13.8866 4.41617 13.4731 3.28809 12.7803C4.25157 13.9826 5.73199 14.7528 7.39258 14.7529Z"/>
</mask>
<path d="M7.39258 14.7529C9.05315 14.7529 10.5335 13.9825 11.4971 12.7803C10.369 13.4729 8.94299 13.8867 7.39258 13.8867C5.84204 13.8866 4.41617 13.4731 3.28809 12.7803C4.25157 13.9826 5.73199 14.7528 7.39258 14.7529Z" fill="#404040"/>
<path d="M7.39258 14.7529L7.39258 14.9145L7.39257 14.9145L7.39258 14.7529ZM11.4971 12.7803L11.4125 12.6425L11.6232 12.8813L11.4971 12.7803ZM7.39258 13.8867L7.39258 14.0483L7.39257 14.0483L7.39258 13.8867ZM3.28809 12.7803L3.16197 12.8813L3.37266 12.6426L3.28809 12.7803ZM7.39258 14.7529L7.39258 14.5913C9.00198 14.5913 10.4367 13.8449 11.371 12.6792L11.4971 12.7803L11.6232 12.8813C10.6303 14.1202 9.10432 14.9145 7.39258 14.9145L7.39258 14.7529ZM11.4971 12.7803L11.5816 12.918C10.4268 13.627 8.97124 14.0483 7.39258 14.0483L7.39258 13.8867L7.39258 13.7251C8.91473 13.7251 10.3112 13.3187 11.4125 12.6425L11.4971 12.7803ZM7.39258 13.8867L7.39257 14.0483C5.8138 14.0482 4.35838 13.6272 3.20351 12.918L3.28809 12.7803L3.37266 12.6426C4.47395 13.3189 5.87028 13.725 7.39259 13.7251L7.39258 13.8867ZM3.28809 12.7803L3.4142 12.6792C4.34835 13.8449 5.78315 14.5912 7.39259 14.5913L7.39258 14.7529L7.39257 14.9145C5.68083 14.9144 4.15478 14.1203 3.16197 12.8813L3.28809 12.7803Z" fill="#404040" mask="url(#path-3-outside-2_3054_87596)"/>
<mask id="path-5-outside-3_3054_87596" maskUnits="userSpaceOnUse" x="-0.838867" y="2.37988" width="4" height="10" fill="black">
<rect fill="white" x="-0.838867" y="2.37988" width="4" height="10"/>
<path d="M0.161133 7.4834C0.161133 9.14402 0.931488 10.6243 2.13379 11.5879C1.4409 10.4597 1.02637 9.03414 1.02637 7.4834C1.02639 5.93315 1.44031 4.5079 2.13281 3.37988C0.931033 4.34339 0.161223 5.82325 0.161133 7.4834Z"/>
</mask>
<path d="M0.161133 7.4834C0.161133 9.14402 0.931488 10.6243 2.13379 11.5879C1.4409 10.4597 1.02637 9.03414 1.02637 7.4834C1.02639 5.93315 1.44031 4.5079 2.13281 3.37988C0.931033 4.34339 0.161223 5.82325 0.161133 7.4834Z" fill="#404040"/>
<path d="M0.161133 7.4834L-0.000481073 7.4834L-0.000481073 7.48339L0.161133 7.4834ZM2.13379 11.5879L2.2715 11.5033L2.03272 11.714L2.13379 11.5879ZM1.02637 7.4834L0.864753 7.4834L0.864753 7.4834L1.02637 7.4834ZM2.13281 3.37988L2.03172 3.25379L2.27054 3.46444L2.13281 3.37988ZM0.161133 7.4834L0.322747 7.4834C0.322747 9.09286 1.06914 10.5275 2.23486 11.4618L2.13379 11.5879L2.03272 11.714C0.793832 10.7211 -0.000481094 9.19519 -0.000481073 7.4834L0.161133 7.4834ZM2.13379 11.5879L1.99607 11.6725C1.28677 10.5175 0.864753 9.06246 0.864753 7.4834L1.02637 7.4834L1.18798 7.4834C1.18798 9.00583 1.59503 10.4018 2.2715 11.5033L2.13379 11.5879ZM1.02637 7.4834L0.864753 7.4834C0.864773 5.90487 1.28616 4.4501 1.99508 3.29533L2.13281 3.37988L2.27054 3.46444C1.59446 4.56571 1.188 5.96143 1.18798 7.4834L1.02637 7.4834ZM2.13281 3.37988L2.23391 3.50598C1.06871 4.44016 0.322834 5.8744 0.322747 7.48341L0.161133 7.4834L-0.000481073 7.48339C-0.000388517 5.7721 0.79336 4.24663 2.03172 3.25379L2.13281 3.37988Z" fill="#404040" mask="url(#path-5-outside-3_3054_87596)"/>
<mask id="path-7-outside-4_3054_87596" maskUnits="userSpaceOnUse" x="11.7559" y="2.58936" width="4" height="10" fill="black">
<rect fill="white" x="11.7559" y="2.58936" width="4" height="10"/>
<path d="M14.7559 7.48389C14.7559 5.82209 13.984 4.34094 12.7803 3.37744C13.4738 4.50593 13.8896 5.93231 13.8896 7.48389C13.8896 9.03506 13.4745 10.4611 12.7812 11.5894C13.9845 10.6259 14.7558 9.1452 14.7559 7.48389Z"/>
</mask>
<path d="M14.7559 7.48389C14.7559 5.82209 13.984 4.34094 12.7803 3.37744C13.4738 4.50593 13.8896 5.93231 13.8896 7.48389C13.8896 9.03506 13.4745 10.4611 12.7812 11.5894C13.9845 10.6259 14.7558 9.1452 14.7559 7.48389Z" fill="#404040"/>
<path d="M14.7559 7.48389L14.9175 7.48389L14.9175 7.4839L14.7559 7.48389ZM12.7803 3.37744L12.6426 3.46206L12.8813 3.25127L12.7803 3.37744ZM13.8896 7.48389L14.0513 7.48389L14.0513 7.48389L13.8896 7.48389ZM12.7812 11.5894L12.8823 11.7155L12.6436 11.5047L12.7812 11.5894ZM14.7559 7.48389L14.5942 7.48389C14.5942 5.87332 13.8464 4.43781 12.6793 3.50362L12.7803 3.37744L12.8813 3.25127C14.1216 4.24407 14.9175 5.77086 14.9175 7.48389L14.7559 7.48389ZM12.7803 3.37744L12.918 3.29282C13.6279 4.448 14.0513 5.90392 14.0513 7.48389L13.8896 7.48389L13.728 7.48389C13.728 5.96071 13.3197 4.56386 12.6426 3.46206L12.7803 3.37744ZM13.8896 7.48389L14.0513 7.48389C14.0512 9.0634 13.6287 10.5189 12.9189 11.674L12.7812 11.5894L12.6436 11.5047C13.3204 10.4032 13.728 9.00671 13.728 7.48388L13.8896 7.48389ZM12.7812 11.5894L12.6802 11.4632C13.8469 10.5291 14.5942 9.09399 14.5942 7.48388L14.7559 7.48389L14.9175 7.4839C14.9174 9.19642 14.1221 10.7227 12.8823 11.7155L12.7812 11.5894Z" fill="#404040" mask="url(#path-7-outside-4_3054_87596)"/>
<mask id="path-9-outside-5_3054_87596" maskUnits="userSpaceOnUse" x="9.72446" y="9.78617" width="12.0208" height="12.0208" fill="black">
<rect fill="white" x="9.72446" y="9.78617" width="12.0208" height="12.0208"/>
<path d="M12.5833 12.5897L12.6226 12.5504C12.6665 12.5942 17.049 16.9694 18.2553 17.4856C19.4495 17.9958 20.3473 17.8302 20.3725 17.8254L20.3884 17.8951C20.3707 17.8996 19.3367 18.1684 18.6165 18.8563C17.9813 19.5663 17.7289 20.5262 17.7208 20.5571L17.6518 20.5419C17.6576 20.511 17.8197 19.6156 17.3114 18.4254C16.793 17.2134 12.3754 12.7921 12.3754 12.7921L12.5805 12.587L12.5833 12.5897Z"/>
</mask>
<path d="M12.5833 12.5897L12.6226 12.5504C12.6665 12.5942 17.049 16.9694 18.2553 17.4856C19.4495 17.9958 20.3473 17.8302 20.3725 17.8254L20.3884 17.8951C20.3707 17.8996 19.3367 18.1684 18.6165 18.8563C17.9813 19.5663 17.7289 20.5262 17.7208 20.5571L17.6518 20.5419C17.6576 20.511 17.8197 19.6156 17.3114 18.4254C16.793 17.2134 12.3754 12.7921 12.3754 12.7921L12.5805 12.587L12.5833 12.5897Z" fill="#404040"/>
<path d="M12.5833 12.5897L12.469 12.704L12.5833 12.8183L12.6975 12.704L12.5833 12.5897ZM12.6226 12.5504L12.7368 12.436L12.6226 12.3219L12.5084 12.4361L12.6226 12.5504ZM18.2553 17.4856L18.1917 17.6342L18.1918 17.6342L18.2553 17.4856ZM20.3725 17.8254L20.5301 17.7895L20.4954 17.6374L20.3422 17.6666L20.3725 17.8254ZM20.3884 17.8951L20.4287 18.0516L20.5808 18.0124L20.546 17.8592L20.3884 17.8951ZM18.6165 18.8563L18.5045 18.7391L18.496 18.7486L18.6165 18.8563ZM17.7208 20.5571L17.6861 20.715L17.8382 20.7484L17.8773 20.5977L17.7208 20.5571ZM17.6518 20.5419L17.493 20.5119L17.4639 20.6661L17.6171 20.6998L17.6518 20.5419ZM17.3114 18.4254L17.46 18.362L17.46 18.3619L17.3114 18.4254ZM12.3754 12.7921L12.2611 12.6778L12.1469 12.792L12.2611 12.9063L12.3754 12.7921ZM12.5805 12.587L12.6948 12.4727L12.5805 12.3584L12.4662 12.4727L12.5805 12.587ZM12.5833 12.5897L12.6975 12.704L12.7369 12.6647L12.6226 12.5504L12.5084 12.4361L12.469 12.4755L12.5833 12.5897ZM12.6226 12.5504L12.5084 12.6647C12.5308 12.6871 13.639 13.7934 14.893 14.9592C15.5199 15.542 16.1846 16.1409 16.7691 16.6271C17.0613 16.8702 17.3348 17.0862 17.5744 17.2584C17.8118 17.4289 18.024 17.5624 18.1917 17.6342L18.2553 17.4856L18.3189 17.337C18.1851 17.2798 17.9965 17.1636 17.7631 16.9959C17.5319 16.8298 17.2648 16.619 16.9758 16.3786C16.398 15.8979 15.7381 15.3035 15.1131 14.7225C13.8633 13.5606 12.7583 12.4575 12.7368 12.436L12.6226 12.5504ZM18.2553 17.4856L18.1918 17.6342C19.425 18.1611 20.358 17.9927 20.4027 17.9841L20.3725 17.8254L20.3422 17.6666C20.3366 17.6677 19.4739 17.8305 18.3188 17.337L18.2553 17.4856ZM20.3725 17.8254L20.2149 17.8612L20.2308 17.931L20.3884 17.8951L20.546 17.8592L20.5301 17.7895L20.3725 17.8254ZM20.3884 17.8951L20.3481 17.7386C20.3276 17.7439 19.2575 18.0206 18.5048 18.7395L18.6165 18.8563L18.7281 18.9732C19.416 18.3163 20.4139 18.0554 20.4287 18.0516L20.3884 17.8951ZM18.6165 18.8563L18.496 18.7486C17.8334 19.4893 17.5734 20.4819 17.5644 20.5166L17.7208 20.5571L17.8773 20.5977C17.8843 20.5705 18.1292 19.6434 18.7369 18.9641L18.6165 18.8563ZM17.7208 20.5571L17.7556 20.3993L17.6865 20.3841L17.6518 20.5419L17.6171 20.6998L17.6861 20.715L17.7208 20.5571ZM17.6518 20.5419L17.8106 20.5719C17.8201 20.5214 17.985 19.5909 17.46 18.362L17.3114 18.4254L17.1627 18.4889C17.6545 19.6402 17.4951 20.5007 17.493 20.5119L17.6518 20.5419ZM17.3114 18.4254L17.46 18.3619C17.3879 18.1933 17.2534 17.9799 17.0816 17.741C16.9082 17.4999 16.6905 17.2246 16.4456 16.9305C15.9559 16.3423 15.3528 15.6735 14.7673 15.0442C14.1816 14.4146 13.6123 13.8231 13.1895 13.3891C12.9781 13.172 12.8032 12.9943 12.6812 12.8708C12.6202 12.8091 12.5724 12.7609 12.5398 12.7281C12.5235 12.7117 12.511 12.6991 12.5026 12.6907C12.4984 12.6865 12.4952 12.6833 12.493 12.6811C12.4919 12.68 12.4911 12.6792 12.4906 12.6787C12.4903 12.6784 12.4901 12.6782 12.49 12.6781C12.4899 12.678 12.4898 12.6779 12.4898 12.6779C12.4898 12.6779 12.4897 12.6778 12.3754 12.7921C12.2611 12.9063 12.2611 12.9063 12.2611 12.9063C12.2612 12.9064 12.2612 12.9064 12.2613 12.9065C12.2614 12.9066 12.2616 12.9068 12.2619 12.9071C12.2624 12.9076 12.2632 12.9084 12.2642 12.9094C12.2663 12.9115 12.2695 12.9147 12.2736 12.9189C12.282 12.9272 12.2943 12.9397 12.3105 12.9559C12.3429 12.9885 12.3905 13.0365 12.4513 13.098C12.5729 13.221 12.7472 13.3982 12.958 13.6146C13.3797 14.0475 13.9472 14.6371 14.5307 15.2643C15.1144 15.8918 15.713 16.5557 16.1972 17.1373C16.4394 17.4282 16.6519 17.6971 16.8193 17.9298C16.9883 18.1647 17.1053 18.3545 17.1628 18.489L17.3114 18.4254ZM12.3754 12.7921L12.4897 12.9063L12.6948 12.7013L12.5805 12.587L12.4662 12.4727L12.2611 12.6778L12.3754 12.7921ZM12.5805 12.587L12.4662 12.7013L12.469 12.704L12.5833 12.5897L12.6975 12.4755L12.6948 12.4727L12.5805 12.587Z" fill="#404040" mask="url(#path-9-outside-5_3054_87596)"/>
</svg>
