<svg width="9" height="9" viewBox="0 0 9 9" fill="none" xmlns="http://www.w3.org/2000/svg">
<g clip-path="url(#clip0_2606_38341)">
<path d="M7.17388 2.91132C7.21884 2.97091 7.28514 3.00923 7.35937 3.01689C7.43354 3.0246 7.50957 3.00103 7.56954 2.95231C7.62951 2.9036 7.66817 2.83402 7.67583 2.75985C7.68355 2.68562 7.65963 2.61287 7.61053 2.55665C7.61053 2.55665 7.61053 2.55665 7.61053 2.55665C7.52016 2.45284 7.42711 2.35088 7.33076 2.25148C6.62253 1.48835 5.57486 0.898159 4.50075 0.964889C3.95185 0.982903 3.41237 1.13154 2.93845 1.39154C2.15992 1.81563 1.56744 2.54023 1.30702 3.36297C1.26632 3.49024 1.23327 3.61966 1.20801 3.75031C1.24241 3.62176 1.28435 3.49553 1.33349 3.37247C1.6489 2.57643 2.27531 1.92426 3.03283 1.57875C3.49426 1.36648 4.00177 1.26644 4.50075 1.28536C5.48108 1.30161 6.32314 1.86152 6.93467 2.61025C7.01684 2.70795 7.09641 2.80851 7.17388 2.91132Z" fill="#414141"/>
<path d="M7.87508 2.25012V2.77516V3.3752H7.27504H6.75L7.87508 2.25012Z" fill="#414141" stroke="#414141" stroke-width="0.562541" stroke-linecap="round"/>
<path d="M1.82672 6.08935C1.78176 6.02977 1.71546 5.99145 1.64123 5.98379C1.56706 5.97608 1.49104 5.99965 1.43106 6.04837C1.37109 6.09708 1.33243 6.16666 1.32478 6.24083C1.31706 6.31506 1.34097 6.3878 1.39008 6.44403C1.39008 6.44403 1.39008 6.44403 1.39008 6.44403C1.48044 6.54784 1.57349 6.6498 1.66985 6.7492C2.37807 7.51233 3.42574 8.10252 4.49986 8.03579C5.04875 8.01777 5.58823 7.86913 6.06216 7.60914C6.84069 7.18505 7.43317 6.46045 7.69359 5.63771C7.73428 5.51044 7.76733 5.38102 7.7926 5.25037C7.7926 5.25037 7.7926 5.25037 7.7926 5.25037C7.7582 5.37891 7.71626 5.50515 7.66711 5.62821C7.35171 6.42425 6.72529 7.07642 5.96777 7.42193C5.50634 7.6342 4.99884 7.73423 4.49986 7.71532C3.51952 7.69906 2.67746 7.13915 2.06593 6.39042C1.98377 6.29273 1.90419 6.19217 1.82672 6.08935Z" fill="#414141"/>
<path d="M1.125 6.75045V6.22541V5.62537H1.72504H2.25008L1.125 6.75045Z" fill="#414141" stroke="#414141" stroke-width="0.562541" stroke-linecap="round"/>
</g>
<defs>
<clipPath id="clip0_2606_38341">
<rect width="9.00065" height="9.00065" fill="white"/>
</clipPath>
</defs>
</svg>
