<svg width="47" height="10" viewBox="0 0 47 10" fill="none" xmlns="http://www.w3.org/2000/svg">
<path fill-rule="evenodd" clip-rule="evenodd" d="M1.47449 0.0134434L1.51825 3.30726L1.62763 3.46056C1.68888 3.54378 1.86827 3.7584 2.02579 3.93798C2.18767 4.11757 2.62521 4.60814 3.00149 5.02862C3.46965 5.55423 3.7278 5.88274 3.96844 6.36454L3.98157 7.41576C3.99469 8.07277 3.98157 8.56772 3.95094 8.72978C3.92469 8.87432 3.86343 9.07143 3.8153 9.16779C3.77155 9.26415 3.66654 9.42183 3.58341 9.51819C3.50028 9.61455 3.32964 9.75034 3.19838 9.82042C3.06712 9.8905 2.8571 9.96058 2.5027 10V8.41004C2.5027 7.06097 2.49395 6.79817 2.43269 6.65801C2.39769 6.57041 2.09579 6.18934 1.76764 5.81703C1.43949 5.44473 1.09821 5.05928 1.01071 4.96292C0.923199 4.86656 0.704431 4.62128 0.529417 4.41541C0.354403 4.20955 0.170639 3.95551 0.12251 3.846C0.0393781 3.66642 0.0306274 3.55254 0.0175014 2.46628C0.00437535 1.33184 0.0087507 1.27052 0.105008 0.977058C0.175014 0.762435 0.262521 0.613513 0.402532 0.46021C0.511916 0.341949 0.678179 0.201786 0.774437 0.153606C0.870695 0.105425 1.00633 0.0484839 1.08071 0.0309637C1.15509 0.0134434 1.26885 0.000303184 1.47449 0.0134434ZM2.59021 0.00468325C2.81335 0.0178235 2.99711 0.0616241 3.159 0.136085C3.29026 0.193026 3.46965 0.320048 3.56153 0.41203C3.64904 0.508391 3.7628 0.661694 3.81093 0.758055C3.86343 0.854417 3.92469 1.06028 3.94656 1.21796C3.97282 1.37564 3.98594 1.86621 3.96844 3.12329L2.5027 3.14519L2.48082 1.54647L1.82452 1.50267L1.81577 0.955158C1.80264 0.45145 1.81139 0.394509 1.8989 0.271867C1.95141 0.197406 2.05641 0.101045 2.12642 0.0616242C2.23143 0.00468326 2.33644 -0.00845695 2.59021 0.00468325ZM8.30004 0.0572441V1.50267H5.06228L5.05353 0.823756C5.04915 0.45145 5.05353 0.122945 5.06228 0.0922846C5.07978 0.0441039 5.39918 0.0353437 8.30004 0.0572441ZM9.372 0.0353437H10.7852C11.9928 0.0353437 12.2291 0.0484839 12.4347 0.109805C12.6141 0.166746 12.7366 0.249967 12.9204 0.42955C13.091 0.595993 13.1873 0.736155 13.2398 0.889457C13.2792 1.00772 13.3054 1.19606 13.2879 1.50267L10.8596 1.52457V4.24021H11.8222V3.06635C11.8178 2.16406 11.8309 1.88373 11.8747 1.83993C11.9141 1.80051 12.0628 1.78737 12.391 1.79613C12.6885 1.80489 12.8942 1.83117 12.9817 1.87497C13.0517 1.91001 13.1567 2.01075 13.2136 2.09398C13.3142 2.24728 13.3142 2.25166 13.2879 4.65632L13.1567 4.91474C13.0823 5.05928 12.9379 5.24763 12.8285 5.34399C12.7191 5.43597 12.5441 5.55861 12.4347 5.61117C12.2641 5.69439 12.1503 5.70753 10.8596 5.72943L10.8377 9.9124L9.372 9.9343V0.0353437ZM14.4912 0.0353437H14.9856C15.3662 0.0353437 15.5106 0.052864 15.6287 0.114185C15.7294 0.162366 15.8169 0.258727 15.8825 0.385749C15.9788 0.582852 15.9788 0.600373 15.9788 4.24021L16.9195 4.21831V1.54647L16.2632 1.50267V0.0572441L16.7226 0.0441039C16.9851 0.0353437 17.2651 0.052864 17.3789 0.0835245C17.4883 0.114185 17.6458 0.171126 17.7289 0.210546C17.812 0.254347 17.9608 0.372609 18.0614 0.477731C18.1577 0.582852 18.2758 0.766815 18.324 0.889457C18.4027 1.09532 18.4071 1.2311 18.4071 2.90429C18.4071 4.62566 18.4027 4.70888 18.3152 4.89722C18.2671 5.00672 18.1489 5.17754 18.0527 5.28267C17.9608 5.38779 17.7727 5.52357 17.6414 5.58927C17.4183 5.69877 17.3526 5.70315 15.9788 5.72943L15.9569 9.9124L14.4912 9.9343V0.0353437ZM22.6512 0.0572441V1.50267H19.4134L19.4047 0.823756C19.4003 0.45145 19.4047 0.122945 19.4134 0.0922846C19.4309 0.0441039 19.7503 0.0353437 22.6512 0.0572441ZM23.7231 0.0353437L25.1889 0.0572441L25.3026 0.517151C25.3639 0.771195 25.4777 1.24424 25.552 1.56837C25.6264 1.89249 25.7621 2.46628 25.8496 2.83859C25.9371 3.21089 26.064 3.75402 26.134 4.04311C26.1996 4.33219 26.309 4.79648 26.3746 5.07242C26.4359 5.34837 26.5146 5.60241 26.5409 5.63307C26.5802 5.67687 26.6021 5.67687 26.6459 5.63307C26.6896 5.58927 26.7028 5.01548 26.6984 0.0353437H27.4203C28.1335 0.0353437 28.1422 0.0353437 28.1641 0.131705C28.1773 0.188646 28.1816 2.40934 28.1641 9.9124H26.6809L26.6459 9.781C26.6284 9.70654 26.5409 9.34299 26.4577 8.97068C26.3702 8.59838 26.2346 8.00707 26.1515 7.65666C26.0727 7.30626 25.9371 6.72371 25.8539 6.36454C25.7708 6.001 25.6352 5.43597 25.4077 4.50301L23.745 4.48111L23.7231 0.0353437ZM28.9298 0.0353437H33.0864V1.52457H28.9298V0.0353437ZM37.2211 0.0572441V1.50267H33.7646L33.7558 0.828136C33.7514 0.45583 33.7558 0.122945 33.7646 0.0922846C33.7821 0.0484839 34.119 0.0397238 37.2211 0.0572441ZM39.6057 0.0353437L39.645 0.201786C39.6669 0.293768 39.7063 0.45583 39.7325 0.560952C39.7544 0.670454 39.8463 1.06466 39.9338 1.43697C40.0213 1.81365 40.157 2.39182 40.2357 2.72909C40.3188 3.06635 40.4457 3.61824 40.5245 3.95551C40.6032 4.29277 40.7257 4.81838 40.8001 5.11622C40.9008 5.51481 40.9576 5.66373 41.0058 5.66373C41.0627 5.66373 41.0714 5.31333 41.1152 0.0572441H42.559L42.5809 9.9343H41.0933L41.0539 9.77224C41.0277 9.68025 40.997 9.54009 40.9795 9.45249C40.9664 9.36927 40.8833 9.01448 40.8001 8.66408C40.7214 8.31805 40.5945 7.78369 40.5245 7.48146C40.4545 7.18362 40.3276 6.63173 40.2401 6.25504C40.1526 5.88274 40.0257 5.33961 39.8376 4.52491L38.1399 4.48111L38.1268 2.31298C38.1224 1.1216 38.1268 0.122945 38.1355 0.0922846C38.153 0.052864 38.3456 0.0353437 39.6057 0.0353437ZM43.7579 0.0353437H47V1.52457L43.7841 1.50267L43.7579 0.0353437ZM5.58295 1.79613C5.96798 1.80927 6.09486 1.83117 6.213 1.90125C6.29613 1.94943 6.39676 2.05456 6.44489 2.13778C6.5149 2.27794 6.52365 2.40058 6.52365 4.24021H7.39872C8.26941 4.24021 8.27379 4.24459 8.30004 4.34095C8.31316 4.39351 8.31754 4.7264 8.29566 5.70753L5.03603 5.72943L5.03165 3.78906C5.02728 2.65462 5.0404 1.83555 5.06228 1.81365C5.08416 1.79613 5.32042 1.78737 5.58295 1.79613ZM19.9341 1.79613C20.2622 1.80927 20.4591 1.83555 20.5466 1.88373C20.621 1.92315 20.7173 2.01075 20.7654 2.08084C20.8485 2.19472 20.8529 2.2867 20.8748 4.24021L22.6468 4.26211V5.70753L19.3872 5.72943L19.3828 3.78906C19.3784 2.65462 19.3915 1.83555 19.4134 1.81365C19.4353 1.79613 19.6716 1.78737 19.9341 1.79613ZM30.8943 1.80051C31.2662 1.80927 31.3844 1.83117 31.5069 1.90125C31.59 1.94943 31.695 2.05894 31.7388 2.14216C31.8088 2.28232 31.8132 2.56264 31.8132 9.9343H30.3255L30.3168 5.88712C30.308 2.38744 30.3168 1.83555 30.3737 1.81803C30.4087 1.80489 30.6406 1.79613 30.8943 1.80051ZM35.7204 1.79175C35.9304 1.79175 36.1316 1.80051 36.1666 1.80927C36.2235 1.83117 36.2323 2.1991 36.2323 4.75706C36.2323 7.45518 36.2279 7.6917 36.1579 7.83187C36.1141 7.91509 36.0091 8.02459 35.926 8.07277C35.8122 8.13847 35.6678 8.16475 35.3791 8.17789C35.1647 8.18665 34.9328 8.18227 34.7446 8.13847V5.26077C34.7446 3.59196 34.7621 2.31736 34.7884 2.22538C34.8103 2.14216 34.8628 2.04142 34.9065 1.99761C34.9503 1.95381 35.064 1.89249 35.1603 1.85745C35.2609 1.81803 35.4972 1.79175 35.7204 1.79175ZM44.3048 1.79613C44.6504 1.80927 44.8298 1.83555 44.9305 1.88811C45.018 1.93629 45.1055 2.03704 45.158 2.15092C45.2367 2.31736 45.2455 2.43562 45.2455 4.24021H46.9956V5.72943H43.7579L43.7535 3.78906C43.7491 2.65462 43.7622 1.83555 43.7841 1.81365C43.806 1.79613 44.0423 1.78737 44.3048 1.79613ZM24.2657 4.77458C24.6113 4.78772 24.7907 4.814 24.8914 4.86656C24.9701 4.91036 25.0664 5.00672 25.1101 5.08556C25.1801 5.21697 25.1845 5.42283 25.1845 9.9124L23.7188 9.9343L23.7144 7.38072C23.71 5.87836 23.7231 4.814 23.745 4.7921C23.7669 4.77458 24.0032 4.76582 24.2657 4.77458ZM38.6518 4.77458C38.9756 4.78334 39.1856 4.814 39.2731 4.85342C39.3431 4.89284 39.4482 4.9892 39.6057 5.22573L39.6013 9.9343L38.1355 9.9124L38.1268 7.39386C38.118 6.00976 38.1268 4.84904 38.1399 4.81838C38.1574 4.77458 38.2756 4.76582 38.6518 4.77458ZM5.58295 6.001C5.9286 6.01414 6.10799 6.04042 6.20862 6.09298C6.28738 6.13678 6.38801 6.24628 6.43614 6.34264C6.5149 6.50471 6.52365 6.60545 6.52365 8.44508H7.36809C8.00251 8.44508 8.22128 8.45822 8.26503 8.50202C8.30004 8.54144 8.31316 8.74292 8.29566 9.9124L5.03603 9.9343L5.03165 7.99393C5.02728 6.85949 5.0404 6.04042 5.06228 6.01852C5.08416 6.001 5.32042 5.99224 5.58295 6.001ZM11.9185 6.001C12.3122 6.01414 12.4916 6.04042 12.5966 6.09298C12.6754 6.13678 12.7673 6.22876 12.8023 6.29884C12.8373 6.3733 12.8854 6.51785 12.9117 6.61859C12.9335 6.71933 13.021 7.2099 13.1085 7.70046C13.1917 8.19541 13.3098 8.87432 13.3711 9.21159C13.4323 9.54885 13.4805 9.85108 13.4805 9.88174C13.4805 9.92554 13.3054 9.9343 12.7366 9.9343C12.3297 9.9343 11.9928 9.92554 11.9928 9.9124C11.9928 9.90364 11.9535 9.64959 11.9053 9.35613C11.8528 9.06266 11.7872 8.6816 11.7522 8.51078C11.7216 8.34433 11.6122 7.73112 11.5115 7.15296C11.4109 6.57479 11.3453 6.07546 11.3584 6.0448C11.3803 5.99662 11.5028 5.98786 11.9185 6.001ZM19.9341 6.001C20.2622 6.01414 20.4591 6.04042 20.5466 6.0886C20.621 6.12802 20.7173 6.21562 20.7654 6.2857C20.8485 6.39958 20.8529 6.49157 20.8748 8.44508L21.7192 8.44946C22.183 8.44946 22.5856 8.4626 22.6162 8.48012C22.6556 8.5064 22.6687 8.69036 22.6468 9.9124L19.3872 9.9343L19.3828 7.99393C19.3784 6.85949 19.3915 6.04042 19.4134 6.01852C19.4353 6.001 19.6716 5.99224 19.9341 6.001ZM44.3135 6.001C44.7204 6.01414 44.8211 6.03166 44.9217 6.10174C44.9873 6.14992 45.0792 6.24628 45.1317 6.31636C45.2192 6.43024 45.2236 6.49594 45.2455 8.44508L46.9738 8.46698L46.9956 9.9343H43.7579L43.7535 7.99393C43.7491 6.85949 43.7622 6.04042 43.7841 6.01852C43.806 6.001 44.0423 5.99224 44.3135 6.001ZM0 6.82445L0.538168 6.82883C0.879445 6.82883 1.11571 6.84635 1.18134 6.88139C1.23822 6.91205 1.33011 6.99089 1.37824 7.06097C1.45699 7.1661 1.47449 7.26246 1.51387 8.42317L1.75452 8.43632C1.88578 8.44508 2.03891 8.45822 2.09579 8.47136C2.18767 8.48888 2.19205 8.5064 2.19205 8.99258C2.19205 9.39555 2.17455 9.53133 2.11329 9.66273C2.06079 9.76786 1.96891 9.85546 1.85952 9.90802C1.72389 9.97372 1.62325 9.98686 1.36073 9.97372C1.13322 9.9562 0.958202 9.91678 0.791938 9.83794C0.647552 9.77224 0.476913 9.64083 0.363154 9.51381C0.262521 9.39555 0.144387 9.21159 0.105008 9.10209C0.0481289 8.94878 0.0306274 8.69474 0.0175014 7.86691L0 6.82445ZM37.2167 8.46698L37.2386 9.9343H33.7383L33.7296 9.22035C33.7296 8.82614 33.7427 8.48888 33.7602 8.47574C33.7821 8.45822 34.5696 8.44946 37.2167 8.46698Z" fill="#363636"/>
</svg>
