<svg width="14" height="14" viewBox="0 0 14 14" fill="none" xmlns="http://www.w3.org/2000/svg">
<g clip-path="url(#clip0_2784_77243)">
<path d="M3.24434 1.21027C3.37816 1.07645 3.63517 1.0123 3.74695 0.996948C3.62364 0.966572 3.37907 0.907852 3.24256 0.771346C3.10605 0.634841 3.01193 0.354856 3.00001 0.250008C2.96783 0.363544 2.91252 0.600104 2.77335 0.739274C2.63418 0.878444 2.36664 0.988086 2.24998 1.00004C2.37093 1.01393 2.61136 1.05902 2.78312 1.23079C2.95488 1.40255 2.98878 1.65483 2.99687 1.74693C3.0152 1.63218 3.11053 1.34409 3.24434 1.21027Z" fill="#0000FF" stroke="#0000FF" stroke-width="0.0130351"/>
<path d="M5.24434 1.21027C5.37816 1.07645 5.63517 1.0123 5.74695 0.996948C5.62364 0.966572 5.37907 0.907852 5.24256 0.771346C5.10605 0.634841 5.01193 0.354856 5.00001 0.250008C4.96783 0.363544 4.91252 0.600104 4.77335 0.739274C4.63418 0.878444 4.36664 0.988086 4.24998 1.00004C4.37093 1.01393 4.61136 1.05902 4.78312 1.23079C4.95488 1.40255 4.98878 1.65483 4.99687 1.74693C5.0152 1.63218 5.11053 1.34409 5.24434 1.21027Z" fill="#0000FF" stroke="#0000FF" stroke-width="0.0130351"/>
<path d="M9.32661 1.28118C9.50522 1.10257 9.84825 1.01695 9.99744 0.99646C9.83286 0.955916 9.50642 0.877544 9.32423 0.69535C9.14204 0.513155 9.01641 0.139461 9.0005 -0.000480481C8.95755 0.151057 8.88373 0.466792 8.69798 0.652542C8.51223 0.838293 8.15515 0.984631 7.99944 1.00058C8.16087 1.01913 8.48177 1.07931 8.71102 1.30856C8.94027 1.53781 8.98551 1.87453 8.99631 1.99746C9.02077 1.8443 9.14801 1.45978 9.32661 1.28118Z" fill="#0000FF" stroke="#0000FF" stroke-width="0.0173979"/>
<path d="M11.2443 1.21027C11.3782 1.07645 11.6352 1.0123 11.7469 0.996948C11.6236 0.966572 11.3791 0.907852 11.2426 0.771346C11.1061 0.634841 11.0119 0.354856 11 0.250008C10.9678 0.363544 10.9125 0.600104 10.7734 0.739274C10.6342 0.878444 10.3666 0.988086 10.25 1.00004C10.3709 1.01393 10.6114 1.05902 10.7831 1.23079C10.9549 1.40255 10.9888 1.65483 10.9969 1.74693C11.0152 1.63218 11.1105 1.34409 11.2443 1.21027Z" fill="#0000FF" stroke="#0000FF" stroke-width="0.0130351"/>
<path d="M1.24434 3.21027C1.37816 3.07645 1.63517 3.0123 1.74695 2.99695C1.62364 2.96657 1.37907 2.90785 1.24256 2.77135C1.10605 2.63484 1.01193 2.35486 1.00001 2.25001C0.967832 2.36354 0.912521 2.6001 0.773351 2.73927C0.634181 2.87844 0.366644 2.98809 0.24998 3.00004C0.370932 3.01393 0.611358 3.05902 0.78312 3.23079C0.954883 3.40255 0.988779 3.65483 0.996872 3.74693C1.0152 3.63218 1.11053 3.34409 1.24434 3.21027Z" fill="#0000FF" stroke="#0000FF" stroke-width="0.0130351"/>
<path d="M3.24434 3.21027C3.37816 3.07645 3.63517 3.0123 3.74695 2.99695C3.62364 2.96657 3.37907 2.90785 3.24256 2.77135C3.10605 2.63484 3.01193 2.35486 3.00001 2.25001C2.96783 2.36354 2.91252 2.6001 2.77335 2.73927C2.63418 2.87844 2.36664 2.98809 2.24998 3.00004C2.37093 3.01393 2.61136 3.05902 2.78312 3.23079C2.95488 3.40255 2.98878 3.65483 2.99687 3.74693C3.0152 3.63218 3.11053 3.34409 3.24434 3.21027Z" fill="#0000FF" stroke="#0000FF" stroke-width="0.0130351"/>
<path d="M5.24434 3.21027C5.37816 3.07645 5.63517 3.0123 5.74695 2.99695C5.62364 2.96657 5.37907 2.90785 5.24256 2.77135C5.10605 2.63484 5.01193 2.35486 5.00001 2.25001C4.96783 2.36354 4.91252 2.6001 4.77335 2.73927C4.63418 2.87844 4.36664 2.98809 4.24998 3.00004C4.37093 3.01393 4.61136 3.05902 4.78312 3.23079C4.95488 3.40255 4.98878 3.65483 4.99687 3.74693C5.0152 3.63218 5.11053 3.34409 5.24434 3.21027Z" fill="#0000FF" stroke="#0000FF" stroke-width="0.0130351"/>
<path d="M7.32661 3.28118C7.50522 3.10257 7.84825 3.01695 7.99744 2.99646C7.83286 2.95592 7.50642 2.87754 7.32423 2.69535C7.14204 2.51316 7.01641 2.13946 7.0005 1.99952C6.95755 2.15106 6.88373 2.46679 6.69798 2.65254C6.51223 2.83829 6.15515 2.98463 5.99944 3.00058C6.16087 3.01913 6.48177 3.07931 6.71102 3.30856C6.94027 3.53781 6.98551 3.87453 6.99631 3.99746C7.02077 3.8443 7.14801 3.45978 7.32661 3.28118Z" fill="#0000FF" stroke="#0000FF" stroke-width="0.0173979"/>
<path d="M9.40888 3.35196C9.63227 3.12857 10.0613 3.02147 10.2479 2.99585C10.0421 2.94514 9.63378 2.84711 9.4059 2.61923C9.17802 2.39135 9.02088 1.92394 9.00098 1.74891C8.94727 1.93845 8.85493 2.33336 8.6226 2.56569C8.39027 2.79802 7.94365 2.98105 7.74889 3.001C7.95081 3.0242 8.35217 3.09948 8.63891 3.38622C8.92565 3.67296 8.98224 4.09411 8.99575 4.24786C9.02634 4.0563 9.18549 3.57536 9.40888 3.35196Z" fill="#0000FF" stroke="#0000FF" stroke-width="0.0217608"/>
<path d="M11.3266 3.28118C11.5052 3.10257 11.8482 3.01695 11.9974 2.99646C11.8329 2.95592 11.5064 2.87754 11.3242 2.69535C11.142 2.51316 11.0164 2.13946 11.0005 1.99952C10.9576 2.15106 10.8837 2.46679 10.698 2.65254C10.5122 2.83829 10.1551 2.98463 9.99944 3.00058C10.1609 3.01913 10.4818 3.07931 10.711 3.30856C10.9403 3.53781 10.9855 3.87453 10.9963 3.99746C11.0208 3.8443 11.148 3.45978 11.3266 3.28118Z" fill="#0000FF" stroke="#0000FF" stroke-width="0.0173979"/>
<path d="M13.2443 3.21027C13.3782 3.07645 13.6352 3.0123 13.7469 2.99695C13.6236 2.96657 13.3791 2.90785 13.2426 2.77135C13.1061 2.63484 13.0119 2.35486 13 2.25001C12.9678 2.36354 12.9125 2.6001 12.7734 2.73927C12.6342 2.87844 12.3666 2.98809 12.25 3.00004C12.3709 3.01393 12.6114 3.05902 12.7831 3.23079C12.9549 3.40255 12.9888 3.65483 12.9969 3.74693C13.0152 3.63218 13.1105 3.34409 13.2443 3.21027Z" fill="#0000FF" stroke="#0000FF" stroke-width="0.0130351"/>
<path d="M1.24434 5.21027C1.37816 5.07645 1.63517 5.0123 1.74695 4.99695C1.62364 4.96657 1.37907 4.90785 1.24256 4.77135C1.10605 4.63484 1.01193 4.35486 1.00001 4.25001C0.967832 4.36354 0.912521 4.6001 0.773351 4.73927C0.634181 4.87844 0.366644 4.98809 0.24998 5.00004C0.370932 5.01393 0.611358 5.05902 0.78312 5.23079C0.954883 5.40255 0.988779 5.65483 0.996872 5.74693C1.0152 5.63218 1.11053 5.34409 1.24434 5.21027Z" fill="#0000FF" stroke="#0000FF" stroke-width="0.0130351"/>
<path d="M3.24434 5.21027C3.37816 5.07645 3.63517 5.0123 3.74695 4.99695C3.62364 4.96657 3.37907 4.90785 3.24256 4.77135C3.10605 4.63484 3.01193 4.35486 3.00001 4.25001C2.96783 4.36354 2.91252 4.6001 2.77335 4.73927C2.63418 4.87844 2.36664 4.98809 2.24998 5.00004C2.37093 5.01393 2.61136 5.05902 2.78312 5.23079C2.95488 5.40255 2.98878 5.65483 2.99687 5.74693C3.0152 5.63218 3.11053 5.34409 3.24434 5.21027Z" fill="#0000FF" stroke="#0000FF" stroke-width="0.0130351"/>
<path d="M5.32661 5.28118C5.50522 5.10257 5.84825 5.01695 5.99744 4.99646C5.83286 4.95592 5.50642 4.87754 5.32423 4.69535C5.14204 4.51316 5.01641 4.13946 5.0005 3.99952C4.95755 4.15106 4.88373 4.46679 4.69798 4.65254C4.51223 4.83829 4.15515 4.98463 3.99944 5.00058C4.16087 5.01913 4.48177 5.07931 4.71102 5.30856C4.94027 5.53781 4.98551 5.87453 4.99631 5.99746C5.02077 5.8443 5.14801 5.45978 5.32661 5.28118Z" fill="#0000FF" stroke="#0000FF" stroke-width="0.0173979"/>
<path d="M7.40888 5.35196C7.63227 5.12857 8.06132 5.02147 8.24792 4.99585C8.04208 4.94514 7.63378 4.84711 7.4059 4.61923C7.17802 4.39135 7.02088 3.92394 7.00098 3.74891C6.94727 3.93845 6.85493 4.33336 6.6226 4.56569C6.39027 4.79802 5.94365 4.98105 5.74889 5.001C5.95081 5.0242 6.35217 5.09948 6.63891 5.38622C6.92565 5.67296 6.98224 6.09411 6.99575 6.24786C7.02634 6.0563 7.18549 5.57536 7.40888 5.35196Z" fill="#0000FF" stroke="#0000FF" stroke-width="0.0217608"/>
<path d="M9.40888 5.35196C9.63227 5.12857 10.0613 5.02147 10.2479 4.99585C10.0421 4.94514 9.63378 4.84711 9.4059 4.61923C9.17802 4.39135 9.02088 3.92394 9.00098 3.74891C8.94727 3.93845 8.85493 4.33336 8.6226 4.56569C8.39027 4.79802 7.94365 4.98105 7.74889 5.001C7.95081 5.0242 8.35217 5.09948 8.63891 5.38622C8.92565 5.67296 8.98224 6.09411 8.99575 6.24786C9.02634 6.0563 9.18549 5.57536 9.40888 5.35196Z" fill="#0000FF" stroke="#0000FF" stroke-width="0.0217608"/>
<path d="M11.4089 5.35196C11.6323 5.12857 12.0613 5.02147 12.2479 4.99585C12.0421 4.94514 11.6338 4.84711 11.4059 4.61923C11.178 4.39135 11.0209 3.92394 11.001 3.74891C10.9473 3.93845 10.8549 4.33336 10.6226 4.56569C10.3903 4.79802 9.94365 4.98105 9.74889 5.001C9.95081 5.0242 10.3522 5.09948 10.6389 5.38622C10.9257 5.67296 10.9822 6.09411 10.9958 6.24786C11.0263 6.0563 11.1855 5.57536 11.4089 5.35196Z" fill="#0000FF" stroke="#0000FF" stroke-width="0.0217608"/>
<path d="M13.3266 5.28118C13.5052 5.10257 13.8482 5.01695 13.9974 4.99646C13.8329 4.95592 13.5064 4.87754 13.3242 4.69535C13.142 4.51316 13.0164 4.13946 13.0005 3.99952C12.9576 4.15106 12.8837 4.46679 12.698 4.65254C12.5122 4.83829 12.1551 4.98463 11.9994 5.00058C12.1609 5.01913 12.4818 5.07931 12.711 5.30856C12.9403 5.53781 12.9855 5.87453 12.9963 5.99746C13.0208 5.8443 13.148 5.45978 13.3266 5.28118Z" fill="#0000FF" stroke="#0000FF" stroke-width="0.0173979"/>
<path d="M1.24434 7.21027C1.37816 7.07645 1.63517 7.0123 1.74695 6.99695C1.62364 6.96657 1.37907 6.90785 1.24256 6.77135C1.10605 6.63484 1.01193 6.35486 1.00001 6.25001C0.967832 6.36354 0.912521 6.6001 0.773351 6.73927C0.634181 6.87844 0.366644 6.98809 0.24998 7.00004C0.370932 7.01393 0.611358 7.05902 0.78312 7.23079C0.954883 7.40255 0.988779 7.65483 0.996872 7.74693C1.0152 7.63218 1.11053 7.34409 1.24434 7.21027Z" fill="#0000FF" stroke="#0000FF" stroke-width="0.0130351"/>
<path d="M3.24434 7.21027C3.37816 7.07645 3.63517 7.0123 3.74695 6.99695C3.62364 6.96657 3.37907 6.90785 3.24256 6.77135C3.10605 6.63484 3.01193 6.35486 3.00001 6.25001C2.96783 6.36354 2.91252 6.6001 2.77335 6.73927C2.63418 6.87844 2.36664 6.98809 2.24998 7.00004C2.37093 7.01393 2.61136 7.05902 2.78312 7.23079C2.95488 7.40255 2.98878 7.65483 2.99687 7.74693C3.0152 7.63218 3.11053 7.34409 3.24434 7.21027Z" fill="#0000FF" stroke="#0000FF" stroke-width="0.0130351"/>
<path d="M5.24434 7.21027C5.37816 7.07645 5.63517 7.0123 5.74695 6.99695C5.62364 6.96657 5.37907 6.90785 5.24256 6.77135C5.10605 6.63484 5.01193 6.35486 5.00001 6.25001C4.96783 6.36354 4.91252 6.6001 4.77335 6.73927C4.63418 6.87844 4.36664 6.98809 4.24998 7.00004C4.37093 7.01393 4.61136 7.05902 4.78312 7.23079C4.95488 7.40255 4.98878 7.65483 4.99687 7.74693C5.0152 7.63218 5.11053 7.34409 5.24434 7.21027Z" fill="#0000FF" stroke="#0000FF" stroke-width="0.0130351"/>
<path d="M7.32661 7.28118C7.50522 7.10257 7.84825 7.01695 7.99744 6.99646C7.83286 6.95592 7.50642 6.87754 7.32423 6.69535C7.14204 6.51316 7.01641 6.13946 7.0005 5.99952C6.95755 6.15106 6.88373 6.46679 6.69798 6.65254C6.51223 6.83829 6.15515 6.98463 5.99944 7.00058C6.16087 7.01913 6.48177 7.07931 6.71102 7.30856C6.94027 7.53781 6.98551 7.87453 6.99631 7.99746C7.02077 7.8443 7.14801 7.45978 7.32661 7.28118Z" fill="#0000FF" stroke="#0000FF" stroke-width="0.0173979"/>
<path d="M9.40888 7.35196C9.63227 7.12857 10.0613 7.02147 10.2479 6.99585C10.0421 6.94514 9.63378 6.84711 9.4059 6.61923C9.17802 6.39135 9.02088 5.92394 9.00098 5.74891C8.94727 5.93845 8.85493 6.33336 8.6226 6.56569C8.39027 6.79802 7.94365 6.98105 7.74889 7.001C7.95081 7.0242 8.35217 7.09948 8.63891 7.38622C8.92565 7.67296 8.98224 8.09411 8.99575 8.24786C9.02634 8.0563 9.18549 7.57536 9.40888 7.35196Z" fill="#0000FF" stroke="#0000FF" stroke-width="0.0217608"/>
<path d="M11.3266 7.28118C11.5052 7.10257 11.8482 7.01695 11.9974 6.99646C11.8329 6.95592 11.5064 6.87754 11.3242 6.69535C11.142 6.51316 11.0164 6.13946 11.0005 5.99952C10.9576 6.15106 10.8837 6.46679 10.698 6.65254C10.5122 6.83829 10.1551 6.98463 9.99944 7.00058C10.1609 7.01913 10.4818 7.07931 10.711 7.30856C10.9403 7.53781 10.9855 7.87453 10.9963 7.99746C11.0208 7.8443 11.148 7.45978 11.3266 7.28118Z" fill="#0000FF" stroke="#0000FF" stroke-width="0.0173979"/>
<path d="M13.2443 7.21027C13.3782 7.07645 13.6352 7.0123 13.7469 6.99695C13.6236 6.96657 13.3791 6.90785 13.2426 6.77135C13.1061 6.63484 13.0119 6.35486 13 6.25001C12.9678 6.36354 12.9125 6.6001 12.7734 6.73927C12.6342 6.87844 12.3666 6.98809 12.25 7.00004C12.3709 7.01393 12.6114 7.05902 12.7831 7.23079C12.9549 7.40255 12.9888 7.65483 12.9969 7.74693C13.0152 7.63218 13.1105 7.34409 13.2443 7.21027Z" fill="#0000FF" stroke="#0000FF" stroke-width="0.0130351"/>
<path d="M3.24434 9.21027C3.37816 9.07645 3.63517 9.0123 3.74695 8.99695C3.62364 8.96657 3.37907 8.90785 3.24256 8.77135C3.10605 8.63484 3.01193 8.35486 3.00001 8.25001C2.96783 8.36354 2.91252 8.6001 2.77335 8.73927C2.63418 8.87844 2.36664 8.98809 2.24998 9.00004C2.37093 9.01393 2.61136 9.05902 2.78312 9.23079C2.95488 9.40255 2.98878 9.65483 2.99687 9.74693C3.0152 9.63218 3.11053 9.34409 3.24434 9.21027Z" fill="#0000FF" stroke="#0000FF" stroke-width="0.0130351"/>
<path d="M5.24434 9.21027C5.37816 9.07645 5.63517 9.0123 5.74695 8.99695C5.62364 8.96657 5.37907 8.90785 5.24256 8.77135C5.10605 8.63484 5.01193 8.35486 5.00001 8.25001C4.96783 8.36354 4.91252 8.6001 4.77335 8.73927C4.63418 8.87844 4.36664 8.98809 4.24998 9.00004C4.37093 9.01393 4.61136 9.05902 4.78312 9.23079C4.95488 9.40255 4.98878 9.65483 4.99687 9.74693C5.0152 9.63218 5.11053 9.34409 5.24434 9.21027Z" fill="#0000FF" stroke="#0000FF" stroke-width="0.0130351"/>
<path d="M7.24434 9.21027C7.37816 9.07645 7.63517 9.0123 7.74695 8.99695C7.62364 8.96657 7.37907 8.90785 7.24256 8.77135C7.10605 8.63484 7.01193 8.35486 7.00001 8.25001C6.96783 8.36354 6.91252 8.6001 6.77335 8.73927C6.63418 8.87844 6.36664 8.98809 6.24998 9.00004C6.37093 9.01393 6.61136 9.05902 6.78312 9.23079C6.95488 9.40255 6.98878 9.65483 6.99687 9.74693C7.0152 9.63218 7.11053 9.34409 7.24434 9.21027Z" fill="#0000FF" stroke="#0000FF" stroke-width="0.0130351"/>
<path d="M9.32661 9.28118C9.50522 9.10257 9.84825 9.01695 9.99744 8.99646C9.83286 8.95592 9.50642 8.87754 9.32423 8.69535C9.14204 8.51316 9.01641 8.13946 9.0005 7.99952C8.95755 8.15106 8.88373 8.46679 8.69798 8.65254C8.51223 8.83829 8.15515 8.98463 7.99944 9.00058C8.16087 9.01913 8.48177 9.07931 8.71102 9.30856C8.94027 9.53781 8.98551 9.87453 8.99631 9.99746C9.02077 9.8443 9.14801 9.45978 9.32661 9.28118Z" fill="#0000FF" stroke="#0000FF" stroke-width="0.0173979"/>
<path d="M11.2443 9.21027C11.3782 9.07645 11.6352 9.0123 11.7469 8.99695C11.6236 8.96657 11.3791 8.90785 11.2426 8.77135C11.1061 8.63484 11.0119 8.35486 11 8.25001C10.9678 8.36354 10.9125 8.6001 10.7734 8.73927C10.6342 8.87844 10.3666 8.98809 10.25 9.00004C10.3709 9.01393 10.6114 9.05902 10.7831 9.23079C10.9549 9.40255 10.9888 9.65483 10.9969 9.74693C11.0152 9.63218 11.1105 9.34409 11.2443 9.21027Z" fill="#0000FF" stroke="#0000FF" stroke-width="0.0130351"/>
<path d="M5.24434 11.2103C5.37816 11.0765 5.63517 11.0123 5.74695 10.9969C5.62364 10.9666 5.37907 10.9079 5.24256 10.7713C5.10605 10.6348 5.01193 10.3549 5.00001 10.25C4.96783 10.3635 4.91252 10.6001 4.77335 10.7393C4.63418 10.8784 4.36664 10.9881 4.24998 11C4.37093 11.0139 4.61136 11.059 4.78312 11.2308C4.95488 11.4025 4.98878 11.6548 4.99687 11.7469C5.0152 11.6322 5.11053 11.3441 5.24434 11.2103Z" fill="#0000FF" stroke="#0000FF" stroke-width="0.0130351"/>
<path d="M7.24434 11.2103C7.37816 11.0765 7.63517 11.0123 7.74695 10.9969C7.62364 10.9666 7.37907 10.9079 7.24256 10.7713C7.10605 10.6348 7.01193 10.3549 7.00001 10.25C6.96783 10.3635 6.91252 10.6001 6.77335 10.7393C6.63418 10.8784 6.36664 10.9881 6.24998 11C6.37093 11.0139 6.61136 11.059 6.78312 11.2308C6.95488 11.4025 6.98878 11.6548 6.99687 11.7469C7.0152 11.6322 7.11053 11.3441 7.24434 11.2103Z" fill="#0000FF" stroke="#0000FF" stroke-width="0.0130351"/>
<path d="M9.32661 11.2812C9.50522 11.1026 9.84825 11.0169 9.99744 10.9965C9.83286 10.9559 9.50642 10.8775 9.32423 10.6953C9.14204 10.5132 9.01641 10.1395 9.0005 9.99952C8.95755 10.1511 8.88373 10.4668 8.69798 10.6525C8.51223 10.8383 8.15515 10.9846 7.99944 11.0006C8.16087 11.0191 8.48177 11.0793 8.71102 11.3086C8.94027 11.5378 8.98551 11.8745 8.99631 11.9975C9.02077 11.8443 9.14801 11.4598 9.32661 11.2812Z" fill="#0000FF" stroke="#0000FF" stroke-width="0.0173979"/>
<path d="M7.24434 13.2103C7.37816 13.0765 7.63517 13.0123 7.74695 12.9969C7.62364 12.9666 7.37907 12.9079 7.24256 12.7713C7.10605 12.6348 7.01193 12.3549 7.00001 12.25C6.96783 12.3635 6.91252 12.6001 6.77335 12.7393C6.63418 12.8784 6.36664 12.9881 6.24998 13C6.37093 13.0139 6.61136 13.059 6.78312 13.2308C6.95488 13.4025 6.98878 13.6548 6.99687 13.7469C7.0152 13.6322 7.11053 13.3441 7.24434 13.2103Z" fill="#0000FF" stroke="#0000FF" stroke-width="0.0130351"/>
</g>
<defs>
<clipPath id="clip0_2784_77243">
<rect width="14" height="14" fill="white"/>
</clipPath>
</defs>
</svg>
