<svg width="38" height="11" viewBox="0 0 38 11" fill="none" xmlns="http://www.w3.org/2000/svg">
<path d="M0.497511 0.36849L3.58435 0.475666L5.4872 1.94041L15.0437 1.97614L15.0014 0.332764L21.4288 0.36849L21.3865 1.90469L23.374 1.97614L23.4163 3.19081L25.1077 1.97614L29.1248 1.94041V0.43994L32.5499 0.36849L32.5922 1.90469L35.0025 1.94041L36.863 3.36944L36.9053 8.44247L2.14665 8.51392L0.328369 6.90627L0.497511 0.36849Z" fill="white"/>
<path d="M3.51432 9.62369L1.92694 8.81956L0.963468 8.00649L0 7.19342V3.59671V0H2.02436H4.04871L5.00848 0.810415L5.96825 1.62083H10.3093C14.5837 1.62083 14.6506 1.6204 14.6679 1.59309C14.6794 1.57493 14.6855 1.29476 14.6855 0.782671V0H18.3015H21.9175L21.9219 0.806829L21.9263 1.61366L22.8771 1.62083L23.8278 1.628L23.8323 2.05472C23.8348 2.28942 23.8422 2.48145 23.8489 2.48145C23.8556 2.48145 24.0907 2.28781 24.3713 2.05114L24.8817 1.62083H25.9503H27.0188L27.9786 0.810415L28.9384 0H30.9543H32.9701V0.782671C32.9701 1.29476 32.9762 1.57493 32.9877 1.59309C33.0048 1.6201 33.0358 1.62083 34.1634 1.62083H35.3216L36.2765 2.42771L37.2314 3.23458V5.93197V8.62936L35.6398 9.52886L34.0482 10.4284L32.9836 10.4281L31.9189 10.4278L31.914 9.99867C31.9113 9.76265 31.9036 9.56497 31.897 9.55937C31.8903 9.55378 31.5572 9.74689 31.1566 9.98851L30.4282 10.4278H29.4666H28.5051V9.9975C28.5051 9.66168 28.5004 9.56719 28.4837 9.56719C28.472 9.56719 28.2333 9.76083 27.9533 9.9975L27.4442 10.4278H25.7377H24.0313L23.5141 9.99064C23.2296 9.7502 22.9909 9.5585 22.9836 9.56463C22.9764 9.57077 22.9285 9.75297 22.8773 9.96953C22.8262 10.1861 22.7802 10.3778 22.7752 10.3955L22.7661 10.4278H21.2765H19.787L19.2778 9.9975C18.9978 9.76083 18.7591 9.56719 18.7474 9.56719C18.7308 9.56719 18.7261 9.66168 18.7261 9.9975V10.4278H17.2321C16.4104 10.4278 15.7381 10.4259 15.7381 10.4235C15.7381 10.401 15.5323 9.56071 15.5253 9.55482C15.5202 9.5505 15.2814 9.74515 14.9945 9.98738L14.473 10.4278H11.7017H8.93036L8.42079 10.2557C8.14053 10.161 7.90364 10.0836 7.89437 10.0836C7.88415 10.0836 7.87752 10.1513 7.87752 10.2557V10.4278L6.48961 10.4278L5.10171 10.4278L3.51432 9.62369ZM5.10171 7.1001V6.11756L4.15098 6.11039L3.20024 6.10321V5.21391V4.3246L4.15098 4.31743L5.10171 4.31026V3.32772V2.34518L4.15098 2.33801L3.20024 2.33084L3.19175 1.5276L3.18326 0.724353H2.02031H0.857359L0.853075 3.77913L0.848792 6.83391L1.59143 7.46194L2.33407 8.08997L3.71789 8.0863L5.10171 8.08263V7.1001ZM13.943 7.46185L14.6856 6.83389L14.6813 4.58954L14.677 2.34518L13.5098 2.3415L12.3427 2.33781L12.3384 4.22051L12.3341 6.10321H11.9181H11.5022L11.4937 4.2242L11.4852 2.34518L10.3181 2.3415L9.15095 2.33781L9.14664 4.22051L9.14233 6.10321H8.72639H8.31044L8.30195 4.2242L8.29346 2.34518L7.12627 2.3415L5.95907 2.33781V5.21381V8.08981H9.57976H13.2005L13.943 7.46185ZM17.8687 5.21391V2.34518L16.7015 2.3415L15.5343 2.33781V5.21391V8.09L16.7015 8.08632L17.8687 8.08263V5.21391ZM22.9704 7.10021V6.11063L22.0239 6.10692L21.0774 6.10321V5.21391V4.3246L22.0239 4.3209L22.9704 4.31719V3.32772V2.33825L22.0239 2.33455L21.0774 2.33084L21.069 1.5276L21.0605 0.724353H19.8975H18.7346L18.7303 3.77945L18.726 6.83455L19.4687 7.46218L20.2115 8.08981H21.5909H22.9704V7.10021ZM28.9295 7.10007V6.11036H27.5561C26.3195 6.11036 26.1818 6.1081 26.1725 6.08767C26.159 6.05803 26.159 4.36974 26.1725 4.3401C26.1818 4.31967 26.3195 4.31741 27.5561 4.31741H28.9295V3.3277V2.33799H27.1174H25.3053L24.5708 2.95853L23.8363 3.57908V5.21388V6.84869L24.5708 7.46924L25.3053 8.08978H27.1174H28.9295V7.10007ZM32.1254 6.20718L32.1297 4.32458H33.0805H34.0312L34.0397 6.2036L34.0482 8.08261H35.2111H36.3741L36.3784 5.83826L36.3827 3.59391L35.6401 2.96595L34.8976 2.33798H33.5285C32.4038 2.33798 32.156 2.33455 32.1404 2.31873C32.1272 2.30523 32.1202 2.06449 32.1172 1.5119L32.1128 0.724324H30.9498H29.7869L29.7825 4.38912C29.7801 6.40476 29.7818 8.06199 29.7862 8.07185C29.7926 8.08595 30.0426 8.08978 30.9577 8.08978H32.1211L32.1254 6.20718ZM17.8687 1.16898V0.724324H16.7058H15.5428L15.5383 1.15448C15.5358 1.39106 15.5375 1.59281 15.5421 1.60281C15.5486 1.6173 15.7859 1.62025 16.7095 1.61731L17.8687 1.61363V1.16898Z" fill="#242021"/>
</svg>
