<svg width="14" height="14" viewBox="0 0 14 14" fill="none" xmlns="http://www.w3.org/2000/svg">
<path d="M7.5 2C10.1302 2 12.4735 3.22128 13.999 5.12598C12.2126 4.02863 9.95567 3.37109 7.5 3.37109C5.04398 3.37111 2.78653 4.02834 1 5.12598C2.52554 3.22099 4.86962 2.00002 7.5 2Z" fill="#303030"/>
<path d="M7.5 11.8872C5.70079 11.8872 4.03619 11.3146 2.6748 10.3442C4.11919 10.9266 5.75968 11.2573 7.5 11.2573C9.24067 11.2573 10.8816 10.9268 12.3262 10.3442C10.9647 11.3149 9.29951 11.8872 7.5 11.8872Z" fill="#303030"/>
<path d="M6.61843 7.71001C6.12096 7.21254 5.16553 6.97405 4.75 6.91699C5.20839 6.80407 6.1176 6.58578 6.62506 6.07832C7.13253 5.57085 7.48244 4.53001 7.52675 4.14024C7.64637 4.56231 7.85199 5.44172 8.36935 5.95909C8.88672 6.47645 9.88129 6.88405 10.315 6.92847C9.86535 6.98013 8.97156 7.14776 8.33303 7.78629C7.69451 8.42481 7.5685 9.36266 7.53841 9.70504C7.47029 9.27845 7.1159 8.20748 6.61843 7.71001Z" fill="#303030"/>
</svg>
