<svg width="20" height="20" viewBox="0 0 20 20" fill="none" xmlns="http://www.w3.org/2000/svg">
<path d="M7.47007 11.5346C7.76279 11.5346 8.0294 11.6387 8.19652 11.8262C8.30698 11.95 8.38506 12.12 8.42867 12.331C8.62164 13.2638 8.06544 13.9843 7.52752 14.6812C7.13165 15.1938 6.72246 15.7239 6.61932 16.3321C6.47961 17.156 6.73082 17.9984 7.32723 18.7043C8.00224 19.5036 9.02639 20 9.99987 20C10.8833 20 11.8223 19.5715 12.5111 18.8536C13.147 18.1911 13.4794 17.39 13.4467 16.5982C13.4397 16.4282 13.4154 16.2579 13.3744 16.0921C13.2483 15.5837 12.8321 15.0797 12.3913 14.5462C11.7591 13.7811 11.1055 12.9896 11.305 12.1271C11.3559 11.9069 11.5081 11.7163 11.7335 11.5904C11.9393 11.4755 12.1928 11.4228 12.4294 11.4458C13.2491 11.5257 13.946 11.9808 14.62 12.4208C15.5937 13.0567 16.5137 13.6576 17.7624 13.1975C18.4152 12.957 18.9743 12.5245 19.3793 11.9469C19.7851 11.368 19.9997 10.6947 20 10.0001C20 9.06684 19.5054 8.05651 18.7092 7.36346C17.9857 6.73386 17.1365 6.44975 16.3178 6.56413C15.6535 6.65683 15.0245 7.11094 14.4161 7.55017C14.0152 7.83951 13.6369 8.11265 13.2459 8.2931C12.2623 8.74773 11.7852 8.39076 11.6256 8.21606C11.2658 7.82201 11.2888 7.1253 11.6841 6.44113C11.8667 6.12542 12.086 5.81546 12.298 5.51594C12.9861 4.54426 13.6361 3.62637 13.2514 2.39799C12.8093 0.986303 11.4724 0.000261134 10.0001 0C9.35253 0 8.65376 0.245727 8.03306 0.692267C7.42776 1.12784 6.95695 1.70547 6.70758 2.31913C6.22554 3.50599 6.85642 4.38836 7.52438 5.32244C8.0435 6.04839 8.58038 6.79889 8.54095 7.70215C8.52241 8.12675 8.38532 8.40826 8.13385 8.53856C8.02157 8.5968 7.89074 8.62291 7.74556 8.62291C6.95073 8.62291 5.72931 7.83827 4.79785 7.23992C4.79719 7.23949 4.79653 7.23906 4.79586 7.23864C4.33967 6.94538 3.94563 6.69234 3.77224 6.64926C2.98155 6.45236 2.14882 6.65422 1.42732 7.21801C0.56064 7.89539 0.000261127 8.98745 0 9.99961C0 10.624 0.238409 11.305 0.671619 11.9174C1.0876 12.5055 1.64066 12.9794 2.2282 13.252C3.40719 13.7986 4.32766 13.176 5.30219 12.5167C5.91349 12.103 6.54594 11.6753 7.25307 11.5534C7.32619 11.5408 7.39878 11.5346 7.47007 11.5346Z" fill="#1D1D1B"/>
<path fill-rule="evenodd" clip-rule="evenodd" d="M8.19652 11.8262C8.0294 11.6387 7.76279 11.5346 7.47007 11.5346C7.39878 11.5346 7.32619 11.5408 7.25307 11.5534C6.54594 11.6753 5.91349 12.103 5.30219 12.5167C4.32766 13.176 3.40719 13.7986 2.2282 13.252C1.64066 12.9794 1.0876 12.5055 0.671619 11.9174C0.238409 11.305 0 10.624 0 9.99961C0.000261127 8.98745 0.56064 7.89539 1.42732 7.21801C2.14882 6.65422 2.98155 6.45236 3.77224 6.64926C3.94563 6.69234 4.33967 6.94538 4.79586 7.23864L4.79785 7.23992C5.72931 7.83827 6.95073 8.62291 7.74556 8.62291C7.89074 8.62291 8.02157 8.5968 8.13385 8.53856C8.38532 8.40826 8.52241 8.12675 8.54095 7.70215C8.58037 6.79916 8.04336 6.04819 7.52438 5.32244C6.85642 4.38836 6.22554 3.50599 6.70758 2.31913C6.95695 1.70547 7.42776 1.12784 8.03306 0.692267C8.65376 0.245727 9.35253 0 10.0001 0C11.4724 0.000261134 12.8093 0.986303 13.2514 2.39799C13.6361 3.62637 12.9861 4.54426 12.298 5.51594C12.086 5.81546 11.8667 6.12542 11.6841 6.44113C11.2888 7.1253 11.2658 7.82201 11.6256 8.21606C11.7852 8.39076 12.2623 8.74773 13.2459 8.2931C13.6369 8.11265 14.0152 7.83951 14.4161 7.55017C15.0245 7.11094 15.6535 6.65683 16.3178 6.56413C17.1365 6.44975 17.9857 6.73386 18.7092 7.36346C19.5054 8.05651 20 9.06684 20 10.0001C19.9997 10.6947 19.7851 11.368 19.3793 11.9469C18.9743 12.5245 18.4152 12.957 17.7624 13.1975C16.5137 13.6576 15.5937 13.0567 14.62 12.4208C13.9462 11.981 13.2488 11.5257 12.4294 11.4458C12.1928 11.4228 11.9393 11.4755 11.7335 11.5904C11.5081 11.7163 11.3559 11.9069 11.305 12.1271C11.1055 12.9896 11.7591 13.7811 12.3913 14.5462C12.8321 15.0797 13.2483 15.5837 13.3744 16.0921C13.4154 16.2579 13.4397 16.4282 13.4467 16.5982C13.4794 17.39 13.147 18.1911 12.5111 18.8536C11.8223 19.5715 10.8833 20 9.99987 20C9.02639 20 8.00224 19.5036 7.32723 18.7043C6.73082 17.9984 6.47961 17.156 6.61932 16.3321C6.72246 15.7239 7.13165 15.1938 7.52752 14.6812C8.06544 13.9843 8.62164 13.2638 8.42867 12.331C8.38506 12.12 8.30698 11.95 8.19652 11.8262Z" fill="#1D1D1B"/>
</svg>
