<svg width="18" height="18" viewBox="0 0 18 18" fill="none" xmlns="http://www.w3.org/2000/svg">
<g clip-path="url(#clip0_2606_38287)">
<path d="M9.31376 1.55607C9.48581 1.38402 9.81625 1.30153 9.95996 1.2818C9.80143 1.24274 9.48697 1.16725 9.31146 0.99174C9.13595 0.816232 9.01493 0.456253 8.99961 0.321447C8.95824 0.467423 8.88713 0.771571 8.70819 0.950504C8.52926 1.12944 8.18528 1.2704 8.03529 1.28577C8.1908 1.30364 8.49992 1.36161 8.72075 1.58245C8.94159 1.80329 8.98517 2.12764 8.99558 2.24606C9.01914 2.09852 9.14171 1.72812 9.31376 1.55607Z" fill="#0000FF" stroke="#0000FF" stroke-width="0.0167594"/>
<path d="M9.31376 4.12748C9.48581 3.95543 9.81625 3.87295 9.95996 3.85321C9.80143 3.81415 9.48697 3.73866 9.31146 3.56315C9.13595 3.38764 9.01493 3.02766 8.99961 2.89286C8.95824 3.03883 8.88713 3.34298 8.70819 3.52191C8.52926 3.70085 8.18528 3.84182 8.03529 3.85718C8.1908 3.87505 8.49992 3.93302 8.72075 4.15386C8.94159 4.3747 8.98517 4.69905 8.99558 4.81747C9.01914 4.66993 9.14171 4.29953 9.31376 4.12748Z" fill="#0000FF" stroke="#0000FF" stroke-width="0.0167594"/>
<path d="M6.84845 6.79002C7.07809 6.56038 7.51912 6.45029 7.71094 6.42395C7.49934 6.37182 7.07964 6.27106 6.84539 6.03681C6.61114 5.80256 6.44961 5.32209 6.42916 5.14217C6.37394 5.337 6.27903 5.74295 6.0402 5.98177C5.80138 6.22059 5.34228 6.40874 5.14208 6.42925C5.34964 6.4531 5.76222 6.53047 6.05697 6.82523C6.35172 7.11998 6.40989 7.5529 6.42378 7.71094C6.45522 7.51403 6.61881 7.01965 6.84845 6.79002Z" fill="#0000FF" stroke="#0000FF" stroke-width="0.0223688"/>
<path d="M9.52572 6.8812C9.81294 6.59398 10.3646 6.45629 10.6045 6.42334C10.3398 6.35814 9.81488 6.23211 9.52189 5.93912C9.2289 5.64612 9.02687 5.04517 9.00128 4.82013C8.93222 5.06382 8.8135 5.57157 8.51479 5.87028C8.21608 6.16899 7.64185 6.40432 7.39145 6.42997C7.65105 6.45979 8.1671 6.55658 8.53576 6.92524C8.90443 7.29391 8.97718 7.83539 8.99455 8.03307C9.03388 7.78677 9.2385 7.16842 9.52572 6.8812Z" fill="#0000FF" stroke="#0000FF" stroke-width="0.0279781"/>
<path d="M11.992 6.79002C12.2216 6.56038 12.6627 6.45029 12.8545 6.42395C12.6429 6.37182 12.2232 6.27106 11.9889 6.03681C11.7547 5.80256 11.5932 5.32209 11.5727 5.14217C11.5175 5.337 11.4226 5.74295 11.1838 5.98177C10.9449 6.22059 10.4858 6.40874 10.2856 6.42925C10.4932 6.4531 10.9058 6.53047 11.2005 6.82523C11.4953 7.11998 11.5534 7.5529 11.5673 7.71094C11.5988 7.51403 11.7624 7.01965 11.992 6.79002Z" fill="#0000FF" stroke="#0000FF" stroke-width="0.0223688"/>
<path d="M1.59989 9.27036C1.77194 9.09831 2.10238 9.01583 2.24609 8.99609C2.08756 8.95704 1.7731 8.88154 1.59759 8.70603C1.42209 8.53053 1.30107 8.17055 1.28574 8.03574C1.24437 8.18172 1.17326 8.48587 0.994326 8.6648C0.815393 8.84373 0.471418 8.9847 0.321421 9.00006C0.47693 9.01793 0.786049 9.07591 1.00689 9.29674C1.22772 9.51758 1.2713 9.84194 1.28171 9.96035C1.30527 9.81282 1.42784 9.44241 1.59989 9.27036Z" fill="#0000FF" stroke="#0000FF" stroke-width="0.0167594"/>
<path d="M4.27716 9.36143C4.5068 9.13179 4.94783 9.0217 5.13965 8.99536C4.92805 8.94323 4.50835 8.84247 4.2741 8.60822C4.03985 8.37397 3.87832 7.89351 3.85787 7.71358C3.80265 7.90841 3.70774 8.31436 3.46892 8.55318C3.23009 8.792 2.77099 8.98015 2.57079 9.00066C2.77835 9.02451 3.19093 9.10189 3.48568 9.39664C3.78043 9.69139 3.8386 10.1243 3.85249 10.2824C3.88393 10.0854 4.04752 9.59106 4.27716 9.36143Z" fill="#0000FF" stroke="#0000FF" stroke-width="0.0223688"/>
<path d="M6.95443 9.45261C7.24165 9.16539 7.79329 9.0277 8.0332 8.99475C7.76854 8.92955 7.24359 8.80352 6.9506 8.51053C6.65761 8.21753 6.45558 7.61659 6.42999 7.39154C6.36093 7.63523 6.24221 8.14298 5.9435 8.44169C5.64479 8.7404 5.07056 8.97573 4.82016 9.00138C5.07976 9.03121 5.59581 9.12799 5.96447 9.49665C6.33314 9.86532 6.40589 10.4068 6.42326 10.6045C6.46259 10.3582 6.66721 9.73983 6.95443 9.45261Z" fill="#0000FF" stroke="#0000FF" stroke-width="0.0279781"/>
<path d="M9.52572 9.45261C9.81294 9.16539 10.3646 9.0277 10.6045 8.99475C10.3398 8.92955 9.81488 8.80352 9.52189 8.51053C9.2289 8.21753 9.02687 7.61659 9.00128 7.39154C8.93222 7.63523 8.8135 8.14298 8.51479 8.44169C8.21608 8.7404 7.64185 8.97573 7.39145 9.00138C7.65105 9.03121 8.1671 9.12799 8.53576 9.49665C8.90443 9.86532 8.97718 10.4068 8.99455 10.6045C9.03388 10.3582 9.2385 9.73983 9.52572 9.45261Z" fill="#0000FF" stroke="#0000FF" stroke-width="0.0279781"/>
<path d="M12.098 9.45261C12.3852 9.16539 12.9368 9.0277 13.1768 8.99475C12.9121 8.92955 12.3871 8.80352 12.0942 8.51053C11.8012 8.21753 11.5991 7.61659 11.5735 7.39154C11.5045 7.63523 11.3858 8.14298 11.0871 8.44169C10.7883 8.7404 10.2141 8.97573 9.96371 9.00138C10.2233 9.03121 10.7394 9.12799 11.108 9.49665C11.4767 9.86532 11.5494 10.4068 11.5668 10.6045C11.6061 10.3582 11.8108 9.73983 12.098 9.45261Z" fill="#0000FF" stroke="#0000FF" stroke-width="0.0279781"/>
<path d="M14.5633 9.36143C14.7929 9.13179 15.234 9.0217 15.4258 8.99536C15.2142 8.94323 14.7945 8.84247 14.5602 8.60822C14.326 8.37397 14.1645 7.89351 14.144 7.71358C14.0888 7.90841 13.9939 8.31436 13.755 8.55318C13.5162 8.792 13.0571 8.98015 12.8569 9.00066C13.0645 9.02451 13.4771 9.10189 13.7718 9.39664C14.0666 9.69139 14.1247 10.1243 14.1386 10.2824C14.1701 10.0854 14.3337 9.59106 14.5633 9.36143Z" fill="#0000FF" stroke="#0000FF" stroke-width="0.0223688"/>
<path d="M17.0286 9.27036C17.2007 9.09831 17.5311 9.01583 17.6748 8.99609C17.5163 8.95704 17.2018 8.88154 17.0263 8.70603C16.8508 8.53053 16.7298 8.17055 16.7145 8.03574C16.6731 8.18172 16.602 8.48587 16.423 8.6648C16.2441 8.84373 15.9001 8.9847 15.7501 9.00006C15.9056 9.01793 16.2148 9.07591 16.4356 9.29674C16.6564 9.51758 16.7 9.84194 16.7104 9.96035C16.734 9.81282 16.8565 9.44241 17.0286 9.27036Z" fill="#0000FF" stroke="#0000FF" stroke-width="0.0167594"/>
<path d="M6.84845 11.9328C7.07809 11.7032 7.51912 11.5931 7.71094 11.5668C7.49934 11.5146 7.07964 11.4139 6.84539 11.1796C6.61114 10.9454 6.44961 10.4649 6.42916 10.285C6.37394 10.4798 6.27903 10.8858 6.0402 11.1246C5.80138 11.3634 5.34228 11.5516 5.14208 11.5721C5.34964 11.5959 5.76222 11.6733 6.05697 11.968C6.35172 12.2628 6.40989 12.6957 6.42378 12.8538C6.45522 12.6568 6.61881 12.1625 6.84845 11.9328Z" fill="#0000FF" stroke="#0000FF" stroke-width="0.0223688"/>
<path d="M9.52572 12.024C9.81294 11.7368 10.3646 11.5991 10.6045 11.5662C10.3398 11.501 9.81488 11.3749 9.52189 11.0819C9.2289 10.7889 9.02687 10.188 9.00128 9.96295C8.93222 10.2066 8.8135 10.7144 8.51479 11.0131C8.21608 11.3118 7.64185 11.5471 7.39145 11.5728C7.65105 11.6026 8.1671 11.6994 8.53576 12.0681C8.90443 12.4367 8.97718 12.9782 8.99455 13.1759C9.03388 12.9296 9.2385 12.3112 9.52572 12.024Z" fill="#0000FF" stroke="#0000FF" stroke-width="0.0279781"/>
<path d="M11.992 11.9328C12.2216 11.7032 12.6627 11.5931 12.8545 11.5668C12.6429 11.5146 12.2232 11.4139 11.9889 11.1796C11.7547 10.9454 11.5932 10.4649 11.5727 10.285C11.5175 10.4798 11.4226 10.8858 11.1838 11.1246C10.9449 11.3634 10.4858 11.5516 10.2856 11.5721C10.4932 11.5959 10.9058 11.6733 11.2005 11.968C11.4953 12.2628 11.5534 12.6957 11.5673 12.8538C11.5988 12.6568 11.7624 12.1625 11.992 11.9328Z" fill="#0000FF" stroke="#0000FF" stroke-width="0.0223688"/>
<path d="M9.31376 14.4132C9.48581 14.2411 9.81625 14.1587 9.95996 14.1389C9.80143 14.0999 9.48697 14.0244 9.31146 13.8489C9.13595 13.6733 9.01493 13.3134 8.99961 13.1786C8.95824 13.3245 8.88713 13.6287 8.70819 13.8076C8.52926 13.9866 8.18528 14.1275 8.03529 14.1429C8.1908 14.1608 8.49992 14.2187 8.72075 14.4396C8.94159 14.6604 8.98517 14.9848 8.99558 15.1032C9.01914 14.9556 9.14171 14.5852 9.31376 14.4132Z" fill="#0000FF" stroke="#0000FF" stroke-width="0.0167594"/>
<path d="M9.31376 16.9847C9.48581 16.8126 9.81625 16.7301 9.95996 16.7104C9.80143 16.6713 9.48697 16.5958 9.31146 16.4203C9.13595 16.2448 9.01493 15.8848 8.99961 15.75C8.95824 15.896 8.88713 16.2002 8.70819 16.3791C8.52926 16.558 8.18528 16.699 8.03529 16.7144C8.1908 16.7322 8.49992 16.7902 8.72075 17.011C8.94159 17.2319 8.98517 17.5562 8.99558 17.6746C9.01914 17.5271 9.14171 17.1567 9.31376 16.9847Z" fill="#0000FF" stroke="#0000FF" stroke-width="0.0167594"/>
</g>
<defs>
<clipPath id="clip0_2606_38287">
<rect width="18" height="18" fill="white"/>
</clipPath>
</defs>
</svg>
